<svg width="633" height="290" viewBox="0 0 633 290" fill="none" xmlns="http://www.w3.org/2000/svg">
<g opacity="0.4" clip-path="url(#clip0_819_5465)">
<path d="M92.7122 309.392C216.304 350.203 416.694 350.203 540.301 309.392C663.907 268.582 663.892 202.421 540.301 161.611C416.709 120.801 216.304 120.792 92.6975 161.611C-30.909 202.43 -30.8942 268.582 92.7122 309.392Z" fill="#FAFAFA"/>
<path d="M95.3013 78.7186V133.466C95.3013 135.262 96.5638 136.002 98.1311 135.098L225.236 61.7067C226.058 61.1692 226.743 60.4459 227.235 59.5951C227.726 58.7443 228.011 57.7899 228.066 56.8089V2.01824C228.066 0.222359 226.792 -0.51776 225.236 0.385621L98.1311 73.7772C97.301 74.317 96.6114 75.0468 96.1193 75.906C95.6272 76.7653 95.3468 77.7294 95.3013 78.7186Z" fill="#F0F0F0"/>
<path d="M104.151 77.8581L142.245 55.8722C143.997 54.86 145.401 55.6763 145.401 57.6898V95.9693C145.342 97.061 145.024 98.1231 144.476 99.0689C143.927 100.015 143.163 100.817 142.245 101.411L104.151 123.408C102.409 124.409 100.994 123.593 100.994 121.58V83.3219C101.053 82.2271 101.37 81.1616 101.918 80.2121C102.467 79.2627 103.232 78.4562 104.151 77.8581Z" fill="#FAFAFA"/>
<path d="M134.996 74.9745L123.666 98.4624L117.897 95.1319C117.343 94.8289 116.693 94.7526 116.084 94.9191C115.475 95.0855 114.955 95.4818 114.632 96.0243L100.994 119.545V121.602C100.994 123.616 102.409 124.432 104.151 123.431L142.245 101.434C143.161 100.838 143.924 100.035 144.472 99.0894C145.021 98.144 145.339 97.0828 145.401 95.9917V82.5281L137.782 74.5391C137.612 74.3012 137.379 74.1152 137.11 74.002C136.84 73.8887 136.544 73.8527 136.255 73.8978C135.966 73.943 135.695 74.0676 135.473 74.2577C135.251 74.4478 135.086 74.696 134.996 74.9745Z" fill="#BA68C8"/>
<path d="M106.719 91.8658C109.073 90.3306 111.032 88.2622 112.437 85.8285C113.842 83.3947 114.654 80.6641 114.806 77.858C114.806 75.4961 114.044 73.7873 112.793 72.873L104.151 77.858C103.234 78.4539 102.471 79.257 101.923 80.2024C101.375 81.1478 101.056 82.2089 100.994 83.3V92.41C102.485 93.2808 104.488 93.1501 106.719 91.8658Z" fill="#BA68C8"/>
<path d="M159.616 49.4187L216.855 16.3636C218.161 15.6126 219.217 16.1459 219.217 17.5609C219.16 18.3538 218.916 19.1219 218.505 19.8028C218.095 20.4837 217.53 21.058 216.855 21.4792L159.616 54.5233C158.31 55.2743 157.254 54.741 157.254 53.3261C157.313 52.535 157.558 51.7691 157.968 51.0902C158.378 50.4114 158.943 49.8387 159.616 49.4187Z" fill="#FAFAFA"/>
<path d="M159.616 60.7273L216.855 27.6722C218.161 26.9212 219.217 27.4545 219.217 28.8695C219.16 29.6624 218.916 30.4305 218.505 31.1114C218.095 31.7923 217.53 32.3666 216.855 32.7878L159.616 65.8319C158.31 66.5829 157.254 66.0496 157.254 64.6456C157.311 63.8526 157.555 63.0845 157.966 62.4036C158.376 61.7227 158.941 61.1484 159.616 60.7273Z" fill="#FAFAFA"/>
<path d="M159.616 72.036L216.855 38.9919C218.161 38.2409 219.217 38.7742 219.217 40.1782C219.16 40.9712 218.916 41.7393 218.505 42.4202C218.095 43.101 217.53 43.6754 216.855 44.0965L159.616 77.1407C158.31 77.9026 157.254 77.3693 157.254 75.9543C157.311 75.1614 157.555 74.3933 157.966 73.7124C158.376 73.0315 158.941 72.4572 159.616 72.036Z" fill="#FAFAFA"/>
<path d="M159.616 83.3443L216.855 50.3001C218.161 49.5491 219.217 50.0825 219.217 51.4974C219.158 52.2884 218.913 53.0544 218.503 53.7332C218.093 54.4121 217.528 54.9847 216.855 55.4048L159.616 88.5143C158.31 89.2653 157.254 88.7319 157.254 87.317C157.303 86.5146 157.543 85.7356 157.954 85.0446C158.365 84.3536 158.934 83.7707 159.616 83.3443Z" fill="#FAFAFA"/>
<path d="M68.7441 250.97V170.634C68.7964 169.653 69.0801 168.697 69.5719 167.846C70.0636 166.995 70.7497 166.272 71.574 165.736L167.702 110.227C169.259 109.324 170.532 110.053 170.532 111.86V192.196C170.477 193.177 170.193 194.131 169.701 194.982C169.21 195.833 168.525 196.556 167.702 197.094L71.574 252.603C70.0067 253.506 68.7441 252.777 68.7441 250.97Z" fill="#F0F0F0"/>
<path d="M68.7441 246.954V250.97C68.7441 252.777 70.0067 253.506 71.574 252.603L167.702 197.094C168.525 196.556 169.21 195.833 169.701 194.982C170.193 194.132 170.477 193.177 170.532 192.196V188.169L68.7441 246.954Z" fill="#BA68C8"/>
<path d="M115.252 174.096L125.048 173.584C126.245 173.519 126.571 174.194 125.777 175.108L114.523 187.908C113.728 188.811 113.086 188.561 113.086 187.364V176.393C113.09 175.807 113.316 175.245 113.718 174.819C114.119 174.393 114.668 174.134 115.252 174.096Z" fill="#BA68C8"/>
<path d="M112.727 194.928C111.553 194.943 110.396 194.646 109.375 194.068C106.958 192.664 105.63 189.714 105.63 185.861C105.63 178.003 111.17 168.447 117.984 164.474C121.347 162.526 124.514 162.232 126.952 163.625C129.39 165.018 130.707 167.979 130.707 171.821C130.707 179.69 125.156 189.235 118.354 193.208C116.661 194.263 114.721 194.856 112.727 194.928ZM123.611 163.505C121.751 163.579 119.942 164.138 118.365 165.127C111.758 168.936 106.392 178.242 106.392 185.861C106.392 189.475 107.59 192.163 109.766 193.415C111.943 194.666 114.86 194.373 117.984 192.566C124.59 188.745 129.956 179.505 129.956 171.821C129.956 168.207 128.759 165.53 126.582 164.267C125.672 163.758 124.644 163.495 123.6 163.505H123.611Z" fill="#BA68C8"/>
<path d="M74.0445 95.9815L68.0909 92.5639C65.2501 90.6591 61.2992 90.7353 56.9346 93.2604C48.2273 98.2671 41.2397 110.969 41.2397 121.635V124.062C41.2397 134.729 55.585 146.31 55.585 146.31L61.4407 149.629C61.4407 149.629 57.9251 145.613 58.3278 144.786C62.2134 136.906 72.6078 114.637 72.6078 105.93V103.502C72.6298 101.746 72.4063 99.9946 71.9438 98.2998L72.6078 98.6807L74.0445 95.9815ZM56.9238 120.438C52.5701 122.941 49.0763 120.906 49.0763 115.91C51.4055 115.54 57.272 105.527 56.9238 102.316C61.2774 99.8127 64.7603 101.848 64.7712 106.844C64.6237 109.567 63.8363 112.217 62.4728 114.579C61.1093 116.941 59.2082 118.948 56.9238 120.438Z" fill="#BA68C8"/>
<g opacity="0.2">
<path opacity="0.2" d="M74.0445 95.9815L68.0909 92.5639C65.2501 90.6591 61.2992 90.7353 56.9346 93.2604C48.2273 98.2671 41.2397 110.969 41.2397 121.635V124.062C41.2397 134.729 55.585 146.31 55.585 146.31L61.4407 149.629C61.4407 149.629 57.9251 145.613 58.3278 144.786C62.2134 136.906 72.6078 114.637 72.6078 105.93V103.502C72.6298 101.746 72.4063 99.9946 71.9438 98.2998L72.6078 98.6807L74.0445 95.9815ZM56.9238 120.438C52.5701 122.941 49.0763 120.906 49.0763 115.91C51.4055 115.54 57.272 105.527 56.9238 102.316C61.2774 99.8127 64.7603 101.848 64.7712 106.844C64.6237 109.567 63.8363 112.217 62.4728 114.579C61.1093 116.941 59.2082 118.948 56.9238 120.438Z" fill="black"/>
</g>
<path d="M74.0442 95.9819C73.9791 95.9356 73.9099 95.8955 73.8374 95.8622C71.0402 94.2948 67.3069 94.5125 63.1927 96.8853C56.9888 100.477 51.6229 107.998 49.0434 115.911C48.0459 118.921 47.5172 122.067 47.4761 125.238V127.698C47.4761 135.916 56.782 145.45 61.0594 149.401C61.152 149.484 61.2502 149.56 61.3533 149.63C61.6048 149.784 61.8858 149.883 62.1782 149.922C62.4706 149.961 62.7679 149.938 63.0509 149.855C63.3339 149.772 63.5964 149.631 63.8214 149.44C64.0464 149.249 64.229 149.014 64.3573 148.748C68.0579 141.129 78.8223 118.403 78.8223 109.565V107.138C78.8876 101.653 77.0264 97.7778 74.0442 95.9819ZM55.4868 121.102C55.3964 120.585 55.3527 120.06 55.3562 119.535C55.4999 116.811 56.2845 114.159 57.6462 111.795C59.0079 109.431 60.9082 107.421 63.1927 105.93C63.6491 105.667 64.1259 105.441 64.6186 105.255C68.2756 103.927 71.0402 106.028 71.0402 110.458C70.8936 113.18 70.1065 115.829 68.7428 118.189C67.3792 120.549 65.4776 122.554 63.1927 124.041C59.3506 126.283 56.1507 124.934 55.4868 121.102Z" fill="#BA68C8"/>
<path d="M71.0402 110.468C70.8936 113.19 70.1065 115.839 68.7429 118.199C67.3792 120.559 65.4776 122.564 63.1928 124.051C59.3507 126.228 56.1507 124.933 55.4868 121.102C55.9856 120.926 56.4666 120.704 56.9235 120.438C59.2066 118.947 61.106 116.94 62.4676 114.578C63.8293 112.216 64.6147 109.566 64.7601 106.843C64.765 106.314 64.7176 105.785 64.6186 105.265C68.2756 103.937 71.0402 106.038 71.0402 110.468Z" fill="#BA68C8"/>
<g opacity="0.2">
<path opacity="0.2" d="M71.0402 110.468C70.8936 113.19 70.1065 115.839 68.7429 118.199C67.3792 120.559 65.4776 122.564 63.1928 124.051C59.3507 126.228 56.1507 124.933 55.4868 121.102C55.9856 120.926 56.4666 120.704 56.9235 120.438C59.2066 118.947 61.106 116.94 62.4676 114.578C63.8293 112.216 64.6147 109.566 64.7601 106.843C64.765 106.314 64.7176 105.785 64.6186 105.265C68.2756 103.937 71.0402 106.038 71.0402 110.468Z" fill="black"/>
</g>
<path d="M185.4 245.606C185.4 245.606 189.329 220.572 180.6 199.043C171.871 177.515 160.106 176.187 154.01 179.245C147.915 182.304 151.834 194.244 157.276 202.265C164.524 212.79 176.497 235.451 176.105 255.804L185.4 245.606Z" fill="#BA68C8"/>
<path opacity="0.2" d="M185.4 245.606C185.4 245.606 189.329 220.572 180.6 199.043C171.871 177.515 160.106 176.187 154.01 179.245C147.915 182.304 151.834 194.244 157.276 202.265C164.524 212.79 176.497 235.451 176.105 255.804L185.4 245.606Z" fill="black"/>
<path d="M181.481 247.194C181.384 247.191 181.288 247.169 181.199 247.128C181.11 247.088 181.03 247.03 180.964 246.958C180.898 246.886 180.847 246.801 180.814 246.709C180.782 246.617 180.768 246.519 180.774 246.421C182.211 212.147 165.09 186.559 157.7 181.574C157.619 181.52 157.55 181.45 157.496 181.369C157.442 181.288 157.405 181.197 157.386 181.101C157.367 181.006 157.367 180.907 157.387 180.812C157.406 180.717 157.444 180.626 157.498 180.545C157.553 180.465 157.622 180.395 157.703 180.341C157.784 180.288 157.875 180.25 157.971 180.232C158.066 180.213 158.165 180.213 158.26 180.232C158.355 180.252 158.446 180.29 158.527 180.344C167.234 186.156 183.691 212.321 182.243 246.487C182.24 246.583 182.218 246.679 182.178 246.767C182.139 246.855 182.081 246.934 182.011 247C181.94 247.066 181.856 247.117 181.765 247.15C181.675 247.184 181.578 247.199 181.481 247.194Z" fill="white"/>
<path d="M183.854 275.331C182.363 271.587 178.51 267.407 168.617 262.945C158.723 258.482 151.278 252.529 149.907 248.219C149.494 247.028 149.44 245.742 149.752 244.521C150.063 243.301 150.726 242.198 151.659 241.351C151.659 241.351 142.331 240.262 141.156 234.548C139.687 227.343 147.839 226.875 147.839 226.875C147.839 226.875 137.14 211.811 134.299 205.107C131.458 198.402 134.734 197.999 141.635 200.557C148.535 203.115 161.683 215.991 163.719 219.92C163.719 219.92 167.278 215.566 171.109 218.429C174.94 221.291 175.125 229.857 172.861 232.948C174.388 232.664 175.965 232.828 177.4 233.421C178.835 234.014 180.068 235.01 180.948 236.29C184.845 241.394 186.129 254.161 186.129 254.161L183.854 275.331Z" fill="#BA68C8"/>
<path d="M184.551 271.847C184.386 271.845 184.226 271.789 184.096 271.686C183.966 271.584 183.873 271.442 183.833 271.281C178.543 249.241 153.433 214.064 137.836 202.875C137.757 202.818 137.69 202.747 137.638 202.664C137.586 202.582 137.551 202.49 137.535 202.394C137.519 202.298 137.522 202.2 137.544 202.105C137.566 202.01 137.606 201.92 137.662 201.841C137.719 201.761 137.79 201.694 137.873 201.642C137.955 201.591 138.047 201.556 138.143 201.54C138.239 201.523 138.337 201.526 138.432 201.548C138.527 201.57 138.617 201.61 138.696 201.667C154.489 212.997 179.914 248.621 185.28 270.933C185.323 271.125 185.289 271.326 185.185 271.493C185.081 271.66 184.916 271.779 184.725 271.826L184.551 271.847Z" fill="white"/>
<path d="M381.564 49.9087C381.435 49.9071 381.308 49.8735 381.194 49.8108L378.136 48.0366C378.051 47.988 377.977 47.9233 377.918 47.8461C377.859 47.769 377.815 47.6809 377.79 47.5869C377.765 47.4929 377.758 47.3948 377.771 47.2983C377.784 47.2018 377.815 47.1087 377.864 47.0244C377.912 46.9401 377.977 46.8662 378.054 46.8068C378.131 46.7475 378.219 46.704 378.313 46.6787C378.407 46.6535 378.505 46.647 378.602 46.6596C378.698 46.6722 378.792 46.7037 378.876 46.7523L381.934 48.5264C382.019 48.5749 382.093 48.6396 382.152 48.7168C382.212 48.7939 382.255 48.882 382.28 48.9761C382.306 49.0701 382.312 49.1682 382.299 49.2647C382.287 49.3613 382.255 49.4544 382.206 49.5387C382.141 49.6513 382.048 49.7449 381.935 49.8098C381.822 49.8748 381.694 49.9089 381.564 49.9087Z" fill="white"/>
<path d="M183.854 114.441V276.375C183.854 278.181 185.117 278.911 186.673 278.007L375.556 168.959C376.379 168.422 377.064 167.698 377.555 166.848C378.047 165.997 378.331 165.042 378.386 164.061V2.12761C378.386 0.320852 377.113 -0.408384 375.556 0.494998L186.673 109.543C185.852 110.08 185.168 110.804 184.679 111.655C184.189 112.506 183.906 113.46 183.854 114.441Z" fill="#455A64"/>
<path d="M205.96 144.351C205.96 150 210.172 152.133 215.386 149.129L365.118 62.6764V42.2578L215.386 128.699C210.172 131.714 205.96 138.713 205.96 144.351Z" fill="#F5F5F5"/>
<path d="M377.853 34.9327C383.055 31.9287 387.278 34.0619 387.278 39.6999C387.278 45.3379 383.055 52.3472 377.853 55.3513L365.173 62.6763V42.2577L377.853 34.9327Z" fill="#BA68C8"/>
<path d="M373.282 52.1408C372.74 52.1484 372.206 52.0093 371.736 51.738C371.158 51.351 370.695 50.815 370.396 50.1866C370.097 49.5583 369.974 48.8609 370.038 48.1681C370.116 46.4645 370.602 44.8045 371.454 43.3274C372.306 41.8502 373.5 40.5989 374.936 39.6784C375.484 39.2314 376.155 38.9618 376.86 38.9056C377.565 38.8493 378.271 39.009 378.883 39.3635C379.495 39.718 379.985 40.2504 380.287 40.8899C380.589 41.5295 380.689 42.2458 380.574 42.9437C380.493 44.6466 380.006 46.3056 379.154 47.7823C378.302 49.259 377.11 50.5108 375.676 51.4333C374.954 51.8748 374.128 52.1188 373.282 52.1408ZM377.32 40.4403C376.736 40.4692 376.169 40.6492 375.676 40.9628C374.474 41.7614 373.473 42.8275 372.752 44.0775C372.03 45.3276 371.608 46.7276 371.518 48.1681C371.406 48.6015 371.439 49.0598 371.612 49.4727C371.786 49.8856 372.089 50.2303 372.477 50.4539C372.865 50.6775 373.316 50.7677 373.76 50.7107C374.204 50.6536 374.617 50.4525 374.936 50.1381C376.139 49.3407 377.141 48.2749 377.863 47.0246C378.584 45.7743 379.006 44.3736 379.094 42.9328C379.15 42.5012 379.09 42.0626 378.922 41.6612C378.754 41.2598 378.483 40.91 378.136 40.6471C377.888 40.505 377.606 40.4335 377.32 40.4403Z" fill="white"/>
<path d="M380.029 79.622L235.271 163.147C234.445 163.681 233.758 164.403 233.266 165.255C232.774 166.106 232.491 167.062 232.441 168.044V212.593C232.441 214.4 233.703 215.129 235.271 214.226L380.029 130.668C380.854 130.133 381.54 129.41 382.032 128.559C382.523 127.708 382.807 126.752 382.859 125.771V81.2546C382.805 79.4478 381.542 78.7186 380.029 79.622Z" fill="#BA68C8"/>
<path opacity="0.2" d="M380.029 79.622L235.271 163.147C234.445 163.681 233.758 164.403 233.266 165.255C232.774 166.106 232.491 167.062 232.441 168.044V212.593C232.441 214.4 233.703 215.129 235.271 214.226L380.029 130.668C380.854 130.133 381.54 129.41 382.032 128.559C382.523 127.708 382.807 126.752 382.859 125.771V81.2546C382.805 79.4478 381.542 78.7186 380.029 79.622Z" fill="white"/>
<path d="M287.896 140.192L314.127 125.041C315.433 124.29 316.489 124.824 316.489 126.239C316.429 127.03 316.185 127.796 315.774 128.474C315.364 129.153 314.8 129.726 314.127 130.146L287.896 145.297C286.59 146.048 285.534 145.514 285.534 144.099C285.593 143.308 285.838 142.542 286.248 141.864C286.659 141.185 287.223 140.612 287.896 140.192Z" fill="white"/>
<path d="M285.534 154.309C285.534 155.724 286.622 156.257 287.896 155.506L367.186 109.727C367.858 109.304 368.421 108.729 368.829 108.049C369.238 107.368 369.48 106.601 369.537 105.809C369.537 104.405 368.449 103.872 367.186 104.623L287.896 150.401C287.223 150.821 286.658 151.394 286.248 152.073C285.838 152.752 285.593 153.518 285.534 154.309Z" fill="white"/>
<path d="M285.534 164.519C285.534 165.934 286.622 166.467 287.896 165.716L367.186 119.937C367.858 119.514 368.421 118.939 368.829 118.259C369.238 117.578 369.48 116.811 369.537 116.019C369.537 114.615 368.449 114.082 367.186 114.833L287.896 160.611C287.223 161.031 286.658 161.604 286.248 162.283C285.838 162.962 285.593 163.728 285.534 164.519Z" fill="white"/>
<path d="M285.534 174.728C285.534 176.143 286.622 176.676 287.896 175.925L367.186 130.146C367.858 129.723 368.421 129.148 368.829 128.468C369.238 127.787 369.48 127.02 369.537 126.228C369.537 124.824 368.449 124.291 367.186 125.042L287.896 170.82C287.223 171.24 286.658 171.813 286.248 172.492C285.838 173.171 285.593 173.937 285.534 174.728Z" fill="white"/>
<path d="M239.734 165.694L273.866 145.982C275.434 145.09 276.696 145.819 276.696 147.615V181.933C276.643 182.914 276.359 183.869 275.867 184.72C275.376 185.571 274.69 186.294 273.866 186.83L239.734 206.531C238.177 207.434 236.904 206.705 236.904 204.909V170.591C236.956 169.61 237.24 168.654 237.732 167.803C238.223 166.952 238.909 166.229 239.734 165.694Z" fill="white"/>
<path d="M267.379 163.114L257.224 184.164L252.054 181.181C251.555 180.893 250.962 180.815 250.404 180.964C249.847 181.113 249.372 181.477 249.083 181.976L236.904 203.058V204.898C236.904 206.705 238.177 207.434 239.734 206.53L273.866 186.83C274.691 186.295 275.377 185.572 275.868 184.721C276.36 183.869 276.644 182.914 276.696 181.932V169.884L269.828 162.722C269.673 162.522 269.466 162.367 269.23 162.274C268.995 162.181 268.738 162.154 268.488 162.194C268.238 162.234 268.003 162.34 267.808 162.502C267.613 162.664 267.465 162.875 267.379 163.114Z" fill="#BA68C8"/>
<path d="M242.03 178.254C244.14 176.878 245.897 175.023 247.156 172.841C248.415 170.658 249.143 168.21 249.279 165.694C249.351 164.859 249.226 164.018 248.912 163.241C248.598 162.464 248.104 161.771 247.472 161.221L239.734 165.694C238.909 166.23 238.223 166.953 237.732 167.804C237.24 168.655 236.956 169.61 236.904 170.592V178.755C238.221 179.517 240.028 179.408 242.03 178.254Z" fill="#BA68C8"/>
<path d="M380.03 145.983L235.271 229.507C234.447 230.043 233.761 230.766 233.269 231.617C232.777 232.468 232.494 233.424 232.441 234.405V278.986C232.441 280.782 233.704 281.512 235.271 280.619L380.03 197.04C380.854 196.504 381.54 195.782 382.032 194.93C382.524 194.079 382.808 193.124 382.86 192.142V147.615C382.805 145.819 381.543 145.112 380.03 145.983Z" fill="#BA68C8"/>
<path opacity="0.2" d="M380.03 145.983L235.271 229.507C234.447 230.043 233.761 230.766 233.269 231.617C232.777 232.468 232.494 233.424 232.441 234.405V278.986C232.441 280.782 233.704 281.512 235.271 280.619L380.03 197.04C380.854 196.504 381.54 195.782 382.032 194.93C382.524 194.079 382.808 193.124 382.86 192.142V147.615C382.805 145.819 381.543 145.112 380.03 145.983Z" fill="white"/>
<path d="M287.896 206.553L314.127 191.413C315.433 190.662 316.489 191.195 316.489 192.599C316.431 193.392 316.187 194.16 315.777 194.841C315.366 195.522 314.801 196.096 314.127 196.517L287.896 211.657C286.59 212.408 285.534 211.875 285.534 210.471C285.592 209.678 285.836 208.91 286.246 208.229C286.656 207.548 287.222 206.974 287.896 206.553Z" fill="white"/>
<path d="M285.534 220.681C285.534 222.085 286.622 222.618 287.896 221.867L367.186 176.088C367.857 175.666 368.418 175.093 368.827 174.414C369.235 173.736 369.478 172.971 369.537 172.181C369.537 170.766 368.449 170.233 367.186 170.984L287.896 216.762C287.221 217.183 286.656 217.758 286.245 218.439C285.835 219.12 285.591 219.888 285.534 220.681Z" fill="white"/>
<path d="M285.534 230.89C285.534 232.294 286.622 232.827 287.896 232.076L367.186 186.297C367.857 185.875 368.418 185.302 368.827 184.623C369.235 183.945 369.478 183.18 369.537 182.39C369.537 180.975 368.449 180.442 367.186 181.193L287.896 226.971C287.221 227.392 286.656 227.967 286.245 228.648C285.835 229.329 285.591 230.097 285.534 230.89Z" fill="white"/>
<path d="M285.534 241.1C285.534 242.504 286.623 243.037 287.896 242.286L367.187 196.507C367.857 196.085 368.419 195.512 368.827 194.833C369.236 194.155 369.479 193.39 369.538 192.6C369.538 191.185 368.449 190.652 367.187 191.403L287.896 237.181C287.222 237.602 286.656 238.177 286.246 238.858C285.836 239.538 285.592 240.307 285.534 241.1Z" fill="white"/>
<path d="M239.734 232.066L273.866 212.354C275.434 211.451 276.696 212.18 276.696 213.987V248.294C276.646 249.276 276.363 250.232 275.871 251.083C275.379 251.935 274.692 252.657 273.866 253.192L239.734 272.903C238.177 273.806 236.904 273.077 236.904 271.27V236.963C236.956 235.982 237.24 235.026 237.732 234.175C238.223 233.324 238.909 232.601 239.734 232.066Z" fill="white"/>
<path d="M267.379 229.486L257.224 250.536L252.054 247.543C251.807 247.4 251.533 247.308 251.249 247.272C250.966 247.235 250.678 247.255 250.402 247.33C250.126 247.405 249.868 247.533 249.641 247.708C249.415 247.882 249.225 248.1 249.083 248.348L236.904 269.431V271.27C236.904 273.077 238.177 273.806 239.734 272.903L273.866 253.191C274.69 252.658 275.376 251.937 275.868 251.088C276.36 250.239 276.644 249.285 276.696 248.304V236.245L269.828 229.094C269.675 228.891 269.469 228.733 269.232 228.638C268.996 228.542 268.738 228.513 268.486 228.554C268.234 228.594 267.998 228.702 267.803 228.866C267.608 229.03 267.462 229.245 267.379 229.486Z" fill="#BA68C8"/>
<path d="M242.03 244.615C244.14 243.24 245.896 241.388 247.156 239.207C248.415 237.026 249.143 234.58 249.279 232.065C249.351 231.23 249.226 230.389 248.912 229.612C248.598 228.835 248.104 228.142 247.472 227.592L239.734 232.065C238.909 232.601 238.223 233.324 237.732 234.175C237.24 235.026 236.956 235.981 236.904 236.963V245.126C238.221 245.877 240.028 245.768 242.03 244.615Z" fill="#BA68C8"/>
<path d="M378.386 9.0608V2.12761C378.386 0.320852 377.113 -0.408384 375.556 0.494997L186.684 109.543C185.86 110.079 185.174 110.801 184.682 111.653C184.19 112.504 183.907 113.459 183.854 114.441V121.385L378.386 9.0608Z" fill="#BA68C8"/>
<path d="M355.214 14.8942C354.605 15.294 354.099 15.8313 353.736 16.4628C353.373 17.0943 353.163 17.8022 353.124 18.5295C353.124 19.8683 354.06 20.4125 355.214 19.7377C355.826 19.3434 356.336 18.8091 356.701 18.1789C357.067 17.5487 357.277 16.8407 357.314 16.1132C357.314 14.7745 356.378 14.2303 355.214 14.8942Z" fill="#F5F5F5"/>
<path d="M363.54 10.1492C362.929 10.5478 362.421 11.0846 362.056 11.7161C361.691 12.3477 361.48 13.0562 361.439 13.7845C361.439 15.1233 362.386 15.6566 363.54 14.9927C364.153 14.596 364.663 14.0597 365.028 13.4277C365.393 12.7958 365.603 12.0862 365.641 11.3574C365.641 9.9642 364.705 9.43088 363.54 10.1492Z" fill="#F5F5F5"/>
<path d="M371.867 5.29477C371.254 5.68906 370.744 6.22335 370.379 6.85354C370.014 7.48374 369.804 8.19177 369.766 8.91918C369.766 10.2579 370.702 10.8021 371.867 10.1382C372.476 9.73839 372.982 9.20109 373.345 8.56963C373.708 7.93817 373.917 7.23022 373.957 6.50291C373.957 5.16417 373.02 4.61996 371.867 5.29477Z" fill="#F5F5F5"/>
<path d="M392.961 112.289C392.961 112.289 393.878 102.51 394.806 102.592C395.733 102.675 395.888 104.406 395.774 105.251C395.661 106.096 395.774 109.373 395.774 109.373L392.961 112.289Z" fill="#E69DFF"/>
<path d="M476.875 104.283L472.186 137.259L493.827 231.798L434.058 236.579L459.82 84.3323C459.82 84.3323 476.824 82.4053 476.875 104.283Z" fill="#263238"/>
<path d="M403.39 270.699L399.938 309.714H414.684L421.187 270.699H403.39Z" fill="#E69DFF"/>
<path d="M458.429 273.893L488.643 297.842L495.826 287.331L468.816 257.931L458.429 273.893Z" fill="#E69DFF"/>
<path d="M486.51 298.43C486.51 298.43 481.862 307.323 481.904 309.518L496.578 287.96L494.96 286.342L486.51 298.43Z" fill="#E69DFF"/>
<path d="M481.904 309.518L482.759 310.116L497.897 287.939L496.98 287.29L481.904 309.518Z" fill="#7E57C2"/>
<path d="M494.507 285.621C494.651 285.683 493.899 287.383 493.528 289.609C493.157 291.835 493.26 293.669 493.105 293.731C492.51 290.962 493.012 288.069 494.507 285.662V285.621Z" fill="#7E57C2"/>
<path d="M493.682 285.054C492.549 286.934 491.271 288.722 489.859 290.402C488.574 292.191 487.155 293.879 485.613 295.452C486.747 293.567 488.029 291.775 489.447 290.093C490.721 288.302 492.138 286.617 493.682 285.054Z" fill="#7E57C2"/>
<path d="M490.436 281.396C489.668 283.679 488.741 285.907 487.664 288.063C486.742 290.285 485.661 292.438 484.428 294.504C485.198 292.223 486.124 289.999 487.2 287.846C488.118 285.619 489.2 283.463 490.436 281.396Z" fill="#7E57C2"/>
<path d="M490.426 281.715C490.477 281.715 489.993 282.365 488.962 283.076C488.363 283.494 487.716 283.84 487.035 284.106C486.634 284.269 486.221 284.4 485.799 284.498C485.541 284.554 485.274 284.554 485.016 284.498C484.866 284.459 484.728 284.387 484.61 284.287C484.492 284.187 484.398 284.062 484.336 283.921C484.281 283.769 484.268 283.606 484.299 283.448C484.33 283.29 484.403 283.144 484.511 283.024C484.679 282.839 484.874 282.68 485.088 282.55C486.09 281.915 487.261 281.595 488.447 281.633C489.128 281.599 489.802 281.779 490.374 282.148C490.374 282.231 489.632 281.963 488.447 282.004C487.347 282.033 486.276 282.368 485.356 282.973C484.995 283.189 484.686 283.508 484.799 283.725C484.893 283.865 485.033 283.968 485.195 284.017C485.356 284.066 485.53 284.057 485.685 283.993C486.083 283.906 486.475 283.796 486.86 283.663C487.519 283.429 488.157 283.139 488.767 282.797C489.807 282.159 490.374 281.654 490.426 281.715Z" fill="#7E57C2"/>
<path d="M490.642 282.024C489.976 281.948 489.349 281.668 488.849 281.22C488.269 280.789 487.773 280.254 487.386 279.644C487.152 279.282 486.962 278.895 486.819 278.489C486.736 278.275 486.67 278.055 486.623 277.83C486.581 277.687 486.57 277.536 486.591 277.389C486.613 277.241 486.666 277.1 486.747 276.975C486.848 276.852 486.979 276.758 487.127 276.702C487.275 276.646 487.436 276.63 487.592 276.655C487.848 276.702 488.089 276.812 488.293 276.975C488.636 277.24 488.948 277.544 489.22 277.881C489.688 278.442 490.038 279.09 490.251 279.788C490.487 280.414 490.523 281.098 490.354 281.746C490.233 281.127 490.082 280.515 489.9 279.912C489.66 279.279 489.312 278.693 488.87 278.18C488.612 277.887 488.326 277.622 488.015 277.387C487.716 277.139 487.314 277.088 487.17 277.284C487.025 277.48 487.17 277.954 487.303 278.314C487.433 278.673 487.599 279.019 487.798 279.345C488.147 279.925 488.585 280.447 489.097 280.89C489.962 281.705 490.673 281.942 490.642 282.024Z" fill="#7E57C2"/>
<path d="M496.774 283.889C495.64 283.958 494.505 283.782 493.446 283.374C492.324 283.124 491.27 282.635 490.354 281.941C492.495 282.541 494.622 283.19 496.733 283.889H496.774Z" fill="#7E57C2"/>
<path d="M496.681 281.653C495.642 282.207 494.478 282.487 493.301 282.467C492.13 282.619 490.94 282.463 489.849 282.014C489.849 281.869 491.405 282.014 493.27 281.952C495.135 281.89 496.598 281.498 496.681 281.653Z" fill="#7E57C2"/>
<path d="M429.306 156.188C429.306 156.188 417.765 232.848 419.444 236.568C421.124 240.288 458.49 278.54 458.49 278.54L472.515 254.519C472.515 254.519 447.783 227.118 448.144 225.665C448.505 224.212 465.972 150.016 465.972 150.016L429.306 156.188Z" fill="#7E57C2"/>
<path d="M431.965 251.057L441.817 229.417L453.153 205.117C446.257 215.09 440.387 225.734 435.634 236.888C433.787 241.427 432.554 246.192 431.965 251.057Z" fill="#7E57C2"/>
<path opacity="0.4" d="M431.965 251.057L441.817 229.417L453.153 205.117C446.257 215.09 440.387 225.734 435.634 236.888C433.787 241.427 432.554 246.192 431.965 251.057Z" fill="black"/>
<path d="M425.205 184.487C425.318 183.673 434.624 162.743 434.624 162.743L430.1 156.374L429.306 156.199L425.205 184.487Z" fill="#7E57C2"/>
<path opacity="0.4" d="M425.205 184.487C425.318 183.673 434.624 162.743 434.624 162.743L430.1 156.374L429.306 156.199L425.205 184.487Z" fill="black"/>
<path d="M472.526 148.976L473.217 151.82C475.282 160.208 474.023 169.071 469.703 176.552L438.416 230.787C436.195 234.64 434.579 238.81 433.625 243.153L425.834 278.191C425.834 278.191 401.236 279.025 400.174 278.191C399.113 277.356 403.348 254.159 406.172 236.589C408.305 223.337 426.03 182.209 434.624 162.784L429.307 156.23L438.581 154.695L472.526 148.976Z" fill="#7E57C2"/>
<path d="M425.834 278.149C425.498 278.246 425.152 278.302 424.803 278.314C424.144 278.386 423.206 278.469 422.031 278.541C419.692 278.695 416.446 278.809 412.87 278.798C409.294 278.788 406.048 278.685 403.709 278.561C402.534 278.51 401.586 278.448 400.937 278.396C400.588 278.405 400.241 278.36 399.906 278.262C400.246 278.202 400.592 278.181 400.937 278.201H403.709L412.86 278.283C416.436 278.283 419.661 278.232 422 278.18L424.783 278.108C425.133 278.068 425.488 278.082 425.834 278.149Z" fill="#263238"/>
<path d="M427.184 271.565C427.184 271.709 421.269 271.802 413.983 271.771C406.697 271.74 400.772 271.606 400.772 271.472C400.772 271.338 406.687 271.235 413.983 271.256C421.279 271.276 427.184 271.42 427.184 271.565Z" fill="#263238"/>
<path d="M468.218 249.553C468.086 249.897 467.909 250.223 467.693 250.521L466.096 253.056L460.799 261.393L455.523 269.74L453.905 272.265C453.724 272.588 453.502 272.886 453.245 273.151C453.364 272.79 453.527 272.444 453.729 272.121C454.07 271.502 454.574 270.606 455.203 269.514C456.481 267.329 458.295 264.361 460.356 261.074C462.417 257.786 464.364 254.891 465.797 252.83C466.518 251.799 467.105 250.954 467.528 250.377C467.723 250.075 467.955 249.798 468.218 249.553Z" fill="#263238"/>
<path d="M457.017 276.47C456.462 275.459 456.059 274.372 455.821 273.244C455.419 272.166 455.182 271.034 455.121 269.885C455.674 270.892 456.077 271.975 456.316 273.1C456.716 274.182 456.952 275.318 457.017 276.47Z" fill="#263238"/>
<path d="M459.202 276.398C458.646 274.638 458.256 272.83 458.037 270.998C457.652 269.195 457.438 267.359 457.398 265.516C458.335 269.079 458.938 272.722 459.202 276.398Z" fill="#263238"/>
<path d="M462.056 272.326C461.508 270.791 461.077 269.217 460.768 267.617C460.289 266.059 459.944 264.463 459.737 262.846C460.438 264.325 460.95 265.886 461.262 267.493C461.738 269.062 462.005 270.687 462.056 272.326Z" fill="#263238"/>
<path d="M464.488 266.69C463.93 265.224 463.539 263.699 463.324 262.145C462.932 260.622 462.71 259.06 462.664 257.487C463.21 258.961 463.601 260.487 463.829 262.042C464.215 263.563 464.436 265.121 464.488 266.69Z" fill="#263238"/>
<path d="M467.631 262.022C467.167 260.55 466.798 259.049 466.529 257.529C466.082 256.046 465.738 254.535 465.498 253.005C466.216 254.391 466.72 255.878 466.992 257.415C467.44 258.909 467.656 260.463 467.631 262.022Z" fill="#263238"/>
<path d="M470.434 258.065C469.875 256.906 469.48 255.674 469.259 254.407C468.867 253.178 468.638 251.903 468.579 250.614C469.523 253.005 470.147 255.51 470.434 258.065Z" fill="#263238"/>
<path d="M413.024 271.307C411.048 272.53 409.008 273.648 406.914 274.656C404.908 275.822 402.845 276.885 400.73 277.84C401.238 277.375 401.802 276.977 402.41 276.655C403.441 275.985 404.997 275.109 406.707 274.202C408.418 273.296 409.995 272.543 411.149 272.028C411.741 271.708 412.371 271.466 413.024 271.307Z" fill="#263238"/>
<path d="M420.609 271.42C420.013 271.913 419.363 272.338 418.672 272.687C417.435 273.398 415.715 274.336 413.767 275.305C411.819 276.274 410.016 277.067 408.697 277.613C408.005 277.956 407.275 278.216 406.522 278.386C407.166 277.942 407.857 277.572 408.583 277.283L413.561 274.841L418.528 272.368C419.186 271.978 419.884 271.66 420.609 271.42Z" fill="#263238"/>
<path d="M426.38 271.42C424.911 272.905 423.295 274.238 421.557 275.398C419.916 276.69 418.153 277.819 416.292 278.767C417.859 277.396 419.515 276.129 421.248 274.975C422.885 273.687 424.599 272.5 426.38 271.42Z" fill="#263238"/>
<path d="M427.009 275.047C427.101 275.16 426.143 276.077 424.865 277.025C424.144 277.69 423.31 278.22 422.402 278.592C423 277.813 423.729 277.143 424.556 276.613C425.276 275.952 426.106 275.422 427.009 275.047Z" fill="#263238"/>
<path d="M406.296 271.183C405.338 272.05 404.271 272.788 403.122 273.378C402.054 274.113 400.893 274.702 399.669 275.129C401.694 273.526 403.922 272.199 406.296 271.183Z" fill="#263238"/>
<path d="M433.944 162.558C433.587 163.73 433.149 164.877 432.635 165.989C431.79 168.05 430.574 170.987 429.358 174.233C428.142 177.479 427.019 180.416 426.267 182.477C425.888 183.639 425.434 184.776 424.906 185.878C424.941 185.551 425.013 185.23 425.123 184.92C425.298 184.312 425.566 183.436 425.916 182.354C426.617 180.2 427.658 177.201 428.905 174.017C430.152 170.833 431.398 167.906 432.336 165.845C432.81 164.814 433.202 163.99 433.49 163.423C433.604 163.117 433.757 162.826 433.944 162.558Z" fill="#263238"/>
<path d="M431.378 253.51C431.355 253.308 431.355 253.104 431.378 252.902C431.43 252.449 431.512 251.872 431.594 251.171C431.677 250.47 431.821 249.501 432.058 248.44C432.295 247.379 432.481 246.173 432.852 244.864C433.027 244.215 433.212 243.524 433.398 242.803C433.583 242.082 433.851 241.36 434.088 240.598C434.542 239.073 435.17 237.506 435.789 235.796C437.238 232.181 438.882 228.649 440.714 225.212C444.104 219.014 447.844 213.013 451.916 207.24C453.451 205.014 454.729 203.232 455.626 202.005L456.656 200.604C456.773 200.435 456.904 200.276 457.048 200.13C456.97 200.32 456.87 200.5 456.749 200.666C456.491 201.037 456.182 201.521 455.791 202.119L452.215 207.446C449.278 211.95 445.156 218.205 441.209 225.418C439.387 228.837 437.74 232.345 436.273 235.93C435.644 237.599 434.995 239.176 434.531 240.691C434.284 241.453 434.026 242.175 433.82 242.875C433.614 243.576 433.429 244.266 433.254 244.936C432.862 246.235 432.625 247.44 432.378 248.481C432.13 249.522 431.955 250.439 431.831 251.181C431.708 251.923 431.605 252.449 431.522 252.892C431.496 253.102 431.447 253.309 431.378 253.51Z" fill="#263238"/>
<path d="M462.056 84.4141L437.849 86.4751C437.849 86.4751 430.636 86.64 422.722 105.024L417.033 123.264L427.266 125.449V126.479L429.327 156.189L472.979 149.161C473.072 145.389 470.918 139.886 469.342 134.734C470.98 130.663 477.874 112.897 477.864 104.344C477.864 86.0526 462.046 84.4759 462.046 84.4759" fill="white"/>
<path d="M472.516 254.5C472.413 254.861 472.264 255.207 472.072 255.531C471.753 256.159 471.279 257.056 470.671 258.158C469.455 260.364 467.703 263.373 465.725 266.66L460.613 275.038L459.067 277.594C458.9 277.918 458.693 278.219 458.449 278.49C458.552 278.129 458.701 277.783 458.892 277.46C459.212 276.831 459.686 275.935 460.294 274.832C461.51 272.627 463.262 269.618 465.24 266.33L470.31 257.921L471.856 255.376C472.04 255.059 472.262 254.765 472.516 254.5Z" fill="#263238"/>
<path d="M466.797 128.098C465.728 128.615 464.57 128.919 463.386 128.994C462.226 129.226 461.031 129.226 459.872 128.994C461.002 128.701 462.158 128.518 463.324 128.448C464.468 128.221 465.63 128.104 466.797 128.098Z" fill="white"/>
<path d="M429.41 126.645L428.915 158.889L442.003 85.4552C437.654 84.6824 429.544 88.1036 426.493 92.4421C424.309 95.0389 423.113 101.016 417.033 119.008L413.303 131.22L398.175 114.66L387.983 123.872C387.983 123.872 405.564 152.593 412.911 154.18C422.907 156.344 429.399 126.645 429.399 126.645" fill="#455A64"/>
<path d="M431.502 96.8115C431.509 97.2345 431.464 97.6568 431.368 98.0687C431.234 98.9756 431.059 100.13 430.842 101.459C430.399 104.324 429.812 108.281 429.266 112.671C428.719 117.061 428.338 121.049 428.07 123.934C427.946 125.295 427.843 126.439 427.751 127.345C427.745 127.77 427.686 128.192 427.576 128.603C427.533 128.181 427.533 127.757 427.576 127.335C427.576 126.521 427.648 125.357 427.73 123.903C427.895 121.008 428.235 117.009 428.761 112.568C429.286 108.126 429.956 104.211 430.492 101.356C430.77 99.9339 431.007 98.7798 431.182 97.9863C431.252 97.5857 431.359 97.1925 431.502 96.8115Z" fill="#263238"/>
<path d="M428.111 95.3996C428.06 95.2553 430.09 94.3691 432.398 92.9676C434.707 91.5661 436.386 90.1234 436.52 90.2367C434.269 92.7098 431.365 94.496 428.142 95.3893L428.111 95.3996Z" fill="white"/>
<path d="M423.928 116.659C423.406 115.466 422.982 114.232 422.66 112.97C422.176 111.763 421.79 110.519 421.506 109.25C422.884 111.495 423.714 114.034 423.928 116.659Z" fill="white"/>
<path d="M434.542 105.055C434.684 106.491 434.58 107.941 434.232 109.342C434.055 110.779 433.626 112.174 432.965 113.464C433.134 112.051 433.389 110.651 433.727 109.269C433.91 107.849 434.182 106.441 434.542 105.055Z" fill="white"/>
<path d="M419.816 133.168C419.822 134.435 419.719 135.701 419.507 136.95C419.454 138.222 419.296 139.487 419.033 140.732C418.712 138.184 418.98 135.596 419.816 133.168Z" fill="white"/>
<path d="M400.473 132.91C399.348 131.688 398.423 130.297 397.732 128.788C396.888 127.355 396.27 125.802 395.897 124.182C396.74 125.595 397.504 127.053 398.185 128.551C399.025 129.962 399.788 131.417 400.473 132.91Z" fill="white"/>
<path d="M411.541 133.703C410.729 134.476 409.768 135.076 408.717 135.465C407.732 136.01 406.644 136.344 405.522 136.444C406.463 135.863 407.461 135.379 408.501 135.002C409.468 134.467 410.486 134.032 411.541 133.703Z" fill="white"/>
<path d="M463.952 143.885L471.526 233.92L494.342 231.767L472.681 137.228L475.329 111.847L463.952 143.885Z" fill="#455A64"/>
<path d="M471.527 233.92C471.393 233.92 469.713 213.959 467.786 189.309C465.859 164.66 464.426 144.678 464.56 144.668C464.694 144.658 466.384 164.619 468.301 189.268C470.218 213.918 471.671 233.91 471.527 233.92Z" fill="#263238"/>
<path d="M469.332 145.967C469.487 144.932 469.811 143.929 470.29 142.999C470.622 142.008 471.109 141.076 471.733 140.237C471.262 142.269 470.45 144.206 469.332 145.967Z" fill="white"/>
<path d="M475.628 159.363C475.504 159.455 474.371 158.136 472.773 156.724C471.752 155.929 470.772 155.083 469.836 154.189C471.073 154.664 472.194 155.399 473.124 156.343C474.161 157.163 475.014 158.192 475.628 159.363Z" fill="white"/>
<path d="M474.236 177.427C474.649 176.368 475.128 175.335 475.669 174.336C476.053 173.254 476.504 172.198 477.019 171.172C476.991 172.349 476.688 173.503 476.132 174.542C475.736 175.639 475.087 176.628 474.236 177.427Z" fill="white"/>
<path d="M479.162 191.927C476.957 190.482 474.954 188.749 473.206 186.774C474.335 187.432 475.374 188.232 476.298 189.155C477.369 189.95 478.332 190.882 479.162 191.927Z" fill="white"/>
<path d="M483.284 201.881C482.961 198.99 482.982 196.07 483.346 193.184C483.583 194.62 483.659 196.079 483.573 197.532C483.646 198.988 483.55 200.448 483.284 201.881Z" fill="white"/>
<path d="M475.968 208.642C475.676 207.511 475.493 206.355 475.422 205.19C475.189 204.046 475.061 202.884 475.041 201.717C475.573 202.778 475.891 203.933 475.978 205.117C476.209 206.281 476.206 207.479 475.968 208.642Z" fill="white"/>
<path d="M483.521 217.257C481.334 217.276 479.157 216.953 477.07 216.298C478.164 216.2 479.267 216.277 480.337 216.525C481.43 216.603 482.504 216.85 483.521 217.257Z" fill="white"/>
<path d="M482.254 228.716C483.34 226.477 484.727 224.397 486.376 222.533C485.919 223.695 485.301 224.788 484.542 225.779C483.913 226.855 483.143 227.843 482.254 228.716Z" fill="white"/>
<path d="M430.337 154.808L392.013 102.603C394.284 100.853 396.41 98.9236 398.371 96.8319C406.543 88.0844 411.499 76.8192 412.427 64.8845C413.355 52.9497 410.199 41.054 403.477 31.1486C396.755 21.2432 386.866 13.9164 375.433 10.37C364 6.82354 351.7 7.26812 340.553 11.6308C329.405 15.9934 320.072 24.0151 314.082 34.3799C308.093 44.7448 305.805 56.8373 307.592 68.674C309.379 80.5106 315.135 91.3885 323.918 99.5232C332.7 107.658 343.986 112.566 355.924 113.444C357.807 113.581 359.696 113.616 361.582 113.547C369.254 113.311 376.781 111.397 383.635 107.941L422.351 160.682C423.133 161.736 424.302 162.436 425.6 162.629C426.898 162.822 428.22 162.493 429.276 161.713C430.328 160.935 431.031 159.773 431.229 158.479C431.428 157.186 431.107 155.866 430.337 154.808ZM361.293 103.654C359.761 103.704 358.227 103.677 356.697 103.571C345.739 102.782 335.502 97.8166 328.097 89.7006C320.692 81.5845 316.684 70.9362 316.899 59.9518C317.115 48.9673 321.537 38.4844 329.255 30.6649C336.972 22.8454 347.396 18.2857 358.377 17.9261C359.927 17.8743 361.478 17.9053 363.025 18.0189C373.966 18.8364 384.177 23.8158 391.559 31.9328C398.941 40.0497 402.931 50.6869 402.709 61.6562C402.488 72.6254 398.071 83.0927 390.367 90.9046C382.663 98.7165 372.258 103.279 361.293 103.654Z" fill="#263238"/>
<path d="M415.117 126.418L410.572 141.948C410.572 141.948 434.356 150.594 447.238 150.429C459.305 150.285 462.757 148.914 467.003 139.176C471.248 129.437 476.071 118.246 477.102 111.764C477.102 111.764 483.913 82.0961 457.924 84.7445L457.203 107.941C457.203 107.941 454.328 117.453 454.111 118.009C452.174 123.162 449.659 130.653 447.227 131.56C444.795 132.467 415.117 126.418 415.117 126.418Z" fill="#455A64"/>
<path d="M452.441 138.857C450.527 136.607 449.027 134.035 448.01 131.262C448.89 132.436 449.666 133.684 450.329 134.992C451.139 136.22 451.845 137.512 452.441 138.857Z" fill="#263238"/>
<path d="M454.874 136.414C453.632 135.774 452.473 134.985 451.422 134.064C450.279 133.278 449.24 132.35 448.33 131.303C449.569 131.948 450.728 132.736 451.782 133.652C452.925 134.439 453.964 135.367 454.874 136.414Z" fill="#263238"/>
<path d="M462.953 94.1016C462.198 96.5802 461.282 99.007 460.212 101.367C459.301 103.791 458.23 106.153 457.007 108.436C457.753 105.956 458.666 103.529 459.738 101.171C460.649 98.7447 461.723 96.383 462.953 94.1016Z" fill="#263238"/>
<path d="M476.071 116.185C476.004 116.591 475.89 116.989 475.731 117.37C475.443 118.215 475.082 119.276 474.701 120.523C473.753 123.182 472.423 126.85 470.857 130.828C469.29 134.806 467.765 138.423 466.508 140.968C465.9 142.246 465.385 143.266 465.004 143.957C464.835 144.323 464.624 144.669 464.375 144.987C464.485 144.591 464.637 144.207 464.828 143.843C465.189 143.029 465.632 141.999 466.168 140.752C467.302 138.165 468.796 134.569 470.372 130.57C471.949 126.572 473.299 123.027 474.35 120.265C474.866 118.957 475.298 117.895 475.597 117.174C475.724 116.83 475.883 116.499 476.071 116.185Z" fill="#263238"/>
<path d="M437.85 130.879C437.85 131.024 432.697 130.199 426.288 129.045C419.878 127.891 414.787 126.84 414.818 126.706C414.849 126.572 419.971 127.386 426.38 128.54C432.79 129.694 437.881 130.745 437.85 130.879Z" fill="#263238"/>
<path d="M464.818 116.721C464.505 113.934 464.543 111.12 464.931 108.343C465.165 109.728 465.231 111.136 465.127 112.537C465.196 113.939 465.092 115.344 464.818 116.721Z" fill="white"/>
<path d="M455.554 145.246C455.934 144.166 456.392 143.116 456.924 142.103C457.303 141.021 457.757 139.967 458.285 138.949C458.245 140.121 457.942 141.269 457.398 142.309C457.007 143.412 456.377 144.414 455.554 145.246Z" fill="white"/>
<path d="M442.971 144.441C441.557 142.063 440.22 139.64 438.962 137.176C439.949 138.174 440.76 139.33 441.363 140.597C442.113 141.778 442.656 143.078 442.971 144.441Z" fill="white"/>
<path d="M425.576 136.414C424.533 137.105 423.399 137.65 422.207 138.032C421.078 138.567 419.882 138.949 418.651 139.165C419.695 138.474 420.829 137.93 422.021 137.548C423.15 137.011 424.345 136.63 425.576 136.414Z" fill="white"/>
<path d="M474.371 100.006C474.258 100.099 473.114 98.9758 471.465 97.8011C469.816 96.6263 468.312 96.0183 468.373 95.874C469.607 96.0901 470.768 96.6068 471.753 97.3786C472.832 98.0219 473.732 98.9254 474.371 100.006Z" fill="white"/>
<path d="M466.951 125.624C464.313 126.573 461.497 126.925 458.707 126.655C460.064 126.36 461.443 126.171 462.829 126.088C464.19 125.833 465.568 125.678 466.951 125.624Z" fill="white"/>
<path d="M464.509 46.1821C465.204 44.917 466.31 43.9272 467.645 43.3762C468.979 42.8253 470.461 42.7464 471.846 43.1524C473.217 43.603 474.46 44.3765 475.47 45.4077C476.479 46.4389 477.226 47.6976 477.648 49.0778C478.462 51.857 478.515 54.8036 477.803 57.6104C477.349 59.6714 476.772 62.0519 478.112 63.6389C479.451 65.2258 481.739 65.0816 483.213 66.3594C483.576 66.6789 483.87 67.0696 484.077 67.5074C484.283 67.9451 484.397 68.4206 484.413 68.9043C484.428 69.3881 484.343 69.8698 484.165 70.3196C483.986 70.7694 483.717 71.1777 483.374 71.5192C483.031 71.8607 482.621 72.1282 482.171 72.305C481.72 72.4818 481.238 72.5642 480.755 72.5471C480.271 72.53 479.796 72.4137 479.359 72.2055C478.922 71.9973 478.533 71.7016 478.215 71.3367C478.215 72.7691 478.998 74.0779 479.441 75.4588C479.884 76.8396 479.946 78.5503 478.854 79.4674C478.42 79.7805 477.911 79.9723 477.378 80.023C476.845 80.0737 476.309 79.9815 475.824 79.756C474.856 79.2967 473.979 78.6646 473.237 77.8908C473.742 79.3706 473.742 80.9761 473.237 82.4559C472.965 83.1858 472.509 83.833 471.913 84.3349C471.318 84.8368 470.602 85.1764 469.837 85.3207C468.867 85.3924 467.897 85.1727 467.052 84.6898C466.208 84.207 465.527 83.4829 465.096 82.6105C464.269 80.8473 463.958 78.8857 464.2 76.953C464.416 73.9439 465.23 70.9967 465.56 68.0082C466.09 65.0128 465.702 61.9272 464.447 59.1562" fill="#7E57C2"/>
<path d="M481.976 63.7532C481.976 63.7532 481.852 63.8253 481.584 63.7532C481.392 63.7217 481.21 63.6457 481.052 63.5311C480.895 63.4166 480.766 63.2668 480.677 63.0937C480.532 62.8067 480.494 62.4771 480.572 62.1649C480.649 61.8527 480.837 61.5788 481.1 61.3933C481.438 61.1349 481.858 61.0064 482.284 61.031C482.709 61.0555 483.112 61.2316 483.418 61.5273C483.779 61.8777 484.035 62.3218 484.157 62.8098C484.279 63.2978 484.262 63.8101 484.109 64.2891C483.975 64.8342 483.685 65.3284 483.274 65.7112C482.822 66.1172 482.243 66.3539 481.636 66.381C481.013 66.4205 480.392 66.2849 479.842 65.9894C479.276 65.6706 478.803 65.2086 478.472 64.6497C477.821 63.4847 477.588 62.1319 477.812 60.8163C478.194 58.1679 479.471 55.9523 479.441 53.7264C479.47 51.7616 478.933 49.8299 477.895 48.1617C477.196 47.0307 476.286 46.0443 475.215 45.2556C474.453 44.6992 473.969 44.4931 473.999 44.4415C474.03 44.39 474.123 44.4415 474.36 44.5755C474.697 44.7203 475.021 44.8926 475.329 45.0907C476.477 45.839 477.456 46.8182 478.204 47.9659C479.329 49.6795 479.924 51.6868 479.915 53.7367C479.915 56.0965 478.668 58.3843 478.317 60.8884C478.111 62.0858 478.318 63.3176 478.905 64.3818C479.169 64.861 479.562 65.2573 480.039 65.5266C480.515 65.7959 481.057 65.9276 481.605 65.907C482.088 65.878 482.55 65.694 482.921 65.3822C483.293 65.0704 483.554 64.6474 483.666 64.1757C483.806 63.7691 483.832 63.3314 483.739 62.9112C483.646 62.491 483.439 62.1047 483.14 61.7952C482.896 61.5465 482.571 61.3923 482.224 61.3603C481.877 61.3282 481.53 61.4202 481.244 61.6201C481.024 61.7652 480.861 61.9825 480.784 62.2345C480.707 62.4865 480.72 62.7575 480.821 63.0009C480.894 63.156 480.999 63.294 481.128 63.4059C481.258 63.5178 481.41 63.601 481.574 63.6502C481.831 63.7532 481.965 63.7223 481.976 63.7532Z" fill="#7E57C2"/>
<path d="M458.13 85.3212L459.511 53.8702L447.021 44.4102L435.686 49.9646C435.686 49.9646 435.304 64.2165 435.686 70.3995C436.067 76.5825 442.301 77.2421 442.301 77.2421C442.301 77.2421 442.157 80.8591 442.013 84.672C441.972 85.764 442.154 86.8528 442.546 87.8726C442.939 88.8924 443.534 89.822 444.296 90.6052C445.058 91.3883 445.971 92.0088 446.979 92.429C447.988 92.8493 449.072 93.0605 450.164 93.05C452.228 93.023 454.203 92.2072 455.684 90.77C457.166 89.3328 458.041 87.3832 458.13 85.3212Z" fill="#E69DFF"/>
<path d="M442.271 77.2418C445.209 77.1161 448.052 76.1545 450.463 74.4697C450.463 74.4697 448.608 79.0142 442.404 78.7566L442.271 77.2418Z" fill="#BF56E3"/>
<path d="M477.493 71.6458C476.712 71.6753 475.937 71.4975 475.247 71.1306C474.228 70.5874 473.382 69.7699 472.804 68.7707C472.094 67.5158 471.484 66.2064 470.98 64.8548C469.826 61.9797 468.919 59.3107 468.363 57.363L468.105 56.5077C468.105 56.178 468.002 55.8791 467.951 55.6627C464.571 42.7711 453.245 40.37 450.999 40.37C448.752 40.37 444.393 39.051 438.262 45.4195C437.342 46.3774 436.562 47.4597 435.943 48.6347C434.582 50.3261 433.645 52.3191 433.212 54.4467C432.93 55.4528 432.881 56.5102 433.068 57.5382C433.182 57.5382 433.202 56.3738 433.676 54.5807C433.963 53.5271 434.364 52.5078 434.872 51.5407C434.336 53.9219 434.555 56.411 435.5 58.6615L437.695 58.0535L445.568 55.3742C444.847 52.9422 445.908 49.9125 446.496 48.5007L446.557 48.4492C446.998 51.0185 448.243 53.3815 450.114 55.1968C451.985 57.0121 454.384 58.1857 456.966 58.5481L458.419 78.7976C468.889 76.5614 468.641 62.5568 468.579 59.7126C469.053 61.3099 469.672 63.1545 470.445 65.0815C470.954 66.4691 471.596 67.8046 472.361 69.0696C473.006 70.134 473.948 70.9865 475.072 71.5222C475.833 71.8776 476.682 72.0029 477.514 71.8829C477.819 71.855 478.111 71.7446 478.359 71.5634C478.069 71.5726 477.78 71.6002 477.493 71.6458Z" fill="#7E57C2"/>
<path d="M460.17 66.4219C460.066 65.3797 460.179 64.3273 460.5 63.3304C460.663 62.8411 460.954 62.4047 461.344 62.0674C461.734 61.73 462.208 61.5042 462.716 61.4136C463.315 61.3864 463.904 61.5818 464.368 61.9622C464.832 62.3427 465.139 62.8814 465.23 63.4747C465.298 64.0648 465.19 64.6619 464.918 65.1903C464.647 65.7187 464.225 66.1545 463.705 66.4425C463.176 66.7179 462.592 66.8702 461.996 66.888C461.4 66.9059 460.807 66.7888 460.263 66.5456" fill="#E69DFF"/>
<path d="M461.963 65.5256C461.963 65.4535 462.303 65.608 462.736 65.4741C463.009 65.381 463.245 65.2045 463.411 64.9696C463.578 64.7346 463.666 64.4533 463.664 64.1653C463.688 64.0204 463.682 63.8719 463.645 63.7297C463.607 63.5875 463.54 63.455 463.447 63.3409C463.255 63.1876 463.012 63.1138 462.767 63.1348C462.303 63.1348 461.984 63.2997 461.953 63.2276C461.922 63.1554 462.159 62.939 462.715 62.7742C462.892 62.7307 463.076 62.7267 463.254 62.7623C463.432 62.7979 463.6 62.8723 463.746 62.9803C463.907 63.1354 464.029 63.3264 464.103 63.5377C464.176 63.749 464.199 63.9746 464.168 64.1963C464.145 64.6215 463.982 65.0271 463.705 65.3504C463.472 65.6177 463.149 65.7901 462.798 65.8348C462.2 65.8966 461.922 65.5668 461.963 65.5256Z" fill="#BF56E3"/>
<path d="M463.818 66.3698C463.818 66.3698 464.282 66.6893 464.282 67.5137C464.261 67.9949 464.054 68.4491 463.705 68.7812C463.483 68.9827 463.219 69.1332 462.932 69.2222C462.646 69.3112 462.343 69.3365 462.046 69.2965C461.748 69.24 461.465 69.1184 461.22 68.9403C460.974 68.7621 460.77 68.5319 460.624 68.266C460.508 68.0515 460.437 67.8161 460.414 67.5736C460.391 67.3311 460.417 67.0865 460.49 66.8542C460.747 66.0607 461.273 65.8237 461.294 65.9061C461.314 65.9885 460.964 66.2668 460.84 66.9366C460.778 67.2543 460.817 67.5833 460.951 67.8778C461.085 68.1723 461.308 68.4177 461.588 68.5799C461.868 68.742 462.192 68.8128 462.514 68.7824C462.836 68.752 463.141 68.6219 463.385 68.4102C463.682 68.1679 463.873 67.8211 463.921 67.4415C463.934 67.0813 463.899 66.721 463.818 66.3698Z" fill="#263238"/>
<path d="M460.191 62.1142C459.962 62.3273 459.692 62.492 459.398 62.5985C458.608 62.9428 457.755 63.1183 456.894 63.1138C455.607 63.1075 454.341 62.7892 453.204 62.1863C451.833 61.4397 450.658 60.3806 449.773 59.0948C448.252 56.719 447.313 54.0182 447.032 51.2114C446.887 50.1809 446.815 49.2947 446.774 48.7073C446.721 48.3969 446.721 48.0799 446.774 47.7695C447.038 48.8883 447.245 50.0199 447.392 51.1599C447.773 53.8755 448.729 56.4787 450.195 58.7959C451.026 60.0172 452.121 61.0353 453.4 61.7741C454.466 62.3546 455.65 62.6858 456.863 62.7428C458.003 62.7542 459.134 62.5406 460.191 62.1142Z" fill="#7E57C2"/>
<path d="M467.127 53.2516C466.972 53.2516 466.508 51.4688 465.303 49.5315C464.097 47.5941 462.675 46.3678 462.778 46.2441C464.026 46.9545 465.051 48.0005 465.735 49.2635C466.567 50.4343 467.05 51.8173 467.127 53.2516Z" fill="#263238"/>
<path d="M411.036 140.36H407.398C404.09 140.041 402.245 139.989 401.318 139.113C400.081 137.928 401.782 136.774 401.782 136.774C401.782 136.774 399.391 135.95 399.618 134.497C399.762 133.466 400.895 133.394 400.895 133.394C400.895 133.394 398.834 132.57 398.371 131.684C397.804 130.488 399.288 129.849 399.288 129.849C396.413 128.077 396.681 126.315 397.34 126.139C398 125.964 400.246 127.005 400.246 127.005C402.142 127.541 407.315 129.118 405.399 126.263C403.482 123.409 403.09 120.503 403.523 119.637C403.617 119.41 403.79 119.223 404.009 119.112C404.229 119.001 404.481 118.972 404.72 119.031C404.959 119.089 405.169 119.231 405.313 119.431C405.456 119.631 405.523 119.876 405.502 120.121C405.798 121.245 406.253 122.32 406.852 123.316C407.307 124.118 407.888 124.841 408.573 125.459C409.387 126.181 410.108 126.758 410.726 127.242L413.962 130.334L411.036 140.36Z" fill="#E69DFF"/>
<path d="M388.396 104.056C388.663 103.273 389.313 102.716 390.013 103.087C390.153 103.251 390.247 103.449 390.287 103.66C390.327 103.872 390.31 104.09 390.24 104.293L387.994 111.599L390.116 106.447C390.384 105.664 391.095 105.19 391.58 105.612C391.7 105.782 391.779 105.978 391.81 106.184C391.84 106.39 391.821 106.6 391.755 106.797L389.818 112.867L391.394 109.075C391.724 108.209 392.105 107.972 392.548 108.168C392.992 108.364 393.002 108.992 392.899 109.343L391.569 113.815C391.858 114.681 392.847 117.391 391.889 118.916C391.889 118.988 391.992 119.246 391.982 119.328L392.435 119.843L389.508 122.533C389.508 122.533 386.757 115.577 386.231 113.485C385.908 112.281 385.966 111.007 386.396 109.837L388.396 104.056Z" fill="#E69DFF"/>
</g>
<defs>
<clipPath id="clip0_819_5465">
<rect width="633" height="290" fill="white"/>
</clipPath>
</defs>
</svg>
