<svg width="335" height="76" viewBox="0 0 335 76" fill="none" xmlns="http://www.w3.org/2000/svg">
<path d="M43 47L153 47" stroke="#EAEAEA" stroke-width="4"/>
<path d="M186 47L284 47" stroke="#EAEAEA" stroke-width="4"/>
<g filter="url(#filter0_d_464_49728)">
<circle cx="32.0001" cy="46.9994" r="16.3333" stroke="#965FC1" stroke-width="4" shape-rendering="crispEdges"/>
</g>
<path d="M31.9999 30.334C22.7999 30.334 15.3333 37.8007 15.3333 47.0007C15.3333 56.2007 22.7999 63.6673 31.9999 63.6673C41.1999 63.6673 48.6666 56.2007 48.6666 47.0007C48.6666 37.8007 41.1999 30.334 31.9999 30.334ZM31.9999 35.334C34.7666 35.334 36.9999 37.5673 36.9999 40.334C36.9999 43.1007 34.7666 45.334 31.9999 45.334C29.2333 45.334 26.9999 43.1007 26.9999 40.334C26.9999 37.5673 29.2333 35.334 31.9999 35.334ZM31.9999 59.0007C27.8333 59.0007 24.1499 56.8673 21.9999 53.634C22.0499 50.3173 28.6666 48.5007 31.9999 48.5007C35.3166 48.5007 41.9499 50.3173 41.9999 53.634C39.8499 56.8673 36.1666 59.0007 31.9999 59.0007Z" fill="#965FC1"/>
<path d="M9.86861 7.38281H7.69105C7.65128 7.10109 7.57008 6.85085 7.44744 6.6321C7.32481 6.41004 7.16738 6.22112 6.97514 6.06534C6.78291 5.90956 6.56084 5.79025 6.30895 5.70739C6.06037 5.62453 5.79025 5.5831 5.49858 5.5831C4.97159 5.5831 4.51255 5.71402 4.12145 5.97585C3.73035 6.23437 3.42708 6.61222 3.21165 7.10938C2.99621 7.60322 2.88849 8.20312 2.88849 8.90909C2.88849 9.63494 2.99621 10.2448 3.21165 10.7386C3.4304 11.2325 3.73532 11.6054 4.12642 11.8572C4.51752 12.1091 4.96993 12.2351 5.48366 12.2351C5.77202 12.2351 6.03883 12.197 6.28409 12.1207C6.53267 12.0445 6.75308 11.9335 6.94531 11.7876C7.13755 11.6385 7.29664 11.4579 7.42259 11.2457C7.55185 11.0336 7.64134 10.7917 7.69105 10.5199L9.86861 10.5298C9.81226 10.9972 9.6714 11.4479 9.44602 11.8821C9.22396 12.313 8.92401 12.6991 8.54617 13.0405C8.17164 13.3786 7.7242 13.647 7.20384 13.8459C6.68679 14.0414 6.1018 14.1392 5.44886 14.1392C4.54072 14.1392 3.72869 13.9337 3.01278 13.5227C2.30019 13.1117 1.73674 12.5168 1.32244 11.7379C0.911458 10.959 0.705966 10.0161 0.705966 8.90909C0.705966 7.79877 0.914773 6.85417 1.33239 6.07528C1.75 5.2964 2.31676 4.70312 3.03267 4.29545C3.74858 3.88447 4.55398 3.67898 5.44886 3.67898C6.03883 3.67898 6.5857 3.76184 7.08949 3.92756C7.59659 4.09328 8.04569 4.33523 8.43679 4.65341C8.82789 4.96828 9.14607 5.3544 9.39134 5.81179C9.63991 6.26918 9.79901 6.79285 9.86861 7.38281ZM13.5501 14.1442C13.0629 14.1442 12.6287 14.0597 12.2475 13.8906C11.8664 13.7183 11.5647 13.4647 11.3427 13.13C11.1239 12.7919 11.0146 12.371 11.0146 11.8672C11.0146 11.4429 11.0924 11.0866 11.2482 10.7983C11.404 10.5099 11.6161 10.2779 11.8846 10.1023C12.1531 9.92661 12.458 9.79403 12.7994 9.70455C13.1441 9.61506 13.5053 9.55208 13.8832 9.51562C14.3273 9.46922 14.6853 9.42614 14.957 9.38636C15.2288 9.34328 15.426 9.2803 15.5487 9.19744C15.6713 9.11458 15.7326 8.99195 15.7326 8.82955V8.79972C15.7326 8.48485 15.6332 8.24124 15.4343 8.06889C15.2388 7.89654 14.9603 7.81037 14.5991 7.81037C14.2179 7.81037 13.9147 7.89489 13.6893 8.06392C13.4639 8.22964 13.3147 8.43845 13.2418 8.69034L11.283 8.53125C11.3825 8.06723 11.578 7.66619 11.8697 7.32812C12.1613 6.98674 12.5375 6.7249 12.9982 6.54261C13.4622 6.35701 13.9992 6.2642 14.609 6.2642C15.0333 6.2642 15.4393 6.31392 15.8271 6.41335C16.2182 6.51278 16.5645 6.6669 16.8661 6.87571C17.171 7.08452 17.4113 7.35298 17.587 7.68111C17.7627 8.00592 17.8505 8.39536 17.8505 8.84943V14H15.842V12.9411H15.7823C15.6597 13.1797 15.4956 13.3902 15.2901 13.5724C15.0846 13.7514 14.8377 13.8923 14.5494 13.995C14.261 14.0945 13.9279 14.1442 13.5501 14.1442ZM14.1566 12.6825C14.4682 12.6825 14.7433 12.6212 14.9819 12.4986C15.2205 12.3726 15.4078 12.2036 15.5437 11.9915C15.6796 11.7794 15.7475 11.5391 15.7475 11.2706V10.4602C15.6812 10.5033 15.5901 10.5431 15.4741 10.5795C15.3614 10.6127 15.2338 10.6442 15.0913 10.674C14.9487 10.7005 14.8062 10.7254 14.6637 10.7486C14.5212 10.7685 14.3919 10.7867 14.2759 10.8033C14.0273 10.8397 13.8103 10.8977 13.6246 10.9773C13.439 11.0568 13.2949 11.1645 13.1921 11.3004C13.0894 11.433 13.038 11.5987 13.038 11.7976C13.038 12.0859 13.1424 12.3063 13.3512 12.4588C13.5633 12.608 13.8318 12.6825 14.1566 12.6825ZM22.3075 14.1243C21.7275 14.1243 21.2022 13.9751 20.7315 13.6768C20.2642 13.3752 19.893 12.9328 19.6179 12.3494C19.3461 11.7628 19.2102 11.0436 19.2102 10.1918C19.2102 9.31676 19.3511 8.58925 19.6328 8.00923C19.9145 7.4259 20.2891 6.99006 20.7564 6.7017C21.227 6.41004 21.7424 6.2642 22.3026 6.2642C22.7301 6.2642 23.0864 6.33712 23.3714 6.48295C23.6598 6.62547 23.8918 6.80445 24.0675 7.01989C24.2464 7.23201 24.3823 7.44081 24.4751 7.64631H24.5398V3.81818H26.6527V14H24.5646V12.777H24.4751C24.3757 12.9891 24.2348 13.1996 24.0526 13.4084C23.8736 13.6139 23.6399 13.7846 23.3516 13.9205C23.0665 14.0563 22.7185 14.1243 22.3075 14.1243ZM22.9787 12.4389C23.3201 12.4389 23.6084 12.3461 23.8438 12.1605C24.0824 11.9716 24.2647 11.7081 24.3906 11.37C24.5199 11.032 24.5845 10.6359 24.5845 10.1818C24.5845 9.72775 24.5215 9.33333 24.3956 8.99858C24.2696 8.66383 24.0874 8.4053 23.8487 8.22301C23.6101 8.04072 23.3201 7.94957 22.9787 7.94957C22.6307 7.94957 22.3374 8.04403 22.0987 8.23295C21.8601 8.42187 21.6795 8.68371 21.5568 9.01847C21.4342 9.35322 21.3729 9.741 21.3729 10.1818C21.3729 10.6259 21.4342 11.0187 21.5568 11.3601C21.6828 11.6982 21.8634 11.9633 22.0987 12.1555C22.3374 12.3445 22.6307 12.4389 22.9787 12.4389ZM30.5716 14.1442C30.0843 14.1442 29.6502 14.0597 29.269 13.8906C28.8878 13.7183 28.5862 13.4647 28.3642 13.13C28.1454 12.7919 28.036 12.371 28.036 11.8672C28.036 11.4429 28.1139 11.0866 28.2697 10.7983C28.4255 10.5099 28.6376 10.2779 28.9061 10.1023C29.1745 9.92661 29.4795 9.79403 29.8208 9.70455C30.1655 9.61506 30.5268 9.55208 30.9047 9.51562C31.3488 9.46922 31.7067 9.42614 31.9785 9.38636C32.2503 9.34328 32.4475 9.2803 32.5701 9.19744C32.6928 9.11458 32.7541 8.99195 32.7541 8.82955V8.79972C32.7541 8.48485 32.6547 8.24124 32.4558 8.06889C32.2602 7.89654 31.9818 7.81037 31.6206 7.81037C31.2394 7.81037 30.9361 7.89489 30.7108 8.06392C30.4854 8.22964 30.3362 8.43845 30.2633 8.69034L28.3045 8.53125C28.4039 8.06723 28.5995 7.66619 28.8912 7.32812C29.1828 6.98674 29.559 6.7249 30.0197 6.54261C30.4837 6.35701 31.0207 6.2642 31.6305 6.2642C32.0547 6.2642 32.4608 6.31392 32.8485 6.41335C33.2396 6.51278 33.586 6.6669 33.8876 6.87571C34.1925 7.08452 34.4328 7.35298 34.6085 7.68111C34.7842 8.00592 34.872 8.39536 34.872 8.84943V14H32.8635V12.9411H32.8038C32.6812 13.1797 32.5171 13.3902 32.3116 13.5724C32.1061 13.7514 31.8592 13.8923 31.5708 13.995C31.2825 14.0945 30.9494 14.1442 30.5716 14.1442ZM31.1781 12.6825C31.4896 12.6825 31.7647 12.6212 32.0034 12.4986C32.242 12.3726 32.4293 12.2036 32.5652 11.9915C32.7011 11.7794 32.769 11.5391 32.769 11.2706V10.4602C32.7027 10.5033 32.6116 10.5431 32.4956 10.5795C32.3829 10.6127 32.2553 10.6442 32.1127 10.674C31.9702 10.7005 31.8277 10.7254 31.6852 10.7486C31.5427 10.7685 31.4134 10.7867 31.2974 10.8033C31.0488 10.8397 30.8317 10.8977 30.6461 10.9773C30.4605 11.0568 30.3163 11.1645 30.2136 11.3004C30.1109 11.433 30.0595 11.5987 30.0595 11.7976C30.0595 12.0859 30.1639 12.3063 30.3727 12.4588C30.5848 12.608 30.8533 12.6825 31.1781 12.6825ZM42.8688 8.54119L40.9299 8.66051C40.8967 8.49479 40.8255 8.34564 40.7161 8.21307C40.6067 8.07718 40.4625 7.96946 40.2836 7.88991C40.1079 7.80705 39.8974 7.76562 39.6522 7.76562C39.324 7.76562 39.0473 7.83523 38.8219 7.97443C38.5965 8.11032 38.4838 8.29261 38.4838 8.52131C38.4838 8.7036 38.5568 8.85772 38.7026 8.98366C38.8484 9.10961 39.0987 9.2107 39.4533 9.28693L40.8354 9.56534C41.5778 9.7178 42.1313 9.96307 42.4959 10.3011C42.8605 10.6392 43.0428 11.0833 43.0428 11.6335C43.0428 12.134 42.8953 12.5732 42.6003 12.951C42.3087 13.3288 41.9076 13.6238 41.3972 13.8359C40.8901 14.0447 40.3051 14.1491 39.6422 14.1491C38.6313 14.1491 37.8259 13.9387 37.226 13.5178C36.6294 13.0935 36.2798 12.5168 36.177 11.7876L38.2601 11.6783C38.3231 11.9865 38.4756 12.2218 38.7175 12.3842C38.9595 12.5433 39.2694 12.6229 39.6472 12.6229C40.0184 12.6229 40.3167 12.5516 40.5421 12.4091C40.7708 12.2633 40.8868 12.076 40.8901 11.8473C40.8868 11.6551 40.8056 11.4976 40.6465 11.375C40.4874 11.2491 40.2421 11.1529 39.9107 11.0866L38.5882 10.8232C37.8425 10.674 37.2873 10.4155 36.9228 10.0476C36.5615 9.67969 36.3809 9.2107 36.3809 8.64062C36.3809 8.15009 36.5134 7.72751 36.7786 7.37287C37.0471 7.01823 37.4232 6.74479 37.9071 6.55256C38.3944 6.36032 38.9644 6.2642 39.6174 6.2642C40.5819 6.2642 41.3409 6.46804 41.8944 6.87571C42.4512 7.28338 42.776 7.83854 42.8688 8.54119ZM48.4382 6.36364V7.95455H43.8395V6.36364H48.4382ZM44.8835 4.53409H47.0014V11.6534C47.0014 11.849 47.0313 12.0014 47.0909 12.1108C47.1506 12.2169 47.2334 12.2914 47.3395 12.3345C47.4489 12.3776 47.5748 12.3991 47.7173 12.3991C47.8168 12.3991 47.9162 12.3909 48.0156 12.3743C48.1151 12.3544 48.1913 12.3395 48.2443 12.3295L48.5774 13.9055C48.4714 13.9387 48.3222 13.9768 48.13 14.0199C47.9377 14.0663 47.7041 14.0945 47.429 14.1044C46.9186 14.1243 46.4711 14.0563 46.0866 13.9006C45.7055 13.7448 45.4089 13.5028 45.1967 13.1747C44.9846 12.8466 44.8802 12.4323 44.8835 11.9318V4.53409ZM49.8178 14V6.36364H51.8711V7.69602H51.9506C52.0898 7.22206 52.3235 6.86411 52.6516 6.62216C52.9798 6.37689 53.3576 6.25426 53.7852 6.25426C53.8912 6.25426 54.0056 6.26089 54.1282 6.27415C54.2508 6.28741 54.3585 6.30563 54.4513 6.32883V8.2081C54.3519 8.17827 54.2144 8.15175 54.0387 8.12855C53.863 8.10535 53.7023 8.09375 53.5565 8.09375C53.2449 8.09375 52.9665 8.1617 52.7212 8.29759C52.4793 8.43016 52.2871 8.61577 52.1445 8.8544C52.0053 9.09304 51.9357 9.36813 51.9357 9.67969V14H49.8178ZM58.6412 14.1491C57.8689 14.1491 57.2011 13.9851 56.6376 13.657C56.0775 13.3255 55.6449 12.8648 55.34 12.2749C55.0351 11.6816 54.8826 10.9938 54.8826 10.2116C54.8826 9.42282 55.0351 8.73343 55.34 8.14347C55.6449 7.55019 56.0775 7.08949 56.6376 6.76136C57.2011 6.42992 57.8689 6.2642 58.6412 6.2642C59.4134 6.2642 60.0796 6.42992 60.6397 6.76136C61.2032 7.08949 61.6374 7.55019 61.9423 8.14347C62.2472 8.73343 62.3997 9.42282 62.3997 10.2116C62.3997 10.9938 62.2472 11.6816 61.9423 12.2749C61.6374 12.8648 61.2032 13.3255 60.6397 13.657C60.0796 13.9851 59.4134 14.1491 58.6412 14.1491ZM58.6511 12.5085C59.0024 12.5085 59.2958 12.4091 59.5311 12.2102C59.7664 12.008 59.9437 11.733 60.063 11.3849C60.1857 11.0369 60.247 10.6409 60.247 10.1967C60.247 9.7526 60.1857 9.35653 60.063 9.00852C59.9437 8.66051 59.7664 8.38542 59.5311 8.18324C59.2958 7.98106 59.0024 7.87997 58.6511 7.87997C58.2965 7.87997 57.9982 7.98106 57.7562 8.18324C57.5176 8.38542 57.3369 8.66051 57.2143 9.00852C57.095 9.35653 57.0353 9.7526 57.0353 10.1967C57.0353 10.6409 57.095 11.0369 57.2143 11.3849C57.3369 11.733 57.5176 12.008 57.7562 12.2102C57.9982 12.4091 58.2965 12.5085 58.6511 12.5085Z" fill="#965FC1"/>
<path d="M129.885 14V3.81818H133.902C134.674 3.81818 135.332 3.96567 135.876 4.26065C136.419 4.55232 136.834 4.95833 137.119 5.47869C137.407 5.99574 137.551 6.59233 137.551 7.26847C137.551 7.9446 137.405 8.54119 137.114 9.05824C136.822 9.57528 136.399 9.97798 135.846 10.2663C135.296 10.5547 134.629 10.6989 133.847 10.6989H131.287V8.97372H133.499C133.914 8.97372 134.255 8.90246 134.523 8.75994C134.795 8.61411 134.997 8.41359 135.13 8.15838C135.266 7.89986 135.334 7.60322 135.334 7.26847C135.334 6.9304 135.266 6.63542 135.13 6.38352C134.997 6.12831 134.795 5.93111 134.523 5.7919C134.252 5.64938 133.907 5.57812 133.489 5.57812H132.038V14H129.885ZM140.882 14.1442C140.395 14.1442 139.961 14.0597 139.58 13.8906C139.198 13.7183 138.897 13.4647 138.675 13.13C138.456 12.7919 138.347 12.371 138.347 11.8672C138.347 11.4429 138.424 11.0866 138.58 10.7983C138.736 10.5099 138.948 10.2779 139.217 10.1023C139.485 9.92661 139.79 9.79403 140.131 9.70455C140.476 9.61506 140.837 9.55208 141.215 9.51562C141.659 9.46922 142.017 9.42614 142.289 9.38636C142.561 9.34328 142.758 9.2803 142.881 9.19744C143.003 9.11458 143.065 8.99195 143.065 8.82955V8.79972C143.065 8.48485 142.965 8.24124 142.766 8.06889C142.571 7.89654 142.292 7.81037 141.931 7.81037C141.55 7.81037 141.247 7.89489 141.021 8.06392C140.796 8.22964 140.647 8.43845 140.574 8.69034L138.615 8.53125C138.714 8.06723 138.91 7.66619 139.202 7.32812C139.493 6.98674 139.87 6.7249 140.33 6.54261C140.794 6.35701 141.331 6.2642 141.941 6.2642C142.365 6.2642 142.771 6.31392 143.159 6.41335C143.55 6.51278 143.897 6.6669 144.198 6.87571C144.503 7.08452 144.743 7.35298 144.919 7.68111C145.095 8.00592 145.183 8.39536 145.183 8.84943V14H143.174V12.9411H143.114C142.992 13.1797 142.828 13.3902 142.622 13.5724C142.417 13.7514 142.17 13.8923 141.881 13.995C141.593 14.0945 141.26 14.1442 140.882 14.1442ZM141.489 12.6825C141.8 12.6825 142.075 12.6212 142.314 12.4986C142.553 12.3726 142.74 12.2036 142.876 11.9915C143.012 11.7794 143.08 11.5391 143.08 11.2706V10.4602C143.013 10.5033 142.922 10.5431 142.806 10.5795C142.693 10.6127 142.566 10.6442 142.423 10.674C142.281 10.7005 142.138 10.7254 141.996 10.7486C141.853 10.7685 141.724 10.7867 141.608 10.8033C141.359 10.8397 141.142 10.8977 140.957 10.9773C140.771 11.0568 140.627 11.1645 140.524 11.3004C140.421 11.433 140.37 11.5987 140.37 11.7976C140.37 12.0859 140.474 12.3063 140.683 12.4588C140.895 12.608 141.164 12.6825 141.489 12.6825ZM150.266 17.0227C149.58 17.0227 148.992 16.9283 148.501 16.7393C148.014 16.5537 147.626 16.3002 147.338 15.9787C147.049 15.6572 146.862 15.2959 146.776 14.8949L148.735 14.6314C148.794 14.7839 148.889 14.9264 149.018 15.0589C149.147 15.1915 149.318 15.2976 149.53 15.3771C149.746 15.46 150.007 15.5014 150.316 15.5014C150.776 15.5014 151.156 15.3887 151.454 15.1634C151.756 14.9413 151.907 14.5684 151.907 14.0447V12.6477H151.817C151.724 12.8598 151.585 13.0604 151.4 13.2493C151.214 13.4382 150.975 13.5923 150.684 13.7116C150.392 13.831 150.044 13.8906 149.64 13.8906C149.066 13.8906 148.544 13.758 148.074 13.4929C147.606 13.2244 147.233 12.8151 146.955 12.2649C146.68 11.7114 146.542 11.0121 146.542 10.1669C146.542 9.30185 146.683 8.57931 146.965 7.99929C147.247 7.41927 147.621 6.98509 148.088 6.69673C148.559 6.40838 149.074 6.2642 149.635 6.2642C150.062 6.2642 150.42 6.33712 150.708 6.48295C150.997 6.62547 151.229 6.80445 151.404 7.01989C151.583 7.23201 151.721 7.44081 151.817 7.64631H151.897V6.36364H154V14.0746C154 14.7242 153.841 15.2678 153.522 15.7053C153.204 16.1428 152.763 16.4709 152.2 16.6896C151.64 16.9117 150.995 17.0227 150.266 17.0227ZM150.311 12.2997C150.652 12.2997 150.94 12.2152 151.176 12.0462C151.414 11.8738 151.597 11.6286 151.723 11.3104C151.852 10.9889 151.917 10.6044 151.917 10.157C151.917 9.70952 151.854 9.32173 151.728 8.99361C151.602 8.66217 151.419 8.4053 151.181 8.22301C150.942 8.04072 150.652 7.94957 150.311 7.94957C149.963 7.94957 149.669 8.04403 149.431 8.23295C149.192 8.41856 149.011 8.67708 148.889 9.00852C148.766 9.33996 148.705 9.72277 148.705 10.157C148.705 10.5978 148.766 10.9789 148.889 11.3004C149.015 11.6186 149.195 11.8655 149.431 12.0412C149.669 12.2135 149.963 12.2997 150.311 12.2997ZM157.863 14.1442C157.375 14.1442 156.941 14.0597 156.56 13.8906C156.179 13.7183 155.877 13.4647 155.655 13.13C155.436 12.7919 155.327 12.371 155.327 11.8672C155.327 11.4429 155.405 11.0866 155.561 10.7983C155.717 10.5099 155.929 10.2779 156.197 10.1023C156.466 9.92661 156.77 9.79403 157.112 9.70455C157.457 9.61506 157.818 9.55208 158.196 9.51562C158.64 9.46922 158.998 9.42614 159.27 9.38636C159.541 9.34328 159.739 9.2803 159.861 9.19744C159.984 9.11458 160.045 8.99195 160.045 8.82955V8.79972C160.045 8.48485 159.946 8.24124 159.747 8.06889C159.551 7.89654 159.273 7.81037 158.912 7.81037C158.53 7.81037 158.227 7.89489 158.002 8.06392C157.776 8.22964 157.627 8.43845 157.554 8.69034L155.596 8.53125C155.695 8.06723 155.891 7.66619 156.182 7.32812C156.474 6.98674 156.85 6.7249 157.311 6.54261C157.775 6.35701 158.312 6.2642 158.922 6.2642C159.346 6.2642 159.752 6.31392 160.14 6.41335C160.531 6.51278 160.877 6.6669 161.179 6.87571C161.484 7.08452 161.724 7.35298 161.9 7.68111C162.075 8.00592 162.163 8.39536 162.163 8.84943V14H160.154V12.9411H160.095C159.972 13.1797 159.808 13.3902 159.603 13.5724C159.397 13.7514 159.15 13.8923 158.862 13.995C158.574 14.0945 158.24 14.1442 157.863 14.1442ZM158.469 12.6825C158.781 12.6825 159.056 12.6212 159.294 12.4986C159.533 12.3726 159.72 12.2036 159.856 11.9915C159.992 11.7794 160.06 11.5391 160.06 11.2706V10.4602C159.994 10.5033 159.903 10.5431 159.787 10.5795C159.674 10.6127 159.546 10.6442 159.404 10.674C159.261 10.7005 159.119 10.7254 158.976 10.7486C158.834 10.7685 158.704 10.7867 158.588 10.8033C158.34 10.8397 158.123 10.8977 157.937 10.9773C157.752 11.0568 157.607 11.1645 157.505 11.3004C157.402 11.433 157.35 11.5987 157.35 11.7976C157.35 12.0859 157.455 12.3063 157.664 12.4588C157.876 12.608 158.144 12.6825 158.469 12.6825ZM163.806 14V6.36364H165.825V7.71094H165.914C166.073 7.26349 166.338 6.91051 166.71 6.65199C167.081 6.39347 167.525 6.2642 168.042 6.2642C168.566 6.2642 169.011 6.39512 169.379 6.65696C169.747 6.91548 169.992 7.26681 170.115 7.71094H170.195C170.35 7.27344 170.632 6.92377 171.04 6.66193C171.451 6.39678 171.936 6.2642 172.496 6.2642C173.209 6.2642 173.787 6.49124 174.232 6.94531C174.679 7.39607 174.903 8.03575 174.903 8.86435V14H172.79V9.28196C172.79 8.85772 172.677 8.53954 172.452 8.32741C172.226 8.11529 171.945 8.00923 171.607 8.00923C171.222 8.00923 170.922 8.13187 170.707 8.37713C170.491 8.61908 170.384 8.93892 170.384 9.33665V14H168.33V9.23722C168.33 8.86269 168.223 8.56439 168.007 8.34233C167.795 8.12026 167.515 8.00923 167.167 8.00923C166.932 8.00923 166.719 8.06889 166.531 8.18821C166.345 8.30421 166.197 8.46828 166.088 8.6804C165.979 8.8892 165.924 9.13447 165.924 9.41619V14H163.806ZM180.056 14.1491C179.27 14.1491 178.594 13.9901 178.027 13.6719C177.464 13.3504 177.03 12.8963 176.725 12.3097C176.42 11.7197 176.267 11.022 176.267 10.2166C176.267 9.43111 176.42 8.74171 176.725 8.14844C177.03 7.55516 177.459 7.0928 178.012 6.76136C178.569 6.42992 179.222 6.2642 179.971 6.2642C180.475 6.2642 180.944 6.34541 181.378 6.50781C181.816 6.6669 182.197 6.9072 182.522 7.22869C182.85 7.55019 183.105 7.95455 183.287 8.44176C183.47 8.92566 183.561 9.49242 183.561 10.142V10.7237H177.113V9.41122H181.567C181.567 9.1063 181.501 8.83617 181.368 8.60085C181.236 8.36553 181.052 8.18158 180.816 8.04901C180.584 7.91312 180.314 7.84517 180.006 7.84517C179.685 7.84517 179.4 7.91974 179.151 8.06889C178.906 8.21473 178.713 8.41193 178.574 8.66051C178.435 8.90578 178.364 9.17921 178.36 9.48082V10.7287C178.36 11.1065 178.43 11.433 178.569 11.7081C178.712 11.9832 178.912 12.1953 179.171 12.3445C179.429 12.4936 179.736 12.5682 180.091 12.5682C180.326 12.5682 180.541 12.535 180.737 12.4688C180.932 12.4025 181.1 12.303 181.239 12.1705C181.378 12.0379 181.484 11.8755 181.557 11.6832L183.516 11.8125C183.417 12.2831 183.213 12.6941 182.904 13.0455C182.6 13.3935 182.205 13.6652 181.721 13.8608C181.241 14.053 180.685 14.1491 180.056 14.1491ZM187.061 9.58523V14H184.943V6.36364H186.961V7.71094H187.051C187.22 7.26681 187.503 6.91548 187.901 6.65696C188.299 6.39512 188.781 6.2642 189.348 6.2642C189.878 6.2642 190.34 6.38021 190.735 6.61222C191.129 6.84422 191.436 7.17566 191.654 7.60653C191.873 8.03409 191.983 8.54451 191.983 9.13778V14H189.865V9.51562C189.868 9.0483 189.749 8.68371 189.507 8.42188C189.265 8.15672 188.932 8.02415 188.507 8.02415C188.222 8.02415 187.971 8.08546 187.752 8.2081C187.536 8.33073 187.367 8.50971 187.245 8.74503C187.125 8.97704 187.064 9.2571 187.061 9.58523ZM197.714 6.36364V7.95455H193.115V6.36364H197.714ZM194.159 4.53409H196.277V11.6534C196.277 11.849 196.307 12.0014 196.366 12.1108C196.426 12.2169 196.509 12.2914 196.615 12.3345C196.724 12.3776 196.85 12.3991 196.993 12.3991C197.092 12.3991 197.192 12.3909 197.291 12.3743C197.39 12.3544 197.467 12.3395 197.52 12.3295L197.853 13.9055C197.747 13.9387 197.598 13.9768 197.405 14.0199C197.213 14.0663 196.979 14.0945 196.704 14.1044C196.194 14.1243 195.747 14.0563 195.362 13.9006C194.981 13.7448 194.684 13.5028 194.472 13.1747C194.26 12.8466 194.156 12.4323 194.159 11.9318V4.53409ZM202.461 14.1491C201.689 14.1491 201.021 13.9851 200.458 13.657C199.898 13.3255 199.465 12.8648 199.16 12.2749C198.855 11.6816 198.703 10.9938 198.703 10.2116C198.703 9.42282 198.855 8.73343 199.16 8.14347C199.465 7.55019 199.898 7.08949 200.458 6.76136C201.021 6.42992 201.689 6.2642 202.461 6.2642C203.234 6.2642 203.9 6.42992 204.46 6.76136C205.023 7.08949 205.458 7.55019 205.763 8.14347C206.068 8.73343 206.22 9.42282 206.22 10.2116C206.22 10.9938 206.068 11.6816 205.763 12.2749C205.458 12.8648 205.023 13.3255 204.46 13.657C203.9 13.9851 203.234 14.1491 202.461 14.1491ZM202.471 12.5085C202.823 12.5085 203.116 12.4091 203.351 12.2102C203.587 12.008 203.764 11.733 203.883 11.3849C204.006 11.0369 204.067 10.6409 204.067 10.1967C204.067 9.7526 204.006 9.35653 203.883 9.00852C203.764 8.66051 203.587 8.38542 203.351 8.18324C203.116 7.98106 202.823 7.87997 202.471 7.87997C202.117 7.87997 201.818 7.98106 201.577 8.18324C201.338 8.38542 201.157 8.66051 201.035 9.00852C200.915 9.35653 200.856 9.7526 200.856 10.1967C200.856 10.6409 200.915 11.0369 201.035 11.3849C201.157 11.733 201.338 12.008 201.577 12.2102C201.818 12.4091 202.117 12.5085 202.471 12.5085Z" fill="#EAEAEA"/>
<path d="M264.885 14V3.81818H271.626V5.59304H267.038V8.01918H271.179V9.79403H267.038V14H264.885ZM273.035 14V6.36364H275.153V14H273.035ZM274.099 5.37926C273.784 5.37926 273.514 5.27486 273.288 5.06605C273.066 4.85393 272.955 4.60038 272.955 4.3054C272.955 4.01373 273.066 3.76349 273.288 3.55469C273.514 3.34257 273.784 3.23651 274.099 3.23651C274.413 3.23651 274.682 3.34257 274.904 3.55469C275.129 3.76349 275.242 4.01373 275.242 4.3054C275.242 4.60038 275.129 4.85393 274.904 5.06605C274.682 5.27486 274.413 5.37926 274.099 5.37926ZM278.967 9.58523V14H276.849V6.36364H278.868V7.71094H278.957C279.126 7.26681 279.409 6.91548 279.807 6.65696C280.205 6.39512 280.687 6.2642 281.254 6.2642C281.784 6.2642 282.247 6.38021 282.641 6.61222C283.035 6.84422 283.342 7.17566 283.561 7.60653C283.779 8.03409 283.889 8.54451 283.889 9.13778V14H281.771V9.51562C281.774 9.0483 281.655 8.68371 281.413 8.42188C281.171 8.15672 280.838 8.02415 280.414 8.02415C280.129 8.02415 279.877 8.08546 279.658 8.2081C279.443 8.33073 279.274 8.50971 279.151 8.74503C279.032 8.97704 278.97 9.2571 278.967 9.58523ZM287.736 14.1442C287.248 14.1442 286.814 14.0597 286.433 13.8906C286.052 13.7183 285.75 13.4647 285.528 13.13C285.309 12.7919 285.2 12.371 285.2 11.8672C285.2 11.4429 285.278 11.0866 285.434 10.7983C285.59 10.5099 285.802 10.2779 286.07 10.1023C286.339 9.92661 286.644 9.79403 286.985 9.70455C287.33 9.61506 287.691 9.55208 288.069 9.51562C288.513 9.46922 288.871 9.42614 289.143 9.38636C289.414 9.34328 289.612 9.2803 289.734 9.19744C289.857 9.11458 289.918 8.99195 289.918 8.82955V8.79972C289.918 8.48485 289.819 8.24124 289.62 8.06889C289.424 7.89654 289.146 7.81037 288.785 7.81037C288.403 7.81037 288.1 7.89489 287.875 8.06392C287.649 8.22964 287.5 8.43845 287.427 8.69034L285.469 8.53125C285.568 8.06723 285.764 7.66619 286.055 7.32812C286.347 6.98674 286.723 6.7249 287.184 6.54261C287.648 6.35701 288.185 6.2642 288.795 6.2642C289.219 6.2642 289.625 6.31392 290.013 6.41335C290.404 6.51278 290.75 6.6669 291.052 6.87571C291.357 7.08452 291.597 7.35298 291.773 7.68111C291.948 8.00592 292.036 8.39536 292.036 8.84943V14H290.028V12.9411H289.968C289.845 13.1797 289.681 13.3902 289.476 13.5724C289.27 13.7514 289.023 13.8923 288.735 13.995C288.447 14.0945 288.113 14.1442 287.736 14.1442ZM288.342 12.6825C288.654 12.6825 288.929 12.6212 289.167 12.4986C289.406 12.3726 289.593 12.2036 289.729 11.9915C289.865 11.7794 289.933 11.5391 289.933 11.2706V10.4602C289.867 10.5033 289.776 10.5431 289.66 10.5795C289.547 10.6127 289.419 10.6442 289.277 10.674C289.134 10.7005 288.992 10.7254 288.849 10.7486C288.707 10.7685 288.577 10.7867 288.461 10.8033C288.213 10.8397 287.996 10.8977 287.81 10.9773C287.625 11.0568 287.48 11.1645 287.378 11.3004C287.275 11.433 287.224 11.5987 287.224 11.7976C287.224 12.0859 287.328 12.3063 287.537 12.4588C287.749 12.608 288.017 12.6825 288.342 12.6825ZM295.797 3.81818V14H293.679V3.81818H295.797ZM297.494 14V6.36364H299.612V14H297.494ZM298.558 5.37926C298.243 5.37926 297.973 5.27486 297.747 5.06605C297.525 4.85393 297.414 4.60038 297.414 4.3054C297.414 4.01373 297.525 3.76349 297.747 3.55469C297.973 3.34257 298.243 3.23651 298.558 3.23651C298.872 3.23651 299.141 3.34257 299.363 3.55469C299.588 3.76349 299.701 4.01373 299.701 4.3054C299.701 4.60038 299.588 4.85393 299.363 5.06605C299.141 5.27486 298.872 5.37926 298.558 5.37926ZM301.268 14V12.7372L305.007 8.10866V8.05398H301.398V6.36364H307.557V7.74077L304.047 12.255V12.3097H307.687V14H301.268ZM311.484 14.1442C310.996 14.1442 310.562 14.0597 310.181 13.8906C309.8 13.7183 309.498 13.4647 309.276 13.13C309.058 12.7919 308.948 12.371 308.948 11.8672C308.948 11.4429 309.026 11.0866 309.182 10.7983C309.338 10.5099 309.55 10.2779 309.818 10.1023C310.087 9.92661 310.392 9.79403 310.733 9.70455C311.078 9.61506 311.439 9.55208 311.817 9.51562C312.261 9.46922 312.619 9.42614 312.891 9.38636C313.162 9.34328 313.36 9.2803 313.482 9.19744C313.605 9.11458 313.666 8.99195 313.666 8.82955V8.79972C313.666 8.48485 313.567 8.24124 313.368 8.06889C313.172 7.89654 312.894 7.81037 312.533 7.81037C312.152 7.81037 311.848 7.89489 311.623 8.06392C311.397 8.22964 311.248 8.43845 311.175 8.69034L309.217 8.53125C309.316 8.06723 309.512 7.66619 309.803 7.32812C310.095 6.98674 310.471 6.7249 310.932 6.54261C311.396 6.35701 311.933 6.2642 312.543 6.2642C312.967 6.2642 313.373 6.31392 313.761 6.41335C314.152 6.51278 314.498 6.6669 314.8 6.87571C315.105 7.08452 315.345 7.35298 315.521 7.68111C315.696 8.00592 315.784 8.39536 315.784 8.84943V14H313.776V12.9411H313.716C313.593 13.1797 313.429 13.3902 313.224 13.5724C313.018 13.7514 312.771 13.8923 312.483 13.995C312.195 14.0945 311.862 14.1442 311.484 14.1442ZM312.09 12.6825C312.402 12.6825 312.677 12.6212 312.915 12.4986C313.154 12.3726 313.341 12.2036 313.477 11.9915C313.613 11.7794 313.681 11.5391 313.681 11.2706V10.4602C313.615 10.5033 313.524 10.5431 313.408 10.5795C313.295 10.6127 313.167 10.6442 313.025 10.674C312.882 10.7005 312.74 10.7254 312.597 10.7486C312.455 10.7685 312.326 10.7867 312.21 10.8033C311.961 10.8397 311.744 10.8977 311.558 10.9773C311.373 11.0568 311.228 11.1645 311.126 11.3004C311.023 11.433 310.972 11.5987 310.972 11.7976C310.972 12.0859 311.076 12.3063 311.285 12.4588C311.497 12.608 311.765 12.6825 312.09 12.6825ZM320.241 14.1243C319.661 14.1243 319.136 13.9751 318.665 13.6768C318.198 13.3752 317.827 12.9328 317.551 12.3494C317.28 11.7628 317.144 11.0436 317.144 10.1918C317.144 9.31676 317.285 8.58925 317.566 8.00923C317.848 7.4259 318.223 6.99006 318.69 6.7017C319.161 6.41004 319.676 6.2642 320.236 6.2642C320.664 6.2642 321.02 6.33712 321.305 6.48295C321.593 6.62547 321.825 6.80445 322.001 7.01989C322.18 7.23201 322.316 7.44081 322.409 7.64631H322.473V3.81818H324.586V14H322.498V12.777H322.409C322.309 12.9891 322.168 13.1996 321.986 13.4084C321.807 13.6139 321.574 13.7846 321.285 13.9205C321 14.0563 320.652 14.1243 320.241 14.1243ZM320.912 12.4389C321.254 12.4389 321.542 12.3461 321.777 12.1605C322.016 11.9716 322.198 11.7081 322.324 11.37C322.453 11.032 322.518 10.6359 322.518 10.1818C322.518 9.72775 322.455 9.33333 322.329 8.99858C322.203 8.66383 322.021 8.4053 321.782 8.22301C321.544 8.04072 321.254 7.94957 320.912 7.94957C320.564 7.94957 320.271 8.04403 320.032 8.23295C319.794 8.42187 319.613 8.68371 319.49 9.01847C319.368 9.35322 319.306 9.741 319.306 10.1818C319.306 10.6259 319.368 11.0187 319.49 11.3601C319.616 11.6982 319.797 11.9633 320.032 12.1555C320.271 12.3445 320.564 12.4389 320.912 12.4389ZM329.778 14.1491C329.006 14.1491 328.338 13.9851 327.774 13.657C327.214 13.3255 326.782 12.8648 326.477 12.2749C326.172 11.6816 326.019 10.9938 326.019 10.2116C326.019 9.42282 326.172 8.73343 326.477 8.14347C326.782 7.55019 327.214 7.08949 327.774 6.76136C328.338 6.42992 329.006 6.2642 329.778 6.2642C330.55 6.2642 331.216 6.42992 331.776 6.76136C332.34 7.08949 332.774 7.55019 333.079 8.14347C333.384 8.73343 333.536 9.42282 333.536 10.2116C333.536 10.9938 333.384 11.6816 333.079 12.2749C332.774 12.8648 332.34 13.3255 331.776 13.657C331.216 13.9851 330.55 14.1491 329.778 14.1491ZM329.788 12.5085C330.139 12.5085 330.432 12.4091 330.668 12.2102C330.903 12.008 331.08 11.733 331.2 11.3849C331.322 11.0369 331.384 10.6409 331.384 10.1967C331.384 9.7526 331.322 9.35653 331.2 9.00852C331.08 8.66051 330.903 8.38542 330.668 8.18324C330.432 7.98106 330.139 7.87997 329.788 7.87997C329.433 7.87997 329.135 7.98106 328.893 8.18324C328.654 8.38542 328.474 8.66051 328.351 9.00852C328.232 9.35653 328.172 9.7526 328.172 10.1967C328.172 10.6409 328.232 11.0369 328.351 11.3849C328.474 11.733 328.654 12.008 328.893 12.2102C329.135 12.4091 329.433 12.5085 329.788 12.5085Z" fill="#EAEAEA"/>
<g filter="url(#filter1_d_464_49728)">
<circle cx="168" cy="47.0003" r="16.3333" stroke="#EAEAEA" stroke-width="4" shape-rendering="crispEdges"/>
</g>
<path fill-rule="evenodd" clip-rule="evenodd" d="M168 63.6673C177.205 63.6673 184.667 56.2054 184.667 47.0007C184.667 37.7959 177.205 30.334 168 30.334C158.795 30.334 151.333 37.7959 151.333 47.0007C151.333 56.2054 158.795 63.6673 168 63.6673ZM163.8 41.5833C163.8 43.1667 165.017 44.1833 168.8 45.1667C172.583 46.15 176.633 47.7667 176.633 52.5C176.633 55.9167 174.05 57.8 170.8 58.4167V62H165.8V58.3833C162.6 57.7 159.867 55.65 159.667 52H163.333C163.517 53.9667 164.867 55.5 168.3 55.5C171.983 55.5 172.8 53.6667 172.8 52.5167C172.8 50.9667 171.967 49.5 167.8 48.5C163.15 47.3833 159.967 45.4667 159.967 41.6167C159.967 38.4 162.567 36.3 165.8 35.6V32H170.8V35.65C174.283 36.5 176.033 39.1333 176.15 42H172.467C172.367 39.9167 171.267 38.5 168.3 38.5C165.483 38.5 163.8 39.7667 163.8 41.5833Z" fill="#EAEAEA"/>
<g filter="url(#filter2_d_464_49728)">
<circle cx="300" cy="46.9994" r="16.3333" stroke="#EAEAEA" stroke-width="4" shape-rendering="crispEdges"/>
</g>
<path d="M300 30.334C290.8 30.334 283.333 37.8007 283.333 47.0007C283.333 56.2007 290.8 63.6673 300 63.6673C309.2 63.6673 316.667 56.2007 316.667 47.0007C316.667 37.8007 309.2 30.334 300 30.334ZM296.667 55.334L288.333 47.0007L290.683 44.6507L296.667 50.6173L309.317 37.9673L311.667 40.334L296.667 55.334Z" fill="#EAEAEA"/>
<defs>
<filter id="filter0_d_464_49728" x="3.66675" y="18.666" width="56.6667" height="56.667" filterUnits="userSpaceOnUse" color-interpolation-filters="sRGB">
<feFlood flood-opacity="0" result="BackgroundImageFix"/>
<feColorMatrix in="SourceAlpha" type="matrix" values="0 0 0 0 0 0 0 0 0 0 0 0 0 0 0 0 0 0 127 0" result="hardAlpha"/>
<feOffset/>
<feGaussianBlur stdDeviation="5"/>
<feComposite in2="hardAlpha" operator="out"/>
<feColorMatrix type="matrix" values="0 0 0 0 0.745136 0 0 0 0 0.375521 0 0 0 0 0.875 0 0 0 1 0"/>
<feBlend mode="normal" in2="BackgroundImageFix" result="effect1_dropShadow_464_49728"/>
<feBlend mode="normal" in="SourceGraphic" in2="effect1_dropShadow_464_49728" result="shape"/>
</filter>
<filter id="filter1_d_464_49728" x="144.667" y="23.667" width="46.6667" height="46.667" filterUnits="userSpaceOnUse" color-interpolation-filters="sRGB">
<feFlood flood-opacity="0" result="BackgroundImageFix"/>
<feColorMatrix in="SourceAlpha" type="matrix" values="0 0 0 0 0 0 0 0 0 0 0 0 0 0 0 0 0 0 127 0" result="hardAlpha"/>
<feOffset/>
<feGaussianBlur stdDeviation="2.5"/>
<feComposite in2="hardAlpha" operator="out"/>
<feColorMatrix type="matrix" values="0 0 0 0 0 0 0 0 0 0 0 0 0 0 0 0 0 0 0.3 0"/>
<feBlend mode="normal" in2="BackgroundImageFix" result="effect1_dropShadow_464_49728"/>
<feBlend mode="normal" in="SourceGraphic" in2="effect1_dropShadow_464_49728" result="shape"/>
</filter>
<filter id="filter2_d_464_49728" x="276.667" y="23.666" width="46.6667" height="46.667" filterUnits="userSpaceOnUse" color-interpolation-filters="sRGB">
<feFlood flood-opacity="0" result="BackgroundImageFix"/>
<feColorMatrix in="SourceAlpha" type="matrix" values="0 0 0 0 0 0 0 0 0 0 0 0 0 0 0 0 0 0 127 0" result="hardAlpha"/>
<feOffset/>
<feGaussianBlur stdDeviation="2.5"/>
<feComposite in2="hardAlpha" operator="out"/>
<feColorMatrix type="matrix" values="0 0 0 0 0 0 0 0 0 0 0 0 0 0 0 0 0 0 0.3 0"/>
<feBlend mode="normal" in2="BackgroundImageFix" result="effect1_dropShadow_464_49728"/>
<feBlend mode="normal" in="SourceGraphic" in2="effect1_dropShadow_464_49728" result="shape"/>
</filter>
</defs>
</svg>
