<svg width="506" height="349" viewBox="0 0 506 349" fill="none" xmlns="http://www.w3.org/2000/svg">
<g opacity="0.3" clip-path="url(#clip0_293_13613)">
<g opacity="0.1">
<path d="M377.203 88.0371H321.43V168.94H377.203V88.0371Z" fill="#E0E0E0"/>
<path d="M374.412 88.0371H318.638V168.94H374.412V88.0371Z" fill="#F5F5F5"/>
<path d="M367.483 96.7959H325.567V160.18H367.483V96.7959Z" fill="white"/>
<path d="M367.472 160.169C367.472 160.169 367.472 160.069 367.472 159.869V158.967C367.472 158.166 367.472 157.008 367.472 155.495C367.472 152.456 367.472 148.027 367.472 142.428C367.472 131.298 367.472 115.427 367.406 96.7961L367.539 96.9296H325.634L325.79 96.7738C325.79 120.681 325.79 142.729 325.79 160.147L325.667 160.036H356.184H364.603H367.472H366.738H364.514H356.106H325.523H325.4V159.913C325.4 142.495 325.4 120.447 325.4 96.5401V96.3843H367.606V96.529C367.606 115.205 367.55 131.031 367.539 142.261C367.539 147.826 367.539 152.278 367.539 155.283C367.539 156.786 367.539 157.943 367.539 158.733V159.613C367.537 159.8 367.514 159.987 367.472 160.169Z" fill="#E0E0E0"/>
<path d="M374.568 88.0371C374.282 88.548 373.95 89.0322 373.578 89.484C372.933 90.341 372.01 91.5207 370.964 92.8229C369.919 94.1251 368.929 95.227 368.206 96.0283C367.83 96.481 367.417 96.9016 366.972 97.286C367.307 96.7953 367.679 96.3302 368.084 95.8948L370.775 92.6337L373.455 89.3727C373.786 88.8956 374.158 88.4487 374.568 88.0371Z" fill="#E0E0E0"/>
<path d="M367.695 159.969C369.784 163.283 372.239 166.352 375.013 169.117L367.695 159.969Z" fill="white"/>
<path d="M375.013 169.117C374.547 168.794 374.118 168.421 373.734 168.004C372.762 167.013 371.842 165.973 370.976 164.888C370.109 163.819 369.3 162.704 368.551 161.549C368.213 161.08 367.926 160.576 367.695 160.046C368.079 160.475 368.426 160.937 368.729 161.426C369.341 162.295 370.208 163.474 371.209 164.765C372.21 166.056 373.189 167.136 373.889 167.926C374.293 168.295 374.668 168.693 375.013 169.117Z" fill="#E0E0E0"/>
<path d="M318.638 168.872L325.934 159.857L318.638 168.872Z" fill="white"/>
<path d="M325.934 159.857C324.839 161.449 323.662 162.984 322.408 164.454C320.384 166.947 318.694 168.905 318.638 168.905C319.731 167.308 320.908 165.77 322.164 164.298C323.345 162.755 324.603 161.273 325.934 159.857Z" fill="#E0E0E0"/>
<path d="M318.638 88.0371C319.899 89.3827 321.084 90.7985 322.186 92.2776C323.374 93.7027 324.488 95.1887 325.522 96.7295C324.261 95.3839 323.077 93.9681 321.975 92.489C320.781 91.0683 319.667 89.582 318.638 88.0371Z" fill="#E0E0E0"/>
<path d="M354.276 109.941H340.241V149.82H354.276V109.941Z" fill="#E0E0E0"/>
<path d="M266.268 314.395C263.731 315.233 261.39 316.575 259.383 318.34C257.377 320.105 255.747 322.257 254.591 324.667C252.312 329.509 251.17 334.809 251.254 340.16C251.121 350.477 255.581 361.474 260.763 370.389C270.272 364 273.897 351.223 275.332 344.623C277.556 334.183 275.332 313.961 266.279 314.395" fill="#F5F5F5"/>
<path d="M266.613 329.976C266.257 331.064 265.996 332.181 265.835 333.315C265.412 335.541 264.845 338.657 264.177 342.564C262.832 350.355 261.108 361.195 259.484 373.193C257.861 385.191 256.715 396.087 256.048 404C255.714 407.952 255.481 411.146 255.358 413.361C255.226 414.506 255.204 415.661 255.292 416.811C255.56 415.693 255.732 414.553 255.803 413.405C256.081 410.99 256.437 407.84 256.915 404.078C257.794 396.198 259.073 385.325 260.685 373.349C262.298 361.373 263.899 350.733 265.034 342.686C265.568 338.924 266.001 335.786 266.335 333.393C266.525 332.264 266.619 331.121 266.613 329.976Z" fill="#E0E0E0"/>
<path d="M478.229 119.356C478.229 119.356 466.574 115.917 461.859 142.729C457.143 169.541 456.765 184.31 456.765 184.31C456.765 184.31 455.13 190.131 450.815 187.972C446.5 185.812 439.171 178.211 434 181.572C428.628 185.056 428.706 192.223 432.788 201.528C436.869 210.832 445.021 231.578 445.777 233.448C446.534 235.318 446.267 238.401 443.097 237.41C439.928 236.42 419.742 224.244 414.515 234.26C409.288 244.277 424.925 268.273 426.582 270.989C428.239 273.704 428.05 275.062 426.893 276.198C425.737 277.333 419.331 272.603 413.437 269.375C407.542 266.147 400.147 263.443 397.633 269.431C395.12 275.418 399.857 295.608 428.573 321.997L442.652 333.349L459.701 327.072C495.367 311.401 506.411 293.861 505.988 287.372C505.566 280.883 497.67 281.006 491.052 282.119C484.435 283.232 476.839 285.669 476.105 284.211C475.371 282.753 475.66 281.362 478.096 279.381C480.532 277.4 503.097 259.681 501.395 248.584C499.694 237.488 476.628 242.463 473.303 242.374C469.977 242.285 470.778 239.269 472.046 237.766C473.314 236.264 487.805 219.269 494.678 211.778C501.551 204.288 503.942 197.543 499.994 192.501C496.19 187.638 486.782 192.501 482.011 193.102C477.24 193.703 477.562 187.716 477.562 187.716C477.562 187.716 482.011 173.625 486.203 146.713C490.396 119.801 477.974 119.334 477.974 119.334" fill="#F5F5F5"/>
<path d="M473.97 143.385C473.97 143.385 473.97 143.574 473.914 143.953L473.681 145.611C473.458 147.091 473.136 149.24 472.736 151.977C471.902 157.542 470.645 165.511 469.054 175.35C465.874 195.105 461.269 222.351 456.054 252.435C450.838 282.519 446.156 309.754 442.875 329.487C441.24 339.337 439.917 347.294 439.005 352.859C438.549 355.597 438.193 357.734 437.892 359.214C437.77 359.916 437.681 360.461 437.603 360.862C437.525 361.262 437.481 361.418 437.481 361.418C437.481 361.418 437.481 361.229 437.548 360.851C437.614 360.472 437.681 359.905 437.77 359.192C437.993 357.712 438.315 355.564 438.715 352.826C439.55 347.261 440.806 339.292 442.397 329.453C445.577 309.698 450.182 282.441 455.409 252.357C460.636 222.273 465.34 195.05 468.676 175.272C470.3 165.422 471.623 157.464 472.547 151.9L473.603 145.544L473.892 143.897C473.909 143.725 473.935 143.554 473.97 143.385Z" fill="#E0E0E0"/>
<path d="M443.831 192.657C444.136 192.971 444.404 193.318 444.632 193.692C445.121 194.382 445.744 195.395 446.611 196.652C448.246 199.179 450.415 202.718 452.728 206.669L458.611 216.831L460.402 219.891C460.656 220.232 460.862 220.607 461.014 221.004C460.704 220.696 460.432 220.352 460.202 219.98C459.723 219.29 459.09 218.278 458.244 217.009C456.632 214.46 454.508 210.887 452.194 206.936L446.244 196.819C445.533 195.617 444.921 194.593 444.432 193.759C444.184 193.419 443.982 193.049 443.831 192.657Z" fill="#E0E0E0"/>
<path d="M462.704 220.904C462.604 220.759 469.711 215.974 478.574 210.197C487.438 204.421 494.678 199.869 494.778 200.002C494.878 200.136 487.761 204.944 478.908 210.709C470.055 216.475 462.793 221.027 462.704 220.904Z" fill="#E0E0E0"/>
<path d="M452.628 266.715C453.029 266.517 453.451 266.364 453.885 266.259L457.355 265.202C460.28 264.3 464.328 263.054 468.732 261.507C473.136 259.959 477.095 258.457 479.954 257.333L483.29 256.008C483.695 255.811 484.126 255.668 484.569 255.585C484.2 255.839 483.805 256.051 483.39 256.22C482.612 256.598 481.488 257.121 480.054 257.733C477.251 258.958 473.314 260.549 468.932 262.085C464.55 263.621 460.436 264.823 457.477 265.613C455.987 266.003 454.786 266.303 453.941 266.493C453.514 266.619 453.073 266.694 452.628 266.715Z" fill="#E0E0E0"/>
<path d="M429.94 244.944C430.296 245.156 430.625 245.41 430.919 245.701C431.52 246.213 432.387 246.97 433.433 247.927C435.546 249.83 438.426 252.479 441.584 255.429C444.743 258.378 447.579 261.083 449.614 263.064C450.626 264.043 451.438 264.856 451.994 265.423C452.301 265.7 452.577 266.01 452.817 266.347C452.457 266.146 452.128 265.895 451.838 265.601C451.227 265.089 450.37 264.321 449.314 263.375C447.212 261.483 444.32 258.834 441.162 255.874C438.003 252.913 435.167 250.22 433.143 248.25C432.12 247.259 431.308 246.458 430.752 245.879C430.442 245.604 430.169 245.29 429.94 244.944Z" fill="#E0E0E0"/>
<path d="M415.906 284.277C416.355 284.558 416.773 284.886 417.151 285.257L420.388 288.095C423.101 290.51 426.816 293.871 430.908 297.622C435.001 301.373 438.693 304.79 441.307 307.283L444.41 310.265C444.817 310.598 445.189 310.971 445.522 311.378C445.078 311.09 444.662 310.762 444.276 310.399L441.04 307.561C438.326 305.146 434.612 301.773 430.519 298.034C426.427 294.294 422.734 290.866 420.132 288.373L416.996 285.457C416.592 285.103 416.227 284.708 415.906 284.277Z" fill="#E0E0E0"/>
<path d="M444.966 310.566C445.47 310.317 445.994 310.112 446.534 309.954L450.894 308.452C454.564 307.183 459.635 305.413 465.184 303.31C470.734 301.206 475.705 299.181 479.286 297.689L483.546 295.92C484.057 295.678 484.589 295.485 485.136 295.341C484.669 295.66 484.169 295.928 483.646 296.142C482.667 296.621 481.244 297.255 479.464 298.079C475.917 299.681 470.956 301.774 465.396 303.877C459.835 305.981 454.741 307.717 451.027 308.83C449.17 309.409 447.691 309.854 446.578 310.143C446.056 310.337 445.516 310.479 444.966 310.566Z" fill="#E0E0E0"/>
<path d="M87.0366 357.078C112.716 342.409 121.057 311.601 122.625 283.365C122.892 278.646 123.859 273.749 122.002 269.419C120.145 265.09 115.196 261.795 110.814 263.387C107.177 264.711 105.253 268.629 103.029 271.812C100.011 276.049 95.8592 279.347 91.0514 281.328C87.9152 282.608 84.1339 283.209 81.3314 281.328C77.4834 278.713 77.5167 273.07 77.995 268.407C78.8773 259.681 79.7262 250.97 80.5417 242.274C80.9977 237.61 81.4537 232.836 80.4083 228.272C79.3629 223.709 76.5269 219.28 72.2007 217.632C67.8745 215.985 62.1359 218.033 60.7791 222.529C60.2231 224.399 60.4232 226.403 60.123 228.328C59.8227 230.254 58.7106 232.324 56.7866 232.702C54.8626 233.081 53.1277 231.589 51.8598 230.087C47.4113 224.922 44.7533 218.545 42.251 212.212C39.7487 205.879 37.3465 199.435 33.4429 193.881C29.5393 188.328 23.8674 183.709 17.2169 182.752C10.5663 181.794 3.05939 185.245 0.768399 191.655C-1.5226 198.066 1.69147 205.122 5.38375 210.843C10.891 219.309 17.5881 226.937 25.2687 233.492C26.6477 234.672 28.138 235.952 28.6051 237.733C29.328 240.938 26.0917 243.765 22.9332 244.511C19.341 245.346 15.5931 244.633 11.9231 244.733C8.25306 244.834 4.13816 246.069 2.45884 249.397C0.10112 253.993 3.6377 259.414 7.26326 263.009C14.5292 270.301 22.9982 276.284 32.2974 280.694C35.6338 282.263 39.1259 283.699 41.6727 286.37C44.2195 289.041 45.5095 293.393 43.5411 296.532C41.5726 299.67 37.1685 300.338 33.6319 299.336C30.0954 298.335 27.0592 296.086 23.7451 294.484C17.5505 291.468 9.22061 291.145 4.60526 296.32C1.56913 299.726 0.86849 304.779 1.83605 309.253C2.8036 313.727 5.22805 317.734 7.85269 321.496C17.0278 334.518 29.3058 345.447 43.7301 351.98C58.1545 358.513 71.8004 361.174 87.1033 357.122" fill="#F5F5F5"/>
<path d="M85.5016 377.979C85.384 364.805 84.0098 351.671 81.3978 338.758C78.1269 322.991 73.957 307.425 68.9086 292.135L64.9716 280.104C63.6816 276.153 62.4026 272.235 60.9123 268.473C58.0471 261.267 54.7835 254.226 51.1367 247.382C47.7002 240.827 44.2081 234.728 40.8939 229.051C37.5798 223.375 34.3657 218.144 31.2517 213.47C26.3645 206.135 20.9055 199.198 14.9256 192.724C12.8126 190.431 11.1221 188.706 9.95438 187.548L8.61982 186.246C8.47218 186.092 8.31224 185.951 8.1416 185.823C8.26688 185.993 8.40441 186.153 8.55309 186.302L9.83204 187.671C10.9442 188.862 12.6124 190.631 14.6809 192.957C20.553 199.512 25.9248 206.499 30.7513 213.859C33.8319 218.5 36.9903 223.743 40.2823 229.441C43.5742 235.139 47.044 241.239 50.4472 247.783C54.0665 254.595 57.3149 261.599 60.1783 268.763C61.6464 272.502 62.9142 276.386 64.1931 280.349C65.4721 284.311 66.7733 288.318 68.0967 292.391C73.1277 307.644 77.3083 323.164 80.6193 338.88C83.2566 351.74 84.6864 364.819 84.8899 377.946" fill="#E0E0E0"/>
<path d="M60.7124 268.417C61.0077 267.797 61.2244 267.143 61.3574 266.469C61.7244 265.201 62.1804 263.353 62.7254 261.049C63.8375 256.453 65.0942 250.064 66.4844 243.008C67.8746 235.951 69.2425 229.596 70.3991 225.033C70.9663 222.807 71.4445 220.904 71.8004 219.635C72.0175 218.985 72.1666 218.313 72.2452 217.632C71.9156 218.234 71.6581 218.873 71.4779 219.535C71.033 220.782 70.4547 222.607 69.8097 224.877C68.4973 229.407 67.0293 235.773 65.6392 242.841L62.1248 260.971C61.6911 263.142 61.3241 264.978 61.0127 266.447C60.8508 267.093 60.7502 267.752 60.7124 268.417Z" fill="#E0E0E0"/>
<path d="M1.70264 251.69C2.47633 251.925 3.26891 252.092 4.07148 252.191C5.60622 252.469 7.81937 252.858 10.533 253.437C15.9824 254.55 23.4448 256.309 31.5968 258.635C39.7487 260.961 47.0332 263.409 52.2602 265.313C54.8737 266.248 56.9757 267.06 58.4214 267.617C59.1575 267.954 59.9248 268.219 60.7124 268.407C60.0317 267.965 59.309 267.593 58.5549 267.294C57.1425 266.637 55.0739 265.736 52.4715 264.723C47.289 262.653 40.0156 260.126 31.8303 257.778C24.8585 255.756 17.7871 254.095 10.6442 252.803C7.90834 252.313 5.67295 252.013 4.12709 251.834C3.32593 251.704 2.5136 251.656 1.70264 251.69Z" fill="#E0E0E0"/>
<path d="M80.7529 337.589C80.9463 337.381 81.1075 337.144 81.2311 336.888L82.4656 334.807C83.5777 333.004 84.979 330.355 86.7362 327.016C90.2617 320.405 94.8548 311.111 99.7704 300.783C104.686 290.454 109.179 281.128 112.571 274.45L116.597 266.548L117.709 264.388C117.846 264.142 117.954 263.881 118.032 263.609C117.844 263.818 117.683 264.05 117.553 264.299L116.33 266.381C115.274 268.195 113.817 270.833 112.048 274.172C108.523 280.794 103.941 290.087 99.0142 300.416C94.0874 310.744 89.6055 320.06 86.2246 326.749L82.1876 334.651L81.0754 336.81C80.9324 337.054 80.8239 337.316 80.7529 337.589Z" fill="#E0E0E0"/>
<path d="M3.32617 304.534C3.56129 304.704 3.81976 304.839 4.09354 304.935L6.31781 305.925L14.6032 309.487C21.6096 312.481 31.2852 316.744 41.8505 321.463C52.4157 326.182 62.1358 330.366 69.209 333.216C72.7344 334.651 75.6037 335.776 77.6056 336.555L79.9077 337.4C80.1722 337.51 80.4483 337.588 80.7307 337.634C80.5009 337.462 80.2457 337.327 79.9744 337.233L77.7502 336.243L69.4203 332.648C62.4138 329.643 52.7383 325.38 42.173 320.661C31.6077 315.942 21.8766 311.757 14.8145 308.908C11.2891 307.484 8.41974 306.348 6.4179 305.569L4.11579 304.735C3.86132 304.637 3.5963 304.57 3.32617 304.534Z" fill="#E0E0E0"/>
<path d="M165.998 21.3467V113.212H34.1657L29.4058 21.9922L165.998 21.3467Z" fill="#E0E0E0"/>
<path d="M29.4058 22.0039L29.4058 113.023L161.238 113.023V22.0039L29.4058 22.0039Z" fill="white"/>
<path d="M161.872 113.646H28.7832V21.3691H161.872V113.646ZM30.0399 112.389H160.615V22.6157H30.0399V112.389Z" fill="#E0E0E0"/>
<path d="M146.958 33.2998H43.6855V101.704H146.958V33.2998Z" fill="white"/>
<path d="M146.969 33.3003H146.458H145.045H139.373L118.087 33.3782L43.741 33.5229L44.0413 33.2224C44.0413 54.1242 44.0413 77.2853 44.0413 101.626L43.7077 101.303L146.992 101.37L146.725 101.626C146.791 80.8134 146.836 63.7848 146.869 51.8648C146.869 45.9215 146.869 41.2804 146.936 38.0972C146.936 36.5279 146.936 35.3148 146.936 34.48C146.936 33.6453 146.936 33.2224 146.936 33.2224C146.936 33.2224 146.936 33.6231 146.936 34.4244C146.936 35.2257 146.936 36.4389 146.936 37.9971C146.936 41.1579 146.936 45.7879 147.003 51.6979C147.003 63.6179 147.08 80.7467 147.136 101.626V101.893H146.88L43.5964 101.96H43.2739V101.626C43.2739 77.2853 43.2739 54.1242 43.2739 33.2224V32.9219H43.5631L118.076 33.0777L139.296 33.1556H144.856H146.291L146.969 33.3003Z" fill="#E0E0E0"/>
<path d="M29.3837 21.7368C30.1793 22.139 30.9257 22.6319 31.6079 23.206C32.9647 24.1854 34.7998 25.5655 36.7794 27.157C38.759 28.7486 40.505 30.24 41.7395 31.3641C42.4462 31.9265 43.0778 32.5774 43.619 33.3007C43.4966 33.4454 40.2826 30.8299 36.3679 27.6579C32.4532 24.4859 29.2947 21.8926 29.3837 21.7368Z" fill="#E0E0E0"/>
<path d="M161.249 21.9927C159.08 24.1263 156.761 26.1014 154.309 27.9026C151.995 29.8761 149.542 31.6801 146.969 33.3006C149.153 31.1698 151.483 29.1949 153.942 27.3906C156.247 25.4198 158.688 23.6159 161.249 21.9927Z" fill="#E0E0E0"/>
<path d="M161.138 113.034L146.447 101.103L161.138 113.034Z" fill="white"/>
<path d="M146.447 101.103C149.086 102.839 151.609 104.746 153.998 106.813C156.52 108.718 158.905 110.797 161.138 113.034C158.496 111.303 155.973 109.396 153.587 107.325C149.494 104.041 146.324 101.248 146.447 101.103Z" fill="#E0E0E0"/>
<path d="M29.3833 113.022C31.5316 110.909 33.8285 108.953 36.2563 107.168C38.5481 105.218 40.9749 103.433 43.5185 101.826C41.3758 103.941 39.0824 105.897 36.6567 107.68C34.3612 109.63 31.9307 111.416 29.3833 113.022Z" fill="#E0E0E0"/>
<path d="M64.6606 54.6256V77.5308H129.643V54.6256H64.6606Z" fill="#E0E0E0"/>
<path d="M470.411 0H399.924V102.25H470.411V0Z" fill="#E0E0E0"/>
<path d="M466.886 0H396.399V102.25H466.886V0Z" fill="#F5F5F5"/>
<path d="M458.122 11.0737H405.151V91.175H458.122V11.0737Z" fill="white"/>
<path d="M458.133 91.1752C458.133 91.1752 458.133 91.0416 458.133 90.7856V89.6727C458.133 88.6599 458.133 87.1907 458.133 85.2764C458.133 81.4366 458.133 75.8494 458.133 68.782C458.133 54.6583 458.078 34.6469 458.044 11.0962L458.222 11.2743H405.151L405.352 11.0851C405.352 41.3025 405.352 69.1604 405.352 91.2197L405.196 91.0639L443.754 91.1529H454.408H457.21H458.178H457.244H454.474H443.854L405.196 91.2309H405.051V91.075C405.051 69.0491 405.051 41.1912 405.051 10.9404V10.8848H458.434V11.0628C458.434 34.6692 458.378 54.7028 458.356 68.8599C458.356 75.9051 458.356 81.4922 458.3 85.3209C458.3 87.213 458.3 88.6599 458.3 89.6727V90.7856C458.133 91.0528 458.133 91.1752 458.133 91.1752Z" fill="#E0E0E0"/>
<path d="M467.086 0C466.728 0.648339 466.307 1.25974 465.829 1.82529C465.006 2.93827 463.85 4.41854 462.493 6.03236C461.136 7.64618 459.924 9.07079 459.001 10.0836C458.544 10.6539 458.038 11.1828 457.488 11.664C457.884 11.0395 458.335 10.4511 458.834 9.90553L462.226 5.7875C463.505 4.2182 464.673 2.80471 465.618 1.65834C466.059 1.06487 466.551 0.51008 467.086 0Z" fill="#E0E0E0"/>
<path d="M458.4 90.9189C461.039 95.1078 464.139 98.9867 467.642 102.483L458.4 90.9189Z" fill="white"/>
<path d="M467.642 102.483C467.055 102.05 466.515 101.558 466.029 101.014C465.084 100.057 463.805 98.6875 462.537 97.0849C461.447 95.7123 460.426 94.2859 459.479 92.811C459.045 92.2198 458.672 91.5858 458.367 90.9189C458.845 91.4665 459.28 92.0507 459.668 92.6663C460.446 93.7793 461.536 95.2484 462.804 96.84C464.072 98.4316 465.295 99.8339 466.196 100.824C466.717 101.342 467.2 101.896 467.642 102.483Z" fill="#E0E0E0"/>
<path d="M396.388 102.172L405.618 90.7749L396.388 102.172Z" fill="white"/>
<path d="M405.619 90.7749C404.241 92.7934 402.756 94.7364 401.17 96.5958C398.612 99.7344 396.477 102.239 396.399 102.161C397.779 100.144 399.264 98.2012 400.847 96.3398C402.34 94.4033 403.933 92.5459 405.619 90.7749Z" fill="#E0E0E0"/>
<path d="M396.388 0C397.966 1.70701 399.451 3.49778 400.836 5.36456C402.328 7.14398 403.724 9.00158 405.018 10.9295C403.436 9.22573 401.951 7.43474 400.569 5.5649C399.078 3.78548 397.682 1.92789 396.388 0Z" fill="#E0E0E0"/>
<path d="M441.629 27.3345H423.891V77.7302H441.629V27.3345Z" fill="#E0E0E0"/>
</g>
<path d="M349.345 224.243C350.171 227.604 350.074 231.126 349.066 234.436C348.058 237.747 346.176 240.724 343.617 243.053C340.225 246.058 335.832 247.794 332.718 251.099C330.791 253.298 329.465 255.958 328.871 258.821C328.276 261.685 328.433 264.653 329.326 267.438C330.271 270.202 331.767 272.746 333.722 274.915C335.678 277.085 338.053 278.835 340.703 280.059C344.313 281.747 348.27 282.556 352.252 282.421C356.233 282.285 360.127 281.209 363.613 279.28C372.21 274.416 377.215 264.655 378.483 254.85C379.75 245.045 377.76 235.117 375.146 225.579" fill="#453D49"/>
<path d="M277.39 253.436C275.963 244.946 276.137 236.264 277.901 227.838C278.647 223.717 280.156 219.773 282.35 216.207C283.098 214.877 284.235 213.809 285.608 213.146C286.606 212.815 287.676 212.767 288.699 213.009C289.723 213.251 290.659 213.772 291.403 214.515C292.353 215.505 293.082 216.686 293.542 217.979C294.003 219.272 294.183 220.649 294.072 222.017C293.873 224.753 293.204 227.434 292.092 229.941C288.656 238.734 283.195 246.035 277.356 253.425" fill="#453D49"/>
<path d="M449.77 285.613C451.783 287.049 496.48 383.4 496.48 383.4C492.885 381.863 488.904 381.474 485.08 382.287L482.656 382.932C478.317 384.1 474.201 385.98 470.478 388.497L457.722 397.134C457.217 396.843 456.789 396.436 456.474 395.946C456.158 395.456 455.965 394.898 455.909 394.318V393.951L421.255 334.429L449.77 285.613Z" fill="#B288CB"/>
<path d="M281.938 132.222L293.86 200.036C297.697 209.162 342.438 264.455 342.438 264.455L327.647 312.024L268.882 231.611C263.425 225.772 260.457 218.035 260.608 210.041L262.899 137.586L281.938 132.222Z" fill="#FEC1D3"/>
<path d="M345.385 253.827L376.069 256.153L402.827 260.304C402.827 260.304 449.77 272.647 449.77 277.789C449.77 279.503 436.959 320.338 429.752 344.802C427.986 350.743 426.545 356.777 425.437 362.877L449.77 416.789H334.298V367.362C334.298 367.362 326.513 302.442 327.88 293.571C329.248 284.701 345.385 253.827 345.385 253.827Z" fill="#B288CB"/>
<path d="M267.38 104.82C267.561 97.913 268.267 91.0297 269.493 84.23C269.66 83.2617 270.061 82.0931 271.028 82.0041C272.229 81.8482 272.841 83.3953 272.997 84.5973C274.063 92.7978 273.721 101.12 271.985 109.205" fill="#C36EEB"/>
<path d="M281.059 248.417C294.227 236.642 294.672 216.241 293.549 200.002C293.329 198.816 293.509 197.591 294.06 196.519C295.317 194.727 298.375 195.406 299.621 197.209C300.867 199.012 300.733 201.382 300.666 203.564C301.345 201.716 304.236 201.727 305.593 203.152C306.95 204.577 307.183 206.725 307.339 208.717L307.773 214.148L346.242 250.877C346.242 250.877 347.298 247.538 350.123 249.463C352.948 251.389 354.772 255.451 354.772 255.451L327.669 314.65L277.367 253.436C278.334 251.584 279.58 249.891 281.059 248.417Z" fill="#B288CB"/>
<path d="M333.263 289.386C329.25 294.509 326.252 300.354 324.433 306.604C322.62 312.895 322.818 319.597 325 325.77C326.688 330.041 329.453 333.801 333.026 336.684C336.599 339.567 340.857 341.474 345.386 342.219" fill="#B288CB"/>
<path d="M294.461 244.066C294.622 243.525 294.83 243 295.084 242.497C295.529 241.517 296.129 240.07 296.808 238.267C297.486 236.464 298.209 234.283 298.887 231.834C299.592 229.162 300.153 226.453 300.567 223.721C300.951 220.986 301.185 218.233 301.267 215.473C301.267 212.925 301.267 210.632 301.112 208.706C300.956 206.781 300.811 205.234 300.667 204.165C300.571 203.61 300.519 203.048 300.511 202.485C300.692 203.02 300.818 203.572 300.889 204.132C301.178 205.634 301.389 207.15 301.523 208.673C301.74 210.937 301.833 213.211 301.801 215.484C301.717 221.06 300.909 226.601 299.399 231.968C298.778 234.156 298.035 236.307 297.175 238.412C296.441 240.215 295.784 241.64 295.273 242.597C295.04 243.106 294.768 243.597 294.461 244.066Z" fill="#453D49"/>
<path d="M302.835 233.726C303.198 232.768 303.614 231.832 304.081 230.921C306.028 226.404 307.157 221.576 307.417 216.664C307.415 215.641 307.471 214.619 307.584 213.603C307.802 214.611 307.885 215.645 307.828 216.675C307.79 221.666 306.651 226.588 304.492 231.088C304.067 232.041 303.509 232.929 302.835 233.726Z" fill="#453D49"/>
<path d="M348.01 264.511C347.921 264.456 348.388 263.732 348.655 262.419C348.967 260.702 348.868 258.936 348.366 257.266C347.838 255.584 347.195 253.94 346.442 252.346C346.091 251.687 345.829 250.983 345.664 250.254C346.104 250.849 346.477 251.491 346.776 252.168C347.656 253.736 348.368 255.392 348.9 257.11C349.432 258.868 349.474 260.738 349.022 262.519C348.882 263.266 348.531 263.958 348.01 264.511Z" fill="#453D49"/>
<path d="M341.326 342.911C341.153 342.838 340.988 342.745 340.837 342.632L339.525 341.764C338.413 340.996 336.756 339.872 334.821 338.347C332.533 336.584 330.441 334.581 328.581 332.371C326.293 329.635 324.644 326.422 323.755 322.966C322.906 319.509 322.687 315.927 323.11 312.393C323.451 309.526 324.088 306.702 325.011 303.967C325.623 302.124 326.333 300.315 327.136 298.547C327.425 297.924 327.647 297.434 327.814 297.123C327.888 296.949 327.981 296.785 328.092 296.633C327.882 297.314 327.633 297.983 327.347 298.636C326.847 299.905 326.124 301.753 325.401 304.09C324.547 306.813 323.958 309.612 323.644 312.448C323.256 315.918 323.482 319.43 324.311 322.821C325.176 326.2 326.775 329.346 328.993 332.037C330.814 334.233 332.852 336.239 335.076 338.025C336.967 339.583 338.557 340.751 339.658 341.586L340.904 342.543C341.193 342.766 341.338 342.888 341.326 342.911Z" fill="#453D49"/>
<path d="M404.329 353.917C404.175 353.999 404.01 354.059 403.839 354.095C403.506 354.184 403.028 354.351 402.394 354.474C400.602 354.862 398.777 355.082 396.944 355.13C390.833 355.318 384.805 353.67 379.638 350.399C374.47 347.128 370.4 342.384 367.951 336.777C367.204 335.101 366.62 333.356 366.205 331.568C366.049 330.934 365.993 330.455 365.927 330.099C365.889 329.928 365.87 329.752 365.871 329.576C366.099 330.205 366.284 330.848 366.427 331.502C368.197 338.221 372.161 344.156 377.688 348.363C383.216 352.57 389.99 354.807 396.933 354.718C398.748 354.709 400.559 354.553 402.349 354.251C403.003 354.105 403.663 353.994 404.329 353.917Z" fill="#453D49"/>
<path d="M422.023 375.609C421.867 375.609 423.335 369.41 425.359 361.864C427.383 354.318 429.051 348.23 429.196 348.274C429.34 348.319 427.883 354.462 425.915 362.008C423.947 369.554 422.178 375.609 422.023 375.609Z" fill="#453D49"/>
<path d="M437.537 362.486C437.403 362.564 432.933 355.252 427.528 346.148C422.123 337.043 417.897 329.598 418.041 329.52C418.186 329.442 422.645 336.743 428.05 345.847C433.455 354.951 437.726 362.397 437.537 362.486Z" fill="#453D49"/>
<g opacity="0.3">
<path opacity="0.3" d="M367.061 331.947C364.447 336.911 366.627 342.965 369.018 348.052C370.875 351.992 372.944 355.987 376.325 358.736C377.986 360.095 379.91 361.096 381.976 361.676C384.042 362.255 386.206 362.401 388.331 362.104C390.456 361.808 392.497 361.074 394.325 359.951C396.154 358.827 397.731 357.338 398.957 355.575C391.867 355.47 384.976 353.22 379.188 349.122C373.4 345.024 368.986 339.27 366.527 332.615" fill="#262626"/>
</g>
<g opacity="0.3">
<path opacity="0.3" d="M418.119 329.52C416.117 334.295 417.63 340.828 419.72 345.558C421.811 350.288 424.035 355.575 422.356 360.483C421.923 361.355 421.698 362.315 421.7 363.288C421.811 364.245 422.812 365.169 423.713 364.724C424.179 364.396 424.501 363.902 424.614 363.344C426.193 358.58 427.776 353.82 429.363 349.064" fill="#262626"/>
</g>
<path d="M312.911 266.648C313.09 263.659 313.462 260.685 314.023 257.744C314.401 254.787 314.969 251.857 315.725 248.974C315.557 251.963 315.185 254.938 314.613 257.877C314.238 260.835 313.67 263.765 312.911 266.648Z" fill="#FAFAFA"/>
<path d="M301.2 264.188C301.056 264.277 299.143 261.606 296.496 258.534C293.849 255.462 291.514 253.158 291.625 253.036C293.619 254.495 295.407 256.217 296.941 258.155C298.616 259.973 300.048 262.001 301.2 264.188Z" fill="#FAFAFA"/>
<path d="M311.254 235.518C310.919 236.236 310.497 236.908 309.997 237.522C309.152 238.713 307.918 240.304 306.483 241.974C305.048 243.643 303.669 245.146 302.635 246.17C302.116 246.764 301.522 247.288 300.867 247.728C300.744 247.617 303.18 244.979 306.038 241.595C308.896 238.212 311.121 235.374 311.254 235.518Z" fill="#FAFAFA"/>
<path d="M307.328 221.505C307.161 221.572 306.527 220.158 305.304 218.745C304.081 217.331 302.768 216.519 302.857 216.352C304.014 216.685 305.027 217.394 305.738 218.367C306.593 219.213 307.151 220.314 307.328 221.505Z" fill="#FAFAFA"/>
<path d="M297.186 230.143C296.277 230.571 295.296 230.824 294.294 230.888C293.322 231.142 292.309 231.203 291.313 231.066C293.193 230.384 295.187 230.07 297.186 230.143Z" fill="#FAFAFA"/>
<path d="M322.776 242.507C322.801 240.774 322.678 239.043 322.409 237.331C321.948 235.66 321.342 234.033 320.596 232.468C321.857 233.765 322.685 235.421 322.965 237.209C323.441 238.953 323.375 240.801 322.776 242.507Z" fill="#FAFAFA"/>
<path d="M336.444 257.22C334.392 253.943 331.638 251.164 328.381 249.084C330.22 249.798 331.888 250.892 333.278 252.294C334.667 253.695 335.746 255.374 336.444 257.22Z" fill="#FAFAFA"/>
<path d="M314.501 282.752C311.191 283.994 307.523 283.87 304.303 282.407C304.359 282.24 306.527 282.942 309.386 283.02C312.244 283.097 314.457 282.586 314.501 282.752Z" fill="#FAFAFA"/>
<path d="M324.8 288.039C324.644 287.973 325.512 285.413 326.235 282.163C326.958 278.913 327.28 276.22 327.447 276.242C327.561 278.278 327.343 280.319 326.802 282.285C326.448 284.299 325.773 286.242 324.8 288.039Z" fill="#FAFAFA"/>
<path d="M347.298 288.897C345.539 287.409 343.913 285.77 342.438 283.999C340.811 282.36 339.323 280.588 337.99 278.702C339.742 280.197 341.364 281.839 342.839 283.61C344.465 285.249 345.956 287.017 347.298 288.897Z" fill="#FAFAFA"/>
<path d="M357.775 314.907C356.441 313.938 355.224 312.818 354.149 311.568C352.944 310.447 351.869 309.192 350.946 307.828C352.28 308.797 353.497 309.917 354.572 311.167C355.788 312.278 356.864 313.534 357.775 314.907Z" fill="#FAFAFA"/>
<path d="M338.301 317.388C337.023 318.75 335.518 319.88 333.853 320.727C332.287 321.77 330.547 322.524 328.715 322.953C328.715 322.797 330.939 321.84 333.564 320.271C336.188 318.701 338.19 317.254 338.301 317.388Z" fill="#FAFAFA"/>
<path d="M347.265 342.131C347.098 342.131 347.766 339.17 348.099 335.508C348.433 331.847 348.333 328.831 348.5 328.831C348.908 331.033 348.968 333.287 348.678 335.508C348.567 337.778 348.09 340.014 347.265 342.131Z" fill="#FAFAFA"/>
<path d="M380.974 322.019C379.136 320.893 377.507 319.459 376.158 317.778C374.671 316.224 373.469 314.419 372.61 312.447C372.755 312.347 374.279 314.762 376.592 317.4C378.905 320.037 381.085 321.874 380.974 322.019Z" fill="#FAFAFA"/>
<path d="M393.285 332.514C393.152 332.414 394.842 330.099 396.733 327.127C398.623 324.156 400.014 321.663 400.158 321.741C399.437 323.764 398.445 325.681 397.211 327.439C396.144 329.304 394.822 331.012 393.285 332.514Z" fill="#FAFAFA"/>
<path d="M391.483 306.827C387.686 306.196 383.961 305.189 380.362 303.822C382.279 304.051 384.171 304.461 386.012 305.046C387.891 305.453 389.724 306.05 391.483 306.827Z" fill="#FAFAFA"/>
<path d="M382.509 352.035C382.312 350.282 382.312 348.513 382.509 346.76C382.523 344.996 382.724 343.239 383.109 341.518C383.309 343.27 383.309 345.04 383.109 346.793C383.098 348.557 382.897 350.315 382.509 352.035Z" fill="#FAFAFA"/>
<path d="M424.625 346.181C421.164 347.378 417.585 348.202 413.949 348.641C417.411 347.448 420.99 346.623 424.625 346.181Z" fill="#FAFAFA"/>
<path d="M415.161 336.276C413.891 335.095 412.75 333.781 411.758 332.358C410.625 331.047 409.637 329.618 408.811 328.096C410.092 329.261 411.234 330.572 412.214 332.002C413.357 333.309 414.345 334.743 415.161 336.276Z" fill="#FAFAFA"/>
<path d="M438.649 330.333C435.045 330.243 431.499 329.401 428.239 327.862C430 328.163 431.742 328.568 433.455 329.075C435.21 329.388 436.945 329.808 438.649 330.333Z" fill="#FAFAFA"/>
<path d="M455.331 330.032C455.81 328.458 456.378 326.912 457.033 325.402C457.502 323.821 458.07 322.271 458.734 320.761C458.644 322.427 458.267 324.065 457.622 325.603C457.126 327.203 456.35 328.703 455.331 330.032Z" fill="#FAFAFA"/>
<path d="M451.527 352.647C448.078 351.876 444.963 350.029 442.63 347.372C442.742 347.238 444.499 348.774 446.934 350.21C449.37 351.646 451.583 352.48 451.527 352.647Z" fill="#FAFAFA"/>
<path d="M462.36 351.958C462.583 349.724 462.992 347.513 463.583 345.347C463.985 343.146 464.573 340.982 465.34 338.88C464.716 343.322 463.707 347.702 462.326 351.969L462.36 351.958Z" fill="#FAFAFA"/>
<path d="M282.049 132.979C280.259 116.051 277.022 100.124 276.144 83.5293C276.179 83.1132 276.126 82.6944 275.99 82.2996C275.854 81.9049 275.638 81.5428 275.354 81.2365C275.112 81.0949 274.844 81.004 274.565 80.9694C274.287 80.9348 274.004 80.9572 273.735 81.0353C273.466 81.1134 273.215 81.2455 272.998 81.4236C272.781 81.6017 272.603 81.822 272.474 82.0712C271.989 83.1129 271.796 84.2673 271.918 85.4102C271.937 94.2352 270.432 102.997 267.469 111.309C265.567 116.707 263.021 121.883 261.597 127.414C260.174 132.946 262.854 134.827 265.345 139.98" fill="#FEC1D3"/>
<path d="M265.379 139.957C263.175 138.265 261.467 136.013 260.432 133.434C259.397 130.855 259.073 128.046 259.495 125.299C260.063 121.96 261.72 118.933 263.032 115.816C264.344 112.7 265.356 109.239 264.556 105.955C264.113 104.737 263.814 103.47 263.666 102.182C263.666 100.891 264.5 99.4443 265.79 99.3887C266.278 99.4281 266.75 99.5803 267.168 99.8333C267.587 100.086 267.941 100.433 268.203 100.847C270.372 103.529 272.107 111.364 271.017 117.219" fill="#FEC1D3"/>
<path d="M271.017 117.219C271.017 117.219 271.128 116.317 271.195 114.692C271.265 112.4 271.075 110.108 270.628 107.858C270.328 106.309 269.881 104.793 269.293 103.329C268.984 102.532 268.565 101.783 268.048 101.103C267.816 100.738 267.512 100.424 267.154 100.181C266.796 99.9377 266.393 99.7704 265.968 99.6892C265.531 99.71 265.112 99.8736 264.777 100.155C264.442 100.436 264.208 100.82 264.111 101.247C263.872 102.196 263.935 103.196 264.289 104.108C264.663 105.126 264.924 106.182 265.067 107.257C265.175 108.371 265.133 109.494 264.945 110.596C264.166 115.115 261.764 118.766 260.496 122.383C259.871 124.073 259.537 125.857 259.507 127.658C259.5 129.228 259.732 130.789 260.196 132.288C260.87 134.476 262.008 136.492 263.532 138.198C264.645 139.389 265.367 139.912 265.334 139.968C265.135 139.867 264.949 139.744 264.778 139.601C264.276 139.218 263.804 138.798 263.366 138.343C261.74 136.665 260.522 134.635 259.807 132.411C259.3 130.877 259.037 129.274 259.028 127.658C259.038 125.799 259.365 123.954 259.996 122.205C261.219 118.51 263.588 114.859 264.322 110.507C264.512 109.45 264.553 108.371 264.444 107.302C264.311 106.257 264.061 105.23 263.699 104.241C263.315 103.219 263.26 102.102 263.544 101.047C263.709 100.52 264.013 100.048 264.422 99.678C264.627 99.4868 264.869 99.3398 265.133 99.246C265.397 99.1522 265.677 99.1136 265.957 99.1327C266.466 99.2001 266.956 99.3748 267.393 99.6453C267.83 99.9158 268.205 100.276 268.493 100.702C269.033 101.439 269.468 102.248 269.783 103.106C270.371 104.601 270.803 106.152 271.073 107.736C271.494 110.018 271.625 112.344 271.462 114.659C271.423 115.287 271.341 115.912 271.217 116.529C271.184 116.767 271.116 116.999 271.017 117.219Z" fill="#C36EEB"/>
<path d="M416.407 207.604C416.77 209.197 417.632 210.631 418.866 211.7C420.1 212.769 421.642 213.416 423.268 213.548C424.899 213.628 426.522 213.292 427.987 212.571C429.452 211.851 430.71 210.77 431.643 209.43C433.49 206.704 434.233 203.378 433.723 200.125C433.089 195.44 429.975 190.932 425.459 189.541C420.944 188.149 415.328 190.654 414.082 195.195L408.877 202.462L416.407 207.604Z" fill="#453D49"/>
<path d="M410.256 193.324C410.761 189.297 410.453 185.209 409.349 181.303C408.245 177.397 406.368 173.753 403.83 170.586C401.291 167.42 398.143 164.797 394.573 162.871C391.002 160.946 387.081 159.758 383.043 159.378C366.906 157.842 352.548 169.874 350.135 185.923C348.01 199.991 346.187 214.193 346.253 219.312C346.453 234.894 355.54 240.926 359.232 242.685C360.557 243.163 361.929 243.502 363.324 243.698C363.338 243.7 363.35 243.706 363.362 243.713C363.373 243.721 363.382 243.731 363.39 243.742C363.397 243.754 363.402 243.766 363.404 243.78C363.406 243.793 363.406 243.807 363.402 243.82L359.955 261.628C358.387 273.325 364.915 283.765 376.581 285.468C388.247 287.171 397.445 278.189 399.235 266.48L410.256 193.324Z" fill="#FEC1D3"/>
<path d="M363.425 243.809C363.425 243.809 373.434 246.124 387.28 240.337C387.28 240.337 381.319 253.192 362.501 248.617L363.425 243.809Z" fill="#C36EEB"/>
<path d="M347.087 182.44C350.301 187.348 360.51 184.31 366.672 180.938C369.89 182.992 373.782 183.709 377.521 182.936C381.259 182.163 384.549 179.96 386.69 176.797C390.215 181.249 397.389 179.802 400.036 174.738C402.682 169.674 401.148 162.696 397.589 158.266C394.03 153.837 388.759 151.588 383.576 150.642C371.287 148.416 357.908 153.135 350.557 164.254C347.165 169.385 345.13 176.297 347.142 182.44" fill="#453D49"/>
<path d="M381.052 152.389C381.052 152.612 378.149 152.055 373.589 152.812C367.666 153.798 362.238 156.722 358.153 161.126C354.308 165.737 351.766 171.294 350.791 177.22C350.452 179.69 350.322 182.185 350.401 184.677C350.164 184.033 350.026 183.358 349.99 182.673C349.795 180.822 349.825 178.953 350.079 177.108C350.885 170.953 353.44 165.158 357.441 160.414C361.669 155.831 367.366 152.874 373.545 152.055C375.388 151.807 377.255 151.777 379.105 151.966C379.772 152.007 380.428 152.149 381.052 152.389Z" fill="#5A4C65"/>
<path d="M364.436 175.272C364.253 174.709 364.17 174.117 364.191 173.525C364.133 171.91 364.302 170.296 364.692 168.728C365.287 166.099 366.413 163.619 368.002 161.442C369.59 159.265 371.607 157.436 373.928 156.068C376.249 154.7 378.825 153.822 381.498 153.488C384.171 153.154 386.884 153.371 389.47 154.126C391.031 154.554 392.527 155.19 393.919 156.018C394.455 156.297 394.934 156.674 395.331 157.131C393.391 156.212 391.374 155.467 389.303 154.905C384.266 153.621 378.927 154.381 374.448 157.021C369.969 159.66 366.714 163.964 365.393 168.995C364.303 172.712 364.647 175.272 364.436 175.272Z" fill="#5A4C65"/>
<path d="M393.919 169.93C392.714 174.286 392.019 178.769 391.851 183.286C391.684 187.828 393.095 192.288 395.843 195.907C400.136 201.082 407.298 202.663 413.904 203.921C417.438 195.098 418.503 185.479 416.985 176.096C416.229 171.544 414.761 166.903 411.558 163.586C409.176 161.235 406.083 159.741 402.762 159.338C399.441 158.936 396.081 159.647 393.207 161.36" fill="#453D49"/>
<path d="M397.589 191.477C395.854 195.238 395.976 199.59 396.577 203.719C397.177 207.849 398.223 211.889 398.178 216.029C398.134 220.169 396.821 224.565 393.574 227.159C392.589 227.816 391.666 228.561 390.816 229.385C390.396 229.803 390.116 230.34 390.012 230.924C389.909 231.507 389.987 232.109 390.238 232.646C390.86 233.647 392.74 233.625 393.007 232.479L392.84 232.768C392.676 233.045 392.588 233.361 392.584 233.683C392.581 234.005 392.662 234.322 392.82 234.603C392.978 234.884 393.206 235.118 393.483 235.283C393.76 235.447 394.075 235.536 394.397 235.539C395.533 235.485 396.647 235.198 397.668 234.697C398.689 234.195 399.597 233.49 400.336 232.623C402.46 230.164 403.305 226.858 403.861 223.72C405.574 213.892 405.24 203.686 407.954 194.103" fill="#453D49"/>
<path d="M359.877 256.019C360.643 259.366 362.119 262.51 364.207 265.236C366.294 267.963 368.943 270.208 371.974 271.819C375.005 273.43 378.346 274.369 381.772 274.574C385.198 274.778 388.628 274.242 391.828 273.003C397.589 270.777 402.238 266.436 406.72 262.196C407.522 267.023 407.301 271.965 406.072 276.702C404.842 281.438 402.632 285.863 399.583 289.689C396.535 293.515 392.717 296.658 388.377 298.912C384.036 301.166 379.271 302.482 374.39 302.775C367.017 303.22 359.098 300.972 354.461 295.218C351.224 291.211 349.923 285.902 350.012 280.749C350.237 275.588 351.219 270.488 352.926 265.613C354.238 261.405 356.318 256.709 360.566 255.54" fill="#B288CB"/>
<path d="M412.636 204.209C417.085 206.602 419.465 211.611 420.321 216.552C421.178 221.494 420.744 226.569 420.955 231.566C421.166 236.564 422.123 241.817 425.292 245.701C428.629 249.842 433.911 251.8 438.638 254.327C449.003 259.892 457.544 269.385 460.658 280.76C463.772 292.135 460.947 305.246 452.44 313.426C444.655 320.839 433.422 323.443 422.701 323.443C415.061 323.443 406.664 321.796 401.893 315.819C397.122 309.842 397.445 301.462 399.113 294.094C400.781 286.726 403.839 279.569 403.962 272.012C402.82 276.691 400.83 281.119 398.09 285.078C397.3 286.191 395.954 287.416 394.753 286.77C393.552 286.125 393.919 284.043 394.542 282.652C403.75 262.14 400.547 220.793 406.008 198.144" fill="#453D49"/>
<path d="M405.052 201.884C405.33 201.795 416.084 199.758 414.694 210.398C413.304 221.038 402.928 217.454 402.95 217.154C402.972 216.853 405.052 201.884 405.052 201.884Z" fill="#FEC1D3"/>
<path d="M406.72 213.547C406.72 213.547 406.886 213.692 407.187 213.881C407.602 214.126 408.096 214.202 408.566 214.093C409.745 213.826 410.923 212.156 411.224 210.253C411.364 209.342 411.303 208.411 411.046 207.526C410.99 207.18 410.85 206.854 410.639 206.574C410.427 206.295 410.151 206.071 409.834 205.923C409.634 205.853 409.416 205.85 409.215 205.917C409.014 205.983 408.84 206.115 408.721 206.291C408.544 206.569 408.577 206.792 408.521 206.803C408.466 206.814 408.321 206.591 408.455 206.168C408.55 205.911 408.73 205.695 408.966 205.556C409.132 205.457 409.316 205.393 409.507 205.368C409.698 205.343 409.893 205.358 410.078 205.412C410.504 205.555 410.886 205.806 411.187 206.139C411.489 206.472 411.701 206.877 411.802 207.315C412.131 208.296 412.219 209.342 412.058 210.364C411.713 212.501 410.356 214.36 408.721 214.605C408.425 214.652 408.122 214.632 407.835 214.545C407.548 214.458 407.285 214.308 407.064 214.104C406.708 213.803 406.686 213.559 406.72 213.547Z" fill="#C36EEB"/>
<path d="M348.889 278.947C349.41 277.811 350.013 276.713 350.69 275.663C352.24 273.096 353.526 270.377 354.527 267.55C355.5 264.72 355.827 261.708 355.484 258.735C355.267 257.515 354.985 256.307 354.638 255.118C354.848 255.389 355.01 255.694 355.117 256.019C355.479 256.872 355.741 257.765 355.895 258.679C356.363 261.717 356.084 264.822 355.083 267.728C354.074 270.598 352.718 273.334 351.046 275.875C350.423 276.854 349.934 277.633 349.523 278.156C349.111 278.679 348.922 278.969 348.889 278.947Z" fill="#453D49"/>
<path d="M354.305 266.67C354.149 266.67 353.849 265.758 352.893 265.123C351.936 264.489 350.98 264.489 350.957 264.322C350.935 264.155 351.191 264.133 351.625 264.122C352.2 264.127 352.759 264.309 353.226 264.645C353.697 264.974 354.061 265.435 354.272 265.969C354.416 266.381 354.383 266.648 354.305 266.67Z" fill="#FAFAFA"/>
<path d="M361.178 266.648C360.344 265.711 359.429 264.851 358.442 264.078C357.346 263.464 356.191 262.964 354.994 262.586C355.657 262.494 356.331 262.537 356.976 262.711C357.622 262.885 358.226 263.187 358.753 263.599C359.928 264.26 360.798 265.354 361.178 266.648Z" fill="#FAFAFA"/>
<path d="M365.493 289.23C365.518 287.696 365.735 286.17 366.138 284.689C366.352 283.16 366.76 281.664 367.35 280.237C367.324 281.776 367.108 283.305 366.705 284.789C366.489 286.315 366.082 287.807 365.493 289.23Z" fill="#FAFAFA"/>
<path d="M382.842 292.635C382.564 289.441 382.664 286.224 383.142 283.053C383.435 286.247 383.334 289.466 382.842 292.635Z" fill="#FAFAFA"/>
<path d="M28.6164 342.097L11.4673 416.833L47.734 416.945L64.4827 351.223L28.6164 342.097Z" fill="#AE7F99"/>
<path d="M206.713 250.275C203.266 245.657 199.307 241.216 197.494 235.74C196.615 233.091 196.27 230.286 195.336 227.66C194.402 225.033 192.7 222.473 190.098 221.483C187.496 220.492 185.516 221.483 183.826 223.352L171.381 259.78L178.554 287.761C185.716 286.147 194.68 284.232 201.375 281.216C208.07 278.2 212.496 273.37 212.964 266.035C213.286 260.281 210.161 254.905 206.713 250.275Z" fill="#453D49"/>
<path d="M93.4647 243.842C93.4647 243.842 50.2027 262.685 44.7977 271.188C39.3928 279.691 21.5986 340.315 21.5986 340.315L67.1961 353.671L66.4176 416.788H178.187L177.264 305.49L163.251 243.987C163.251 243.987 138.573 242.395 136.282 241.271C133.991 240.147 93.4647 243.842 93.4647 243.842Z" fill="#B288CB"/>
<path d="M247.206 89.5719C247.562 87.0231 245.771 84.2184 247.062 81.9813C247.915 80.8284 249.134 80.0003 250.52 79.6329C251.192 79.3258 251.918 79.1555 252.656 79.1321C253.024 79.1262 253.385 79.2285 253.695 79.4263C254.006 79.6242 254.251 79.9089 254.402 80.2451C254.482 80.6707 254.444 81.1102 254.293 81.5161C254.142 81.922 253.884 82.2791 253.545 82.5489C252.868 83.0819 252.298 83.7391 251.866 84.4855C251.564 86.3175 251.705 88.1952 252.277 89.9614C253.759 93.8477 254.989 97.8256 255.959 101.87" fill="#AE7F99"/>
<path d="M238.076 90.4405C238.231 86.5784 241.412 71.364 241.523 67.502C244.137 68.3033 245.649 71.0858 246.139 73.7792C246.628 76.4726 246.372 79.2439 246.839 81.9373C247.462 85.5545 249.342 88.8155 251.232 91.9541C253.123 95.0927 255.102 98.287 255.959 101.849C256.815 105.41 260.04 114.67 257.527 117.341" fill="#AE7F99"/>
<path d="M237.353 116.484L221.883 190.03C221.338 193.369 163.251 244.065 163.251 244.065L174.718 289.909L250.343 215.862C255.803 210.02 258.775 202.279 258.628 194.281L257.338 125.276L237.353 116.484Z" fill="#AE7F99"/>
<path d="M234.706 90.9075L237.353 116.506L257.371 125.321C257.371 125.321 257.616 123.507 258.483 114.636C259.429 104.864 248.93 100.668 244.248 93.4896C242.246 90.4066 242.769 84.7304 241.223 77.6964C241.045 76.8839 239.933 71.9645 239.333 69.3268C239.016 67.8609 238.158 66.5689 236.93 65.7096C236.018 65.1086 234.995 64.8081 234.25 65.7096C233.505 66.6111 234.706 90.9075 234.706 90.9075Z" fill="#AE7F99"/>
<path d="M247.206 120.736C249.43 118.81 249.964 115.36 249.13 112.499C248.109 109.683 246.497 107.117 244.404 104.976C242.313 102.839 240.554 100.401 239.188 97.7413C238.342 95.827 237.942 93.7124 236.963 91.8314C235.985 89.9505 234.328 88.2254 232.237 88.1475C233.916 98.7319 233.872 104.842 237.308 116.439" fill="#AE7F99"/>
<path d="M234.317 100.234C234.317 100.234 234.239 99.9447 234.116 99.3883C233.994 98.8318 233.783 97.908 233.583 96.962C233.104 94.736 232.47 91.8979 231.814 88.6369L231.748 88.3252H232.07C232.755 88.3002 233.437 88.4113 234.079 88.652C234.72 88.8927 235.308 89.2583 235.807 89.7276C237.334 91.1818 238.421 93.0372 238.943 95.081C239.387 96.6695 239.971 98.2152 240.689 99.6999C241.233 100.675 241.89 101.583 242.646 102.404C242.922 102.72 243.148 103.077 243.314 103.462C243.009 103.179 242.727 102.874 242.469 102.549C241.641 101.766 240.922 100.875 240.333 99.9002C239.548 98.4108 238.907 96.8491 238.42 95.2368C237.903 93.2952 236.865 91.5324 235.418 90.1394C234.516 89.2923 233.318 88.8328 232.081 88.8595L232.348 88.5256C233.694 95.2257 234.561 100.245 234.317 100.234Z" fill="#7C5142"/>
<path d="M243.314 93.7234C242.506 90.2802 241.89 86.795 241.467 83.2837C240.85 79.8001 240.423 76.2852 240.188 72.7549C241.001 76.2006 241.618 79.6899 242.035 83.2058C242.652 86.6857 243.079 90.1968 243.314 93.7234Z" fill="#7C5142"/>
<path d="M249.686 94.5914C249.686 94.5914 249.764 94.7027 249.831 94.981H249.664C248.837 92.5997 248.161 90.1686 247.64 87.7021C247.161 85.554 246.817 83.5952 246.605 82.1372C246.434 81.3745 246.366 80.5919 246.405 79.811C246.572 79.811 247.25 83.2724 248.207 87.6019C248.974 91.0633 249.686 93.9793 249.831 94.9587H249.664C249.653 94.725 249.653 94.5914 249.686 94.5914Z" fill="#7C5142"/>
<path d="M253.634 108.693C253.545 108.693 253.145 108.114 252.344 107.257C250.229 105.008 247.357 103.62 244.281 103.362C243.638 103.367 242.995 103.327 242.357 103.239C242.973 103 243.634 102.902 244.293 102.95C245.895 102.97 247.474 103.342 248.918 104.041C250.361 104.739 251.633 105.746 252.645 106.99C253.1 107.475 253.439 108.057 253.634 108.693Z" fill="#7C5142"/>
<path d="M239.165 118.509C238.615 117.551 238.172 116.536 237.842 115.482C236.928 112.984 236.163 110.435 235.551 107.847C234.929 105.28 234.461 102.678 234.15 100.056C233.968 98.9527 233.901 97.8337 233.95 96.7168C234.229 97.7802 234.429 98.8627 234.55 99.9556C234.884 101.948 235.395 104.708 236.107 107.746C236.819 110.785 237.62 113.445 238.231 115.381C238.615 116.401 238.927 117.446 239.165 118.509Z" fill="#7C5142"/>
<path d="M149.672 245.389C150.663 243.871 152.2 242.792 153.964 242.378C155.729 241.963 157.585 242.244 159.147 243.163C167.31 236.485 175.662 230.008 183.825 223.363C181.156 236.719 179.377 255.339 185.349 267.56C185.349 267.56 192.878 281.561 204.867 279.424L194.168 289.908L177.297 305.568" fill="#B288CB"/>
<path d="M147.025 251.622C147.038 249.83 147.584 248.082 148.593 246.602C149.446 245.022 150.746 243.728 152.33 242.885C149.817 245.273 147.986 248.289 147.025 251.622Z" fill="#453D49"/>
<path d="M155.844 259.858C155.381 259.116 155.064 258.293 154.91 257.432C154.43 255.368 154.373 253.228 154.742 251.141C155.111 249.054 155.898 247.063 157.057 245.289C157.498 244.53 158.079 243.862 158.769 243.319C158.847 243.386 158.202 244.143 157.412 245.545C156.385 247.32 155.674 249.259 155.311 251.277C154.962 253.299 154.962 255.366 155.311 257.387C155.589 258.834 155.933 259.769 155.844 259.858Z" fill="#453D49"/>
<path d="M196.704 288.439C195.884 288.949 194.986 289.325 194.046 289.552C191.477 290.172 188.789 290.091 186.261 289.318C182.518 288.128 179.243 285.792 176.897 282.64C174.08 278.774 172.178 274.317 171.337 269.607C169.766 261.125 169.317 252.474 170.002 243.875C170.258 240.536 170.625 237.931 170.936 236.084C171.081 235.171 171.214 234.47 171.314 233.992C171.349 233.745 171.409 233.503 171.492 233.268C171.5 233.518 171.478 233.769 171.426 234.014L171.159 236.117C170.925 237.943 170.614 240.569 170.414 243.908C169.845 252.47 170.345 261.069 171.904 269.507C172.736 274.095 174.579 278.441 177.298 282.228C179.546 285.348 182.717 287.684 186.362 288.906C188.823 289.699 191.447 289.841 193.98 289.318C194.907 289.086 195.817 288.792 196.704 288.439Z" fill="#FAFAFA"/>
<path d="M67.4078 372.459C67.2521 372.459 67.1187 356.632 67.1187 337.122C67.1187 317.611 67.2521 301.785 67.4078 301.785C67.5635 301.785 67.697 317.6 67.697 337.122C67.697 356.644 67.5746 372.459 67.4078 372.459Z" fill="#453D49"/>
<path d="M66.5177 289.575C66.3954 289.575 66.4287 287.994 65.8838 285.535C65.5591 284.097 65.0935 282.695 64.4936 281.35C63.7462 279.712 62.8253 278.16 61.7466 276.72C60.638 275.299 59.3817 274.001 57.9988 272.847C56.8601 271.915 55.6349 271.095 54.3398 270.398C52.1156 269.229 50.5697 268.84 50.6031 268.729C50.9827 268.748 51.3573 268.823 51.7152 268.951C52.1367 269.056 52.5494 269.194 52.9497 269.363C53.4952 269.551 54.0267 269.778 54.54 270.042C55.876 270.696 57.1365 271.495 58.299 272.424C59.7267 273.59 61.021 274.912 62.1581 276.364C63.2681 277.841 64.2012 279.443 64.9385 281.138C65.5441 282.524 65.9954 283.972 66.2841 285.457C66.3983 286.022 66.4763 286.595 66.5177 287.171C66.5697 287.603 66.592 288.038 66.5844 288.473C66.6046 288.841 66.5822 289.211 66.5177 289.575Z" fill="#453D49"/>
<path d="M142.688 243.353C142.78 243.662 142.843 243.978 142.877 244.299C143.027 245.201 143.123 246.112 143.166 247.026C143.299 250.403 142.828 253.776 141.776 256.987C140.209 261.776 137.431 266.077 133.713 269.475C129.049 273.553 123.192 276.013 117.017 276.487C110.841 276.96 104.678 275.422 99.4481 272.101C95.2672 269.301 91.8806 265.467 89.6168 260.971C88.1005 257.954 87.1327 254.69 86.7587 251.333C86.6683 250.423 86.6275 249.509 86.6363 248.595C86.6095 248.277 86.6095 247.956 86.6363 247.638C86.6885 247.951 86.7146 248.267 86.7142 248.584C86.7427 249.492 86.8169 250.399 86.9366 251.3C87.3921 254.608 88.4076 257.815 89.9394 260.782C92.2085 265.187 95.5661 268.938 99.6928 271.678C104.828 274.91 110.864 276.408 116.913 275.954C122.962 275.499 128.706 273.115 133.301 269.152C136.979 265.825 139.744 261.61 141.331 256.909C142.397 253.744 142.923 250.422 142.888 247.081C142.888 245.902 142.788 244.989 142.699 244.366C142.61 243.743 142.677 243.364 142.688 243.353Z" fill="#453D49"/>
<path d="M66.451 339.915C66.451 340.071 57.2091 337.166 45.9321 333.437C34.6551 329.709 25.5467 326.559 25.6023 326.403C25.6579 326.248 34.833 329.152 46.1212 332.881C57.4093 336.609 66.4955 339.759 66.451 339.915Z" fill="#FAFAFA"/>
<path d="M176.185 324.468C176.185 324.634 151.663 324.868 121.413 324.991C91.1626 325.113 66.6289 325.091 66.6289 324.991C66.6289 324.89 91.1515 324.59 121.413 324.468C151.674 324.345 176.185 324.312 176.185 324.468Z" fill="#FAFAFA"/>
<path d="M176.741 334.16C176.741 334.316 152.085 334.45 121.691 334.45C91.296 334.45 66.6289 334.316 66.6289 334.16C66.6289 334.005 91.2738 333.871 121.691 333.871C152.107 333.871 176.741 333.994 176.741 334.16Z" fill="#FAFAFA"/>
<path d="M161.639 345.936C161.563 346.246 161.459 346.548 161.327 346.838C161.083 347.461 160.749 348.307 160.337 349.375L159.603 351.2C159.314 351.868 158.969 352.569 158.614 353.337C157.88 354.851 157.123 356.61 156.067 358.457L154.465 361.373C153.909 362.386 153.242 363.388 152.597 364.456C151.329 366.604 149.772 368.763 148.148 371.067C144.537 375.963 140.559 380.576 136.249 384.868C131.877 389.1 127.188 392.992 122.225 396.51C119.889 398.068 117.698 399.593 115.552 400.817C114.44 401.44 113.461 402.086 112.438 402.631L109.457 404.167C107.6 405.18 105.821 405.915 104.297 406.616C103.53 406.95 102.818 407.284 102.151 407.562L100.304 408.263L97.7577 409.209C97.4639 409.335 97.1584 409.432 96.8457 409.498C97.1233 409.341 97.4134 409.207 97.7132 409.098L100.227 408.052L102.039 407.306C102.707 407.016 103.407 406.671 104.164 406.315C105.676 405.592 107.433 404.835 109.268 403.8L112.193 402.242C113.205 401.685 114.217 401.029 115.285 400.405C117.431 399.17 119.6 397.634 121.958 396.076C131.864 389.081 140.577 380.53 147.759 370.756C149.372 368.474 150.94 366.304 152.208 364.2C152.864 363.143 153.542 362.152 154.109 361.151L155.722 358.257C156.834 356.443 157.579 354.695 158.336 353.193C158.703 352.436 159.07 351.746 159.37 351.089C159.67 350.432 159.915 349.831 160.148 349.286C160.604 348.24 160.971 347.416 161.26 346.793C161.372 346.501 161.498 346.215 161.639 345.936Z" fill="#453D49"/>
<path d="M79.3521 157.552C74.6589 161.236 74.3475 168.126 74.581 174.091C74.8146 180.057 74.8813 186.846 70.5329 190.964C66.974 194.359 60.7461 195.616 59.7229 200.435C59.464 201.571 59.5675 202.759 60.0189 203.832C60.4704 204.906 61.247 205.811 62.2393 206.419C63.2317 207.027 64.3898 207.309 65.5504 207.224C66.7111 207.139 67.8158 206.691 68.709 205.945C67.1965 209.718 67.886 214.548 71.1 217.074C74.3141 219.601 79.9304 218.399 81.1092 214.526C80.927 215.166 80.8768 215.838 80.9615 216.498C81.0462 217.159 81.2642 217.796 81.6022 218.37C81.9402 218.944 82.3911 219.443 82.9277 219.837C83.4643 220.232 84.0753 220.513 84.7237 220.664C85.3721 220.815 86.0444 220.832 86.6997 220.715C87.3551 220.598 87.9799 220.349 88.5363 219.984C89.0927 219.618 89.569 219.143 89.9364 218.587C90.3038 218.032 90.5546 217.407 90.6736 216.752" fill="#453D49"/>
<path d="M147.459 200.748C147.683 201.53 148.064 202.257 148.581 202.885C149.097 203.513 149.737 204.028 150.461 204.398C151.184 204.767 151.976 204.985 152.787 205.035C153.598 205.086 154.411 204.969 155.175 204.693C155.939 204.416 156.638 203.985 157.229 203.426C157.819 202.868 158.289 202.194 158.608 201.446C158.928 200.698 159.09 199.893 159.085 199.079C159.08 198.266 158.908 197.463 158.58 196.719C157.657 194.404 155.244 192.656 155.188 190.175C155.044 187.169 158.202 185.177 160.971 184.009C163.74 182.84 166.988 181.282 167.422 178.31C167.855 175.338 165.375 173.057 163.307 171.02C161.238 168.983 159.247 165.889 160.704 163.374C161.449 162.094 162.929 161.404 163.885 160.28C166.043 157.787 165.175 153.602 162.684 151.476C160.193 149.35 156.623 148.861 153.364 149.25C150.106 149.64 146.992 150.864 143.8 151.654C138.507 152.933 133.007 153.098 127.647 152.14C122.287 151.182 117.184 149.122 112.66 146.089" fill="#453D49"/>
<path d="M82.5437 180.502L93.9875 246.88C94.4617 249.658 95.4806 252.315 96.9855 254.697C98.4905 257.079 100.452 259.14 102.756 260.76C105.06 262.38 107.662 263.528 110.412 264.137C113.162 264.746 116.005 264.805 118.777 264.309C124.03 263.368 128.74 260.492 131.98 256.249C135.22 252.005 136.755 246.701 136.282 241.382C135.759 235.494 135.314 230.619 135.314 230.619C135.314 230.619 151.93 226.346 150.495 209.473C149.794 201.303 147.003 184.598 144.289 169.506C142.882 161.694 138.588 154.7 132.262 149.913C125.935 145.126 118.04 142.899 110.147 143.673L108.523 143.829C104.387 144.478 100.422 145.949 96.8632 148.156C93.3043 150.364 90.2232 153.262 87.8017 156.68C85.3802 160.098 83.6674 163.967 82.7643 168.059C81.8612 172.15 81.7862 176.381 82.5437 180.502Z" fill="#AE7F99"/>
<path d="M99.0477 160.201L98.9587 160.29C96.4803 162.67 95.0144 165.915 94.8661 169.35C94.8661 169.472 94.8661 169.595 94.8661 169.695C94.677 174.581 95.2664 179.467 95.0329 184.342C94.7993 189.216 93.6094 194.269 90.3731 197.931C89.0496 199.434 86.5584 200.624 85.2016 199.144C84.7295 198.521 84.4441 197.776 84.3787 196.996C82.3546 185.466 78.173 175.46 77.0163 163.295C76.8504 161.668 77.0757 160.025 77.6736 158.504C78.2714 156.982 79.2243 155.625 80.4528 154.547C82.8106 152.466 85.7355 150.273 88.6937 151.342C91.652 152.41 95.8225 157.341 98.2358 159.366" fill="#453D49"/>
<path d="M88.9719 187.582C88.6717 187.493 77.0499 185.289 78.5401 196.786C80.0304 208.283 91.2629 204.421 91.2407 204.087C91.2184 203.753 88.9719 187.582 88.9719 187.582Z" fill="#AE7F99"/>
<path d="M87.2146 200.191C87.2146 200.191 87.0367 200.358 86.7141 200.547C86.4933 200.682 86.248 200.772 85.9923 200.812C85.7365 200.853 85.4754 200.842 85.2239 200.781C83.956 200.491 82.6771 198.688 82.3546 196.629C82.1967 195.644 82.2613 194.637 82.5436 193.68C82.607 193.306 82.7593 192.954 82.9877 192.651C83.2162 192.349 83.514 192.106 83.856 191.944C84.0779 191.857 84.3231 191.849 84.5501 191.922C84.7771 191.995 84.9719 192.144 85.1015 192.344C85.3017 192.645 85.2572 192.89 85.324 192.901C85.3907 192.912 85.5464 192.678 85.3907 192.211C85.2901 191.933 85.0979 191.697 84.8458 191.543C84.5066 191.356 84.1093 191.304 83.7336 191.398C83.2729 191.554 82.8595 191.825 82.5325 192.185C82.2056 192.546 81.9759 192.983 81.8652 193.457C81.5039 194.531 81.4085 195.677 81.5872 196.796C81.9653 199.1 83.4333 201.115 85.1571 201.382C85.4774 201.434 85.8053 201.412 86.1157 201.317C86.426 201.223 86.7107 201.058 86.9477 200.836C87.2146 200.469 87.2146 200.202 87.2146 200.191Z" fill="#7C5142"/>
<path d="M88.4603 153.168C85.1239 148.828 92.3082 141.437 97.8244 139.089C103.341 136.741 111.114 138.777 116.964 140.102C120.645 140.948 124.371 142.25 128.086 141.727C130.576 141.229 132.979 140.362 135.214 139.156C137.448 137.929 139.907 137.172 142.443 136.93C143.713 136.833 144.986 137.086 146.123 137.661C147.26 138.235 148.218 139.11 148.894 140.191C150.072 142.417 149.016 145.756 146.547 146.368C147.306 145.845 148.181 145.514 149.096 145.405C150.012 145.295 150.94 145.409 151.801 145.737C152.663 146.065 153.431 146.598 154.042 147.289C154.652 147.98 155.086 148.81 155.305 149.706C155.525 150.601 155.523 151.537 155.302 152.433C155.08 153.328 154.645 154.156 154.033 154.846C153.421 155.536 152.65 156.067 151.788 156.393C150.926 156.719 149.998 156.831 149.083 156.719C150.606 155.316 153.32 157.13 153.32 159.189C153.32 161.248 151.596 162.94 149.794 163.953C145.19 166.535 139.518 166.402 134.38 165.211C129.242 164.02 124.371 161.872 119.255 160.536C114.139 159.201 105.565 156.797 100.783 159.034C97.2684 160.67 95.1553 165.311 92.9978 164.599C91.9768 164.174 91.0696 163.516 90.3491 162.678C89.6286 161.839 89.115 160.842 88.8495 159.768C88.3527 157.609 88.2099 155.384 88.4269 153.179" fill="#453D49"/>
<path d="M89.1162 189.551C89.2596 195.664 89.9594 201.752 91.207 207.737C92.4539 213.744 95.3015 219.301 99.4479 223.82C105.009 229.53 112.304 234.95 120.2 236.296C128.819 237.721 139.362 235.918 146.38 230.732C149.716 228.272 152.13 222.941 151.095 218.912C152.508 218.245 153.717 217.212 154.597 215.921C155.477 214.629 155.996 213.126 156.1 211.566C156.278 208.45 154.376 204.554 151.918 204.142C153.765 203.831 154.298 200.893 153.598 199.234C152.897 197.576 150.462 197.075 148.615 197.431C146.791 197.909 145.094 198.783 143.644 199.991C142.203 201.2 140.577 202.17 138.829 202.863C132.868 204.799 126.829 199.524 120.567 199.78C114.907 200.002 109.869 204.71 104.252 203.92C102.693 203.622 101.214 203 99.9113 202.093C98.6083 201.186 97.5107 200.015 96.6898 198.655C94.9549 195.995 95.7112 186.168 95.0328 183.074" fill="#453D49"/>
<g opacity="0.6">
<path opacity="0.6" d="M134.547 216.051C134.079 215.941 133.618 215.8 133.168 215.628C132.079 215.316 130.933 215.259 129.818 215.462C128.703 215.665 127.65 216.121 126.74 216.796C126.028 217.308 125.628 217.72 125.628 217.664C125.628 217.609 125.85 217.119 126.529 216.551C127.442 215.747 128.558 215.207 129.756 214.991C130.954 214.776 132.187 214.892 133.324 215.327C134.147 215.605 134.581 215.995 134.547 216.051Z" fill="#5A4C65"/>
</g>
<path d="M114.006 234.416C114.257 234.473 114.5 234.563 114.729 234.683C115.207 234.861 115.908 235.106 116.831 235.362C119.447 236.069 122.131 236.491 124.838 236.619C126.692 236.728 128.551 236.691 130.399 236.508C132.53 236.317 134.635 235.907 136.682 235.284C138.942 234.608 141.098 233.623 143.088 232.356C145.252 231.05 147.141 229.334 148.649 227.304C150.44 224.913 151.237 221.922 150.873 218.956V218.722L151.073 218.633C152.457 217.99 153.654 217.006 154.554 215.773C154.991 215.191 155.364 214.565 155.666 213.903C155.932 213.261 156.097 212.581 156.156 211.889C156.277 210.635 156.098 209.37 155.634 208.199C155.17 207.029 154.434 205.985 153.487 205.155L153.32 205.022L153.453 204.855C153.955 204.218 154.282 203.461 154.403 202.659C154.524 201.857 154.434 201.037 154.143 200.28C153.914 199.706 153.569 199.186 153.128 198.753C152.688 198.32 152.162 197.984 151.585 197.765C150.848 197.47 150.05 197.36 149.26 197.442C148.716 197.509 148.449 197.609 148.438 197.576C148.694 197.454 148.968 197.371 149.249 197.331C150.306 197.16 151.389 197.343 152.331 197.852C153.272 198.362 154.019 199.168 154.454 200.147C154.783 200.963 154.895 201.85 154.778 202.723C154.661 203.595 154.32 204.422 153.787 205.122V204.821C154.803 205.689 155.597 206.787 156.104 208.024C156.611 209.261 156.815 210.601 156.701 211.933C156.644 212.698 156.467 213.449 156.178 214.159C155.855 214.857 155.464 215.52 155.01 216.14C154.063 217.462 152.792 218.516 151.318 219.201L151.485 218.867C151.931 221.984 151.132 225.151 149.26 227.682C147.708 229.772 145.763 231.537 143.533 232.88C141.503 234.173 139.296 235.166 136.983 235.829C134.9 236.455 132.756 236.858 130.588 237.031C128.704 237.18 126.811 237.18 124.927 237.031C122.199 236.86 119.501 236.371 116.886 235.573C116.178 235.353 115.483 235.089 114.807 234.783C114.527 234.689 114.259 234.566 114.006 234.416Z" fill="#5A4C65"/>
<path d="M63.5928 205.044C63.3799 204.985 63.18 204.887 63.0034 204.755C62.5023 204.379 62.1169 203.87 61.8913 203.285C61.5155 202.345 61.434 201.313 61.6577 200.325C62.0086 199.017 62.7928 197.867 63.882 197.064C65.1615 196.099 66.5887 195.347 68.1081 194.838C69.8108 194.302 71.4572 193.602 73.0237 192.745C74.6721 191.701 75.9639 190.179 76.7271 188.383C77.5644 186.449 78.0104 184.368 78.0395 182.261C78.1284 177.909 77.1275 173.78 77.0163 169.94C76.9051 166.101 77.5724 162.517 79.3184 160.113C80.6261 158.186 82.6117 156.823 84.8791 156.295C85.494 156.173 86.1237 156.143 86.7475 156.206C86.9651 156.232 87.1807 156.272 87.3925 156.329C86.5686 156.289 85.7429 156.353 84.9347 156.518C82.7492 157.096 80.8528 158.459 79.6076 160.347C77.9839 162.684 77.3054 166.156 77.5056 169.918C77.7058 173.68 78.6178 177.809 78.6178 182.283C78.5715 184.471 78.0914 186.627 77.2054 188.627C76.3878 190.523 75.0101 192.123 73.2573 193.213C71.6479 194.085 69.952 194.786 68.1971 195.305C66.7209 195.772 65.3282 196.471 64.0711 197.375C63.0383 198.107 62.2822 199.166 61.9246 200.38C61.6823 201.306 61.7249 202.284 62.047 203.185C62.3401 203.96 62.8844 204.615 63.5928 205.044Z" fill="#5A4C65"/>
<path d="M146.97 146.178C147.127 146.082 147.295 146.003 147.47 145.944C147.681 145.85 147.901 145.775 148.126 145.721C148.428 145.632 148.737 145.569 149.049 145.532C150.087 145.419 151.137 145.544 152.12 145.897C153.102 146.249 153.992 146.821 154.721 147.569C155.45 148.548 155.978 149.662 156.274 150.846C156.57 152.031 156.628 153.262 156.445 154.469C156.227 155.967 155.711 157.405 154.928 158.699C154.144 159.993 153.11 161.117 151.885 162.004C149.065 164.059 145.696 165.222 142.21 165.343C138.431 165.492 134.65 165.087 130.988 164.141C125.171 162.712 119.652 160.267 114.684 156.918C112.561 155.457 110.33 154.159 108.012 153.034C105.981 152.093 103.794 151.535 101.561 151.386C98.3085 151.162 95.0521 151.767 92.0969 153.145C90.0172 154.124 89.0274 154.97 88.9829 154.904C89.8963 154.117 90.9097 153.454 91.9968 152.934C94.9694 151.462 98.2724 150.787 101.583 150.975C103.889 151.093 106.151 151.64 108.256 152.589C110.608 153.711 112.872 155.009 115.029 156.473C119.961 159.756 125.425 162.158 131.177 163.574C134.783 164.521 138.506 164.941 142.232 164.82C145.612 164.702 148.881 163.587 151.629 161.615C152.809 160.77 153.81 159.7 154.573 158.466C155.337 157.232 155.848 155.858 156.078 154.425C156.274 153.265 156.238 152.077 155.973 150.931C155.708 149.785 155.218 148.703 154.532 147.747C153.842 147.023 153.001 146.461 152.068 146.102C151.136 145.742 150.135 145.593 149.138 145.666C148.403 145.78 147.678 145.952 146.97 146.178Z" fill="#5A4C65"/>
<path d="M141.076 136.373C141.074 137.249 140.897 138.116 140.553 138.921C139.588 141.136 137.913 142.965 135.793 144.119C134.361 144.953 132.79 145.518 131.155 145.788C129.282 146.062 127.379 146.062 125.506 145.788C121.535 145.288 117.432 143.729 113.116 142.383C108.801 141.036 104.453 140.235 100.627 141.058C97.2372 141.799 94.1669 143.591 91.8525 146.178C90.2759 147.904 89.0686 149.934 88.3048 152.143C87.7932 153.724 87.6931 154.648 87.6264 154.637C87.5992 154.415 87.5992 154.191 87.6264 153.969C87.7154 153.329 87.8529 152.696 88.0379 152.077C88.7287 149.791 89.909 147.683 91.4966 145.9C93.8337 143.197 96.9757 141.317 100.46 140.535C104.42 139.656 108.89 140.468 113.228 141.826C117.565 143.184 121.635 144.742 125.517 145.254C127.342 145.521 129.196 145.521 131.022 145.254C132.608 145.014 134.137 144.49 135.537 143.707C137.61 142.619 139.276 140.89 140.286 138.777C140.613 137.998 140.877 137.194 141.076 136.373Z" fill="#5A4C65"/>
<path d="M225.253 65.9323C225.152 66.0548 218.902 60.9684 211.284 54.5688C203.666 48.1692 197.583 42.8268 197.694 42.7489C197.805 42.671 204.044 47.7128 211.662 54.1236C219.28 60.5344 225.364 65.8099 225.253 65.9323Z" fill="#453D49"/>
<path d="M256.971 58.3081C256.815 58.3081 256.181 48.4248 255.569 36.2154C254.958 24.006 254.58 14.1005 254.735 14.0894C254.891 14.0782 255.525 23.9726 256.148 36.1932C256.77 48.4137 257.126 58.3081 256.971 58.3081Z" fill="#453D49"/>
<path d="M236.775 51.2409C236.619 51.2409 234.673 45.676 232.415 38.6308C230.157 31.5856 228.456 25.8983 228.611 25.8538C228.767 25.8093 230.713 31.4187 232.971 38.4527C235.229 45.4868 236.919 51.1963 236.775 51.2409Z" fill="#453D49"/>
<path d="M218.769 76.3716C215.84 75.3406 212.977 74.1326 210.195 72.7544C207.33 71.5461 204.545 70.1596 201.854 68.603C204.782 69.6341 207.646 70.842 210.428 72.2202C213.291 73.4312 216.077 74.8176 218.769 76.3716Z" fill="#453D49"/>
<path d="M189.531 63.5834C189.531 63.7392 188.586 63.7615 187.462 63.5834C186.339 63.4053 185.449 63.205 185.472 63.0492C185.494 62.8934 186.417 62.8711 187.529 63.0492C188.641 63.2273 189.531 63.4276 189.531 63.5834Z" fill="#453D49"/>
<path d="M229.334 18.6639C229.167 18.6639 229.045 17.7624 229.045 16.6383C229.045 15.5142 229.167 14.6016 229.334 14.6016C229.501 14.6016 229.623 15.5142 229.623 16.6383C229.623 17.7624 229.49 18.6639 229.334 18.6639Z" fill="#453D49"/>
<path d="M296.296 34.3792C296.418 34.4905 291.28 40.3782 284.841 47.5347C278.402 54.6911 273.086 60.4118 272.941 60.3006C272.796 60.1893 277.957 54.3127 284.396 47.1451C290.835 39.9775 296.185 34.2791 296.296 34.3792Z" fill="#453D49"/>
<path d="M304.47 26.2875C304.581 26.3988 303.992 27.1779 303.146 28.0237C302.301 28.8696 301.534 29.4483 301.423 29.337C301.311 29.2257 301.901 28.4467 302.746 27.6119C303.591 26.7772 304.359 26.1317 304.47 26.2875Z" fill="#453D49"/>
<path d="M324.288 54.7798C323.811 55.1236 323.305 55.4252 322.775 55.6813C321.785 56.2267 320.34 56.9946 318.538 57.9073C314.924 59.7326 309.863 62.1143 304.169 64.485C298.475 66.8556 293.215 68.7477 289.367 70.0499C287.454 70.6843 285.897 71.1629 284.807 71.4856C284.256 71.6861 283.686 71.8315 283.105 71.9197C283.631 71.6593 284.178 71.4433 284.74 71.2742L289.189 69.6603C292.992 68.2914 298.208 66.3214 303.902 63.9841C309.596 61.6469 314.657 59.2985 318.36 57.5734L322.675 55.5255C323.194 55.2374 323.733 54.9882 324.288 54.7798Z" fill="#453D49"/>
<path d="M308.029 82.1816C307.078 82.6052 306.087 82.9297 305.07 83.1499C303.224 83.6619 300.622 84.2629 297.753 84.7637C294.883 85.2646 292.192 85.5428 290.312 85.6764C289.283 85.8075 288.243 85.8262 287.209 85.7321C288.219 85.4991 289.246 85.3429 290.279 85.2646C292.17 85.0309 294.783 84.6747 297.652 84.1516C300.522 83.6285 303.113 83.1277 304.981 82.727C305.978 82.4517 306.998 82.2691 308.029 82.1816Z" fill="#453D49"/>
<path d="M322.809 79.4432C320.691 79.829 318.521 79.829 316.403 79.4432C318.521 79.0573 320.691 79.0573 322.809 79.4432Z" fill="#453D49"/>
</g>
<defs>
<clipPath id="clip0_293_13613">
<rect width="506" height="356" fill="white"/>
</clipPath>
</defs>
</svg>
