<svg width="709" height="373" viewBox="0 0 709 373" fill="none" xmlns="http://www.w3.org/2000/svg">
<path d="M404.428 14.6041C403.805 12.7427 402.632 11.1141 401.064 9.93371C399.495 8.75332 397.605 8.07671 395.644 7.99334C396.661 5.13867 394.708 1.84482 391.934 0.64286C390.511 0.128154 388.996 -0.0812404 387.487 0.0282757C385.977 0.137792 384.508 0.563769 383.174 1.27852C381.244 2.19155 379.441 3.46286 377.395 3.93671C374.656 4.56081 371.825 3.694 369.028 3.60154C366.157 3.54694 363.327 4.28239 360.847 5.72752C358.366 7.17266 356.331 9.27187 354.962 11.7957C354.026 13.564 353.448 15.5172 352.42 17.2392C351.588 18.6145 350.501 19.8165 349.681 21.2034C348.535 23.2337 348.014 25.5569 348.182 27.8821C348.351 30.2072 349.202 32.431 350.628 34.2748L390.027 25.2254C391.647 26.3453 393.575 26.9318 395.544 26.9029C397.513 26.874 399.423 26.2312 401.009 25.0642C402.595 23.8971 403.776 22.2641 404.389 20.3931C405.002 18.5221 405.016 16.5063 404.428 14.6273V14.6041Z" fill="#352638"/>
<path d="M495.188 159.672L457.199 155.905L455.003 175.633L497.904 174.142L495.188 159.672Z" fill="#E5BAFF"/>
<path d="M524.047 171.229C523.805 171.571 523.468 171.834 523.078 171.986C522.687 172.138 522.261 172.172 521.851 172.084C521.675 172.037 521.505 171.971 521.343 171.887C520.187 171.321 520.707 168.906 520.707 168.906L515.136 167.08C515.136 167.08 506.954 170.685 503.81 173.448C500.666 176.21 494.333 172.569 494.333 172.569L493.917 160.018L505.937 152.171C505.937 152.171 505.197 152.644 506.202 151.015C507.208 149.385 510.409 150.541 510.409 150.541C511.068 149.744 513.276 149.767 513.276 149.767L522.325 152.286C523.247 152.542 524.1 153.002 524.82 153.632C525.54 154.263 526.11 155.047 526.486 155.927L529.41 162.711C529.41 162.711 530.773 167.484 530.276 168.49C530.066 168.894 529.714 169.206 529.288 169.368C528.862 169.53 528.391 169.53 527.965 169.368C527.965 169.368 527.04 172.211 526.266 172.199C525.484 172.034 524.739 171.725 524.07 171.286L524.047 171.229Z" fill="#E5BAFF"/>
<path d="M506.132 171.807C506.35 171.715 506.559 171.602 506.756 171.472L508.49 170.478C510.667 169.272 512.913 168.195 515.216 167.253H515.078L520.637 169.126L520.475 168.848C520.389 169.317 520.351 169.793 520.36 170.27C520.355 170.791 520.503 171.301 520.787 171.738C520.971 171.961 521.216 172.126 521.492 172.211C521.744 172.322 522.015 172.381 522.29 172.385C522.857 172.386 523.405 172.185 523.838 171.819C523.947 171.727 524.047 171.627 524.139 171.518L524.208 171.437L523.85 171.507L524.023 171.611C524.247 171.751 524.478 171.879 524.717 171.992C524.959 172.115 525.21 172.219 525.468 172.304C525.602 172.356 525.742 172.395 525.884 172.42C526.061 172.471 526.25 172.471 526.427 172.42C526.711 172.262 526.946 172.03 527.109 171.749C527.259 171.512 527.395 171.264 527.514 171.01C527.752 170.502 527.961 169.981 528.138 169.449L527.768 169.623C528.141 169.77 528.547 169.812 528.942 169.745C529.337 169.678 529.707 169.503 530.01 169.241C530.323 168.957 530.528 168.573 530.588 168.155C530.63 167.771 530.63 167.383 530.588 166.999C530.384 165.527 530.075 164.071 529.663 162.642L528.103 159.025L527.121 156.713C526.817 155.922 526.43 155.167 525.965 154.459C525.471 153.772 524.842 153.194 524.116 152.76C523.393 152.36 522.613 152.072 521.804 151.905L513.263 149.594H513.194C512.662 149.6 512.132 149.654 511.611 149.756C511.053 149.83 510.535 150.081 510.131 150.472H510.466C510.032 150.183 509.533 150.004 509.013 149.951C508.493 149.899 507.968 149.975 507.485 150.172C506.624 150.61 505.966 151.364 505.647 152.275L505.739 152.159L497.453 157.534L495.222 159.025C494.955 159.191 494.7 159.376 494.459 159.579C494.751 159.457 495.03 159.306 495.292 159.129L497.603 157.742L505.982 152.541V152.472C506.268 151.682 506.842 151.03 507.589 150.645C508.001 150.488 508.445 150.432 508.884 150.482C509.322 150.533 509.742 150.688 510.108 150.934L510.293 151.05L510.443 150.888C510.768 150.601 511.17 150.416 511.599 150.357C512.083 150.263 512.574 150.217 513.067 150.218L521.585 152.622C522.333 152.779 523.054 153.048 523.723 153.419C524.378 153.816 524.944 154.343 525.387 154.968C525.821 155.638 526.178 156.355 526.45 157.106C526.785 157.869 527.109 158.632 527.444 159.417L529.004 163.035C529.41 164.433 529.715 165.858 529.917 167.3C529.951 167.634 529.951 167.971 529.917 168.305C529.876 168.59 529.738 168.851 529.524 169.045C529.299 169.234 529.026 169.36 528.736 169.408C528.445 169.457 528.147 169.427 527.872 169.322L527.594 169.23L527.502 169.496C527.342 170.006 527.145 170.504 526.912 170.986C526.751 171.431 526.481 171.829 526.127 172.142C526.046 172.152 525.965 172.152 525.884 172.142L525.549 172.05C525.318 171.969 525.086 171.865 524.855 171.761C524.63 171.653 524.41 171.533 524.197 171.403L524.035 171.31L523.676 171.379V171.449C523.601 171.532 523.52 171.609 523.434 171.68C523.111 171.958 522.703 172.117 522.278 172.131C522.064 172.13 521.852 172.086 521.654 172.003C521.461 171.958 521.29 171.848 521.168 171.691C520.787 170.925 520.697 170.046 520.914 169.218V168.999L520.718 168.941L515.147 167.138H515.078H515.008C512.708 168.119 510.476 169.254 508.328 170.536C507.577 170.986 507.011 171.356 506.629 171.622C506.46 171.672 506.294 171.734 506.132 171.807Z" fill="#BD99D2"/>
<path d="M511.46 154.009C512.336 154.58 513.284 155.031 514.28 155.349C516.701 156.261 519.23 156.851 521.804 157.106L521.527 156.852C521.619 157.337 521.7 157.834 521.827 158.343C522.483 161.211 523.684 163.926 525.364 166.34C525.87 167.064 526.427 167.751 527.028 168.398C527.456 168.86 527.722 169.08 527.756 169.056C527.791 169.033 526.901 167.959 525.722 166.098C524.188 163.671 523.074 161.002 522.428 158.204C522.313 157.719 522.22 157.222 522.139 156.759V156.517H521.908C519.38 156.27 516.885 155.754 514.465 154.98C513.483 154.598 512.48 154.274 511.46 154.009Z" fill="#BD99D2"/>
<path d="M519.366 160.758C519.63 164.636 521.386 168.261 524.266 170.871C524.416 170.744 522.729 168.825 521.388 166.028C520.048 163.231 519.551 160.723 519.366 160.758Z" fill="#BD99D2"/>
<path d="M493.096 168.537C493.096 168.537 493.177 168.629 493.362 168.756C493.636 168.939 493.922 169.105 494.217 169.253C495.337 169.8 496.547 170.137 497.788 170.247C499.694 170.42 501.61 170.047 503.312 169.172C505.483 168.06 507.203 166.231 508.178 163.995L507.808 164.168C509.94 164.935 512.169 165.395 514.431 165.532C515.27 165.578 516.111 165.578 516.95 165.532C517.791 165.534 518.627 165.397 519.423 165.127C519.869 164.978 520.243 164.669 520.475 164.261C520.573 164.05 520.629 163.822 520.638 163.59C520.648 163.358 520.612 163.127 520.533 162.908C520.369 162.477 520.041 162.128 519.62 161.938L518.603 161.498C515.91 160.343 513.425 159.499 511.333 158.817C509.241 158.135 507.508 157.661 506.317 157.361C505.704 157.168 505.073 157.04 504.433 156.979C505.025 157.22 505.631 157.425 506.248 157.592C507.404 157.962 509.114 158.505 511.195 159.233C513.275 159.961 515.713 160.886 518.383 162.03L519.389 162.469C519.66 162.597 519.872 162.825 519.978 163.105C520.037 163.246 520.067 163.397 520.067 163.55C520.067 163.703 520.037 163.854 519.978 163.995C519.808 164.274 519.54 164.48 519.227 164.573C518.481 164.815 517.7 164.932 516.915 164.919C516.106 164.919 515.286 164.919 514.454 164.919C512.249 164.784 510.075 164.34 507.993 163.602L507.727 163.509L507.623 163.764C506.695 165.9 505.064 167.654 503 168.733C501.385 169.589 499.567 169.989 497.742 169.889C496.549 169.812 495.378 169.539 494.275 169.08C493.512 168.78 493.119 168.537 493.096 168.537Z" fill="#BD99D2"/>
<path d="M371.963 110.854C367.455 110.754 363.166 108.891 360.016 105.666C356.866 102.44 355.105 98.1076 355.112 93.5987L354.396 36.3782C353.725 21.0185 361.862 7.80846 376.806 7.5542H378.192C392.119 8.14362 403.26 19.6201 403.803 33.9396C404.312 47.2652 404.855 60.1286 404.485 67.2479C403.711 81.9951 389.137 83.4282 389.137 83.4282C389.137 83.4282 389.137 88.9179 389.137 93.2519C389.175 95.5313 388.761 97.7956 387.918 99.9137C387.075 102.032 385.82 103.962 384.226 105.591C382.632 107.221 380.73 108.518 378.631 109.407C376.532 110.297 374.277 110.761 371.998 110.773L371.963 110.854Z" fill="#E5BAFF"/>
<path d="M389.138 83.6005C382.491 83.297 376.081 81.0463 370.704 77.1284C370.704 77.1284 374.749 88.4084 389.103 87.6803L389.138 83.6005Z" fill="#BD99D2"/>
<path d="M355.112 47.3465C354.87 47.2309 345.381 43.9371 345.289 54.0267C345.196 64.1162 355.066 62.1168 355.089 61.851C355.112 61.5852 355.112 47.3465 355.112 47.3465Z" fill="#E5BAFF"/>
<path d="M352.142 57.9904C352.142 57.9904 351.969 58.1176 351.68 58.2447C351.477 58.3296 351.259 58.3733 351.039 58.3733C350.819 58.3733 350.601 58.3296 350.397 58.2447C349.369 57.8402 348.502 56.1412 348.479 54.3152C348.455 53.4526 348.625 52.5956 348.976 51.8072C349.067 51.4959 349.233 51.2114 349.458 50.9779C349.684 50.7445 349.962 50.569 350.27 50.4666C350.47 50.4144 350.681 50.4359 350.866 50.5272C351.051 50.6185 351.196 50.7735 351.276 50.9636C351.414 51.2409 351.345 51.449 351.403 51.4605C351.461 51.4721 351.611 51.2987 351.53 50.8826C351.485 50.6311 351.349 50.4048 351.149 50.247C351.021 50.1373 350.871 50.0567 350.71 50.0107C350.548 49.9648 350.378 49.9547 350.212 49.9812C349.805 50.0609 349.425 50.2443 349.11 50.5135C348.794 50.7827 348.553 51.1288 348.409 51.5183C347.985 52.3926 347.775 53.3553 347.797 54.3267C347.797 56.3608 348.837 58.2793 350.247 58.7185C350.509 58.7975 350.786 58.8156 351.057 58.7715C351.327 58.7275 351.584 58.6224 351.807 58.4643C352.119 58.2331 352.177 58.0135 352.142 57.9904Z" fill="#BD99D2"/>
<path d="M362.163 22.1508C362.392 20.8603 362.97 19.657 363.833 18.6711C364.697 17.6852 365.814 16.9541 367.063 16.5571C369.216 15.8327 371.551 15.8612 373.685 16.638C379.221 18.649 388.71 21.6654 391.125 19.7354C394.662 16.9616 395.517 15.1124 395.517 15.1124L397.47 17.239C399.054 16.3375 394.292 11.0442 390.386 9.21817C384.491 6.46752 375.488 4.76859 370.045 6.35195C363.492 8.25891 358.048 11.599 354.754 17.7359C351.582 24.0008 350.089 30.9815 350.42 37.996C350.42 40.1341 350.085 46.2595 352.142 46.7333C353.749 47.0916 355.795 47.8082 355.679 50.8824C355.599 52.0048 355.964 53.1135 356.696 53.9682C358.487 55.933 360.683 54.0838 361.7 52.2346C363.862 48.282 364.104 43.5666 364.289 39.0361C364.597 35.8225 364.39 32.5804 363.677 29.432C362.931 27.4289 362.4 25.3524 362.093 23.2372C362.078 22.8737 362.102 22.5096 362.163 22.1508Z" fill="#352638"/>
<path d="M396.719 197.834L349.773 187.502L319.597 112.737C319.597 112.737 279.274 121.683 272.628 144.266C266.849 163.74 254.992 249.819 281.99 302.879C285.43 309.563 290.65 315.166 297.075 319.07C303.499 322.974 310.878 325.026 318.395 325H523.85C536.377 325.001 548.465 320.386 557.803 312.037C567.142 303.687 573.076 292.19 574.471 279.741C575.627 269.339 576.436 259.481 576.274 253.055L543.29 227.745L396.719 197.834Z" fill="#5A4564"/>
<g opacity="0.3">
<path opacity="0.3" d="M522.232 223.838C536.69 242.723 554.28 259.666 575.315 270.784L576.32 245.15L537.465 217.493L522.232 223.838Z" fill="#282628"/>
</g>
<path d="M367.167 98.1982C367.167 99.562 377.846 103.977 382.665 102.035C390.016 99.0996 389.103 93.3325 389.103 93.3325L393.183 97.6319L434.061 159.926L464.445 179.978L415.812 195.384L364.821 136.811L367.167 98.1982Z" fill="#F5F5F5"/>
<path d="M354.28 77.291L353.205 79.302L348.351 88.3514L328.161 101.226L369.686 150.588L388.629 195.384L434.049 209.6C434.049 209.6 412.437 176.372 405.722 159.383C399.007 142.394 398.325 143.203 392.2 130.744C388.036 121.966 384.333 112.978 381.105 103.815L354.28 77.291Z" fill="#B46ED5"/>
<path d="M451.571 166.225L460.481 174.535L463.001 179.666L429.877 164.26L405.965 130.744C405.965 130.744 397.447 111.848 394.523 105.075C391.438 97.9556 389.138 93.9221 389.138 93.9221V88.3052L401.192 99.1922L411.258 102.186L428.086 128.767L451.571 166.225Z" fill="#B46ED5"/>
<path d="M441.365 134.881C441.365 134.881 437.343 126.306 434.06 119.175C426.664 103.11 409.224 101.584 409.224 101.584L428.501 155.049L452.113 171.795C452.113 171.795 458.839 174.107 459.683 171.795C459.683 171.795 464.595 154.066 464.445 153.997C464.294 153.928 447.64 148.946 447.64 148.946L440.937 133.922" fill="#B46ED5"/>
<path d="M476.88 118.193L453.939 156.413L477.967 155.708L499.151 120.296C499.338 119.986 499.438 119.631 499.442 119.269C499.447 118.907 499.355 118.55 499.176 118.235C498.997 117.92 498.738 117.658 498.425 117.476C498.112 117.294 497.757 117.198 497.395 117.199H478.637C478.283 117.198 477.935 117.29 477.628 117.464C477.32 117.638 477.062 117.889 476.88 118.193Z" fill="#352638"/>
<path d="M388.629 161.417L446.057 154.587L455.708 137.678L463.266 133.529C463.893 133.183 464.606 133.022 465.32 133.068C466.035 133.113 466.722 133.361 467.3 133.783L468.016 134.303L473.622 133.598C474.577 133.473 475.547 133.664 476.384 134.142L480.36 136.453C480.646 136.621 480.884 136.861 481.05 137.148C481.216 137.436 481.305 137.762 481.307 138.094C481.307 138.374 481.245 138.65 481.126 138.903C481.007 139.156 480.834 139.38 480.619 139.558C480.404 139.737 480.152 139.866 479.882 139.937C479.611 140.007 479.329 140.017 479.054 139.967L475.193 139.262L469.276 141.192C469.276 141.192 473.09 141.596 473.575 144.485C474.061 147.375 472.131 147.444 472.131 147.444C472.131 147.444 476.141 149.756 473.286 153.223C473.286 153.223 476.638 155.453 472.882 159.683C470.351 162.55 452.079 171.888 452.079 171.888L388.629 195.384V161.417Z" fill="#E5BAFF"/>
<path d="M473.194 153.2C473.194 153.2 473.622 153.2 474.13 153.72C474.461 154.103 474.69 154.563 474.797 155.058C474.904 155.553 474.886 156.066 474.743 156.552C474.24 157.926 473.388 159.145 472.27 160.088C471.022 161.31 469.673 162.424 468.236 163.417C465.612 165.176 462.839 166.704 459.949 167.982C458.792 168.582 457.581 169.074 456.332 169.45C457.445 168.756 458.603 168.139 459.799 167.601C462.599 166.226 465.302 164.663 467.889 162.92C469.305 161.948 470.642 160.866 471.888 159.684C472.961 158.823 473.799 157.706 474.327 156.436C474.473 156.01 474.516 155.555 474.451 155.109C474.387 154.663 474.218 154.238 473.957 153.871C473.735 153.613 473.478 153.387 473.194 153.2Z" fill="#BD99D2"/>
<path d="M467.809 134.454C466.931 134.995 465.958 135.364 464.943 135.54C463.975 135.901 462.947 136.074 461.915 136.049C462.79 135.503 463.764 135.134 464.781 134.962C465.748 134.601 466.776 134.428 467.809 134.454Z" fill="#BD99D2"/>
<path d="M475.206 139.215C473.956 139.938 472.615 140.49 471.218 140.856C469.879 141.403 468.472 141.764 467.035 141.931C468.279 141.198 469.622 140.645 471.022 140.29C472.359 139.737 473.768 139.376 475.206 139.215Z" fill="#BD99D2"/>
<path d="M468.374 146.878C468.201 146.878 468.12 146.358 467.923 145.791C467.727 145.225 467.496 144.786 467.623 144.635C467.75 144.485 468.259 144.867 468.49 145.572C468.721 146.277 468.478 146.901 468.374 146.878Z" fill="#BD99D2"/>
<path d="M470.282 153.512C470.109 153.512 470.178 152.645 469.936 151.709C469.693 150.773 469.277 150.056 469.404 149.941C469.531 149.825 470.248 150.449 470.56 151.559C470.872 152.668 470.433 153.512 470.282 153.512Z" fill="#BD99D2"/>
<path d="M329.779 100.197C327.861 101.353 311.623 112.448 313.992 130.616C316.361 148.784 352.305 189.859 359.805 190.645L388.641 195.384V161.417L374.772 160.631L356.65 125.08L329.779 100.197Z" fill="#B46ED5"/>
<path d="M388.629 159.776C388.29 159.839 387.945 159.87 387.6 159.869L384.688 159.984L374.356 160.216H374.217L374.125 160.1L366.82 150.276C362.463 144.394 358.557 139.043 355.748 135.148L352.455 130.525C352.022 129.972 351.635 129.384 351.299 128.768C351.787 129.268 352.235 129.805 352.639 130.375L356.107 134.882C359.008 138.696 363.041 144.012 367.329 149.906L374.575 159.765L374.344 159.649H384.676H387.589C387.94 159.649 388.289 159.691 388.629 159.776Z" fill="#352638"/>
<path d="M381.625 108.254C381.408 107.928 381.218 107.584 381.059 107.225L379.637 104.244H379.949C378.9 105.769 377.969 107.373 377.164 109.04C376.144 111.259 374.934 113.386 373.546 115.396L373.315 115.72L373.073 115.408C371.2 113.096 369.062 110.658 366.762 108.15C361.735 102.683 356.927 97.9448 353.494 94.4776L349.438 90.3516C348.925 89.8677 348.453 89.3419 348.028 88.7798C348.594 89.2045 349.128 89.6721 349.623 90.1783L353.818 94.154C357.285 97.5403 362.197 102.244 367.248 107.711C369.559 110.23 371.686 112.704 373.546 115.027H373.061C374.441 113.046 375.662 110.959 376.713 108.786C377.555 107.112 378.541 105.515 379.66 104.012L379.845 103.758L379.961 104.036C380.481 105.284 380.908 106.289 381.232 107.087C381.412 107.457 381.545 107.85 381.625 108.254Z" fill="#352638"/>
<path d="M401.343 99.5629C401.728 100.079 402.021 100.657 402.21 101.273C402.802 102.835 403.307 104.429 403.724 106.047L404.117 107.457L403.215 106.301C401.925 104.701 400.511 103.205 398.985 101.828C397.644 100.603 396.338 99.5167 395.148 98.4303L395.633 98.2454C395.466 100.14 395.408 102.042 395.46 103.943C395.504 104.698 395.406 105.455 395.171 106.174C395.102 106.174 395.171 105.353 395.09 103.955C394.94 102.031 394.94 100.099 395.09 98.176L395.148 97.6328L395.576 97.9911C396.731 98.9966 398.118 100.118 399.471 101.366C401.028 102.772 402.452 104.32 403.724 105.989L403.215 106.231C402.718 104.232 402.314 102.568 401.944 101.424C401.699 100.818 401.499 100.197 401.343 99.5629Z" fill="#352638"/>
<path d="M443.052 154.945C442.56 154.56 442.1 154.135 441.677 153.674L438.129 150.045C436.638 148.485 434.87 146.739 432.928 144.578C432.038 143.422 431.252 142.186 430.328 140.972C429.39 139.661 428.584 138.26 427.924 136.789C426.549 133.807 425.508 130.86 424.572 128.19C423.636 125.52 422.816 123.105 422.064 121.117C421.313 119.129 420.62 117.534 420.088 116.494C419.775 115.958 419.497 115.402 419.256 114.83C419.256 114.83 419.383 114.945 419.556 115.199C419.83 115.569 420.081 115.955 420.308 116.355C421.137 117.846 421.866 119.391 422.492 120.978C423.312 122.966 424.179 125.358 425.139 128.017C426.098 130.675 427.15 133.599 428.513 136.546C429.153 137.976 429.927 139.342 430.825 140.626C431.761 141.862 432.547 143.145 433.39 144.243C435.205 146.312 437.02 148.184 438.441 149.756L441.85 153.512C442.291 153.955 442.693 154.434 443.052 154.945Z" fill="#352638"/>
<path d="M459.718 174.119L568.727 171.056C570.454 171.01 572.171 171.329 573.766 171.992C577.73 173.68 584.861 178.014 589.75 188.392C596.835 203.417 629.889 266.982 629.889 266.982L596.465 284.11L555.471 208.063L429.08 197.314L430.547 187.213L459.718 174.119Z" fill="#352638"/>
<path d="M586.538 270.715L603.955 300.614L605.11 308.173C605.278 309.272 605.661 310.327 606.237 311.278C606.813 312.229 607.571 313.057 608.467 313.715C609.363 314.373 610.38 314.848 611.46 315.113C612.54 315.377 613.662 315.426 614.761 315.257L667.774 307.167C668.401 307.084 669 306.858 669.525 306.506C670.05 306.155 670.487 305.688 670.804 305.141C671.12 304.593 671.306 303.981 671.348 303.35C671.389 302.72 671.286 302.088 671.045 301.504C670.817 300.987 670.47 300.53 670.032 300.173C669.594 299.815 669.078 299.567 668.525 299.447C664.087 298.291 629.878 285.751 629.878 285.751L615.616 257.135L586.538 270.715Z" fill="#E0E0E0"/>
<path d="M601.134 277.638C599.678 276.163 598.366 274.553 597.216 272.83C595.891 271.227 594.73 269.497 593.749 267.664C595.198 269.141 596.506 270.75 597.655 272.471C598.98 274.076 600.146 275.806 601.134 277.638Z" fill="#352638"/>
<path d="M611.535 273.454C610.075 271.965 608.844 270.267 607.883 268.415C606.752 266.662 605.88 264.755 605.294 262.752C605.456 262.671 606.681 265.167 608.403 268.115C610.125 271.062 611.686 273.35 611.535 273.454Z" fill="#352638"/>
<path d="M618.805 314.298C618.69 314.298 618.412 313.269 617.649 311.709C616.629 309.685 615.175 307.911 613.391 306.513C611.607 305.114 609.538 304.126 607.329 303.619C605.63 303.214 604.532 303.203 604.532 303.087C605.486 302.869 606.478 302.869 607.433 303.087C609.77 303.48 611.971 304.453 613.834 305.917C615.698 307.381 617.165 309.289 618.1 311.466C618.537 312.348 618.778 313.314 618.805 314.298Z" fill="#352638"/>
<path d="M654.529 309.154C654.09 308.575 653.801 307.896 653.685 307.178C653.268 305.452 653.356 303.643 653.94 301.966C654.542 300.32 655.483 298.82 656.702 297.562C657.152 296.996 657.71 296.525 658.343 296.175C658.412 296.256 657.869 296.869 657.072 297.886C656.028 299.185 655.193 300.64 654.599 302.197C654.066 303.764 653.92 305.437 654.171 307.074C654.344 307.757 654.463 308.453 654.529 309.154Z" fill="#352638"/>
<path d="M426.341 188.992C426.341 188.992 538.828 177.712 544.295 178.163C554.384 178.995 572.992 194.91 606.011 217.077C623.119 228.703 638.996 242.043 653.396 256.892L642.844 280.977C642.844 280.977 568.877 254.014 557.262 244.317C547.623 236.227 530.033 224.785 530.033 224.785L486.647 225.225L454.39 228.068C446.434 228.772 438.428 227.454 431.117 224.235C423.807 221.016 417.429 216.001 412.576 209.657L400.059 193.303L426.341 188.992Z" fill="#352638"/>
<path d="M529.489 224.451C529.489 224.451 529.674 224.555 530.009 224.786L531.524 225.826L537.36 229.929C542.434 233.547 549.877 238.747 559.007 245.647C559.585 246.075 560.163 246.572 560.741 246.953L562.601 248.109C563.942 248.779 565.283 249.519 566.704 250.178L571.05 252.2L575.673 254.223C581.921 256.927 588.659 259.747 595.886 262.683C610.31 268.542 626.49 274.91 643.953 281.625L643.572 281.798L653.13 257.528L653.199 257.875L640.07 244.491C636.984 241.822 633.679 238.978 630.304 236.17C610.175 219.582 589.122 204.147 567.247 189.941C564.285 187.405 561.089 185.156 557.701 183.226C554.484 181.353 551.059 179.863 547.496 178.788C546.617 178.557 545.739 178.372 544.872 178.152L542.249 177.748L539.625 177.609H526.912L492.945 177.54L470.894 177.447H465.115H463.613C463.443 177.457 463.273 177.457 463.104 177.447H463.613H465.115H470.894L492.945 177.366L526.912 177.297H539.625L542.295 177.424L544.976 177.829C545.855 178.048 546.745 178.233 547.634 178.476C551.244 179.547 554.712 181.045 557.967 182.937C561.399 184.877 564.634 187.145 567.629 189.709C589.547 203.896 610.632 219.331 630.778 235.939C634.164 238.747 637.47 241.59 640.556 244.272L653.685 257.667L653.823 257.817L653.754 258.013L644.161 282.284L644.057 282.561L643.78 282.457C626.317 275.719 610.137 269.317 595.725 263.422C588.524 260.475 581.775 257.644 575.534 254.905L570.911 252.859L566.519 250.594C565.109 249.912 563.757 249.172 562.416 248.49L560.509 247.334C559.885 246.953 559.354 246.456 558.776 246.028C549.692 239.094 542.272 233.835 537.244 230.16L531.466 225.988L529.986 224.902C529.628 224.59 529.489 224.451 529.489 224.451Z" fill="#5A4564"/>
<path d="M618.921 274.864L650.126 287.127L655.315 292.744C656.071 293.56 656.98 294.22 657.991 294.685C659.002 295.151 660.094 295.412 661.206 295.455C662.318 295.498 663.427 295.322 664.471 294.936C665.515 294.55 666.472 293.962 667.288 293.206L706.653 256.777C707.124 256.356 707.493 255.833 707.731 255.247C707.968 254.662 708.069 254.029 708.024 253.399C707.979 252.768 707.791 252.156 707.473 251.61C707.155 251.064 706.716 250.598 706.19 250.247C705.711 249.949 705.169 249.768 704.607 249.718C704.045 249.668 703.479 249.75 702.954 249.958C698.644 251.507 663.266 260.256 663.266 260.256L639.539 241.348L618.921 274.864Z" fill="#E0E0E0"/>
<path d="M618.921 274.864C618.921 274.864 619.025 274.668 619.256 274.275L620.308 272.541C621.244 270.981 622.619 268.727 624.364 265.838C627.924 259.978 633.056 251.565 639.389 241.232L639.516 241.013L639.724 241.175L663.451 260.036H663.209L684.312 254.72L695.465 251.819C697.349 251.31 699.256 250.813 701.151 250.259L702.561 249.819C703.051 249.631 703.565 249.511 704.087 249.461C704.632 249.439 705.175 249.53 705.682 249.729C706.189 249.928 706.65 250.23 707.034 250.617C707.786 251.369 708.243 252.366 708.321 253.427C708.4 254.487 708.095 255.541 707.462 256.396C707.146 256.814 706.79 257.201 706.398 257.551L705.324 258.545L703.186 260.522L694.795 268.276L678.927 282.931L671.542 289.75L668.005 293.021C667.431 293.577 666.804 294.077 666.133 294.512C664.488 295.521 662.554 295.956 660.636 295.747C658.717 295.537 656.923 294.696 655.535 293.356C653.547 291.287 651.744 289.265 649.975 287.358H650.056C640.429 283.521 632.639 280.423 627.219 278.25L621.071 275.766L619.476 275.118L618.956 274.899C618.956 274.899 619.164 274.957 619.545 275.107L621.175 275.719L627.416 278.123L650.207 286.965C651.986 288.86 653.824 290.894 655.766 292.917C656.808 293.911 658.093 294.615 659.492 294.957C660.892 295.3 662.356 295.27 663.74 294.87C664.461 294.662 665.15 294.355 665.786 293.957C666.426 293.536 667.022 293.052 667.566 292.512C668.722 291.437 669.877 290.339 671.102 289.242C673.491 287.023 675.949 284.742 678.476 282.4C683.515 277.777 688.82 272.807 694.321 267.722C697.064 265.171 699.857 262.583 702.7 259.955L704.838 257.979C705.563 257.35 706.25 256.678 706.895 255.968C707.446 255.228 707.714 254.316 707.651 253.396C707.587 252.476 707.196 251.609 706.549 250.952C706.22 250.628 705.827 250.376 705.395 250.212C704.963 250.049 704.502 249.978 704.041 250.004C703.573 250.051 703.114 250.164 702.677 250.339L701.232 250.779C699.325 251.333 697.43 251.83 695.535 252.339L684.37 255.228L663.266 260.51H663.128L663.024 260.429L639.424 241.521H639.759L624.63 265.861L620.435 272.553L619.279 274.298C619.071 274.645 618.921 274.864 618.921 274.864Z" fill="#352638"/>
<path d="M670.063 290.142C669.982 290.223 669.161 289.506 667.624 288.663C665.646 287.554 663.449 286.895 661.187 286.733C658.926 286.571 656.656 286.91 654.541 287.727C652.911 288.339 651.987 288.94 651.917 288.882C652.608 288.186 653.439 287.646 654.356 287.299C656.512 286.318 658.879 285.893 661.241 286.062C663.603 286.232 665.885 286.991 667.878 288.27C668.738 288.722 669.484 289.362 670.063 290.142Z" fill="#352638"/>
<path d="M696.782 265.883C696.097 265.642 695.476 265.247 694.968 264.727C693.661 263.529 692.726 261.981 692.275 260.266C691.853 258.564 691.79 256.793 692.09 255.066C692.143 254.347 692.343 253.646 692.679 253.008C692.737 253.714 692.706 254.425 692.587 255.123C692.437 256.785 692.558 258.459 692.945 260.081C693.382 261.682 694.198 263.153 695.326 264.369C696.193 265.294 696.852 265.779 696.782 265.883Z" fill="#352638"/>
<path d="M510.362 224.463C507.947 213.009 503.012 201.29 493.246 194.853C485.838 189.952 476.673 188.75 467.82 187.664L283.526 165C281.874 194.044 294.309 230.195 306.999 256.384C308.964 260.452 311.241 264.613 315.008 267.098C319.631 270.126 325.503 270.091 331.004 269.952C393.009 268.369 455.037 265.734 516.696 258.95C513.229 247.774 512.766 235.904 510.362 224.463Z" fill="#5A4564"/>
<path d="M351.333 173.332C350.607 173.341 349.88 173.295 349.16 173.194L343.266 172.558C338.297 171.98 331.443 171.137 323.885 170.096C316.326 169.056 309.484 168.005 304.561 167.138C302.087 166.699 300.1 166.34 298.782 165.982C298.065 165.862 297.358 165.689 296.667 165.462C297.393 165.496 298.116 165.585 298.828 165.728L304.676 166.629C309.623 167.369 316.453 168.351 324.012 169.391L343.37 172.038L349.241 172.882C349.949 172.977 350.649 173.128 351.333 173.332Z" fill="#352638"/>
<path d="M352.281 324.942C352.208 324.829 352.147 324.709 352.096 324.584C351.957 324.318 351.796 323.96 351.588 323.521L349.715 319.395L348.363 316.471C347.901 315.315 347.45 314.159 346.93 312.842C345.936 310.241 344.688 307.306 343.625 303.943C343.07 302.278 342.469 300.533 341.879 298.707C341.29 296.881 340.724 294.939 340.204 292.928C339.048 288.964 338.054 284.642 336.991 280.111C332.703 260.339 331.297 240.05 332.818 219.874C333.246 215.252 333.581 210.837 334.228 206.745C334.54 204.7 334.749 202.712 335.095 200.816C335.442 198.921 335.789 197.118 336.112 195.384C336.702 191.917 337.534 188.831 338.158 186.139C338.493 184.775 338.77 183.515 339.083 182.359C339.395 181.204 339.73 180.163 340.007 179.216C340.55 177.355 340.989 175.899 341.29 174.87L341.648 173.714C341.681 173.583 341.728 173.455 341.787 173.333C341.778 173.467 341.751 173.599 341.706 173.726L341.417 174.882L340.261 179.25L339.395 182.406C339.106 183.561 338.84 184.844 338.528 186.196C337.927 188.924 337.129 191.975 336.575 195.442C336.274 197.164 335.939 198.979 335.604 200.863C335.269 202.746 335.072 204.734 334.783 206.78C334.148 210.86 333.835 215.263 333.419 219.886C331.992 240.015 333.392 260.244 337.58 279.984C338.632 284.503 339.545 288.826 340.735 292.778C341.302 294.766 341.775 296.696 342.365 298.557C342.954 300.418 343.521 302.128 344.075 303.792C345.104 307.156 346.317 310.091 347.277 312.715C347.785 314.021 348.213 315.246 348.664 316.355L349.958 319.349L351.715 323.521L352.165 324.619C352.215 324.722 352.254 324.831 352.281 324.942Z" fill="#352638"/>
<path d="M350.329 266.381C347.918 266.6 345.493 266.6 343.082 266.381C340.656 266.379 338.234 266.159 335.847 265.722C338.262 265.511 340.69 265.511 343.105 265.722C345.528 265.73 347.945 265.95 350.329 266.381Z" fill="#352638"/>
<path d="M348.652 274.863C346.078 274.638 343.562 273.978 341.209 272.91C338.775 272.043 336.508 270.765 334.506 269.131C334.61 268.969 337.545 270.737 341.44 272.309C345.335 273.881 348.687 274.609 348.652 274.863Z" fill="#352638"/>
<path d="M332.507 216.938C331.066 217.843 329.411 218.35 327.711 218.406C326.029 218.669 324.309 218.49 322.718 217.886C322.718 217.69 324.948 218.025 327.653 217.759C330.357 217.493 332.438 216.765 332.507 216.938Z" fill="#352638"/>
<path d="M336.193 214.164C334.403 214.538 332.54 214.302 330.9 213.494C329.175 212.883 327.709 211.706 326.739 210.154C328.12 211.205 329.599 212.123 331.154 212.893C333.789 214.037 336.193 213.956 336.193 214.164Z" fill="#352638"/>
<path d="M401.087 16.1648C400.627 14.9665 399.887 13.8961 398.927 13.0434C397.968 12.1907 396.818 11.5806 395.574 11.2645C393.071 10.6449 390.444 10.741 387.993 11.5419L364.046 17.0201C367.513 19.3315 374.644 21.5043 378.735 21.9435C384.71 22.5792 388.917 22.6369 392.477 20.5797C392.709 21.17 393.063 21.7044 393.516 22.1478C393.969 22.5911 394.511 22.9333 395.107 23.1517C395.702 23.3702 396.337 23.4599 396.969 23.415C397.602 23.3701 398.217 23.1916 398.776 22.8912C399.856 22.1883 400.67 21.1445 401.089 19.9257C401.508 18.707 401.507 17.3832 401.087 16.1648Z" fill="#352638"/>
<path d="M640.337 267.375C635.47 266.365 630.791 264.603 626.468 262.151C626.537 261.989 629.588 263.306 633.402 264.74C637.216 266.173 640.383 267.213 640.337 267.375Z" fill="#352638"/>
<path d="M645.606 257.135C643.513 256.272 641.464 255.304 639.469 254.234C637.387 253.349 635.354 252.354 633.378 251.252C635.589 251.802 637.724 252.621 639.735 253.691C641.831 254.584 643.804 255.741 645.606 257.135Z" fill="#352638"/>
<path d="M454.864 184.612L503.139 185.202L561.435 173.645C562.35 173.453 563.186 172.988 563.832 172.311C564.478 171.634 564.903 170.777 565.052 169.854L572.98 117.36C573.07 116.758 573.016 116.142 572.823 115.565C572.631 114.987 572.304 114.463 571.871 114.035C571.437 113.607 570.909 113.287 570.328 113.102C569.748 112.917 569.132 112.871 568.531 112.968L508.953 122.665C508.127 122.8 507.367 123.198 506.786 123.8C506.205 124.402 505.834 125.175 505.728 126.005L499.083 179.389L454.934 179.169C454.212 179.169 453.52 179.455 453.009 179.964C452.498 180.473 452.209 181.164 452.206 181.885C452.203 182.597 452.48 183.282 452.977 183.793C453.474 184.303 454.152 184.597 454.864 184.612Z" fill="#E0E0E0"/>
<path d="M454.865 184.612C454.553 184.635 454.24 184.584 453.952 184.462C453.514 184.305 453.125 184.039 452.819 183.689C452.514 183.339 452.303 182.917 452.206 182.463C452.128 182.091 452.127 181.707 452.202 181.334C452.277 180.961 452.427 180.608 452.644 180.295C452.86 179.983 453.138 179.718 453.46 179.516C453.782 179.314 454.142 179.181 454.518 179.123C456.286 179.053 458.286 179.123 460.574 179.123L499.071 179.215L498.863 179.4C500.759 164.04 503.013 145.884 505.497 125.682C505.641 125.007 505.95 124.379 506.396 123.853C506.841 123.326 507.41 122.918 508.051 122.665C508.683 122.462 509.333 122.326 509.993 122.261L511.912 121.937L519.69 120.677L535.72 118.054L552.328 115.372L560.811 113.997L565.099 113.292L567.248 112.945C567.985 112.785 568.737 112.704 569.49 112.703C570.315 112.774 571.101 113.088 571.748 113.604C572.396 114.12 572.877 114.815 573.131 115.604C573.349 116.383 573.373 117.205 573.2 117.996L572.854 120.238C572.407 123.228 571.96 126.198 571.513 129.149C570.623 135.031 569.745 140.845 568.878 146.543C568.011 152.24 567.167 157.823 566.347 163.301L565.723 167.369C565.619 168.051 565.526 168.721 565.422 169.391C565.356 170.101 565.164 170.794 564.856 171.437C564.531 172.074 564.07 172.632 563.504 173.069C562.939 173.507 562.283 173.814 561.585 173.968L557.679 174.742L503.186 185.468L467.797 184.948L458.239 184.774L455.662 184.716H454.818H455.662H458.147L467.716 184.774L503.105 185.109L557.575 174.246L561.47 173.46C562.087 173.326 562.666 173.056 563.166 172.67C563.665 172.284 564.073 171.792 564.359 171.229C564.64 170.641 564.809 170.006 564.856 169.357L565.168 167.334C565.364 165.982 565.572 164.618 565.78 163.254L568.3 146.496C569.155 140.802 570.03 135.024 570.924 129.16C571.363 126.217 571.81 123.247 572.264 120.25L572.599 118.007C572.779 117.314 572.779 116.586 572.599 115.892C572.385 115.217 571.975 114.621 571.422 114.179C570.868 113.736 570.196 113.468 569.49 113.408C568.787 113.414 568.086 113.491 567.398 113.639L565.237 113.997L560.961 114.691L552.466 116.066L535.87 118.77L519.84 121.371L512.062 122.63L510.143 122.942C509.519 123.003 508.903 123.131 508.306 123.324C507.752 123.539 507.26 123.89 506.877 124.345C506.493 124.799 506.23 125.342 506.11 125.924C503.567 146.057 501.279 164.237 499.349 179.585V179.77H499.152L460.655 179.493C458.343 179.493 456.344 179.423 454.622 179.493C454.233 179.546 453.861 179.686 453.533 179.902C453.205 180.118 452.929 180.405 452.726 180.741C452.526 181.072 452.401 181.443 452.36 181.828C452.318 182.213 452.361 182.602 452.485 182.969C452.609 183.335 452.812 183.67 453.08 183.95C453.347 184.23 453.672 184.448 454.032 184.589C454.308 184.63 454.587 184.638 454.865 184.612Z" fill="#352638"/>
<path d="M510.882 124.352C511.044 124.352 509.449 138.302 507.311 155.476C505.173 172.65 503.312 186.554 503.139 186.531C502.965 186.508 504.583 172.581 506.721 155.407C508.86 138.232 510.72 124.329 510.882 124.352Z" fill="#352638"/>
<path d="M536.795 146.023C535.581 148.554 536.252 151.397 538.286 152.379C540.32 153.362 542.909 152.09 544.168 149.559C545.428 147.028 544.712 144.185 542.678 143.214C540.643 142.244 538.008 143.492 536.795 146.023Z" fill="white"/>
<path d="M224.105 69.7747L232.243 67.3453C242.095 63.9077 250.245 66.5557 255.578 73.2123C260.91 79.8688 262.975 88.6997 262.672 97.2268C262.477 102.717 261.457 108.499 263.631 113.528C265.033 116.256 266.857 118.744 269.037 120.901C271.221 123.065 272.919 125.67 274.017 128.542C274.928 131.469 274.479 135.016 272.146 137.045C271.052 137.741 270.038 138.556 269.122 139.474C268.028 140.883 268.126 142.851 268.016 144.637C267.771 148.875 266.101 152.906 263.277 156.076C260.452 159.245 256.64 161.367 252.458 162.097C248.276 162.827 243.969 162.123 240.238 160.097C236.507 158.072 233.57 154.845 231.903 150.941C229.474 145.365 229.96 139.061 230.203 133.012C231.054 111.754 229.003 90.4785 224.105 69.7747Z" fill="#363237"/>
<path d="M206.444 59.851C213.489 57.7617 220.133 59.7781 226.68 63.0942C233.227 66.5405 238.563 71.9065 241.973 78.4723C245.723 85.3127 247.139 93.1897 246.006 100.908C245.405 104.731 244.038 108.393 241.986 111.675C239.934 114.956 237.24 117.789 234.066 120.003C225.283 125.87 213.137 125.651 204.014 120.331C194.892 115.01 188.855 105.123 187.191 94.7006C185.945 87.473 187.003 80.0367 190.215 73.4434C191.84 70.1797 194.12 67.2854 196.911 64.9407C199.703 62.596 202.948 60.851 206.444 59.8145" fill="#363237"/>
<path d="M229.827 81.8373C228.454 79.2135 228.491 76.0918 227.725 73.2251C226.037 66.9208 220.255 62.4021 213.975 60.6165C208.132 58.9524 201.403 60.2764 194.953 63.2403C190.471 65.2134 186.642 68.4191 183.911 72.4841C182.193 75.2289 181.158 78.3452 180.892 81.5723C180.625 84.7994 181.136 88.0433 182.381 91.0325L214.619 82.3474C217.996 84.5218 221.458 86.7325 225.357 87.7043C226.487 88.0511 227.689 88.0972 228.843 87.8379C229.422 87.7011 229.949 87.3985 230.359 86.967C230.769 86.5356 231.044 85.994 231.151 85.4085C231.297 84.1088 230.422 82.9791 229.827 81.8373Z" fill="#363237"/>
<path d="M195.329 72.3862L224.713 75.0586C226.063 74.9793 227.393 75.4135 228.436 76.2742C229.479 77.1348 230.158 78.3582 230.337 79.6987L237.431 141.77C237.906 145.998 236.98 150.265 234.795 153.917L232.487 157.767C227.215 166.55 214.485 167.254 208.655 158.836C208.305 158.361 208.019 157.843 207.804 157.294C207.625 156.847 207.479 156.389 207.367 155.921L206.152 149.945C205.205 144.454 204.5 138.842 204.5 138.891C204.5 138.94 192.596 138.818 187.774 124.059C185.345 116.771 183.79 104.321 182.818 94.1415C181.883 84.9705 186.098 72.8721 195.329 72.3862Z" fill="#EAC9FF"/>
<path d="M204.439 138.904C211.594 137.887 218.324 134.897 223.874 130.267C223.874 130.267 220.449 141.564 205.07 142.56L204.439 138.904Z" fill="#723F92"/>
<path d="M234.54 76.7836C230.519 68.4143 216.125 58.0651 207.039 59.9965L193.617 70.8316C194.447 73.2641 195.917 75.4279 197.873 77.0952C199.829 78.7626 202.198 79.8718 204.731 80.3062C207.428 80.7314 210.574 80.5127 212.432 82.5291C214.291 84.5455 213.866 88.0196 215.664 90.1574C218.093 93.1334 223.668 92.1981 225.685 95.5021C226.559 96.9476 226.474 98.8304 227.373 100.252C228.588 102.159 234.09 104.017 236.119 103.045C238.148 102.074 237.65 98.4417 238.075 96.4496C238.653 94.1851 238.43 91.7901 237.443 89.6716C235.9 85.5173 236.459 80.78 234.54 76.7836Z" fill="#363237"/>
<path d="M230.094 105.718C229.923 104.588 229.693 102.972 230.713 102.462C233.762 100.932 240.176 99.8141 241.427 107.321C243.139 117.634 232.438 117.221 232.377 116.929C232.316 116.638 230.701 109.605 230.094 105.718Z" fill="#EAC9FF"/>
<path d="M234.88 112.533C234.88 112.533 235.074 112.63 235.402 112.727C235.86 112.831 236.34 112.762 236.75 112.533C237.771 111.949 238.402 110.103 238.147 108.196C238.009 107.33 237.69 106.502 237.212 105.767C237.059 105.463 236.836 105.2 236.561 105C236.287 104.799 235.968 104.667 235.633 104.613C235.417 104.595 235.202 104.652 235.023 104.773C234.844 104.895 234.712 105.074 234.649 105.281C234.564 105.597 234.649 105.791 234.649 105.815C234.649 105.84 234.394 105.682 234.406 105.244C234.426 104.979 234.532 104.727 234.71 104.528C234.958 104.268 235.298 104.116 235.657 104.103C236.094 104.117 236.519 104.243 236.893 104.469C237.267 104.694 237.578 105.011 237.795 105.39C238.385 106.209 238.765 107.16 238.9 108.16C239.18 110.249 238.439 112.362 237.017 113.018C236.755 113.147 236.466 113.214 236.173 113.214C235.881 113.214 235.592 113.147 235.329 113.018C234.928 112.788 234.843 112.557 234.88 112.533Z" fill="#723F92"/>
<path d="M196.252 67.346C195.803 71.6703 190.045 77.8532 187.616 81.473C183 88.3967 182.186 90.5953 183.972 104.613C180.85 100.07 178.348 95.5635 177.898 90.0366C177.358 84.5055 178.857 78.9678 182.113 74.4641C183.759 72.2474 185.9 70.4459 188.365 69.2037C190.83 67.9615 193.552 67.3128 196.313 67.3096" fill="#363237"/>
<path d="M238.111 74.1115C232.22 65.6086 224.749 61.102 218.008 59.7173L238.111 74.1115Z" fill="#363237"/>
<path d="M240.394 114.039C240.554 113.898 240.696 113.739 240.819 113.565C241.215 113.082 241.58 112.575 241.912 112.046C243.137 110.104 244.059 107.986 244.645 105.766C245.486 102.471 245.918 99.0852 245.933 95.6845C246.06 91.5036 245.315 87.3421 243.746 83.4646C242.265 79.5443 240.219 75.8613 237.673 72.5323C235.62 69.8057 233.224 67.356 230.543 65.2441C228.723 63.8505 226.746 62.6763 224.651 61.7458C223.91 61.43 223.327 61.1992 222.914 61.0656C222.717 60.9795 222.508 60.9222 222.295 60.8955C222.295 60.8955 223.109 61.2721 224.542 61.9766C226.574 62.9829 228.492 64.2046 230.263 65.6207C232.872 67.7535 235.206 70.2016 237.211 72.9089C239.707 76.1969 241.72 79.8252 243.188 83.6833C244.733 87.4871 245.482 91.5676 245.386 95.6723C245.397 99.0338 245.014 102.385 244.245 105.657C243.706 107.853 242.864 109.962 241.742 111.925C240.904 113.31 240.333 114.002 240.394 114.039Z" fill="#300E3C"/>
<path d="M188.272 246.404C188.272 246.404 129.007 239.687 119.289 238.047C100.753 234.901 82.2165 237.901 74.3452 253.838C70.7619 261.126 75.3049 275.083 86.1643 285.42C94.2784 293.17 134.521 333.875 134.521 333.875L169.007 305.074L126.322 271.876L209.067 283.501L188.272 246.404Z" fill="#363237"/>
<path d="M126.783 314.039L148.976 337.434C148.976 337.434 132.201 368.215 135.869 372.952L183.667 330.887L150.616 292.94L126.783 314.039Z" fill="#363237"/>
<path d="M161.961 322.408C162.534 322.137 163.187 322.089 163.793 322.273C164.399 322.457 164.915 322.86 165.241 323.404C165.517 323.976 165.566 324.633 165.376 325.24C165.187 325.847 164.774 326.359 164.22 326.672C163.612 326.957 162.92 327.004 162.279 326.804C161.638 326.604 161.096 326.171 160.758 325.591C160.528 324.965 160.549 324.274 160.816 323.663C161.083 323.052 161.576 322.567 162.192 322.311" fill="#9B9B9B"/>
<path d="M183.667 330.886L180.327 327.048L135.493 369.101C135.108 370.399 135.238 371.795 135.857 373L183.667 330.886Z" fill="#300E3C"/>
<path d="M147.98 337.907C148.199 338.126 149.45 337.202 151.247 336.935C153.045 336.668 154.515 337.081 154.649 336.801C154.782 336.522 153.264 335.502 151.089 335.878C148.915 336.255 147.749 337.737 147.98 337.907Z" fill="white"/>
<path d="M144.798 344.369C144.944 344.636 146.304 344.126 147.944 344.369C149.584 344.612 150.726 345.462 150.956 345.244C151.187 345.025 150.179 343.604 148.126 343.312C146.073 343.021 144.579 344.138 144.798 344.369Z" fill="white"/>
<path d="M147.106 352.775C147.361 352.63 146.681 351.196 144.98 350.468C143.279 349.739 141.737 350.2 141.81 350.468C141.883 350.735 143.146 350.832 144.531 351.451C145.915 352.071 146.863 352.958 147.106 352.775Z" fill="white"/>
<path d="M143.583 332.004C143.862 332.126 144.652 330.863 146.012 329.781C147.373 328.7 148.806 328.214 148.745 327.911C148.684 327.607 146.984 327.656 145.356 328.943C143.729 330.231 143.255 331.919 143.583 332.004Z" fill="white"/>
<path d="M110.786 309.957C110.912 310.147 111.058 310.322 111.223 310.479L112.523 311.925L117.467 317.051L134.303 334.178L134.509 334.385L134.728 334.202L139.028 330.558L160.322 312.666L166.662 307.187L168.387 305.669C168.594 305.501 168.785 305.314 168.958 305.11C168.724 305.242 168.505 305.396 168.302 305.572L166.504 306.993L159.969 312.326L138.566 330.072L134.266 333.716H134.691L117.686 316.711L112.608 311.73L111.211 310.406C111.087 310.241 110.944 310.09 110.786 309.957Z" fill="#300E3C"/>
<path d="M60.3148 308.075L31.1621 333.753L2.27656 347.443C1.78436 347.675 1.34515 348.006 0.986198 348.416C0.627251 348.825 0.356201 349.303 0.189903 349.821C0.023613 350.34 -0.0344162 350.887 0.0194626 351.428C0.0733337 351.97 0.237946 352.495 0.503067 352.97C0.81073 353.525 1.24716 353.997 1.77563 354.348C2.3041 354.699 2.90914 354.918 3.53982 354.986C11.7026 355.861 41.7542 358.91 43.7828 356.906C46.1271 354.598 76.2881 331.846 76.2881 331.846L60.3148 308.075Z" fill="#363237"/>
<path d="M0.540283 352.97L45.8242 355.217L43.82 356.905C43.3795 357.249 42.8721 357.497 42.3304 357.633C41.7886 357.768 41.2244 357.79 40.6739 357.695C36.8719 357.695 26.3648 357.391 3.64991 355.083C2.99828 355.012 2.37407 354.782 1.83194 354.414C1.2898 354.045 0.846283 353.549 0.540283 352.97Z" fill="#300E3C"/>
<g opacity="0.6">
<path opacity="0.6" d="M45.8366 344.139C45.2594 344.005 44.6531 344.086 44.1318 344.368C43.6106 344.65 43.2103 345.113 43.0064 345.669C42.8478 346.238 42.913 346.845 43.1886 347.367C43.4642 347.889 43.9294 348.286 44.4883 348.475C45.0981 348.625 45.742 348.543 46.2944 348.244C46.8469 347.946 47.2683 347.452 47.4765 346.86C47.5783 346.246 47.441 345.617 47.093 345.102C46.7451 344.587 46.2128 344.225 45.6058 344.09" fill="white"/>
</g>
<path d="M19.234 348.828C19.0153 348.731 19.9992 346.751 19.3554 344.285C18.7117 341.819 16.9261 340.507 17.1204 340.313C17.3148 340.118 17.7278 340.41 18.408 341.017C19.2783 341.848 19.8936 342.91 20.1819 344.078C20.4702 345.246 20.4195 346.473 20.0357 347.613C19.6834 348.475 19.319 348.888 19.234 348.828Z" fill="white"/>
<path d="M13.4763 350.067C13.2334 350.067 13.3912 348.269 12.541 346.423C11.6907 344.576 10.3181 343.41 10.4638 343.204C10.6096 342.997 12.3831 343.896 13.3184 346.082C14.2537 348.269 13.6828 350.152 13.4763 350.067Z" fill="white"/>
<path d="M27.652 348.475C27.3847 348.475 27.6519 345.742 26.583 342.657C25.5141 339.571 23.7042 337.567 23.8985 337.385C24.0929 337.203 26.3279 339.061 27.3969 342.389C28.4658 345.718 27.8463 348.548 27.652 348.475Z" fill="white"/>
<path d="M37.1508 341.406C36.9078 341.479 36.2155 339.256 34.4906 337.057C32.7657 334.859 30.8465 333.595 30.9558 333.413C31.0651 333.231 33.3852 334.191 35.1587 336.571C36.9321 338.952 37.3694 341.382 37.1508 341.406Z" fill="white"/>
<path d="M43.6495 336.851C43.3945 336.851 42.9936 334.422 40.9893 332.247C38.9851 330.073 36.6043 329.393 36.6893 329.15C36.7743 328.907 37.3574 329.053 38.3292 329.405C39.5889 329.897 40.7168 330.676 41.6234 331.679C42.53 332.683 43.1904 333.884 43.5523 335.187C43.8074 336.219 43.7467 336.839 43.6495 336.851Z" fill="white"/>
<path d="M282.873 272.764C282.277 274.246 284.901 321.898 239.678 322.19C199.083 322.457 144.482 285.251 138.251 287.631C134.181 289.198 64.154 350.067 64.154 350.067L38.8154 320.428C38.8154 320.428 103.656 258.479 110.033 254.045C123.686 244.498 133.282 244.57 155.742 248.64C175.846 252.284 225.077 268.621 225.077 268.621L229.827 264.552L282.873 272.764Z" fill="#363237"/>
<path d="M170.306 253.437C170.306 253.437 170.051 253.316 169.541 253.121L167.282 252.271C165.278 251.555 162.314 250.534 158.415 249.441C153.682 248.105 148.865 247.086 143.996 246.392C140.948 245.943 137.87 245.732 134.789 245.76C131.33 245.814 127.888 246.25 124.524 247.06C116.762 248.932 109.566 252.649 103.547 257.895C97.291 263.726 90.768 270.103 83.8078 276.735L38.5724 320.148L38.366 320.355L38.5603 320.586C39.6535 321.885 40.8439 323.282 42.0465 324.679C45.7878 329.089 49.6748 333.571 53.5254 337.701C57.376 341.831 60.8136 345.985 64.3848 350.091L64.2876 350.309L103.996 315.97C110.009 310.747 115.706 305.827 121.002 301.236L128.654 294.616C129.869 293.547 131.084 292.514 132.299 291.506C132.882 290.996 133.453 290.473 134.048 290.036C134.639 289.609 135.274 289.246 135.943 288.955C137.21 288.407 138.579 288.136 139.959 288.159C141.34 288.182 142.699 288.499 143.948 289.089L150.64 292.368L161.318 297.604L168.023 300.871L169.76 301.697L170.367 301.964C170.367 301.964 170.173 301.843 169.796 301.649L168.071 300.762L161.415 297.409L150.786 292.089L144.105 288.761C142.463 287.975 140.638 287.648 138.825 287.815C137.011 287.981 135.277 288.636 133.805 289.708C133.173 290.17 132.59 290.68 132.019 291.178L128.375 294.275L120.698 300.871L103.692 315.557L63.9232 349.836L63.8139 350.042C60.3155 345.888 56.6836 341.612 53.1853 337.203C49.6869 332.793 46.2493 328.591 42.5202 324.218L39.0826 320.173V320.61L84.2815 277.148C91.2296 270.504 97.7525 264.102 103.96 258.284C109.901 253.107 116.993 249.425 124.646 247.546C127.981 246.736 131.394 246.288 134.825 246.21C137.885 246.171 140.943 246.37 143.972 246.805C148.833 247.463 153.646 248.441 158.378 249.732C162.277 250.789 165.253 251.773 167.258 252.453L169.541 253.243C170.064 253.364 170.306 253.437 170.306 253.437Z" fill="#300E3C"/>
<path d="M195.123 147.674C195.123 147.674 180.121 153.626 178.348 166.307C176.866 176.875 180.158 205.032 180.109 206.939C180.166 208.603 179.598 210.228 178.518 211.494C176.678 213.473 175.666 216.081 175.687 218.782C175.573 220.588 175.889 222.395 176.611 224.054C178.323 226.945 194.916 246.162 194.916 246.162L209.663 215.466C209.663 215.466 199.945 186.726 199.945 185.985C199.945 185.244 195.123 147.674 195.123 147.674Z" fill="#965FC1"/>
<path d="M178.14 222.754C177.509 222.839 155.875 238.205 155.875 238.205C155.875 238.205 150.591 228.002 148.222 227.698C145.854 227.395 138.566 230.201 137.922 230.966C137.278 231.731 135.857 231.865 134.423 231.998C132.99 232.132 130.463 235.715 130.463 235.715L125.605 239.359C125.605 239.359 127.135 242.202 127.536 242.688C127.937 243.174 131.18 241.813 131.18 241.291C131.18 240.768 130.767 244.485 133.294 244.595C135.313 244.479 137.285 243.933 139.076 242.991L139.926 238.703L146.194 234.622L146.947 238.74C146.947 238.74 140.594 240.04 140.801 242.129C140.855 242.726 141.077 243.295 141.44 243.772C141.803 244.249 142.293 244.614 142.853 244.826L148.101 244.716L159.653 247.486C159.653 247.486 189.947 240.781 191.053 237.343C192.158 233.905 187.02 221.552 178.14 222.754Z" fill="#EAC9FF"/>
<path d="M177.923 215.576C175.275 217.816 173.218 220.674 171.934 223.896C170.598 226.97 156.143 237.537 156.143 237.537L167.877 247.024C167.877 247.024 192.317 248.032 193.459 244.4C194.6 240.769 190.786 224.564 190.786 224.564L177.923 215.576Z" fill="#965FC1"/>
<path d="M193.155 256.814C193.015 257.324 192.685 257.761 192.234 258.036C191.782 258.312 191.243 258.404 190.725 258.296L148.211 249.003L111.697 242.359L111.394 239.116L146.28 244.12L191.6 254.251C191.873 254.312 192.131 254.427 192.359 254.591C192.586 254.754 192.779 254.961 192.924 255.201C193.069 255.44 193.164 255.707 193.204 255.984C193.244 256.261 193.227 256.543 193.155 256.814Z" fill="#9B9B9B"/>
<path d="M126.772 194.16L146.413 244.448C146.591 244.905 146.644 245.4 146.569 245.884C146.493 246.369 146.291 246.824 145.983 247.205C145.675 247.586 145.271 247.879 144.814 248.054C144.356 248.229 143.86 248.28 143.376 248.202L100.012 240.197C99.5366 240.118 99.0903 239.916 98.7174 239.612C98.3444 239.307 98.0578 238.91 97.886 238.46L78.1836 188.572C78.0925 188.338 78.0621 188.086 78.0953 187.837C78.1285 187.588 78.2241 187.352 78.3734 187.151C78.5227 186.949 78.7207 186.789 78.9488 186.685C79.1769 186.581 79.4277 186.536 79.6777 186.556L124.415 192.41C124.932 192.452 125.427 192.638 125.844 192.947C126.261 193.257 126.582 193.677 126.772 194.16Z" fill="#9B9B9B"/>
<path d="M122.338 192.411C122.168 192.484 126.881 204.996 132.845 220.349C138.809 235.703 143.777 248.154 143.947 248.093C144.117 248.032 139.404 235.509 133.428 220.155C127.452 204.801 122.496 192.351 122.338 192.411Z" fill="#363237"/>
<path d="M111.478 216.194C112.693 218.624 112.62 221.126 111.296 221.794C109.972 222.462 107.919 221.029 106.705 218.599C105.49 216.17 105.551 213.668 106.875 213.012C108.199 212.356 110.252 213.765 111.478 216.194Z" fill="white"/>
<path d="M192.438 248.992C192.438 248.992 195.985 234.088 195.269 231.355C193.228 223.496 182.721 203.659 183.595 191.78C184.47 179.9 195.123 147.674 195.123 147.674L205.278 144.139C209.383 153.092 225.32 151.087 238.33 140.604L254.631 143.908L280.14 223.325L284.488 252.26C294.837 265.755 282.909 272.909 282.909 272.909C282.909 272.909 263.255 279.104 247.683 276.323C236.058 274.258 219.101 266.046 215.299 263.07C206.201 255.94 191.77 256.438 191.77 256.438L192.438 248.992Z" fill="#965FC1"/>
<path d="M220.959 249.72L210.318 254.069C210.318 254.069 204.403 250.546 203.54 250.218C198.577 249.306 193.563 248.69 188.527 248.372C186.877 248.41 185.227 248.308 183.595 248.068L197.649 256.717L206.553 268.572C209.003 269.375 211.555 269.821 214.132 269.896C218.044 269.896 227.275 267.661 227.275 267.661L220.959 249.72Z" fill="#EAC9FF"/>
<path d="M252.59 143.665C252.59 143.665 271.259 144.77 277.831 159.675C282.216 169.611 291.193 213.389 292.577 221.394C293.962 229.398 292.577 239.152 286.164 244.206C279.75 249.259 226.559 271.913 226.559 271.913L215.468 250.546L260.339 222.681H261.797L256.428 190.528" fill="#965FC1"/>
<path d="M256.428 190.515C256.428 190.515 256.428 190.698 256.428 191.074L256.683 192.702C256.914 194.16 257.242 196.285 257.679 199.018C258.59 204.557 259.89 212.599 261.542 222.693L261.737 222.474H260.218L215.274 250.266L215.044 250.412L215.165 250.643C218.688 257.445 222.392 264.612 226.243 272.022L226.365 272.277L226.632 272.155C237.43 267.552 248.934 262.535 260.716 257.202C265.381 255.089 269.964 252.955 274.467 250.801C276.702 249.708 278.924 248.615 281.099 247.473C283.329 246.43 285.415 245.103 287.306 243.525C289.068 241.809 290.447 239.739 291.351 237.451C292.254 235.254 292.839 232.939 293.088 230.576C293.324 228.27 293.324 225.946 293.088 223.64C292.869 221.357 292.395 219.158 291.995 216.972C290.294 208.274 288.521 200.039 286.796 192.338C285.071 184.636 283.346 177.494 281.597 171.02C280.722 167.789 279.823 164.715 278.839 161.849C277.895 159.14 276.521 156.601 274.77 154.33C273.183 152.411 271.339 150.719 269.292 149.301C267.559 148.133 265.716 147.136 263.789 146.325C261.125 145.202 258.342 144.387 255.493 143.895C254.521 143.738 253.768 143.652 253.27 143.604C253.015 143.588 252.76 143.588 252.505 143.604L253.258 143.701C253.768 143.774 254.473 143.883 255.481 144.065C258.303 144.601 261.057 145.448 263.692 146.592C265.595 147.409 267.414 148.41 269.122 149.58C271.131 150.997 272.937 152.68 274.491 154.585C276.206 156.833 277.548 159.343 278.463 162.019C279.423 164.873 280.309 167.934 281.16 171.178C282.884 177.652 284.573 184.794 286.273 192.495C287.974 200.197 289.735 208.42 291.424 217.117C291.812 219.304 292.286 221.502 292.493 223.737C292.735 225.998 292.735 228.279 292.493 230.54C291.97 235.058 290.355 239.759 286.893 243.051C285.038 244.585 282.998 245.878 280.819 246.902C278.657 248.031 276.434 249.125 274.199 250.206C269.705 252.352 265.13 254.482 260.473 256.595C248.691 261.928 237.187 266.944 226.462 271.572L226.85 271.718L215.748 250.352L215.651 250.728L260.461 222.79H260.364H261.822H262.052V222.559L257.947 198.958C257.473 196.225 257.096 194.099 256.841 192.653C256.72 191.961 256.623 191.439 256.55 191.038C256.477 190.637 256.428 190.515 256.428 190.515Z" fill="#363237"/>
<path d="M185.211 166.295C185.15 166.295 185.466 167.425 185.684 169.465C185.805 170.704 185.846 171.95 185.806 173.194C185.806 174.652 185.575 176.304 185.32 178.138C184.615 182.411 184.173 186.723 183.996 191.05C183.774 196.396 184.625 201.733 186.498 206.744C188.551 212.028 191.236 216.717 192.9 221.26C194.235 225.35 194.687 229.676 194.224 233.954C193.993 237.598 193.653 240.598 193.434 242.651C193.337 243.623 193.264 244.412 193.203 245.007C193.176 245.286 193.176 245.567 193.203 245.846C193.292 245.582 193.349 245.309 193.373 245.032C193.471 244.424 193.58 243.647 193.738 242.675C194.017 240.634 194.43 237.671 194.722 233.978C195.251 229.637 194.837 225.232 193.507 221.066C191.843 216.438 189.171 211.737 187.142 206.489C185.31 201.547 184.46 196.294 184.64 191.026C184.796 186.714 185.202 182.415 185.855 178.15C186.073 176.316 186.219 174.64 186.243 173.17C186.266 171.907 186.188 170.644 186.012 169.392C185.907 168.606 185.753 167.827 185.551 167.06C185.465 166.794 185.351 166.537 185.211 166.295Z" fill="#363237"/>
<path d="M251.132 174.919C251.253 174.919 250.67 173.231 250.367 170.473C250.187 168.86 250.163 167.233 250.294 165.615C250.475 163.637 250.857 161.684 251.436 159.784C252.534 156.33 254.296 153.124 256.622 150.346C258.408 148.22 259.781 147.139 259.695 147.042C259.334 147.232 258.999 147.469 258.699 147.747C257.825 148.445 257.012 149.217 256.27 150.054C253.796 152.81 251.937 156.06 250.816 159.59C250.228 161.54 249.854 163.548 249.699 165.578C249.593 167.233 249.662 168.894 249.905 170.534C249.989 171.168 250.111 171.797 250.269 172.417C250.367 172.884 250.501 173.343 250.67 173.79C250.778 174.184 250.933 174.563 251.132 174.919Z" fill="#363237"/>
<path d="M225.259 219.378C223.515 218.887 221.823 218.228 220.206 217.41C219.408 216.963 218.637 216.468 217.898 215.928C217.076 215.278 216.29 214.584 215.542 213.851C213.834 212.16 212.345 210.263 211.108 208.202C208.855 204.451 207.257 200.343 206.383 196.055C205.751 192.739 205.703 190.638 205.569 190.65C205.519 191.139 205.519 191.631 205.569 192.12C205.617 193.467 205.751 194.81 205.97 196.14C206.719 200.536 208.289 204.752 210.598 208.567C211.85 210.682 213.387 212.615 215.165 214.312C215.932 215.053 216.743 215.747 217.595 216.389C218.371 216.925 219.182 217.408 220.024 217.835C220.705 218.198 221.416 218.503 222.15 218.746C222.694 218.951 223.255 219.109 223.826 219.22C224.298 219.315 224.778 219.368 225.259 219.378Z" fill="#363237"/>
<path d="M273.555 228.5C271.934 226.552 269.844 225.047 267.482 224.127C265.217 223.021 262.712 222.496 260.193 222.597C262.6 223.108 264.96 223.815 267.251 224.71C269.452 225.799 271.561 227.067 273.555 228.5Z" fill="#363237"/>
<path d="M180.874 250.874C180.932 251.25 181.1 251.6 181.358 251.879C181.615 252.158 181.95 252.354 182.32 252.441C182.481 252.46 182.644 252.46 182.806 252.441C184.021 252.441 184.519 250.267 184.519 250.267L189.79 250.984C189.79 250.984 197.321 260.531 199.982 263.24C210.44 273.905 213.161 266.204 213.161 266.204L209.93 253.68L203.237 242.481C203.237 242.481 203.662 243.161 203.504 241.4C203.346 239.638 200.249 239.335 200.249 239.335C200.042 238.424 198.22 237.573 198.22 237.573L189.827 236.019C188.97 235.86 188.089 235.895 187.248 236.122C186.407 236.349 185.628 236.762 184.968 237.33L179.878 241.703C179.878 241.703 176.866 245.056 176.878 246.064C176.892 246.482 177.059 246.881 177.348 247.183C177.637 247.486 178.028 247.671 178.445 247.704C178.445 247.704 178.056 250.401 178.7 250.692C179.407 250.869 180.139 250.914 180.862 250.826L180.874 250.874Z" fill="#EAC9FF"/>
<path d="M200.491 248.469C200.491 248.554 199.41 248.117 197.649 247.667C195.364 247.082 193.01 246.816 190.652 246.878C189.356 246.915 188.064 247.053 186.789 247.291C185.648 247.546 184.481 247.68 183.947 248.299C183.828 248.432 183.747 248.595 183.711 248.769C183.675 248.944 183.685 249.126 183.741 249.295C183.822 249.57 183.982 249.815 184.202 250C184.567 250.303 184.882 250.267 184.87 250.328C184.858 250.388 184.554 250.473 184.068 250.17C183.785 249.985 183.571 249.712 183.461 249.392C183.372 249.174 183.343 248.937 183.377 248.704C183.411 248.471 183.507 248.251 183.655 248.068C184.013 247.657 184.488 247.364 185.016 247.23C185.538 247.072 186.097 246.926 186.692 246.805C190.364 246.04 194.17 246.211 197.758 247.303C198.722 247.554 199.643 247.947 200.491 248.469Z" fill="#723F92"/>
<path d="M199.458 253.814C199.458 253.959 196.142 252.818 192.012 251.809C187.882 250.801 184.469 250.303 184.493 250.145C185.253 250.088 186.017 250.133 186.765 250.279C188.576 250.512 190.373 250.849 192.146 251.287C193.919 251.721 195.667 252.252 197.381 252.878C198.111 253.099 198.81 253.413 199.458 253.814Z" fill="#723F92"/>
<path d="M180.984 250.68C181 250.375 181.053 250.073 181.142 249.781C181.338 248.978 181.581 248.187 181.871 247.412C182.067 246.866 182.311 246.338 182.599 245.833C182.938 245.243 183.393 244.726 183.936 244.315C185.109 243.327 186.468 242.584 187.932 242.129C189.377 241.66 190.883 241.402 192.402 241.363C193.635 241.382 194.86 241.561 196.046 241.898C197.066 242.165 197.868 242.444 198.415 242.627C198.71 242.701 198.993 242.82 199.253 242.979C198.143 242.81 197.043 242.574 195.961 242.274C194.791 241.997 193.592 241.859 192.39 241.861C190.919 241.925 189.464 242.191 188.066 242.651C186.663 243.084 185.356 243.781 184.215 244.704C183.292 245.451 182.594 246.439 182.199 247.558C181.421 249.453 181.093 250.716 180.984 250.68Z" fill="#723F92"/>
<path d="M197.2 239.553C197.2 239.638 195.985 239.298 193.944 238.922C191.904 238.545 188.964 237.865 186.474 239.918C184.224 241.331 182.18 243.047 180.4 245.019C179.749 245.901 179.179 246.84 178.7 247.825C178.721 247.523 178.795 247.227 178.919 246.951C179.216 246.175 179.625 245.446 180.133 244.789C181.858 242.7 183.909 240.904 186.207 239.468C186.846 239.012 187.54 238.636 188.272 238.351C188.976 238.117 189.717 238.014 190.458 238.047C191.687 238.089 192.908 238.256 194.102 238.545C195.172 238.752 196.213 239.09 197.2 239.553Z" fill="#723F92"/>
<path d="M195.256 258.478C195.123 258.312 195.001 258.138 194.892 257.956L193.859 256.449C192.564 254.603 191.16 252.834 189.656 251.153H189.765L184.482 250.473L184.724 250.315C184.618 250.738 184.458 251.146 184.251 251.53C184.046 251.958 183.721 252.317 183.315 252.562C183.074 252.665 182.809 252.699 182.55 252.66C182.303 252.649 182.059 252.592 181.834 252.489C181.373 252.262 181.007 251.879 180.801 251.408C180.742 251.293 180.697 251.17 180.667 251.044V250.886L180.935 251.093H180.74C180.497 251.093 180.254 251.093 180.011 251.093C179.769 251.093 179.526 251.093 179.283 251.093C179.151 251.076 179.021 251.047 178.894 251.008C178.728 250.978 178.575 250.897 178.457 250.777C178.284 250.539 178.183 250.256 178.165 249.963C178.147 249.708 178.147 249.452 178.165 249.198C178.171 248.69 178.208 248.183 178.274 247.679L178.505 247.971C178.141 247.941 177.793 247.812 177.497 247.598C177.201 247.384 176.97 247.093 176.829 246.756C176.695 246.396 176.695 245.999 176.829 245.639C176.962 245.323 177.121 245.018 177.303 244.728C178.055 243.608 178.888 242.545 179.793 241.545L182.453 239.213L184.178 237.731C184.731 237.208 185.338 236.743 185.988 236.346C186.671 235.986 187.418 235.763 188.186 235.69C188.925 235.647 189.667 235.717 190.385 235.897L198.244 237.379C198.677 237.587 199.084 237.843 199.459 238.144C199.896 238.432 200.222 238.86 200.382 239.359L200.127 239.189C200.598 239.126 201.077 239.178 201.523 239.341C201.97 239.504 202.37 239.772 202.69 240.124C203.206 240.823 203.44 241.69 203.346 242.553V242.432L207.974 250.109L209.189 252.222C209.345 252.46 209.479 252.712 209.589 252.975C209.396 252.761 209.229 252.525 209.091 252.271L207.767 250.23L203.103 242.687V242.614C203.183 241.852 202.97 241.088 202.508 240.476C202.238 240.18 201.9 239.956 201.523 239.822C201.145 239.689 200.741 239.65 200.346 239.711H200.139V239.517C199.985 239.144 199.722 238.827 199.386 238.605C199.022 238.338 198.636 238.102 198.232 237.901L190.312 236.468C189.641 236.301 188.949 236.236 188.259 236.273C187.561 236.331 186.883 236.534 186.267 236.868C185.65 237.246 185.076 237.69 184.554 238.192L182.83 239.674L180.024 241.958C179.144 242.938 178.332 243.977 177.594 245.068C177.424 245.323 177.282 245.596 177.169 245.882C177.079 246.124 177.079 246.392 177.169 246.635C177.271 246.88 177.438 247.092 177.652 247.248C177.866 247.405 178.119 247.499 178.384 247.521H178.651V247.776C178.584 248.26 178.548 248.746 178.542 249.234C178.497 249.648 178.56 250.066 178.724 250.449C178.787 250.49 178.857 250.519 178.93 250.534C179.033 250.567 179.139 250.587 179.246 250.595C179.469 250.613 179.692 250.613 179.914 250.595C180.145 250.613 180.376 250.613 180.607 250.595H180.789C180.546 250.424 181.105 250.837 181.044 250.801V250.886C181.064 250.983 181.096 251.077 181.141 251.165C181.297 251.536 181.582 251.839 181.943 252.016C182.118 252.097 182.308 252.142 182.502 252.149C182.671 252.206 182.854 252.206 183.024 252.149C183.646 251.671 184.077 250.986 184.239 250.218V250.036H184.421L189.693 250.789H189.765C191.252 252.506 192.624 254.32 193.871 256.219C194.296 256.887 194.612 257.433 194.819 257.786C194.992 257.998 195.139 258.23 195.256 258.478Z" fill="#723F92"/>
<g opacity="0.3">
<path opacity="0.3" d="M206.007 196.298C206.925 200.794 208.641 205.089 211.072 208.98C213.975 213.426 217.607 215.77 222.126 218.552L222.466 218.685C219.751 218.716 217.067 218.1 214.637 216.887C212.208 215.675 210.101 213.902 208.493 211.714C206.885 209.527 205.82 206.987 205.388 204.307C204.955 201.626 205.168 198.881 206.007 196.298Z" fill="#8E3C8F"/>
</g>
</svg>
