<svg width="27" height="27" viewBox="0 0 27 27" fill="none" xmlns="http://www.w3.org/2000/svg">
<path d="M13.7299 9.37527C11.3306 9.37527 9.3725 11.3333 9.3725 13.7327C9.3725 16.132 11.3306 18.0901 13.7299 18.0901C16.1293 18.0901 18.0873 16.132 18.0873 13.7327C18.0873 11.3333 16.1293 9.37527 13.7299 9.37527ZM26.7989 13.7327C26.7989 11.9283 26.8152 10.1402 26.7139 8.33904C26.6126 6.24696 26.1353 4.39024 24.6055 2.8604C23.0724 1.3273 21.2189 0.853314 19.1268 0.751979C17.3224 0.650644 15.5343 0.666988 13.7332 0.666988C11.9288 0.666988 10.1407 0.650644 8.33953 0.751979C6.24745 0.853314 4.39073 1.33057 2.86089 2.8604C1.32779 4.39351 0.853802 6.24696 0.752467 8.33904C0.651132 10.1435 0.667476 11.9315 0.667476 13.7327C0.667476 15.5338 0.651132 17.3252 0.752467 19.1263C0.853802 21.2184 1.33106 23.0751 2.86089 24.605C4.394 26.1381 6.24745 26.6121 8.33953 26.7134C10.144 26.8147 11.932 26.7984 13.7332 26.7984C15.5376 26.7984 17.3257 26.8147 19.1268 26.7134C21.2189 26.6121 23.0756 26.1348 24.6055 24.605C26.1386 23.0719 26.6126 21.2184 26.7139 19.1263C26.8185 17.3252 26.7989 15.5371 26.7989 13.7327ZM13.7299 20.4371C10.0197 20.4371 7.02544 17.4429 7.02544 13.7327C7.02544 10.0225 10.0197 7.02822 13.7299 7.02822C17.4401 7.02822 20.4344 10.0225 20.4344 13.7327C20.4344 17.4429 17.4401 20.4371 13.7299 20.4371ZM20.709 8.31943C19.8427 8.31943 19.1432 7.61989 19.1432 6.75363C19.1432 5.88738 19.8427 5.18784 20.709 5.18784C21.5752 5.18784 22.2748 5.88738 22.2748 6.75363C22.275 6.95933 22.2347 7.16305 22.1561 7.35314C22.0775 7.54323 21.9622 7.71594 21.8167 7.86139C21.6713 8.00684 21.4986 8.12217 21.3085 8.20076C21.1184 8.27936 20.9147 8.31968 20.709 8.31943Z" fill="#C69EEE"/>
</svg>
