<svg width="27" height="27" viewBox="0 0 27 27" fill="none" xmlns="http://www.w3.org/2000/svg">
<path fill-rule="evenodd" clip-rule="evenodd" d="M0.200196 2.84934C0.200196 2.27029 0.430223 1.71495 0.839676 1.3055C1.24913 0.896046 1.80446 0.666019 2.38352 0.666019H24.1478C24.4348 0.66555 24.719 0.721686 24.9843 0.831213C25.2495 0.94074 25.4905 1.10151 25.6936 1.30431C25.8966 1.50711 26.0576 1.74797 26.1674 2.01308C26.2772 2.2782 26.3337 2.56238 26.3335 2.84934V24.6136C26.3338 24.9007 26.2776 25.1849 26.1679 25.4502C26.0582 25.7154 25.8974 25.9564 25.6945 26.1594C25.4916 26.3625 25.2506 26.5235 24.9855 26.6333C24.7203 26.7431 24.436 26.7995 24.149 26.7993H2.38352C2.0967 26.7993 1.81269 26.7428 1.54772 26.633C1.28275 26.5232 1.04201 26.3623 0.839255 26.1594C0.6365 25.9566 0.475702 25.7157 0.36605 25.4507C0.256398 25.1857 0.20004 24.9017 0.200196 24.6148V2.84934ZM10.5442 10.6299H14.0829V12.407C14.5937 11.3854 15.9004 10.466 17.864 10.466C21.6283 10.466 22.5204 12.5009 22.5204 16.2344V23.1502H18.7109V17.0849C18.7109 14.9586 18.2001 13.7588 16.903 13.7588C15.1033 13.7588 14.355 15.0524 14.355 17.0849V23.1502H10.5442V10.6299ZM4.01091 22.9874H7.82163V10.466H4.01091V22.9863V22.9874ZM8.36686 6.38209C8.37405 6.70837 8.31599 7.03279 8.19609 7.33633C8.0762 7.63986 7.89688 7.91639 7.66866 8.14969C7.44045 8.38299 7.16793 8.56835 6.86711 8.6949C6.56629 8.82145 6.24322 8.88663 5.91686 8.88663C5.59051 8.88663 5.26744 8.82145 4.96661 8.6949C4.66579 8.56835 4.39327 8.38299 4.16506 8.14969C3.93685 7.91639 3.75753 7.63986 3.63763 7.33633C3.51774 7.03279 3.45968 6.70837 3.46686 6.38209C3.48097 5.74165 3.74528 5.13219 4.20321 4.68424C4.66114 4.23628 5.27627 3.98545 5.91686 3.98545C6.55746 3.98545 7.17259 4.23628 7.63051 4.68424C8.08844 5.13219 8.35276 5.74165 8.36686 6.38209Z" fill="#C69EEE"/>
</svg>
