<svg width="580" height="408" viewBox="0 0 580 408" fill="none" xmlns="http://www.w3.org/2000/svg">
<g opacity="0.4" clip-path="url(#clip0_1081_5236)">
<path d="M432.367 100.896H368.437V193.616H432.367V100.896Z" fill="#E0E0E0"/>
<path d="M429.168 100.896H365.238V193.616H429.168V100.896Z" fill="#F5F5F5"/>
<path d="M421.226 110.935H373.18V183.577H421.226V110.935Z" fill="white"/>
<path d="M421.213 183.565C421.213 183.565 421.213 183.45 421.213 183.22V182.187C421.213 181.269 421.213 179.942 421.213 178.207C421.213 174.725 421.213 169.648 421.213 163.232C421.213 150.477 421.213 132.288 421.137 110.935L421.29 111.088H373.256L373.435 110.909C373.435 138.308 373.435 163.577 373.435 183.539L373.294 183.412H408.274H417.924H421.213H420.372H417.822H408.185H373.129H372.988V183.271C372.988 163.309 372.988 138.04 372.988 110.641V110.463H421.366V110.629C421.366 132.032 421.302 150.171 421.29 163.041C421.29 169.419 421.29 174.521 421.29 177.965C421.29 179.687 421.29 181.014 421.29 181.919V182.927C421.287 183.142 421.261 183.355 421.213 183.565Z" fill="#E0E0E0"/>
<path d="M429.346 100.896C429.018 101.482 428.639 102.037 428.212 102.555C427.472 103.537 426.414 104.889 425.216 106.381C424.018 107.874 422.883 109.137 422.054 110.055C421.623 110.574 421.15 111.056 420.639 111.496C421.024 110.934 421.45 110.401 421.914 109.902L424.999 106.165L428.071 102.427C428.45 101.88 428.877 101.368 429.346 100.896Z" fill="#E0E0E0"/>
<path d="M421.468 183.335C423.863 187.133 426.676 190.65 429.856 193.82L421.468 183.335Z" fill="white"/>
<path d="M429.856 193.82C429.323 193.449 428.831 193.021 428.39 192.544C427.277 191.408 426.221 190.216 425.229 188.972C424.235 187.747 423.308 186.47 422.45 185.146C422.063 184.608 421.734 184.031 421.468 183.424C421.909 183.915 422.306 184.444 422.654 185.005C423.355 186 424.349 187.353 425.496 188.832C426.644 190.312 427.766 191.549 428.569 192.455C429.031 192.877 429.461 193.334 429.856 193.82Z" fill="#E0E0E0"/>
<path d="M365.238 193.539L373.6 183.207L365.238 193.539Z" fill="white"/>
<path d="M373.6 183.207C372.345 185.032 370.997 186.79 369.559 188.475C367.239 191.332 365.301 193.577 365.238 193.577C366.49 191.746 367.839 189.984 369.279 188.296C370.633 186.528 372.075 184.83 373.6 183.207Z" fill="#E0E0E0"/>
<path d="M365.238 100.896C366.683 102.439 368.041 104.061 369.304 105.756C370.666 107.39 371.943 109.093 373.128 110.859C371.683 109.316 370.325 107.694 369.062 105.999C367.693 104.37 366.417 102.667 365.238 100.896Z" fill="#E0E0E0"/>
<path d="M406.26 125.68H390.172V171.383H406.26V125.68Z" fill="#E0E0E0"/>
<path d="M305.208 360.317C302.301 361.278 299.617 362.816 297.317 364.839C295.017 366.862 293.148 369.329 291.823 372.091C289.211 377.64 287.903 383.713 287.999 389.846C287.846 401.671 292.958 414.273 298.898 424.49C309.798 417.169 313.953 402.525 315.598 394.961C318.147 382.997 315.598 359.82 305.221 360.317" fill="#F5F5F5"/>
<path d="M305.604 378.175C305.195 379.422 304.896 380.702 304.711 382.001C304.227 384.553 303.577 388.124 302.812 392.601C301.269 401.53 299.293 413.954 297.432 427.704C295.571 441.455 294.258 453.943 293.493 463.012C293.111 467.54 292.843 471.201 292.703 473.739C292.552 475.052 292.526 476.376 292.626 477.693C292.935 476.412 293.131 475.106 293.213 473.79C293.531 471.022 293.939 467.412 294.488 463.101C295.495 454.07 296.961 441.608 298.809 427.883C300.658 414.158 302.493 401.964 303.793 392.742C304.405 388.43 304.902 384.833 305.285 382.091C305.503 380.797 305.61 379.487 305.604 378.175Z" fill="#E0E0E0"/>
<path d="M548.168 136.79C548.168 136.79 534.809 132.849 529.404 163.577C523.998 194.305 523.565 211.231 523.565 211.231C523.565 211.231 521.691 217.903 516.745 215.428C511.799 212.953 503.398 204.241 497.47 208.094C491.313 212.086 491.402 220.301 496.081 230.964C500.759 241.628 510.103 265.404 510.97 267.547C511.837 269.69 511.531 273.223 507.898 272.088C504.265 270.953 481.128 256.998 475.136 268.478C469.145 279.958 487.068 307.459 488.968 310.571C490.867 313.684 490.65 315.24 489.324 316.541C487.999 317.842 480.656 312.421 473.9 308.722C467.143 305.023 458.666 301.923 455.785 308.786C452.904 315.648 458.335 338.787 491.249 369.03L507.388 382.04L526.93 374.846C567.813 356.887 580.471 336.784 579.987 329.347C579.502 321.911 570.451 322.051 562.866 323.327C555.281 324.602 546.575 327.396 545.733 325.725C544.892 324.054 545.223 322.459 548.015 320.189C550.807 317.919 576.672 297.612 574.722 284.894C572.771 272.177 546.333 277.879 542.521 277.777C538.709 277.675 539.627 274.218 541.08 272.496C542.534 270.774 559.144 251.296 567.022 242.712C574.9 234.128 577.641 226.398 573.116 220.619C568.756 215.045 557.971 220.619 552.502 221.308C547.034 221.997 547.403 215.135 547.403 215.135C547.403 215.135 552.502 198.986 557.308 168.143C562.114 137.3 547.875 136.765 547.875 136.765" fill="#F5F5F5"/>
<path d="M543.286 164.329C543.286 164.329 543.286 164.546 543.222 164.98L542.954 166.88C542.699 168.577 542.33 171.039 541.871 174.176C540.915 180.554 539.474 189.687 537.651 200.963C534.005 223.604 528.728 254.829 522.749 289.308C516.771 323.786 511.404 354.998 507.643 377.614C505.769 388.903 504.252 398.023 503.207 404.401C502.684 407.538 502.276 409.987 501.932 411.684C501.792 412.488 501.69 413.113 501.601 413.572C501.511 414.031 501.46 414.21 501.46 414.21C501.46 414.21 501.46 413.993 501.537 413.559C501.613 413.125 501.69 412.475 501.792 411.658C502.047 409.962 502.417 407.5 502.875 404.362C503.832 397.984 505.272 388.852 507.095 377.576C510.741 354.935 516.018 323.696 522.01 289.218C528.001 254.74 533.394 223.54 537.218 200.874C539.079 189.585 540.596 180.465 541.654 174.087L542.865 166.804L543.197 164.916C543.216 164.719 543.246 164.523 543.286 164.329Z" fill="#E0E0E0"/>
<path d="M508.739 220.798C509.089 221.158 509.397 221.556 509.657 221.984C510.218 222.775 510.932 223.936 511.926 225.377C513.8 228.273 516.286 232.329 518.938 236.857L525.681 248.503L527.734 252.011C528.025 252.402 528.261 252.831 528.435 253.286C528.08 252.932 527.768 252.539 527.504 252.113C526.956 251.322 526.229 250.161 525.26 248.707C523.412 245.786 520.977 241.691 518.326 237.163L511.506 225.568C510.69 224.191 509.989 223.017 509.428 222.061C509.144 221.672 508.912 221.247 508.739 220.798Z" fill="#E0E0E0"/>
<path d="M530.372 253.171C530.258 253.005 538.403 247.52 548.563 240.9C558.723 234.28 567.022 229.063 567.137 229.216C567.252 229.369 559.093 234.88 548.946 241.487C538.799 248.094 530.474 253.311 530.372 253.171Z" fill="#E0E0E0"/>
<path d="M518.823 305.673C519.282 305.447 519.765 305.271 520.263 305.151L524.241 303.939C527.593 302.906 532.234 301.477 537.282 299.704C542.33 297.931 546.868 296.209 550.144 294.921L553.969 293.403C554.433 293.176 554.926 293.013 555.435 292.918C555.012 293.208 554.559 293.452 554.083 293.645C553.191 294.079 551.903 294.678 550.259 295.38C547.046 296.783 542.534 298.607 537.511 300.367C532.489 302.127 527.772 303.505 524.381 304.411C522.673 304.857 521.296 305.202 520.327 305.418C519.838 305.563 519.333 305.649 518.823 305.673Z" fill="#E0E0E0"/>
<path d="M492.817 280.723C493.225 280.965 493.602 281.256 493.939 281.59C494.628 282.177 495.622 283.044 496.82 284.141C499.242 286.322 502.544 289.358 506.164 292.738C509.785 296.119 513.035 299.218 515.368 301.489C516.528 302.611 517.459 303.542 518.096 304.193C518.448 304.51 518.764 304.865 519.04 305.251C518.627 305.021 518.249 304.733 517.918 304.397C517.217 303.81 516.235 302.93 515.024 301.846C512.615 299.677 509.3 296.642 505.68 293.249C502.06 289.856 498.809 286.769 496.489 284.511C495.316 283.376 494.385 282.457 493.748 281.794C493.393 281.479 493.08 281.119 492.817 280.723Z" fill="#E0E0E0"/>
<path d="M476.73 325.801C477.245 326.122 477.724 326.499 478.158 326.923L481.867 330.176C484.978 332.944 489.235 336.796 493.926 341.095C498.618 345.393 502.85 349.309 505.846 352.166L509.402 355.585C509.869 355.966 510.296 356.394 510.677 356.86C510.169 356.53 509.691 356.154 509.249 355.738L505.54 352.485C502.429 349.717 498.171 345.852 493.48 341.567C488.789 337.281 484.557 333.352 481.574 330.495L477.979 327.153C477.516 326.747 477.098 326.294 476.73 325.801Z" fill="#E0E0E0"/>
<path d="M510.04 355.93C510.617 355.644 511.219 355.409 511.837 355.228L516.834 353.506C521.041 352.052 526.854 350.024 533.215 347.613C539.576 345.203 545.275 342.881 549.379 341.172L554.262 339.144C554.848 338.867 555.458 338.645 556.085 338.48C555.549 338.846 554.977 339.154 554.376 339.399C553.255 339.947 551.623 340.674 549.583 341.618C545.517 343.455 539.831 345.853 533.457 348.264C527.083 350.675 521.245 352.665 516.987 353.94C514.858 354.603 513.163 355.114 511.888 355.445C511.289 355.667 510.67 355.83 510.04 355.93Z" fill="#E0E0E0"/>
<path d="M99.7653 409.235C129.2 392.423 138.761 357.116 140.558 324.755C140.864 319.347 141.973 313.735 139.844 308.773C137.715 303.811 132.043 300.035 127.02 301.859C122.851 303.377 120.646 307.867 118.097 311.515C114.637 316.371 109.878 320.151 104.367 322.421C100.772 323.888 96.4381 324.577 93.2257 322.421C88.8149 319.424 88.8532 312.956 89.4013 307.612C90.4126 297.612 91.3857 287.628 92.3206 277.662C92.8432 272.317 93.3659 266.845 92.1676 261.616C90.9693 256.386 87.7186 251.309 82.7597 249.421C77.8008 247.533 71.223 249.88 69.6678 255.034C69.0304 257.177 69.2598 259.473 68.9156 261.679C68.5715 263.886 67.2967 266.259 65.0913 266.692C62.886 267.126 60.8973 265.417 59.4441 263.695C54.3449 257.776 51.2982 250.467 48.43 243.209C45.5617 235.951 42.8082 228.566 38.3337 222.201C33.8593 215.836 27.3579 210.542 19.7347 209.446C12.1116 208.349 3.50682 212.303 0.880774 219.65C-1.74527 226.997 1.93884 235.084 6.1711 241.64C12.4838 251.343 20.1603 260.085 28.9641 267.598C30.5448 268.95 32.253 270.417 32.7885 272.458C33.6171 276.131 29.9075 279.371 26.2871 280.226C22.1696 281.182 17.8736 280.366 13.6668 280.481C9.46002 280.596 4.74335 282.012 2.81844 285.826C0.115908 291.094 4.1697 297.305 8.32547 301.425C16.654 309.783 26.3616 316.64 37.0207 321.694C40.845 323.493 44.8479 325.138 47.7671 328.199C50.6863 331.261 52.1651 336.248 49.9087 339.845C47.6524 343.442 42.6042 344.207 38.5504 343.059C34.4967 341.911 31.0165 339.335 27.2177 337.498C20.1172 334.041 10.5691 333.671 5.27876 339.603C1.79861 343.506 0.995503 349.297 2.10456 354.425C3.21362 359.552 5.99263 364.144 9.00111 368.456C19.518 383.38 33.5916 395.906 50.1254 403.393C66.6593 410.88 82.3008 413.929 99.8418 409.286" fill="#F5F5F5"/>
<path d="M98.0061 433.19C97.8712 418.091 96.2961 403.039 93.3021 388.239C89.5529 370.17 84.7731 352.33 78.9864 334.806L74.4737 321.018C72.9949 316.49 71.5289 312 69.8207 307.688C66.5364 299.429 62.7956 291.36 58.6154 283.517C54.6764 276.004 50.6736 269.014 46.8747 262.508C43.0759 256.003 39.3918 250.008 35.8224 244.651C30.2205 236.244 23.9631 228.294 17.1087 220.874C14.6866 218.247 12.7489 216.27 11.4104 214.943L9.88067 213.451C9.71144 213.274 9.52812 213.112 9.33252 212.966C9.47612 213.16 9.63377 213.343 9.80419 213.514L11.2702 215.083C12.545 216.448 14.4571 218.476 16.8282 221.142C23.559 228.654 29.7165 236.662 35.2487 245.097C38.7799 250.416 42.4002 256.424 46.1736 262.955C49.9469 269.486 53.9242 276.475 57.8251 283.976C61.9737 291.783 65.6972 299.81 68.9794 308.02C70.6621 312.306 72.1153 316.757 73.5813 321.298C75.0473 325.839 76.5388 330.431 78.0558 335.1C83.8225 352.58 88.6145 370.367 92.4098 388.38C95.4327 403.118 97.0716 418.107 97.3049 433.151" fill="#E0E0E0"/>
<path d="M69.5912 307.624C69.9297 306.914 70.1781 306.164 70.3306 305.392C70.7513 303.938 71.274 301.821 71.8986 299.18C73.1734 293.912 74.6139 286.59 76.2073 278.503C77.8008 270.416 79.3688 263.133 80.6946 257.903C81.3447 255.352 81.8929 253.171 82.3008 251.717C82.5497 250.971 82.7205 250.202 82.8107 249.421C82.4329 250.111 82.1376 250.843 81.9311 251.602C81.4212 253.031 80.7583 255.123 80.0189 257.725C78.5147 262.916 76.832 270.212 75.2385 278.312L71.2102 299.091C70.7131 301.578 70.2924 303.683 69.9354 305.367C69.7499 306.107 69.6346 306.863 69.5912 307.624Z" fill="#E0E0E0"/>
<path d="M1.95154 288.454C2.83839 288.723 3.74687 288.915 4.66681 289.028C6.42601 289.346 8.96281 289.793 12.0733 290.456C18.3197 291.732 26.8734 293.747 36.2176 296.413C45.5617 299.079 53.9115 301.885 59.9029 304.066C62.8987 305.138 65.308 306.069 66.9652 306.707C67.8089 307.094 68.6885 307.397 69.5912 307.612C68.8109 307.107 67.9825 306.679 67.1182 306.337C65.4992 305.584 63.1281 304.551 60.1451 303.39C54.2047 301.018 45.8676 298.122 36.4853 295.431C28.4938 293.114 20.3882 291.21 12.2008 289.729C9.0648 289.168 6.50249 288.823 4.73055 288.619C3.81223 288.47 2.8811 288.414 1.95154 288.454Z" fill="#E0E0E0"/>
<path d="M92.5627 386.9C92.7844 386.661 92.9691 386.39 93.1109 386.097L94.5259 383.711C95.8007 381.645 97.4069 378.609 99.421 374.782C103.462 367.206 108.727 356.555 114.361 344.718C119.996 332.881 125.146 322.191 129.034 314.538L133.649 305.482L134.924 303.007C135.081 302.725 135.205 302.425 135.293 302.114C135.078 302.354 134.894 302.619 134.745 302.905L133.343 305.29C132.132 307.37 130.462 310.393 128.435 314.219C124.394 321.809 119.142 332.46 113.495 344.297C107.847 356.134 102.71 366.81 98.8346 374.476L94.2072 383.533L92.9324 386.007C92.7685 386.286 92.6441 386.587 92.5627 386.9Z" fill="#E0E0E0"/>
<path d="M3.81274 349.017C4.08224 349.211 4.37852 349.366 4.69234 349.476L7.2419 350.611L16.739 354.693C24.7701 358.124 35.8607 363.009 47.971 368.418C60.0814 373.826 71.223 378.622 79.3306 381.888C83.3716 383.533 86.6605 384.821 88.9551 385.714L91.5939 386.684C91.8971 386.809 92.2136 386.899 92.5373 386.951C92.2738 386.754 91.9814 386.599 91.6704 386.492L89.1209 385.357L79.5728 381.237C71.5417 377.793 60.4511 372.908 48.3407 367.499C36.2303 362.091 25.076 357.295 16.9812 354.03C12.9402 352.397 9.65123 351.096 7.35663 350.203L4.71784 349.246C4.42616 349.134 4.12238 349.057 3.81274 349.017Z" fill="#E0E0E0"/>
<path d="M190.274 24.4648V129.749H39.1623L33.7063 25.2047L190.274 24.4648Z" fill="#E0E0E0"/>
<path d="M33.7063 25.2177L33.7063 129.532H184.818V25.2177L33.7063 25.2177Z" fill="white"/>
<path d="M185.545 130.246H32.9924V24.4902H185.545V130.246ZM34.4329 128.805H184.105V25.9188H34.4329V128.805Z" fill="#E0E0E0"/>
<path d="M168.45 38.1641H50.0744V116.559H168.45V38.1641Z" fill="white"/>
<path d="M168.463 38.1642H167.877H166.258H159.756L135.357 38.2534L50.1381 38.4193L50.4823 38.0749C50.4823 62.0297 50.4823 88.5739 50.4823 116.47L50.0999 116.1L168.488 116.177L168.183 116.47C168.259 92.6174 168.31 73.1015 168.348 59.4403C168.348 52.6289 168.348 47.3099 168.425 43.6618C168.425 41.8633 168.425 40.4729 168.425 39.5162C168.425 38.5596 168.425 38.0749 168.425 38.0749C168.425 38.0749 168.425 38.5341 168.425 39.4525C168.425 40.3709 168.425 41.7612 168.425 43.547C168.425 47.1696 168.425 52.4758 168.501 59.249C168.501 72.9102 168.59 92.5409 168.654 116.47V116.776H168.361L49.9724 116.853H49.6027V116.47C49.6027 88.5739 49.6027 62.0297 49.6027 38.0749V37.7305H49.9342L135.344 37.909L159.667 37.9983H166.041H167.685L168.463 38.1642Z" fill="#E0E0E0"/>
<path d="M33.6808 24.9121C34.5928 25.373 35.4483 25.938 36.2304 26.5958C37.7856 27.7183 39.889 29.3 42.1581 31.124C44.4272 32.9481 46.4286 34.6573 47.8436 35.9456C48.6536 36.5902 49.3777 37.3361 49.998 38.1651C49.8577 38.3309 46.1736 35.3334 41.6864 31.698C37.1992 28.0627 33.5788 25.0907 33.6808 24.9121Z" fill="#E0E0E0"/>
<path d="M184.831 25.2051C182.345 27.6504 179.687 29.9139 176.877 31.9782C174.224 34.24 171.412 36.3075 168.463 38.1647C170.966 35.7226 173.636 33.4593 176.456 31.3915C179.097 29.1328 181.896 27.0654 184.831 25.2051Z" fill="#E0E0E0"/>
<path d="M184.704 129.545L167.864 115.871L184.704 129.545Z" fill="white"/>
<path d="M167.864 115.871C170.889 117.86 173.781 120.046 176.52 122.415C179.41 124.598 182.145 126.981 184.704 129.545C181.675 127.561 178.783 125.375 176.048 123.001C171.357 119.239 167.724 116.037 167.864 115.871Z" fill="#E0E0E0"/>
<path d="M33.6807 129.531C36.1432 127.109 38.776 124.867 41.5588 122.822C44.1859 120.587 46.9676 118.541 49.8831 116.699C47.427 119.123 44.7983 121.366 42.0178 123.409C39.3866 125.644 36.6006 127.69 33.6807 129.531Z" fill="#E0E0E0"/>
<path d="M74.1167 62.6046V88.8555H148.602V62.6046H74.1167Z" fill="#E0E0E0"/>
<path d="M539.207 0H458.411V117.185H539.207V0Z" fill="#E0E0E0"/>
<path d="M535.165 0H454.37V117.185H535.165V0Z" fill="#F5F5F5"/>
<path d="M525.12 12.6914H464.403V104.493H525.12V12.6914Z" fill="white"/>
<path d="M525.133 104.493C525.133 104.493 525.133 104.34 525.133 104.046V102.771C525.133 101.61 525.133 99.9264 525.133 97.7324C525.133 93.3318 525.133 86.9285 525.133 78.8288C525.133 62.642 525.069 39.7076 525.031 12.717L525.235 12.9211H464.403L464.632 12.7042C464.632 47.3354 464.632 79.2624 464.632 104.544L464.454 104.365L508.65 104.467H520.863H524.075H525.184H524.113H520.939H508.765L464.454 104.557H464.288V104.378C464.288 79.1349 464.288 47.2079 464.288 12.5384V12.4746H525.477V12.6787C525.477 39.7331 525.414 62.693 525.388 78.918C525.388 86.9923 525.388 93.3955 525.324 97.7834C525.324 99.9519 525.324 101.61 525.324 102.771V104.046C525.133 104.353 525.133 104.493 525.133 104.493Z" fill="#E0E0E0"/>
<path d="M535.395 0C534.985 0.743041 534.502 1.44374 533.954 2.09191C533.011 3.36746 531.685 5.06394 530.13 6.91349C528.575 8.76304 527.185 10.3957 526.127 11.5565C525.604 12.2101 525.024 12.8162 524.394 13.3678C524.848 12.6521 525.364 11.9777 525.936 11.3524L529.824 6.63287C531.29 4.83434 532.629 3.21439 533.712 1.90057C534.218 1.22041 534.781 0.584585 535.395 0Z" fill="#E0E0E0"/>
<path d="M525.439 104.199C528.463 109 532.016 113.445 536.032 117.452L525.439 104.199Z" fill="white"/>
<path d="M536.032 117.452C535.36 116.956 534.741 116.392 534.184 115.768C533.1 114.671 531.634 113.103 530.181 111.266C528.932 109.693 527.762 108.058 526.676 106.368C526.178 105.69 525.751 104.964 525.401 104.199C525.949 104.827 526.448 105.496 526.892 106.202C527.785 107.477 529.034 109.161 530.487 110.985C531.94 112.809 533.343 114.416 534.375 115.552C534.973 116.144 535.526 116.78 536.032 117.452Z" fill="#E0E0E0"/>
<path d="M454.357 117.096L464.938 104.034L454.357 117.096Z" fill="white"/>
<path d="M464.938 104.034C463.359 106.347 461.657 108.574 459.839 110.705C456.907 114.302 454.459 117.172 454.37 117.083C455.952 114.772 457.654 112.545 459.469 110.412C461.18 108.193 463.006 106.064 464.938 104.034Z" fill="#E0E0E0"/>
<path d="M454.357 0C456.166 1.95635 457.868 4.0087 459.456 6.14815C461.166 8.18749 462.766 10.3164 464.25 12.5259C462.437 10.5733 460.734 8.52072 459.151 6.37775C457.441 4.33841 455.841 2.20949 454.357 0Z" fill="#E0E0E0"/>
<path d="M506.215 31.3271H485.883V89.0841H506.215V31.3271Z" fill="#E0E0E0"/>
<path d="M400.434 256.998C401.381 260.85 401.271 264.886 400.115 268.68C398.96 272.474 396.802 275.886 393.869 278.555C389.981 281.999 384.946 283.989 381.376 287.777C379.167 290.296 377.648 293.345 376.966 296.627C376.285 299.909 376.465 303.311 377.488 306.502C378.571 309.67 380.286 312.586 382.527 315.072C384.769 317.558 387.491 319.564 390.529 320.967C394.667 322.901 399.203 323.828 403.767 323.673C408.331 323.518 412.793 322.285 416.79 320.074C426.644 314.5 432.38 303.313 433.833 292.076C435.287 280.838 433.005 269.46 430.009 258.529" fill="#453D49"/>
<path d="M317.956 290.455C316.321 280.725 316.52 270.774 318.543 261.117C319.398 256.395 321.127 251.874 323.642 247.788C324.499 246.264 325.802 245.039 327.377 244.28C328.52 243.9 329.747 243.845 330.92 244.122C332.093 244.399 333.165 244.997 334.018 245.849C335.108 246.983 335.944 248.336 336.471 249.819C336.998 251.301 337.205 252.878 337.078 254.446C336.85 257.582 336.083 260.654 334.809 263.528C330.87 273.605 324.61 281.972 317.918 290.442" fill="#453D49"/>
<path d="M515.547 327.332C517.854 328.977 569.087 439.402 569.087 439.402C564.967 437.641 560.404 437.195 556.021 438.126L553.242 438.866C548.268 440.204 543.551 442.359 539.283 445.244L524.661 455.142C524.083 454.809 523.592 454.343 523.231 453.781C522.869 453.22 522.647 452.58 522.583 451.915V451.494L482.861 383.278L515.547 327.332Z" fill="#B288CB"/>
<path d="M323.17 151.535L336.836 229.254C341.234 239.714 392.518 303.083 392.518 303.083L375.563 357.6L308.204 265.442C301.949 258.75 298.547 249.883 298.72 240.722L301.346 157.683L323.17 151.535Z" fill="#F19DFF"/>
<path d="M395.896 290.902L431.067 293.568L461.738 298.326C461.738 298.326 515.547 312.472 515.547 318.365C515.547 320.329 500.861 367.129 492.601 395.166C490.576 401.976 488.925 408.891 487.655 415.881L515.547 477.669H383.187V421.021C383.187 421.021 374.263 346.618 375.831 336.452C377.399 326.286 395.896 290.902 395.896 290.902Z" fill="#B288CB"/>
<path d="M306.483 120.131C306.69 112.215 307.5 104.326 308.905 96.5333C309.096 95.4236 309.555 94.0843 310.664 93.9822C312.041 93.8036 312.742 95.5767 312.921 96.9543C314.143 106.353 313.751 115.891 311.761 125.157" fill="#C36EEB"/>
<path d="M322.163 284.703C337.256 271.207 337.766 247.827 336.479 229.216C336.227 227.857 336.433 226.453 337.065 225.224C338.506 223.17 342.011 223.948 343.439 226.015C344.867 228.081 344.714 230.798 344.637 233.298C345.415 231.181 348.729 231.193 350.284 232.826C351.84 234.459 352.107 236.921 352.286 239.204L352.783 245.429L396.878 287.522C396.878 287.522 398.089 283.695 401.327 285.902C404.565 288.109 406.655 292.764 406.655 292.764L375.589 360.611L317.931 290.456C319.039 288.333 320.467 286.393 322.163 284.703Z" fill="#B288CB"/>
<path d="M382.001 331.656C377.4 337.528 373.965 344.226 371.879 351.389C369.801 358.599 370.028 366.279 372.529 373.354C374.464 378.249 377.634 382.558 381.729 385.862C385.824 389.166 390.705 391.352 395.896 392.207" fill="#B288CB"/>
<path d="M337.524 279.716C337.709 279.097 337.947 278.495 338.238 277.918C338.748 276.795 339.436 275.137 340.214 273.07C340.991 271.004 341.82 268.504 342.598 265.698C343.406 262.635 344.048 259.531 344.523 256.399C344.963 253.265 345.231 250.11 345.326 246.947C345.326 244.026 345.326 241.399 345.147 239.192C344.969 236.985 344.803 235.212 344.637 233.988C344.527 233.351 344.468 232.707 344.459 232.062C344.666 232.675 344.811 233.307 344.892 233.949C345.223 235.671 345.465 237.408 345.619 239.154C345.868 241.748 345.974 244.354 345.938 246.96C345.841 253.35 344.915 259.7 343.184 265.851C342.472 268.358 341.621 270.824 340.635 273.236C339.793 275.303 339.041 276.935 338.455 278.032C338.187 278.616 337.876 279.179 337.524 279.716Z" fill="#453D49"/>
<path d="M347.123 267.866C347.539 266.768 348.015 265.695 348.551 264.651C350.783 259.474 352.077 253.942 352.375 248.311C352.373 247.14 352.437 245.968 352.566 244.804C352.817 245.959 352.911 247.143 352.847 248.324C352.803 254.045 351.497 259.685 349.022 264.843C348.536 265.935 347.896 266.953 347.123 267.866Z" fill="#453D49"/>
<path d="M398.905 303.147C398.803 303.084 399.338 302.255 399.644 300.749C400.001 298.782 399.888 296.758 399.313 294.844C398.707 292.916 397.97 291.032 397.107 289.206C396.705 288.45 396.405 287.643 396.215 286.808C396.719 287.49 397.147 288.225 397.49 289.002C398.499 290.798 399.315 292.697 399.924 294.665C400.534 296.68 400.583 298.824 400.065 300.864C399.904 301.721 399.502 302.513 398.905 303.147Z" fill="#453D49"/>
<path d="M391.243 392.998C391.044 392.916 390.855 392.808 390.682 392.679L389.178 391.685C387.903 390.804 386.004 389.516 383.786 387.769C381.164 385.748 378.766 383.452 376.634 380.919C374.011 377.783 372.12 374.101 371.102 370.14C370.128 366.179 369.878 362.074 370.362 358.023C370.753 354.737 371.484 351.501 372.542 348.367C373.244 346.255 374.056 344.181 374.977 342.155C375.308 341.441 375.563 340.879 375.755 340.522C375.839 340.324 375.946 340.135 376.073 339.961C375.832 340.742 375.547 341.508 375.219 342.257C374.646 343.711 373.817 345.828 372.988 348.507C372.009 351.628 371.335 354.836 370.974 358.087C370.53 362.063 370.789 366.088 371.739 369.975C372.731 373.847 374.564 377.453 377.106 380.536C379.193 383.053 381.529 385.352 384.079 387.399C386.246 389.184 388.069 390.524 389.331 391.48L390.759 392.577C391.09 392.833 391.256 392.973 391.243 392.998Z" fill="#453D49"/>
<path d="M463.459 405.613C463.282 405.707 463.094 405.775 462.898 405.817C462.516 405.919 461.968 406.111 461.241 406.251C459.187 406.696 457.096 406.948 454.995 407.003C447.989 407.219 441.08 405.33 435.157 401.581C429.234 397.833 424.568 392.395 421.761 385.97C420.906 384.048 420.235 382.049 419.76 380C419.581 379.273 419.518 378.724 419.441 378.316C419.397 378.119 419.376 377.918 419.377 377.717C419.638 378.438 419.851 379.175 420.015 379.923C422.044 387.625 426.587 394.427 432.923 399.248C439.259 404.069 447.023 406.633 454.982 406.532C457.062 406.521 459.139 406.342 461.19 405.996C461.939 405.828 462.697 405.701 463.459 405.613Z" fill="#453D49"/>
<path d="M483.741 430.473C483.563 430.473 485.245 423.368 487.565 414.72C489.885 406.072 491.798 399.095 491.963 399.146C492.129 399.197 490.459 406.238 488.203 414.886C485.946 423.534 483.919 430.473 483.741 430.473Z" fill="#453D49"/>
<path d="M501.524 415.434C501.371 415.523 496.246 407.143 490.051 396.709C483.856 386.275 479.012 377.741 479.177 377.652C479.343 377.563 484.455 385.93 490.65 396.364C496.846 406.798 501.741 415.332 501.524 415.434Z" fill="#453D49"/>
<g opacity="0.3">
<path opacity="0.3" d="M420.741 380.434C417.746 386.123 420.244 393.062 422.985 398.891C425.114 403.406 427.485 407.985 431.36 411.136C433.265 412.694 435.47 413.84 437.838 414.505C440.206 415.169 442.686 415.336 445.122 414.996C447.558 414.656 449.897 413.816 451.993 412.528C454.089 411.24 455.897 409.533 457.302 407.514C449.176 407.393 441.276 404.815 434.642 400.118C428.007 395.421 422.948 388.826 420.13 381.199" fill="#262626"/>
</g>
<g opacity="0.3">
<path opacity="0.3" d="M479.266 377.652C476.972 383.124 478.706 390.612 481.102 396.033C483.499 401.454 486.048 407.513 484.123 413.138C483.627 414.137 483.37 415.237 483.371 416.353C483.499 417.45 484.646 418.508 485.679 417.998C486.212 417.622 486.582 417.056 486.711 416.416C488.521 410.957 490.336 405.502 492.154 400.051" fill="#262626"/>
</g>
<path d="M358.673 305.597C358.878 302.171 359.304 298.763 359.947 295.392C360.38 292.003 361.032 288.646 361.898 285.341C361.705 288.767 361.279 292.177 360.623 295.545C360.194 298.935 359.542 302.293 358.673 305.597Z" fill="#FAFAFA"/>
<path d="M345.249 302.777C345.083 302.879 342.891 299.818 339.857 296.297C336.823 292.777 334.146 290.136 334.273 289.996C336.559 291.669 338.609 293.642 340.367 295.864C342.287 297.946 343.928 300.27 345.249 302.777Z" fill="#FAFAFA"/>
<path d="M356.773 269.92C356.389 270.742 355.906 271.513 355.333 272.216C354.364 273.581 352.949 275.405 351.304 277.318C349.66 279.232 348.079 280.954 346.894 282.127C346.299 282.809 345.618 283.409 344.867 283.913C344.726 283.785 347.518 280.762 350.794 276.885C354.071 273.007 356.62 269.754 356.773 269.92Z" fill="#FAFAFA"/>
<path d="M352.273 253.86C352.082 253.936 351.355 252.316 349.953 250.697C348.551 249.077 347.047 248.145 347.149 247.954C348.475 248.336 349.636 249.148 350.45 250.263C351.431 251.233 352.07 252.495 352.273 253.86Z" fill="#FAFAFA"/>
<path d="M340.647 263.759C339.606 264.25 338.482 264.54 337.333 264.613C336.218 264.905 335.058 264.974 333.916 264.817C336.071 264.035 338.356 263.676 340.647 263.759Z" fill="#FAFAFA"/>
<path d="M369.98 277.929C370.009 275.944 369.868 273.959 369.559 271.998C369.031 270.083 368.336 268.217 367.481 266.424C368.927 267.91 369.876 269.809 370.196 271.858C370.742 273.857 370.666 275.974 369.98 277.929Z" fill="#FAFAFA"/>
<path d="M385.647 294.792C383.295 291.036 380.138 287.851 376.405 285.468C378.513 286.286 380.425 287.539 382.017 289.146C383.61 290.752 384.846 292.676 385.647 294.792Z" fill="#FAFAFA"/>
<path d="M360.495 324.054C356.7 325.476 352.496 325.334 348.806 323.658C348.87 323.467 351.355 324.27 354.631 324.36C357.908 324.449 360.444 323.862 360.495 324.054Z" fill="#FAFAFA"/>
<path d="M372.3 330.113C372.121 330.036 373.116 327.102 373.944 323.378C374.773 319.653 375.143 316.566 375.334 316.592C375.465 318.926 375.215 321.265 374.595 323.518C374.189 325.826 373.415 328.053 372.3 330.113Z" fill="#FAFAFA"/>
<path d="M398.089 331.095C396.072 329.39 394.208 327.512 392.518 325.483C390.653 323.604 388.947 321.573 387.419 319.411C389.428 321.125 391.287 323.007 392.977 325.036C394.841 326.915 396.55 328.941 398.089 331.095Z" fill="#FAFAFA"/>
<path d="M410.097 360.904C408.568 359.794 407.174 358.51 405.941 357.078C404.559 355.793 403.328 354.355 402.27 352.792C403.799 353.902 405.193 355.186 406.426 356.619C407.82 357.892 409.053 359.331 410.097 360.904Z" fill="#FAFAFA"/>
<path d="M387.776 363.748C386.31 365.309 384.585 366.604 382.677 367.575C380.882 368.771 378.887 369.635 376.787 370.126C376.787 369.947 379.337 368.85 382.345 367.052C385.354 365.253 387.648 363.595 387.776 363.748Z" fill="#FAFAFA"/>
<path d="M398.05 392.105C397.859 392.105 398.624 388.712 399.007 384.516C399.389 380.319 399.274 376.862 399.465 376.862C399.934 379.387 400.003 381.97 399.669 384.516C399.542 387.116 398.996 389.679 398.05 392.105Z" fill="#FAFAFA"/>
<path d="M436.689 369.055C434.583 367.766 432.716 366.121 431.169 364.195C429.464 362.415 428.087 360.346 427.103 358.085C427.268 357.971 429.015 360.739 431.666 363.762C434.318 366.785 436.817 368.889 436.689 369.055Z" fill="#FAFAFA"/>
<path d="M450.801 381.084C450.648 380.969 452.585 378.316 454.753 374.91C456.92 371.504 458.513 368.647 458.679 368.736C457.852 371.056 456.715 373.252 455.301 375.267C454.077 377.405 452.563 379.363 450.801 381.084Z" fill="#FAFAFA"/>
<path d="M448.736 351.644C444.383 350.921 440.113 349.767 435.988 348.2C438.186 348.462 440.354 348.932 442.464 349.603C444.618 350.07 446.719 350.754 448.736 351.644Z" fill="#FAFAFA"/>
<path d="M438.448 403.456C438.222 401.447 438.222 399.419 438.448 397.41C438.465 395.389 438.695 393.375 439.136 391.402C439.366 393.411 439.366 395.44 439.136 397.448C439.124 399.47 438.893 401.484 438.448 403.456Z" fill="#FAFAFA"/>
<path d="M424.285 417.284C423.635 412.877 424.498 408.381 426.733 404.528C426.911 404.605 425.739 407.296 425.076 410.83C424.413 414.363 424.477 417.271 424.285 417.284Z" fill="#FAFAFA"/>
<path d="M417.491 401.25C412.612 404.347 407.497 407.056 402.193 409.35C404.594 407.697 407.117 406.23 409.74 404.962C412.224 403.527 414.815 402.286 417.491 401.25Z" fill="#FAFAFA"/>
<path d="M486.724 396.747C482.756 398.118 478.654 399.063 474.486 399.566C478.455 398.199 482.557 397.254 486.724 396.747Z" fill="#FAFAFA"/>
<path d="M475.876 385.395C474.42 384.041 473.112 382.536 471.975 380.905C470.677 379.402 469.544 377.764 468.597 376.02C470.066 377.356 471.375 378.858 472.497 380.497C473.807 381.994 474.941 383.638 475.876 385.395Z" fill="#FAFAFA"/>
<path d="M502.799 378.584C498.668 378.481 494.604 377.516 490.867 375.752C492.885 376.097 494.882 376.561 496.846 377.142C498.857 377.502 500.845 377.983 502.799 378.584Z" fill="#FAFAFA"/>
<path d="M521.921 378.24C522.469 376.435 523.12 374.663 523.871 372.933C524.409 371.121 525.061 369.345 525.821 367.614C525.718 369.523 525.286 371.4 524.547 373.163C523.978 374.997 523.089 376.716 521.921 378.24Z" fill="#FAFAFA"/>
<path d="M517.561 404.158C513.607 403.274 510.036 401.157 507.363 398.112C507.49 397.959 509.504 399.719 512.296 401.364C515.088 403.01 517.625 403.967 517.561 404.158Z" fill="#FAFAFA"/>
<path d="M529.977 403.368C530.233 400.807 530.702 398.273 531.379 395.791C531.841 393.268 532.514 390.789 533.394 388.38C532.678 393.471 531.522 398.49 529.939 403.38L529.977 403.368Z" fill="#FAFAFA"/>
<path d="M323.297 152.403C321.245 133.002 317.535 114.749 316.528 95.7302C316.568 95.2533 316.508 94.7734 316.352 94.3209C316.197 93.8685 315.948 93.4536 315.623 93.1025C315.346 92.9402 315.038 92.836 314.719 92.7964C314.4 92.7568 314.076 92.7825 313.767 92.872C313.458 92.9614 313.171 93.1128 312.923 93.3169C312.674 93.521 312.47 93.7736 312.322 94.0592C311.765 95.2531 311.545 96.576 311.684 97.8859C311.706 108 309.981 118.042 306.585 127.568C304.405 133.754 301.486 139.686 299.854 146.025C298.223 152.365 301.295 154.52 304.15 160.426" fill="#F19DFF"/>
<path d="M304.189 160.4C301.663 158.462 299.705 155.88 298.518 152.924C297.332 149.969 296.961 146.749 297.445 143.601C298.095 139.774 299.995 136.305 301.499 132.733C303.003 129.162 304.163 125.195 303.245 121.432C302.738 120.035 302.395 118.584 302.225 117.108C302.225 115.628 303.181 113.97 304.66 113.906C305.219 113.951 305.76 114.126 306.24 114.416C306.72 114.706 307.126 115.103 307.426 115.577C309.912 118.651 311.901 127.631 310.652 134.341" fill="#F19DFF"/>
<path d="M310.652 134.341C310.652 134.341 310.779 133.307 310.856 131.445C310.936 128.818 310.718 126.191 310.206 123.613C309.862 121.838 309.35 120.099 308.676 118.422C308.321 117.509 307.84 116.65 307.248 115.871C306.982 115.452 306.633 115.093 306.223 114.814C305.814 114.535 305.351 114.344 304.864 114.251C304.363 114.274 303.883 114.462 303.499 114.785C303.114 115.107 302.846 115.547 302.735 116.036C302.462 117.124 302.533 118.269 302.939 119.315C303.368 120.482 303.667 121.692 303.832 122.924C303.955 124.201 303.908 125.487 303.691 126.751C302.799 131.93 300.046 136.114 298.592 140.259C297.876 142.196 297.492 144.24 297.458 146.305C297.45 148.104 297.717 149.893 298.248 151.612C299.02 154.119 300.325 156.429 302.072 158.385C303.347 159.75 304.176 160.349 304.138 160.413C303.91 160.297 303.696 160.156 303.5 159.992C302.925 159.553 302.383 159.072 301.881 158.551C300.018 156.628 298.622 154.301 297.802 151.752C297.221 149.994 296.92 148.156 296.91 146.305C296.921 144.174 297.296 142.06 298.019 140.055C299.421 135.82 302.136 131.636 302.978 126.649C303.195 125.437 303.242 124.2 303.118 122.975C302.965 121.778 302.678 120.601 302.264 119.468C301.823 118.296 301.76 117.016 302.085 115.807C302.275 115.203 302.623 114.662 303.092 114.238C303.327 114.019 303.604 113.85 303.907 113.743C304.21 113.635 304.531 113.591 304.851 113.613C305.435 113.69 305.996 113.89 306.497 114.2C306.998 114.51 307.428 114.923 307.758 115.411C308.378 116.256 308.876 117.183 309.237 118.167C309.911 119.88 310.406 121.658 310.715 123.473C311.198 126.088 311.348 128.754 311.162 131.407C311.117 132.127 311.023 132.843 310.881 133.55C310.843 133.823 310.765 134.089 310.652 134.341Z" fill="#C36EEB"/>
<path d="M477.303 237.928C477.72 239.753 478.707 241.397 480.122 242.622C481.536 243.847 483.304 244.589 485.169 244.74C487.037 244.831 488.898 244.446 490.578 243.621C492.257 242.795 493.699 241.556 494.768 240.02C496.885 236.897 497.737 233.085 497.152 229.357C496.425 223.987 492.856 218.821 487.68 217.226C482.504 215.632 476.067 218.502 474.639 223.706L468.673 232.035L477.303 237.928Z" fill="#453D49"/>
<path d="M470.254 221.563C470.833 216.947 470.479 212.262 469.213 207.785C467.948 203.309 465.796 199.132 462.887 195.504C459.978 191.875 456.369 188.868 452.276 186.662C448.183 184.455 443.689 183.094 439.06 182.658C420.563 180.898 404.106 194.687 401.339 213.08C398.905 229.203 396.814 245.479 396.89 251.347C397.12 269.204 407.535 276.118 411.767 278.133C413.287 278.681 414.859 279.07 416.458 279.294C416.474 279.297 416.488 279.303 416.501 279.312C416.514 279.321 416.525 279.332 416.533 279.345C416.541 279.358 416.547 279.373 416.549 279.388C416.552 279.404 416.551 279.419 416.548 279.434L412.596 299.843C410.798 313.249 418.281 325.214 431.654 327.166C445.026 329.117 455.568 318.823 457.621 305.405L470.254 221.563Z" fill="#F19DFF"/>
<path d="M416.573 279.422C416.573 279.422 428.046 282.075 443.917 275.442C443.917 275.442 437.084 290.175 415.515 284.932L416.573 279.422Z" fill="#C36EEB"/>
<path d="M397.847 209.089C401.531 214.714 413.233 211.232 420.295 207.367C423.984 209.721 428.446 210.543 432.731 209.657C437.017 208.771 440.787 206.247 443.241 202.622C447.282 207.724 455.505 206.066 458.539 200.262C461.573 194.458 459.813 186.46 455.734 181.384C451.655 176.307 445.612 173.73 439.672 172.646C425.586 170.095 410.25 175.503 401.824 188.246C397.936 194.126 395.603 202.048 397.91 209.089" fill="#453D49"/>
<path d="M436.778 174.649C436.778 174.904 433.451 174.266 428.224 175.133C421.435 176.263 415.212 179.614 410.53 184.662C406.123 189.946 403.209 196.315 402.091 203.106C401.704 205.937 401.555 208.796 401.645 211.652C401.374 210.915 401.215 210.141 401.174 209.356C400.951 207.234 400.985 205.093 401.276 202.978C402.2 195.924 405.129 189.283 409.715 183.845C414.561 178.594 421.091 175.205 428.173 174.266C430.287 173.981 432.426 173.947 434.547 174.164C435.311 174.21 436.064 174.374 436.778 174.649Z" fill="#5A4C65"/>
<path d="M417.733 200.874C417.523 200.228 417.428 199.55 417.452 198.871C417.386 197.021 417.579 195.17 418.026 193.374C418.708 190.36 419.999 187.519 421.82 185.024C423.641 182.528 425.952 180.432 428.613 178.865C431.274 177.297 434.227 176.291 437.29 175.908C440.354 175.525 443.464 175.774 446.428 176.638C448.217 177.129 449.932 177.859 451.527 178.807C452.142 179.127 452.691 179.56 453.146 180.082C450.923 179.03 448.611 178.176 446.237 177.531C440.463 176.06 434.343 176.931 429.209 179.956C424.075 182.981 420.344 187.914 418.829 193.68C417.58 197.94 417.975 200.874 417.733 200.874Z" fill="#5A4C65"/>
<path d="M451.527 194.751C450.145 199.744 449.35 204.881 449.156 210.058C448.965 215.264 450.582 220.375 453.733 224.522C458.653 230.454 466.863 232.265 474.435 233.706C478.486 223.595 479.706 212.571 477.966 201.818C477.099 196.601 475.417 191.282 471.745 187.48C469.016 184.786 465.47 183.074 461.664 182.612C457.857 182.151 454.005 182.966 450.712 184.929" fill="#453D49"/>
<path d="M455.734 219.445C453.745 223.757 453.886 228.744 454.574 233.476C455.262 238.209 456.461 242.839 456.41 247.584C456.359 252.329 454.855 257.367 451.132 260.339C450.003 261.092 448.945 261.946 447.971 262.891C447.49 263.37 447.168 263.986 447.049 264.654C446.931 265.323 447.021 266.012 447.308 266.628C448.022 267.776 450.176 267.75 450.482 266.437L450.291 266.768C450.103 267.086 450.002 267.448 449.998 267.817C449.994 268.186 450.087 268.55 450.268 268.871C450.448 269.193 450.711 269.462 451.028 269.65C451.345 269.838 451.707 269.94 452.075 269.944C453.378 269.882 454.654 269.553 455.825 268.979C456.996 268.404 458.036 267.595 458.883 266.602C461.318 263.783 462.286 259.995 462.924 256.398C464.887 245.135 464.505 233.438 467.615 222.456" fill="#453D49"/>
<path d="M412.507 293.415C413.384 297.252 415.077 300.855 417.47 303.979C419.862 307.103 422.899 309.676 426.373 311.523C429.847 313.369 433.677 314.446 437.604 314.68C441.531 314.914 445.462 314.3 449.131 312.88C455.734 310.329 461.063 305.354 466.2 300.494C467.12 306.026 466.866 311.69 465.457 317.119C464.048 322.547 461.514 327.618 458.02 332.003C454.526 336.389 450.149 339.99 445.174 342.573C440.199 345.157 434.737 346.665 429.142 347.001C420.691 347.511 411.614 344.934 406.298 338.34C402.589 333.748 401.097 327.663 401.199 321.757C401.457 315.842 402.582 309.997 404.539 304.41C406.043 299.588 408.427 294.206 413.297 292.866" fill="#B288CB"/>
<path d="M472.982 234.038C478.081 236.78 480.809 242.52 481.791 248.184C482.772 253.847 482.275 259.663 482.517 265.391C482.759 271.118 483.856 277.139 487.489 281.59C491.313 286.335 497.368 288.58 502.786 291.476C514.667 297.854 524.457 308.734 528.027 321.77C531.596 334.806 528.358 349.832 518.606 359.208C509.683 367.703 496.807 370.687 484.519 370.687C475.761 370.687 466.136 368.8 460.668 361.95C455.199 355.1 455.568 345.495 457.481 337.051C459.393 328.607 462.898 320.405 463.039 311.744C461.73 317.106 459.448 322.182 456.308 326.719C455.403 327.995 453.86 329.398 452.483 328.658C451.107 327.918 451.527 325.533 452.241 323.939C462.796 300.43 459.125 253.043 465.384 227.086" fill="#453D49"/>
<path d="M464.288 231.372C464.607 231.27 476.934 228.936 475.34 241.13C473.747 253.324 461.853 249.217 461.879 248.873C461.904 248.528 464.288 231.372 464.288 231.372Z" fill="#F19DFF"/>
<path d="M466.2 244.74C466.2 244.74 466.391 244.905 466.735 245.122C467.212 245.403 467.778 245.49 468.316 245.365C469.667 245.058 471.019 243.145 471.363 240.964C471.524 239.92 471.454 238.853 471.159 237.839C471.095 237.442 470.934 237.068 470.692 236.748C470.45 236.428 470.133 236.172 469.769 236.002C469.54 235.921 469.291 235.918 469.06 235.994C468.829 236.071 468.63 236.221 468.495 236.423C468.291 236.742 468.329 236.997 468.265 237.01C468.201 237.022 468.036 236.767 468.189 236.283C468.298 235.988 468.505 235.74 468.775 235.581C468.965 235.467 469.176 235.394 469.395 235.365C469.614 235.336 469.837 235.354 470.05 235.415C470.538 235.58 470.975 235.867 471.321 236.249C471.667 236.631 471.909 237.094 472.026 237.596C472.403 238.721 472.504 239.92 472.319 241.091C471.924 243.54 470.369 245.671 468.495 245.951C468.155 246.006 467.808 245.982 467.479 245.883C467.15 245.784 466.848 245.611 466.595 245.377C466.187 245.033 466.162 244.752 466.2 244.74Z" fill="#C36EEB"/>
<path d="M399.912 319.691C400.51 318.39 401.2 317.132 401.977 315.929C403.754 312.986 405.227 309.87 406.375 306.63C407.49 303.387 407.864 299.934 407.471 296.527C407.223 295.129 406.899 293.745 406.502 292.382C406.742 292.692 406.928 293.042 407.05 293.415C407.466 294.393 407.766 295.416 407.943 296.464C408.479 299.945 408.159 303.504 407.012 306.834C405.855 310.123 404.301 313.259 402.385 316.171C401.671 317.293 401.11 318.186 400.638 318.786C400.167 319.385 399.95 319.717 399.912 319.691Z" fill="#453D49"/>
<path d="M406.12 305.622C405.941 305.622 405.597 304.576 404.501 303.849C403.404 303.122 402.308 303.122 402.283 302.931C402.257 302.739 402.55 302.714 403.048 302.701C403.707 302.707 404.348 302.916 404.883 303.301C405.423 303.678 405.84 304.206 406.082 304.819C406.247 305.291 406.209 305.597 406.12 305.622Z" fill="#FAFAFA"/>
<path d="M413.998 305.597C413.043 304.523 411.993 303.537 410.862 302.651C409.606 301.948 408.282 301.375 406.91 300.942C407.669 300.837 408.442 300.885 409.182 301.085C409.922 301.284 410.615 301.63 411.219 302.102C412.566 302.86 413.563 304.114 413.998 305.597Z" fill="#FAFAFA"/>
<path d="M418.944 331.477C418.974 329.719 419.222 327.97 419.683 326.273C419.929 324.52 420.396 322.806 421.073 321.171C421.044 322.934 420.795 324.686 420.333 326.388C420.086 328.136 419.62 329.846 418.944 331.477Z" fill="#FAFAFA"/>
<path d="M438.83 335.38C438.512 331.718 438.627 328.032 439.175 324.397C439.511 328.059 439.395 331.747 438.83 335.38Z" fill="#FAFAFA"/>
<path d="M32.8012 392.065L13.1441 477.719L54.7146 477.846L73.9128 402.525L32.8012 392.065Z" fill="#AE76B7"/>
<path d="M236.944 286.832C232.992 281.539 228.454 276.449 226.376 270.173C225.369 267.138 224.974 263.923 223.903 260.913C222.832 257.903 220.882 254.969 217.899 253.834C214.916 252.698 212.647 253.834 210.709 255.977L196.444 297.725L204.667 329.793C212.876 327.943 223.151 325.749 230.825 322.292C238.499 318.836 243.573 313.3 244.108 304.894C244.478 298.299 240.896 292.138 236.944 286.832Z" fill="#453D49"/>
<path d="M107.133 279.459C107.133 279.459 57.5446 301.054 51.3492 310.799C45.1538 320.544 24.7573 390.024 24.7573 390.024L77.0232 405.33L76.1309 477.667H204.246L203.188 350.112L187.126 279.625C187.126 279.625 158.838 277.801 156.212 276.512C153.586 275.224 107.133 279.459 107.133 279.459Z" fill="#B288CB"/>
<path d="M283.359 102.655C283.767 99.7344 281.714 96.52 283.193 93.9561C284.171 92.6348 285.569 91.6857 287.158 91.2647C287.927 90.9127 288.759 90.7176 289.605 90.6907C290.027 90.6839 290.441 90.8012 290.797 91.0279C291.153 91.2547 291.434 91.5809 291.607 91.9663C291.698 92.4541 291.655 92.9577 291.482 93.423C291.309 93.8882 291.013 94.2974 290.625 94.6067C289.848 95.2174 289.195 95.9707 288.7 96.8261C288.354 98.9257 288.516 101.078 289.172 103.102C290.87 107.556 292.279 112.115 293.391 116.75" fill="#AE76B7"/>
<path d="M272.893 103.65C273.071 99.2243 276.717 81.7875 276.845 77.3613C279.84 78.2797 281.574 81.4686 282.135 84.5554C282.696 87.6423 282.403 90.8184 282.938 93.9052C283.652 98.0508 285.806 101.788 287.973 105.385C290.14 108.982 292.41 112.643 293.391 116.725C294.373 120.807 298.07 131.419 295.189 134.48" fill="#AE76B7"/>
<path d="M272.064 133.498L254.332 217.786C253.707 221.613 187.126 279.714 187.126 279.714L200.269 332.254L286.954 247.392C293.213 240.697 296.619 231.825 296.451 222.659L294.972 143.575L272.064 133.498Z" fill="#AE76B7"/>
<path d="M269.03 104.186L272.064 133.523L295.01 143.626C295.01 143.626 295.291 141.547 296.285 131.381C297.368 120.181 285.335 115.372 279.968 107.145C277.673 103.612 278.272 97.1065 276.5 89.045C276.296 88.1139 275.022 82.476 274.333 79.4529C273.971 77.7729 272.987 76.2921 271.58 75.3074C270.534 74.6186 269.362 74.2742 268.508 75.3074C267.653 76.3406 269.03 104.186 269.03 104.186Z" fill="#AE76B7"/>
<path d="M283.359 138.371C285.908 136.164 286.52 132.21 285.564 128.932C284.394 125.703 282.546 122.763 280.146 120.309C277.75 117.86 275.734 115.065 274.168 112.018C273.199 109.824 272.74 107.4 271.618 105.245C270.496 103.089 268.597 101.112 266.2 101.022C268.125 113.153 268.074 120.156 272.013 133.447" fill="#AE76B7"/>
<path d="M268.584 114.875C268.584 114.875 268.495 114.543 268.355 113.906C268.214 113.268 267.972 112.209 267.743 111.125C267.195 108.574 266.468 105.321 265.716 101.584L265.639 101.227H266.009C266.794 101.198 267.576 101.325 268.311 101.601C269.047 101.877 269.72 102.296 270.292 102.834C272.043 104.5 273.289 106.627 273.887 108.969C274.396 110.79 275.066 112.561 275.889 114.263C276.512 115.38 277.265 116.421 278.132 117.362C278.448 117.724 278.706 118.133 278.897 118.574C278.548 118.25 278.224 117.901 277.928 117.528C276.979 116.631 276.156 115.61 275.481 114.492C274.58 112.785 273.846 110.996 273.288 109.148C272.695 106.923 271.505 104.902 269.846 103.306C268.812 102.335 267.439 101.808 266.022 101.839L266.328 101.456C267.87 109.135 268.865 114.888 268.584 114.875Z" fill="#7C5142"/>
<path d="M278.897 107.413C277.972 103.467 277.265 99.4728 276.781 95.4486C276.073 91.4561 275.583 87.4278 275.315 83.3818C276.247 87.3309 276.953 91.3298 277.431 95.3593C278.139 99.3475 278.628 103.371 278.897 107.413Z" fill="#7C5142"/>
<path d="M286.201 108.408C286.201 108.408 286.291 108.536 286.367 108.855H286.176C285.228 106.125 284.453 103.339 283.856 100.512C283.308 98.0506 282.913 95.8056 282.67 94.1347C282.473 93.2605 282.396 92.3637 282.441 91.4688C282.632 91.4688 283.41 95.4357 284.506 100.398C285.386 104.365 286.201 107.707 286.367 108.829H286.176C286.163 108.561 286.163 108.408 286.201 108.408Z" fill="#7C5142"/>
<path d="M290.727 124.569C290.625 124.569 290.166 123.906 289.248 122.924C286.823 120.346 283.532 118.756 280.006 118.459C279.268 118.466 278.531 118.419 277.801 118.319C278.506 118.045 279.264 117.932 280.019 117.987C281.856 118.01 283.666 118.437 285.32 119.237C286.974 120.037 288.433 121.191 289.592 122.618C290.114 123.173 290.502 123.841 290.727 124.569Z" fill="#7C5142"/>
<path d="M274.142 135.819C273.511 134.721 273.003 133.558 272.625 132.35C271.577 129.487 270.7 126.566 269.999 123.599C269.286 120.658 268.749 117.676 268.393 114.67C268.184 113.406 268.107 112.124 268.163 110.844C268.483 112.063 268.713 113.303 268.852 114.556C269.234 116.839 269.82 120.002 270.636 123.484C271.452 126.967 272.37 130.015 273.071 132.235C273.511 133.403 273.869 134.601 274.142 135.819Z" fill="#7C5142"/>
<path d="M171.561 281.232C172.697 279.492 174.458 278.256 176.481 277.781C178.503 277.306 180.631 277.628 182.422 278.681C191.779 271.028 201.352 263.604 210.709 255.989C207.65 271.296 205.61 292.636 212.456 306.641C212.456 306.641 221.086 322.688 234.828 320.239L222.565 332.254L203.226 350.201" fill="#B288CB"/>
<path d="M168.527 288.375C168.541 286.322 169.167 284.319 170.324 282.623C171.301 280.811 172.791 279.329 174.607 278.362C171.727 281.1 169.628 284.556 168.527 288.375Z" fill="#453D49"/>
<path d="M178.636 297.815C178.105 296.965 177.742 296.021 177.565 295.034C177.015 292.669 176.949 290.216 177.372 287.824C177.795 285.433 178.697 283.151 180.025 281.118C180.532 280.248 181.198 279.482 181.988 278.86C182.078 278.937 181.338 279.804 180.433 281.411C179.256 283.445 178.441 285.668 178.024 287.981C177.625 290.298 177.625 292.666 178.024 294.983C178.343 296.642 178.738 297.713 178.636 297.815Z" fill="#453D49"/>
<path d="M225.471 330.57C224.53 331.155 223.502 331.586 222.424 331.845C219.479 332.556 216.398 332.464 213.501 331.578C209.21 330.214 205.456 327.537 202.767 323.924C199.538 319.494 197.358 314.386 196.393 308.988C194.593 299.267 194.079 289.352 194.864 279.497C195.157 275.67 195.578 272.685 195.934 270.568C196.1 269.522 196.253 268.718 196.368 268.17C196.408 267.887 196.476 267.61 196.572 267.341C196.581 267.628 196.555 267.915 196.495 268.195L196.189 270.606C195.922 272.698 195.565 275.708 195.335 279.535C194.683 289.347 195.257 299.203 197.044 308.873C197.998 314.131 200.11 319.112 203.226 323.452C205.804 327.028 209.438 329.705 213.616 331.106C216.437 332.015 219.445 332.178 222.348 331.578C223.41 331.312 224.454 330.975 225.471 330.57Z" fill="#FAFAFA"/>
<path d="M77.2654 426.863C77.0869 426.863 76.934 408.724 76.934 386.364C76.934 364.004 77.0869 345.865 77.2654 345.865C77.4439 345.865 77.5968 363.991 77.5968 386.364C77.5968 408.737 77.4566 426.863 77.2654 426.863Z" fill="#453D49"/>
<path d="M76.2456 331.872C76.1054 331.872 76.1436 330.06 75.519 327.241C75.1468 325.594 74.6131 323.988 73.9255 322.445C73.0688 320.569 72.0132 318.79 70.7768 317.139C69.506 315.511 68.066 314.023 66.4808 312.7C65.1757 311.633 63.7712 310.693 62.2868 309.894C59.7372 308.554 57.9653 308.108 58.0035 307.98C58.4386 308.003 58.8681 308.089 59.2783 308.236C59.7615 308.356 60.2346 308.514 60.6933 308.708C61.3187 308.923 61.9279 309.183 62.5163 309.486C64.0476 310.236 65.4925 311.151 66.825 312.215C68.4615 313.553 69.945 315.067 71.2485 316.731C72.5207 318.424 73.5904 320.261 74.4354 322.203C75.1297 323.791 75.6469 325.451 75.9779 327.152C76.1087 327.8 76.1981 328.457 76.2456 329.116C76.3052 329.611 76.3308 330.11 76.3221 330.609C76.3452 331.031 76.3196 331.455 76.2456 331.872Z" fill="#453D49"/>
<path d="M163.555 278.898C163.661 279.252 163.733 279.615 163.772 279.983C163.944 281.017 164.054 282.06 164.103 283.108C164.256 286.978 163.716 290.844 162.51 294.524C160.714 300.012 157.53 304.942 153.268 308.836C147.922 313.51 141.208 316.329 134.13 316.872C127.051 317.414 119.987 315.651 113.992 311.846C109.199 308.637 105.318 304.243 102.723 299.09C100.985 295.632 99.8753 291.891 99.4465 288.044C99.343 287.001 99.2962 285.954 99.3063 284.906C99.2756 284.541 99.2756 284.174 99.3063 283.809C99.3662 284.168 99.396 284.53 99.3956 284.894C99.4282 285.935 99.5133 286.973 99.6505 288.006C100.173 291.798 101.337 295.473 103.092 298.874C105.693 303.922 109.542 308.221 114.272 311.361C120.159 315.065 127.077 316.782 134.011 316.261C140.944 315.74 147.529 313.008 152.796 308.466C157.012 304.652 160.18 299.822 162 294.435C163.222 290.807 163.825 286.999 163.785 283.172C163.785 281.819 163.67 280.773 163.568 280.059C163.466 279.345 163.542 278.911 163.555 278.898Z" fill="#453D49"/>
<path d="M76.1691 389.565C76.1691 389.744 65.5757 386.415 52.6494 382.142C39.7232 377.868 29.2827 374.259 29.3465 374.08C29.4102 373.902 39.9271 377.231 52.8661 381.504C65.8051 385.777 76.2201 389.387 76.1691 389.565Z" fill="#FAFAFA"/>
<path d="M201.951 371.861C201.951 372.053 173.843 372.32 139.169 372.461C104.495 372.601 76.373 372.576 76.373 372.461C76.373 372.346 104.482 372.002 139.169 371.861C173.855 371.721 201.951 371.683 201.951 371.861Z" fill="#FAFAFA"/>
<path d="M202.589 382.97C202.589 383.149 174.327 383.302 139.487 383.302C104.648 383.302 76.373 383.149 76.373 382.97C76.373 382.792 104.622 382.639 139.487 382.639C174.352 382.639 202.589 382.779 202.589 382.97Z" fill="#FAFAFA"/>
<path d="M185.277 396.466C185.191 396.821 185.072 397.167 184.92 397.499C184.64 398.213 184.257 399.183 183.786 400.407L182.944 402.499C182.613 403.265 182.218 404.068 181.81 404.948C180.969 406.683 180.102 408.698 178.891 410.816L177.055 414.158C176.418 415.318 175.653 416.466 174.913 417.691C173.46 420.153 171.675 422.627 169.814 425.268C165.675 430.878 161.115 436.166 156.174 441.085C151.163 445.935 145.789 450.395 140.099 454.427C137.422 456.213 134.911 457.96 132.451 459.363C131.176 460.078 130.054 460.817 128.881 461.442L125.465 463.203C123.336 464.363 121.296 465.205 119.55 466.009C118.67 466.392 117.854 466.774 117.089 467.093L114.973 467.897L112.054 468.981C111.717 469.125 111.367 469.237 111.009 469.313C111.327 469.132 111.66 468.979 112.003 468.853L114.884 467.654L116.962 466.8C117.727 466.468 118.53 466.073 119.397 465.664C121.131 464.835 123.145 463.968 125.248 462.782L128.601 460.996C129.761 460.358 130.921 459.606 132.145 458.891C134.605 457.475 137.091 455.715 139.793 453.929C151.148 445.912 161.135 436.113 169.368 424.911C171.217 422.296 173.014 419.808 174.467 417.398C175.219 416.186 175.997 415.051 176.647 413.903L178.496 410.586C179.77 408.507 180.624 406.504 181.491 404.782C181.912 403.915 182.333 403.124 182.677 402.372C183.021 401.619 183.301 400.93 183.569 400.305C184.092 399.106 184.512 398.162 184.844 397.448C184.972 397.113 185.116 396.786 185.277 396.466Z" fill="#453D49"/>
<g opacity="0.3">
<path opacity="0.3" d="M180.102 407.512C171.535 417.946 162.561 425.51 149.979 430.382C143.949 432.704 137.639 434.298 131.8 437.066C125.962 439.834 120.455 444.005 117.778 449.911C115.751 454.477 116.733 461.391 121.602 462.386C123.494 462.618 125.413 462.322 127.147 461.531C152.069 452.488 168.45 429.643 180.025 407.512" fill="#262626"/>
</g>
<path d="M90.9565 180.565C85.5769 184.788 85.22 192.683 85.4877 199.52C85.7554 206.357 85.8319 214.138 80.8475 218.857C76.7682 222.748 69.6295 224.189 68.4567 229.712C68.1598 231.014 68.2785 232.375 68.796 233.606C69.3135 234.836 70.2036 235.873 71.3411 236.57C72.4786 237.267 73.806 237.59 75.1364 237.492C76.4668 237.395 77.7331 236.882 78.7569 236.026C77.0232 240.35 77.8136 245.886 81.4977 248.782C85.1818 251.677 91.6194 250.3 92.9707 245.861C92.7618 246.595 92.7042 247.364 92.8013 248.122C92.8984 248.879 93.1483 249.609 93.5357 250.266C93.9231 250.924 94.44 251.496 95.0551 251.948C95.6701 252.4 96.3705 252.722 97.1137 252.895C97.8569 253.068 98.6275 253.088 99.3787 252.955C100.13 252.821 100.846 252.535 101.484 252.116C102.122 251.697 102.668 251.152 103.089 250.516C103.51 249.879 103.797 249.163 103.934 248.412" fill="#453D49"/>
<path d="M169.024 230.07C169.28 230.966 169.718 231.8 170.31 232.519C170.902 233.239 171.635 233.829 172.465 234.253C173.294 234.677 174.202 234.926 175.132 234.984C176.061 235.042 176.993 234.908 177.869 234.591C178.744 234.274 179.546 233.78 180.223 233.14C180.9 232.5 181.438 231.727 181.804 230.87C182.17 230.013 182.356 229.09 182.35 228.158C182.345 227.226 182.148 226.305 181.772 225.453C180.714 222.799 177.947 220.797 177.884 217.952C177.718 214.508 181.338 212.225 184.512 210.886C187.687 209.546 191.409 207.761 191.906 204.355C192.403 200.949 189.561 198.334 187.189 196C184.818 193.666 182.537 190.12 184.207 187.237C185.061 185.77 186.756 184.979 187.852 183.691C190.325 180.834 189.331 176.038 186.476 173.601C183.62 171.165 179.528 170.604 175.793 171.05C172.058 171.497 168.489 172.9 164.83 173.805C158.763 175.271 152.458 175.46 146.314 174.363C140.171 173.265 134.321 170.903 129.136 167.428" fill="#453D49"/>
<path d="M94.6151 206.867L107.733 282.941C108.276 286.125 109.444 289.17 111.169 291.9C112.894 294.63 115.142 296.992 117.783 298.849C120.425 300.705 123.407 302.021 126.559 302.719C129.711 303.417 132.97 303.484 136.147 302.916C142.168 301.837 147.567 298.542 151.281 293.678C154.995 288.815 156.754 282.736 156.212 276.64C155.613 269.892 155.103 264.305 155.103 264.305C155.103 264.305 174.149 259.407 172.504 240.07C171.701 230.707 168.501 211.561 165.391 194.265C163.778 185.313 158.856 177.296 151.604 171.81C144.353 166.324 135.303 163.771 126.255 164.659L124.394 164.838C119.653 165.581 115.108 167.268 111.029 169.797C106.949 172.327 103.418 175.648 100.642 179.566C97.8664 183.483 95.9031 187.917 94.868 192.606C93.8329 197.295 93.7469 202.144 94.6151 206.867Z" fill="#AE76B7"/>
<path d="M113.533 183.601L113.431 183.703C110.59 186.431 108.91 190.15 108.74 194.086C108.74 194.226 108.74 194.367 108.74 194.481C108.523 200.081 109.199 205.681 108.931 211.268C108.663 216.854 107.299 222.645 103.59 226.842C102.073 228.564 99.2171 229.929 97.6619 228.232C97.1207 227.518 96.7936 226.664 96.7185 225.771C94.3984 212.556 89.6053 201.089 88.2795 187.147C88.0893 185.283 88.3476 183.4 89.0329 181.656C89.7181 179.911 90.8104 178.357 92.2186 177.121C94.9211 174.736 98.2738 172.223 101.665 173.447C105.056 174.672 109.836 180.323 112.602 182.644" fill="#453D49"/>
<path d="M101.983 214.981C101.639 214.879 88.3177 212.353 90.0259 225.53C91.7341 238.706 104.609 234.28 104.584 233.897C104.558 233.515 101.983 214.981 101.983 214.981Z" fill="#AE76B7"/>
<path d="M99.9692 229.432C99.9692 229.432 99.7652 229.623 99.3955 229.84C99.1424 229.995 98.8612 230.098 98.5681 230.144C98.275 230.19 97.9757 230.178 97.6873 230.108C96.2341 229.776 94.7681 227.71 94.3984 225.35C94.2174 224.222 94.2915 223.066 94.6151 221.97C94.6877 221.542 94.8623 221.138 95.1242 220.791C95.386 220.445 95.7273 220.167 96.1193 219.98C96.3738 219.88 96.6548 219.872 96.915 219.955C97.1752 220.039 97.3985 220.21 97.5471 220.439C97.7765 220.784 97.7256 221.064 97.802 221.077C97.8785 221.09 98.057 220.822 97.8785 220.286C97.7632 219.968 97.5429 219.698 97.2539 219.521C96.8651 219.307 96.4097 219.248 95.9791 219.355C95.451 219.534 94.9771 219.844 94.6023 220.257C94.2276 220.67 93.9643 221.172 93.8375 221.715C93.4233 222.946 93.3139 224.259 93.5188 225.542C93.9522 228.182 95.6349 230.491 97.6108 230.797C97.9779 230.856 98.3538 230.831 98.7095 230.723C99.0653 230.614 99.3915 230.426 99.6632 230.172C99.9692 229.751 99.9692 229.445 99.9692 229.432Z" fill="#7C5142"/>
<path d="M101.397 175.541C97.5726 170.566 105.808 162.096 112.131 159.405C118.453 156.714 127.364 159.048 134.069 160.566C138.289 161.535 142.56 163.027 146.817 162.428C149.672 161.857 152.426 160.864 154.989 159.481C157.548 158.076 160.368 157.208 163.275 156.93C164.731 156.819 166.189 157.109 167.492 157.768C168.795 158.427 169.894 159.429 170.668 160.668C172.02 163.219 170.809 167.045 167.979 167.747C168.849 167.148 169.852 166.769 170.901 166.643C171.95 166.517 173.014 166.648 174.001 167.024C174.988 167.4 175.87 168.011 176.569 168.803C177.269 169.595 177.766 170.545 178.017 171.572C178.269 172.599 178.268 173.672 178.014 174.698C177.76 175.724 177.26 176.673 176.559 177.463C175.857 178.254 174.975 178.862 173.986 179.236C172.998 179.61 171.934 179.738 170.885 179.61C172.632 178.002 175.742 180.082 175.742 182.441C175.742 184.801 173.766 186.74 171.701 187.901C166.423 190.86 159.922 190.707 154.033 189.342C148.143 187.977 142.56 185.515 136.696 183.985C130.832 182.454 121.003 179.699 115.521 182.263C111.493 184.138 109.071 189.457 106.598 188.641C105.428 188.155 104.388 187.4 103.562 186.439C102.736 185.477 102.147 184.335 101.843 183.105C101.274 180.63 101.11 178.08 101.359 175.553" fill="#453D49"/>
<path d="M102.149 217.238C102.313 224.244 103.116 231.22 104.546 238.081C105.975 244.965 109.239 251.334 113.992 256.512C120.366 263.056 128.728 269.268 137.779 270.811C147.659 272.444 159.744 270.378 167.787 264.434C171.612 261.615 174.378 255.505 173.192 250.887C174.812 250.123 176.197 248.939 177.206 247.459C178.214 245.979 178.809 244.256 178.929 242.469C179.133 238.897 176.953 234.433 174.136 233.961C176.252 233.603 176.864 230.236 176.061 228.335C175.258 226.435 172.466 225.861 170.35 226.269C168.258 226.817 166.313 227.819 164.651 229.203C163 230.589 161.136 231.7 159.132 232.494C152.299 234.713 145.377 228.667 138.2 228.96C131.711 229.216 125.936 234.611 119.499 233.706C117.712 233.365 116.016 232.651 114.523 231.612C113.029 230.572 111.771 229.23 110.83 227.672C108.842 224.624 109.708 213.36 108.931 209.814" fill="#453D49"/>
<g opacity="0.6">
<path opacity="0.6" d="M154.224 247.608C153.687 247.483 153.158 247.321 152.643 247.124C151.395 246.766 150.081 246.701 148.803 246.934C147.525 247.166 146.318 247.689 145.275 248.463C144.459 249.05 144 249.522 144 249.458C144 249.394 144.255 248.833 145.033 248.182C146.08 247.26 147.359 246.642 148.732 246.395C150.105 246.147 151.519 246.28 152.822 246.779C153.765 247.098 154.262 247.545 154.224 247.608Z" fill="#5A4C65"/>
</g>
<path d="M130.679 268.656C130.967 268.722 131.245 268.825 131.507 268.962C132.055 269.166 132.858 269.447 133.917 269.74C136.915 270.551 139.992 271.034 143.095 271.182C145.22 271.307 147.351 271.264 149.469 271.054C151.911 270.835 154.325 270.365 156.671 269.651C159.262 268.877 161.733 267.748 164.014 266.296C166.495 264.799 168.66 262.832 170.388 260.505C172.441 257.766 173.355 254.337 172.937 250.939V250.671L173.167 250.569C174.753 249.831 176.125 248.703 177.157 247.29C177.657 246.624 178.085 245.905 178.432 245.148C178.736 244.411 178.926 243.633 178.993 242.839C179.131 241.402 178.926 239.952 178.394 238.611C177.862 237.269 177.019 236.073 175.933 235.122L175.742 234.969L175.895 234.777C176.47 234.047 176.845 233.18 176.984 232.261C177.122 231.342 177.019 230.402 176.685 229.535C176.423 228.877 176.027 228.281 175.522 227.785C175.018 227.288 174.415 226.903 173.753 226.652C172.908 226.314 171.994 226.187 171.089 226.282C170.464 226.359 170.158 226.473 170.146 226.435C170.44 226.295 170.754 226.201 171.076 226.155C172.287 225.958 173.529 226.168 174.608 226.752C175.687 227.336 176.543 228.26 177.042 229.382C177.42 230.317 177.548 231.334 177.414 232.334C177.28 233.333 176.888 234.281 176.277 235.083V234.739C177.442 235.734 178.352 236.992 178.933 238.41C179.514 239.828 179.749 241.363 179.617 242.89C179.552 243.766 179.35 244.627 179.018 245.441C178.649 246.24 178.2 247.001 177.68 247.711C176.594 249.226 175.137 250.434 173.447 251.219L173.639 250.836C174.15 254.408 173.234 258.038 171.089 260.939C169.31 263.334 167.08 265.357 164.524 266.896C162.197 268.378 159.668 269.516 157.016 270.276C154.628 270.994 152.171 271.456 149.686 271.653C147.526 271.825 145.356 271.825 143.197 271.653C140.07 271.458 136.977 270.897 133.98 269.982C133.168 269.73 132.372 269.427 131.596 269.077C131.276 268.97 130.969 268.829 130.679 268.656Z" fill="#5A4C65"/>
<path d="M72.893 234.994C72.649 234.927 72.4198 234.814 72.2174 234.662C71.643 234.232 71.2012 233.648 70.9426 232.978C70.5118 231.901 70.4184 230.717 70.6749 229.585C71.0771 228.087 71.976 226.769 73.2244 225.848C74.6911 224.742 76.327 223.88 78.0686 223.297C80.0204 222.683 81.9075 221.88 83.7031 220.899C85.5926 219.702 87.0732 217.958 87.9481 215.899C88.9078 213.683 89.4191 211.298 89.4523 208.883C89.5543 203.896 88.407 199.164 88.2796 194.763C88.1521 190.362 88.9169 186.255 90.9183 183.5C92.4173 181.291 94.6932 179.729 97.2922 179.125C97.997 178.984 98.7189 178.95 99.4339 179.023C99.6834 179.051 99.9305 179.098 100.173 179.163C99.2288 179.118 98.2824 179.191 97.356 179.38C94.8508 180.042 92.6771 181.604 91.2498 183.768C89.3886 186.446 88.611 190.426 88.8405 194.737C89.0699 199.049 90.1152 203.781 90.1152 208.909C90.0622 211.416 89.5119 213.887 88.4963 216.179C87.5591 218.352 85.9799 220.186 83.9708 221.435C82.1261 222.434 80.1821 223.237 78.1706 223.833C76.4785 224.368 74.8822 225.169 73.4411 226.205C72.2574 227.044 71.3907 228.257 70.9808 229.649C70.703 230.71 70.7519 231.831 71.1211 232.864C71.4571 233.752 72.0809 234.502 72.893 234.994Z" fill="#5A4C65"/>
<path d="M168.463 167.529C168.644 167.419 168.836 167.33 169.037 167.262C169.279 167.153 169.531 167.068 169.789 167.006C170.135 166.904 170.489 166.832 170.847 166.79C172.037 166.66 173.24 166.803 174.366 167.207C175.493 167.612 176.512 168.267 177.348 169.124C178.184 170.246 178.789 171.522 179.128 172.88C179.468 174.237 179.534 175.649 179.324 177.032C179.074 178.748 178.483 180.396 177.585 181.88C176.687 183.363 175.501 184.651 174.098 185.668C170.865 188.022 167.003 189.355 163.007 189.494C158.675 189.665 154.342 189.201 150.145 188.117C143.477 186.479 137.15 183.677 131.456 179.838C129.022 178.164 126.465 176.676 123.808 175.387C121.48 174.309 118.973 173.669 116.414 173.499C112.686 173.241 108.953 173.935 105.566 175.514C103.182 176.637 102.047 177.606 101.996 177.53C103.043 176.628 104.205 175.869 105.451 175.272C108.858 173.586 112.644 172.812 116.439 173.027C119.082 173.163 121.676 173.79 124.088 174.877C126.784 176.163 129.379 177.651 131.851 179.328C137.505 183.091 143.768 185.844 150.361 187.466C154.494 188.552 158.762 189.033 163.033 188.895C166.906 188.759 170.654 187.481 173.804 185.221C175.157 184.254 176.304 183.027 177.179 181.612C178.054 180.198 178.64 178.624 178.903 176.981C179.128 175.652 179.087 174.291 178.783 172.977C178.479 171.663 177.918 170.423 177.132 169.328C176.341 168.499 175.376 167.855 174.307 167.442C173.238 167.03 172.091 166.859 170.949 166.943C170.106 167.074 169.275 167.27 168.463 167.529Z" fill="#5A4C65"/>
<path d="M161.707 156.292C161.705 157.296 161.502 158.29 161.108 159.213C160.002 161.751 158.082 163.847 155.651 165.17C154.01 166.125 152.209 166.774 150.336 167.083C148.188 167.396 146.007 167.396 143.86 167.083C139.309 166.509 134.605 164.723 129.659 163.18C124.713 161.637 119.728 160.718 115.343 161.662C111.457 162.511 107.938 164.564 105.285 167.53C103.478 169.507 102.094 171.834 101.219 174.367C100.632 176.178 100.517 177.237 100.441 177.224C100.41 176.97 100.41 176.713 100.441 176.458C100.543 175.725 100.701 175 100.913 174.29C101.704 171.67 103.057 169.254 104.877 167.211C107.556 164.114 111.158 161.959 115.152 161.063C119.69 160.055 124.815 160.986 129.786 162.542C134.758 164.098 139.424 165.884 143.873 166.471C145.965 166.777 148.09 166.777 150.183 166.471C152 166.196 153.754 165.595 155.358 164.698C157.734 163.451 159.643 161.469 160.802 159.047C161.176 158.154 161.479 157.233 161.707 156.292Z" fill="#5A4C65"/>
<path d="M258.195 75.5629C258.08 75.7032 250.916 69.874 242.183 62.5396C233.451 55.2051 226.478 49.0825 226.606 48.9932C226.733 48.9039 233.885 54.6822 242.617 62.0293C251.349 69.3765 258.322 75.4226 258.195 75.5629Z" fill="#453D49"/>
<path d="M294.551 66.8251C294.373 66.8251 293.646 55.4982 292.945 41.5054C292.244 27.5126 291.811 16.1602 291.989 16.1475C292.167 16.1347 292.894 27.4744 293.608 41.4799C294.322 55.4855 294.73 66.8251 294.551 66.8251Z" fill="#453D49"/>
<path d="M271.401 58.7255C271.223 58.7255 268.992 52.3477 266.404 44.2735C263.816 36.1993 261.866 29.6812 262.044 29.6302C262.223 29.5792 264.454 36.0079 267.042 44.0694C269.629 52.1309 271.567 58.6745 271.401 58.7255Z" fill="#453D49"/>
<path d="M250.763 87.5274C247.406 86.3457 244.124 84.9613 240.934 83.3818C237.651 81.997 234.458 80.4079 231.373 78.624C234.73 79.8057 238.013 81.19 241.202 82.7696C244.484 84.1574 247.677 85.7463 250.763 87.5274Z" fill="#453D49"/>
<path d="M217.249 72.8712C217.249 73.0497 216.165 73.0752 214.878 72.8712C213.59 72.6671 212.57 72.4375 212.596 72.2589C212.621 72.0803 213.679 72.0548 214.954 72.2589C216.229 72.463 217.249 72.6926 217.249 72.8712Z" fill="#453D49"/>
<path d="M262.873 21.3901C262.682 21.3901 262.542 20.3569 262.542 19.0686C262.542 17.7803 262.682 16.7344 262.873 16.7344C263.064 16.7344 263.204 17.7803 263.204 19.0686C263.204 20.3569 263.052 21.3901 262.873 21.3901Z" fill="#453D49"/>
<path d="M339.627 39.4009C339.768 39.5285 333.878 46.2761 326.497 54.4779C319.116 62.6797 313.023 69.236 312.857 69.1085C312.691 68.9809 318.606 62.246 325.987 54.0315C333.368 45.8169 339.5 39.2861 339.627 39.4009Z" fill="#453D49"/>
<path d="M348.997 30.1273C349.125 30.2549 348.449 31.1478 347.48 32.1172C346.511 33.0866 345.632 33.7499 345.504 33.6223C345.377 33.4948 346.052 32.6019 347.021 31.6452C347.99 30.6886 348.87 29.9487 348.997 30.1273Z" fill="#453D49"/>
<path d="M371.714 62.7812C371.167 63.1753 370.587 63.521 369.98 63.8145C368.845 64.4395 367.188 65.3196 365.123 66.3656C360.98 68.4575 355.18 71.1871 348.653 73.9041C342.126 76.621 336.096 78.7894 331.686 80.2818C329.493 81.0089 327.708 81.5574 326.459 81.9273C325.827 82.157 325.173 82.3237 324.509 82.4247C325.111 82.1263 325.738 81.8788 326.382 81.6849L331.482 79.8354C335.841 78.2664 341.82 76.0087 348.347 73.3301C354.874 70.6514 360.674 67.96 364.919 65.9829L369.865 63.6359C370.459 63.3057 371.077 63.0201 371.714 62.7812Z" fill="#453D49"/>
<path d="M353.076 94.1855C351.987 94.671 350.851 95.0428 349.685 95.2953C347.569 95.882 344.586 96.5708 341.297 97.1448C338.008 97.7188 334.923 98.0377 332.769 98.1908C331.589 98.341 330.397 98.3624 329.212 98.2546C330.37 97.9876 331.546 97.8085 332.731 97.7188C334.898 97.451 337.894 97.0428 341.183 96.4433C344.472 95.8438 347.442 95.2698 349.583 94.8106C350.726 94.4951 351.895 94.2858 353.076 94.1855Z" fill="#453D49"/>
<path d="M370.018 91.0475C367.59 91.4897 365.103 91.4897 362.675 91.0475C365.103 90.6053 367.59 90.6053 370.018 91.0475Z" fill="#453D49"/>
<path d="M274.206 407.513C276 407.818 277.715 408.481 279.248 409.463C280.781 410.445 282.101 411.725 283.129 413.227C285.16 416.262 286.468 419.722 286.954 423.342C288.114 430.281 286.24 438.164 283.665 444.721C276.59 441.391 272.816 433.151 271.172 428.84C268.622 422.041 267.972 408.15 274.142 407.513" fill="#B288CB"/>
</g>
<defs>
<clipPath id="clip0_1081_5236">
<rect width="580" height="408" fill="white"/>
</clipPath>
</defs>
</svg>
