<svg width="858" height="132" viewBox="0 0 858 132" fill="none" xmlns="http://www.w3.org/2000/svg">
<path d="M90 85L390 85" stroke="#C69EEE" stroke-width="6"/>
<path d="M462 85L762 85" stroke="#965FC1" stroke-width="6"/>
<path d="M16.9176 13.6562H13.1847C13.1165 13.1733 12.9773 12.7443 12.767 12.3693C12.5568 11.9886 12.2869 11.6648 11.9574 11.3977C11.6278 11.1307 11.2472 10.9261 10.8153 10.7841C10.3892 10.642 9.92614 10.571 9.42614 10.571C8.52273 10.571 7.7358 10.7955 7.06534 11.2443C6.39489 11.6875 5.875 12.3352 5.50568 13.1875C5.13636 14.0341 4.9517 15.0625 4.9517 16.2727C4.9517 17.517 5.13636 18.5625 5.50568 19.4091C5.88068 20.2557 6.40341 20.8949 7.07386 21.3267C7.74432 21.7585 8.51989 21.9744 9.40057 21.9744C9.89489 21.9744 10.3523 21.9091 10.7727 21.7784C11.1989 21.6477 11.5767 21.4574 11.9062 21.2074C12.2358 20.9517 12.5085 20.642 12.7244 20.2784C12.946 19.9148 13.0994 19.5 13.1847 19.0341L16.9176 19.0511C16.821 19.8523 16.5795 20.625 16.1932 21.3693C15.8125 22.108 15.2983 22.7699 14.6506 23.3551C14.0085 23.9347 13.2415 24.3949 12.3494 24.7358C11.4631 25.071 10.4602 25.2386 9.34091 25.2386C7.78409 25.2386 6.39205 24.8864 5.16477 24.1818C3.94318 23.4773 2.97727 22.4574 2.26705 21.1222C1.5625 19.7869 1.21023 18.1705 1.21023 16.2727C1.21023 14.3693 1.56818 12.75 2.28409 11.4148C3 10.0795 3.97159 9.0625 5.19886 8.36364C6.42614 7.65909 7.80682 7.30682 9.34091 7.30682C10.3523 7.30682 11.2898 7.44886 12.1534 7.73295C13.0227 8.01705 13.7926 8.43182 14.4631 8.97727C15.1335 9.51704 15.679 10.179 16.0994 10.9631C16.5256 11.7472 16.7983 12.6449 16.9176 13.6562ZM23.2287 25.2472C22.3935 25.2472 21.6491 25.1023 20.9957 24.8125C20.3423 24.517 19.8253 24.0824 19.4446 23.5085C19.0696 22.929 18.8821 22.2074 18.8821 21.3438C18.8821 20.6165 19.0156 20.0057 19.2827 19.5114C19.5497 19.017 19.9134 18.6193 20.3736 18.3182C20.8338 18.017 21.3565 17.7898 21.9418 17.6364C22.5327 17.483 23.152 17.375 23.7997 17.3125C24.5611 17.233 25.1747 17.1591 25.6406 17.0909C26.1065 17.017 26.4446 16.9091 26.6548 16.767C26.8651 16.625 26.9702 16.4148 26.9702 16.1364V16.0852C26.9702 15.5455 26.7997 15.1278 26.4588 14.8324C26.1236 14.5369 25.6463 14.3892 25.027 14.3892C24.3736 14.3892 23.8537 14.5341 23.4673 14.8239C23.081 15.108 22.8253 15.4659 22.7003 15.8977L19.3423 15.625C19.5128 14.8295 19.848 14.142 20.348 13.5625C20.848 12.9773 21.4929 12.5284 22.2827 12.2159C23.0781 11.8977 23.9986 11.7386 25.044 11.7386C25.7713 11.7386 26.4673 11.8239 27.1321 11.9943C27.8026 12.1648 28.3963 12.429 28.9134 12.7869C29.4361 13.1449 29.848 13.6051 30.1491 14.1676C30.4503 14.7244 30.6009 15.392 30.6009 16.1705V25H27.1577V23.1847H27.0554C26.8452 23.5938 26.5639 23.9545 26.2116 24.267C25.8594 24.5739 25.4361 24.8153 24.9418 24.9915C24.4474 25.1619 23.8764 25.2472 23.2287 25.2472ZM24.2685 22.7415C24.8026 22.7415 25.2741 22.6364 25.6832 22.4261C26.0923 22.2102 26.4134 21.9205 26.6463 21.5568C26.8793 21.1932 26.9957 20.7812 26.9957 20.321V18.9318C26.8821 19.0057 26.7259 19.0739 26.527 19.1364C26.3338 19.1932 26.1151 19.2472 25.8707 19.2983C25.6264 19.3437 25.3821 19.3864 25.1378 19.4261C24.8935 19.4602 24.6719 19.4915 24.473 19.5199C24.0469 19.5824 23.6747 19.6818 23.3565 19.8182C23.0384 19.9545 22.7912 20.1392 22.6151 20.3722C22.4389 20.5994 22.3509 20.8835 22.3509 21.2244C22.3509 21.7188 22.5298 22.0966 22.8878 22.358C23.2514 22.6136 23.7116 22.7415 24.2685 22.7415ZM38.2415 25.2131C37.2472 25.2131 36.3466 24.9574 35.5398 24.446C34.7386 23.929 34.1023 23.1705 33.6307 22.1705C33.1648 21.1648 32.9318 19.9318 32.9318 18.4716C32.9318 16.9716 33.1733 15.7244 33.6562 14.7301C34.1392 13.7301 34.7813 12.983 35.5824 12.4886C36.3892 11.9886 37.2727 11.7386 38.233 11.7386C38.9659 11.7386 39.5767 11.8636 40.0653 12.1136C40.5597 12.358 40.9574 12.6648 41.2585 13.0341C41.5653 13.3977 41.7983 13.7557 41.9574 14.108H42.0682V7.54545H45.6903V25H42.1108V22.9034H41.9574C41.7869 23.267 41.5455 23.6278 41.233 23.9858C40.9261 24.3381 40.5256 24.6307 40.0312 24.8636C39.5426 25.0966 38.946 25.2131 38.2415 25.2131ZM39.392 22.3239C39.9773 22.3239 40.4716 22.1648 40.875 21.8466C41.2841 21.5227 41.5966 21.071 41.8125 20.4915C42.0341 19.9119 42.1449 19.233 42.1449 18.4545C42.1449 17.6761 42.0369 17 41.821 16.4261C41.6051 15.8523 41.2926 15.4091 40.8835 15.0966C40.4744 14.7841 39.9773 14.6278 39.392 14.6278C38.7955 14.6278 38.2926 14.7898 37.8835 15.1136C37.4744 15.4375 37.1648 15.8864 36.9545 16.4602C36.7443 17.0341 36.6392 17.6989 36.6392 18.4545C36.6392 19.2159 36.7443 19.8892 36.9545 20.4744C37.1705 21.054 37.4801 21.5085 37.8835 21.8381C38.2926 22.1619 38.7955 22.3239 39.392 22.3239ZM52.4084 25.2472C51.5732 25.2472 50.8288 25.1023 50.1754 24.8125C49.522 24.517 49.005 24.0824 48.6243 23.5085C48.2493 22.929 48.0618 22.2074 48.0618 21.3438C48.0618 20.6165 48.1953 20.0057 48.4624 19.5114C48.7294 19.017 49.093 18.6193 49.5533 18.3182C50.0135 18.017 50.5362 17.7898 51.1214 17.6364C51.7124 17.483 52.3317 17.375 52.9794 17.3125C53.7408 17.233 54.3544 17.1591 54.8203 17.0909C55.2862 17.017 55.6243 16.9091 55.8345 16.767C56.0447 16.625 56.1499 16.4148 56.1499 16.1364V16.0852C56.1499 15.5455 55.9794 15.1278 55.6385 14.8324C55.3033 14.5369 54.826 14.3892 54.2067 14.3892C53.5533 14.3892 53.0334 14.5341 52.647 14.8239C52.2607 15.108 52.005 15.4659 51.88 15.8977L48.522 15.625C48.6925 14.8295 49.0277 14.142 49.5277 13.5625C50.0277 12.9773 50.6726 12.5284 51.4624 12.2159C52.2578 11.8977 53.1783 11.7386 54.2237 11.7386C54.951 11.7386 55.647 11.8239 56.3118 11.9943C56.9822 12.1648 57.576 12.429 58.093 12.7869C58.6158 13.1449 59.0277 13.6051 59.3288 14.1676C59.63 14.7244 59.7805 15.392 59.7805 16.1705V25H56.3374V23.1847H56.2351C56.0249 23.5938 55.7436 23.9545 55.3913 24.267C55.0391 24.5739 54.6158 24.8153 54.1214 24.9915C53.6271 25.1619 53.0561 25.2472 52.4084 25.2472ZM53.4482 22.7415C53.9822 22.7415 54.4538 22.6364 54.8629 22.4261C55.272 22.2102 55.593 21.9205 55.826 21.5568C56.0589 21.1932 56.1754 20.7812 56.1754 20.321V18.9318C56.0618 19.0057 55.9055 19.0739 55.7067 19.1364C55.5135 19.1932 55.2947 19.2472 55.0504 19.2983C54.8061 19.3437 54.5618 19.3864 54.3175 19.4261C54.0732 19.4602 53.8516 19.4915 53.6527 19.5199C53.2266 19.5824 52.8544 19.6818 52.5362 19.8182C52.218 19.9545 51.9709 20.1392 51.7947 20.3722C51.6186 20.5994 51.5305 20.8835 51.5305 21.2244C51.5305 21.7188 51.7095 22.0966 52.0675 22.358C52.4311 22.6136 52.8913 22.7415 53.4482 22.7415ZM73.4893 15.642L70.1655 15.8466C70.1087 15.5625 69.9865 15.3068 69.799 15.0795C69.6115 14.8466 69.3643 14.6619 69.0575 14.5256C68.7564 14.3835 68.3956 14.3125 67.9751 14.3125C67.4126 14.3125 66.9382 14.4318 66.5518 14.6705C66.1655 14.9034 65.9723 15.2159 65.9723 15.608C65.9723 15.9205 66.0973 16.1847 66.3473 16.4006C66.5973 16.6165 67.0263 16.7898 67.6342 16.9205L70.0036 17.3977C71.2763 17.6591 72.2251 18.0795 72.8501 18.6591C73.4751 19.2386 73.7876 20 73.7876 20.9432C73.7876 21.8011 73.5348 22.554 73.0291 23.2017C72.5291 23.8494 71.8416 24.3551 70.9666 24.7188C70.0973 25.0767 69.0945 25.2557 67.9581 25.2557C66.2251 25.2557 64.8445 24.8949 63.8161 24.1733C62.7933 23.446 62.1939 22.4574 62.0178 21.2074L65.5888 21.0199C65.6967 21.5483 65.9581 21.9517 66.3729 22.2301C66.7876 22.5028 67.3189 22.6392 67.9666 22.6392C68.603 22.6392 69.1143 22.517 69.5007 22.2727C69.8928 22.0227 70.0916 21.7017 70.0973 21.3097C70.0916 20.9801 69.9524 20.7102 69.6797 20.5C69.407 20.2841 68.9865 20.1193 68.4183 20.0057L66.1513 19.554C64.8729 19.2983 63.9212 18.8551 63.2962 18.2244C62.6768 17.5937 62.3672 16.7898 62.3672 15.8125C62.3672 14.9716 62.5945 14.2472 63.049 13.6392C63.5092 13.0312 64.1541 12.5625 64.9837 12.233C65.8189 11.9034 66.7962 11.7386 67.9155 11.7386C69.5689 11.7386 70.87 12.0881 71.8189 12.7869C72.7734 13.4858 73.3303 14.4375 73.4893 15.642ZM83.0369 11.9091V14.6364H75.1534V11.9091H83.0369ZM76.9432 8.77273H80.5739V20.9773C80.5739 21.3125 80.625 21.5739 80.7273 21.7614C80.8295 21.9432 80.9716 22.071 81.1534 22.1449C81.3409 22.2187 81.5568 22.2557 81.8011 22.2557C81.9716 22.2557 82.142 22.2415 82.3125 22.2131C82.483 22.179 82.6136 22.1534 82.7045 22.1364L83.2756 24.8381C83.0938 24.8949 82.8381 24.9602 82.5085 25.0341C82.179 25.1136 81.7784 25.1619 81.3068 25.179C80.4318 25.2131 79.6648 25.0966 79.0057 24.8295C78.3523 24.5625 77.8438 24.1477 77.4801 23.5852C77.1165 23.0227 76.9375 22.3125 76.9432 21.4545V8.77273ZM85.402 25V11.9091H88.9219V14.1932H89.0582C89.2969 13.3807 89.6974 12.767 90.2599 12.3523C90.8224 11.9318 91.4702 11.7216 92.2031 11.7216C92.3849 11.7216 92.581 11.733 92.7912 11.7557C93.0014 11.7784 93.1861 11.8097 93.3452 11.8494V15.071C93.1747 15.0199 92.9389 14.9744 92.6378 14.9347C92.3366 14.8949 92.0611 14.875 91.8111 14.875C91.277 14.875 90.7997 14.9915 90.3793 15.2244C89.9645 15.4517 89.6349 15.7699 89.3906 16.179C89.152 16.5881 89.0327 17.0597 89.0327 17.5938V25H85.402ZM100.528 25.2557C99.2038 25.2557 98.0589 24.9744 97.093 24.4119C96.1328 23.8437 95.3913 23.054 94.8686 22.0426C94.3459 21.0256 94.0845 19.8466 94.0845 18.5057C94.0845 17.1534 94.3459 15.9716 94.8686 14.9602C95.3913 13.9432 96.1328 13.1534 97.093 12.5909C98.0589 12.0227 99.2038 11.7386 100.528 11.7386C101.852 11.7386 102.994 12.0227 103.954 12.5909C104.92 13.1534 105.664 13.9432 106.187 14.9602C106.71 15.9716 106.971 17.1534 106.971 18.5057C106.971 19.8466 106.71 21.0256 106.187 22.0426C105.664 23.054 104.92 23.8437 103.954 24.4119C102.994 24.9744 101.852 25.2557 100.528 25.2557ZM100.545 22.4432C101.147 22.4432 101.65 22.2727 102.053 21.9318C102.457 21.5852 102.761 21.1136 102.965 20.517C103.175 19.9205 103.281 19.2415 103.281 18.4801C103.281 17.7188 103.175 17.0398 102.965 16.4432C102.761 15.8466 102.457 15.375 102.053 15.0284C101.65 14.6818 101.147 14.5085 100.545 14.5085C99.9368 14.5085 99.4254 14.6818 99.0107 15.0284C98.6016 15.375 98.2919 15.8466 98.0817 16.4432C97.8771 17.0398 97.7749 17.7188 97.7749 18.4801C97.7749 19.2415 97.8771 19.9205 98.0817 20.517C98.2919 21.1136 98.6016 21.5852 99.0107 21.9318C99.4254 22.2727 99.9368 22.4432 100.545 22.4432Z" fill="#C69EEE"/>
<circle cx="54.0002" cy="84.9997" r="34.6667" stroke="#C69EEE" stroke-width="4"/>
<path d="M53.9998 51.667C35.5998 51.667 20.6665 66.6003 20.6665 85.0003C20.6665 103.4 35.5998 118.334 53.9998 118.334C72.3998 118.334 87.3332 103.4 87.3332 85.0003C87.3332 66.6003 72.3998 51.667 53.9998 51.667ZM53.9998 61.667C59.5332 61.667 63.9998 66.1337 63.9998 71.667C63.9998 77.2003 59.5332 81.667 53.9998 81.667C48.4665 81.667 43.9998 77.2003 43.9998 71.667C43.9998 66.1337 48.4665 61.667 53.9998 61.667ZM53.9998 109C45.6665 109 38.2998 104.734 33.9998 98.267C34.0998 91.6337 47.3332 88.0003 53.9998 88.0003C60.6332 88.0003 73.8998 91.6337 73.9998 98.267C69.6998 104.734 62.3332 109 53.9998 109Z" fill="#C69EEE"/>
<path d="M371.517 25V7.54545H383.278V10.5881H375.207V14.7472H382.673V17.7898H375.207V21.9574H383.312V25H371.517ZM389.775 17.4318V25H386.144V11.9091H389.604V14.2188H389.758C390.048 13.4574 390.533 12.8551 391.215 12.4119C391.897 11.9631 392.724 11.7386 393.695 11.7386C394.604 11.7386 395.397 11.9375 396.073 12.3352C396.749 12.733 397.275 13.3011 397.65 14.0398C398.025 14.7727 398.212 15.6477 398.212 16.6648V25H394.582V17.3125C394.587 16.5114 394.383 15.8864 393.968 15.4375C393.553 14.983 392.982 14.7557 392.255 14.7557C391.766 14.7557 391.335 14.8608 390.96 15.071C390.59 15.2812 390.3 15.5881 390.09 15.9915C389.886 16.3892 389.781 16.8693 389.775 17.4318ZM405.898 25.2131C404.903 25.2131 404.003 24.9574 403.196 24.446C402.395 23.929 401.759 23.1705 401.287 22.1705C400.821 21.1648 400.588 19.9318 400.588 18.4716C400.588 16.9716 400.83 15.7244 401.312 14.7301C401.795 13.7301 402.438 12.983 403.239 12.4886C404.045 11.9886 404.929 11.7386 405.889 11.7386C406.622 11.7386 407.233 11.8636 407.722 12.1136C408.216 12.358 408.614 12.6648 408.915 13.0341C409.222 13.3977 409.455 13.7557 409.614 14.108H409.724V7.54545H413.347V25H409.767V22.9034H409.614C409.443 23.267 409.202 23.6278 408.889 23.9858C408.582 24.3381 408.182 24.6307 407.688 24.8636C407.199 25.0966 406.602 25.2131 405.898 25.2131ZM407.048 22.3239C407.634 22.3239 408.128 22.1648 408.531 21.8466C408.94 21.5227 409.253 21.071 409.469 20.4915C409.69 19.9119 409.801 19.233 409.801 18.4545C409.801 17.6761 409.693 17 409.477 16.4261C409.261 15.8523 408.949 15.4091 408.54 15.0966C408.131 14.7841 407.634 14.6278 407.048 14.6278C406.452 14.6278 405.949 14.7898 405.54 15.1136C405.131 15.4375 404.821 15.8864 404.611 16.4602C404.401 17.0341 404.295 17.6989 404.295 18.4545C404.295 19.2159 404.401 19.8892 404.611 20.4744C404.827 21.054 405.136 21.5085 405.54 21.8381C405.949 22.1619 406.452 22.3239 407.048 22.3239ZM422.298 25.2557C420.951 25.2557 419.792 24.983 418.82 24.4375C417.854 23.8864 417.11 23.108 416.587 22.1023C416.065 21.0909 415.803 19.8949 415.803 18.5142C415.803 17.1676 416.065 15.9858 416.587 14.9688C417.11 13.9517 417.846 13.1591 418.795 12.5909C419.749 12.0227 420.869 11.7386 422.153 11.7386C423.016 11.7386 423.82 11.8778 424.565 12.1562C425.315 12.429 425.968 12.8409 426.525 13.392C427.087 13.9432 427.525 14.6364 427.837 15.4716C428.15 16.3011 428.306 17.2727 428.306 18.3864V19.3835H417.252V17.1335H424.888C424.888 16.6108 424.775 16.1477 424.548 15.7443C424.32 15.3409 424.005 15.0256 423.602 14.7983C423.204 14.5653 422.741 14.4489 422.212 14.4489C421.661 14.4489 421.173 14.5767 420.746 14.8324C420.326 15.0824 419.996 15.4205 419.758 15.8466C419.519 16.267 419.397 16.7358 419.391 17.2528V19.392C419.391 20.0398 419.511 20.5994 419.749 21.071C419.994 21.5426 420.337 21.9062 420.781 22.1619C421.224 22.4176 421.749 22.5455 422.357 22.5455C422.761 22.5455 423.13 22.4886 423.465 22.375C423.8 22.2614 424.087 22.0909 424.326 21.8636C424.565 21.6364 424.746 21.358 424.871 21.0284L428.229 21.25C428.059 22.0568 427.71 22.7614 427.181 23.3636C426.658 23.9602 425.982 24.4261 425.153 24.7614C424.329 25.0909 423.377 25.2557 422.298 25.2557ZM430.675 25V11.9091H434.195V14.1932H434.332C434.57 13.3807 434.971 12.767 435.533 12.3523C436.096 11.9318 436.744 11.7216 437.477 11.7216C437.658 11.7216 437.854 11.733 438.065 11.7557C438.275 11.7784 438.46 11.8097 438.619 11.8494V15.071C438.448 15.0199 438.212 14.9744 437.911 14.9347C437.61 14.8949 437.335 14.875 437.085 14.875C436.55 14.875 436.073 14.9915 435.653 15.2244C435.238 15.4517 434.908 15.7699 434.664 16.179C434.425 16.5881 434.306 17.0597 434.306 17.5938V25H430.675ZM445.852 25.2557C444.506 25.2557 443.347 24.983 442.375 24.4375C441.409 23.8864 440.665 23.108 440.142 22.1023C439.619 21.0909 439.358 19.8949 439.358 18.5142C439.358 17.1676 439.619 15.9858 440.142 14.9688C440.665 13.9517 441.401 13.1591 442.349 12.5909C443.304 12.0227 444.423 11.7386 445.707 11.7386C446.571 11.7386 447.375 11.8778 448.119 12.1562C448.869 12.429 449.523 12.8409 450.08 13.392C450.642 13.9432 451.08 14.6364 451.392 15.4716C451.705 16.3011 451.861 17.2727 451.861 18.3864V19.3835H440.807V17.1335H448.443C448.443 16.6108 448.33 16.1477 448.102 15.7443C447.875 15.3409 447.56 15.0256 447.156 14.7983C446.759 14.5653 446.295 14.4489 445.767 14.4489C445.216 14.4489 444.727 14.5767 444.301 14.8324C443.881 15.0824 443.551 15.4205 443.312 15.8466C443.074 16.267 442.952 16.7358 442.946 17.2528V19.392C442.946 20.0398 443.065 20.5994 443.304 21.071C443.548 21.5426 443.892 21.9062 444.335 22.1619C444.778 22.4176 445.304 22.5455 445.912 22.5455C446.315 22.5455 446.685 22.4886 447.02 22.375C447.355 22.2614 447.642 22.0909 447.881 21.8636C448.119 21.6364 448.301 21.358 448.426 21.0284L451.784 21.25C451.614 22.0568 451.264 22.7614 450.736 23.3636C450.213 23.9602 449.537 24.4261 448.707 24.7614C447.884 25.0909 446.932 25.2557 445.852 25.2557ZM460.145 25.2557C458.804 25.2557 457.651 24.9716 456.685 24.4034C455.724 23.8295 454.986 23.0341 454.469 22.017C453.957 21 453.702 19.8295 453.702 18.5057C453.702 17.1648 453.96 15.9886 454.477 14.9773C455 13.9602 455.741 13.1676 456.702 12.5994C457.662 12.0256 458.804 11.7386 460.128 11.7386C461.27 11.7386 462.27 11.946 463.128 12.3608C463.986 12.7756 464.665 13.358 465.165 14.108C465.665 14.858 465.94 15.7386 465.991 16.75H462.565C462.469 16.0966 462.213 15.571 461.798 15.1733C461.389 14.7699 460.852 14.5682 460.188 14.5682C459.625 14.5682 459.134 14.7216 458.713 15.0284C458.298 15.3295 457.974 15.7699 457.741 16.3494C457.509 16.929 457.392 17.6307 457.392 18.4545C457.392 19.2898 457.506 20 457.733 20.5852C457.966 21.1705 458.293 21.6165 458.713 21.9233C459.134 22.2301 459.625 22.3835 460.188 22.3835C460.602 22.3835 460.974 22.2983 461.304 22.1278C461.639 21.9574 461.915 21.7102 462.131 21.3864C462.352 21.0568 462.497 20.6619 462.565 20.2017H465.991C465.935 21.2017 465.662 22.0824 465.173 22.8438C464.69 23.5994 464.023 24.1903 463.17 24.6165C462.318 25.0426 461.31 25.2557 460.145 25.2557ZM459.293 24.9318H460.963L460.827 25.6733C461.412 25.7642 461.889 25.983 462.259 26.3295C462.634 26.6761 462.824 27.1477 462.83 27.7443C462.835 28.5909 462.443 29.2642 461.653 29.7642C460.864 30.2699 459.756 30.5227 458.33 30.5227L458.295 28.9034C459.011 28.9034 459.571 28.8153 459.974 28.6392C460.384 28.4688 460.597 28.2017 460.614 27.8381C460.625 27.4915 460.491 27.2273 460.213 27.0455C459.935 26.8636 459.5 26.7358 458.909 26.6619L459.293 24.9318ZM474.231 25.2557C472.907 25.2557 471.762 24.9744 470.796 24.4119C469.836 23.8437 469.094 23.054 468.572 22.0426C468.049 21.0256 467.788 19.8466 467.788 18.5057C467.788 17.1534 468.049 15.9716 468.572 14.9602C469.094 13.9432 469.836 13.1534 470.796 12.5909C471.762 12.0227 472.907 11.7386 474.231 11.7386C475.555 11.7386 476.697 12.0227 477.657 12.5909C478.623 13.1534 479.367 13.9432 479.89 14.9602C480.413 15.9716 480.674 17.1534 480.674 18.5057C480.674 19.8466 480.413 21.0256 479.89 22.0426C479.367 23.054 478.623 23.8437 477.657 24.4119C476.697 24.9744 475.555 25.2557 474.231 25.2557ZM474.248 22.4432C474.85 22.4432 475.353 22.2727 475.756 21.9318C476.16 21.5852 476.464 21.1136 476.668 20.517C476.879 19.9205 476.984 19.2415 476.984 18.4801C476.984 17.7188 476.879 17.0398 476.668 16.4432C476.464 15.8466 476.16 15.375 475.756 15.0284C475.353 14.6818 474.85 14.5085 474.248 14.5085C473.64 14.5085 473.129 14.6818 472.714 15.0284C472.305 15.375 471.995 15.8466 471.785 16.4432C471.58 17.0398 471.478 17.7188 471.478 18.4801C471.478 19.2415 471.58 19.9205 471.785 20.517C471.995 21.1136 472.305 21.5852 472.714 21.9318C473.129 22.2727 473.64 22.4432 474.248 22.4432Z" fill="#C69EEE"/>
<g filter="url(#filter0_d_333_10411)">
<circle cx="426" cy="84.9997" r="34.6667" stroke="#C69EEE" stroke-width="4" shape-rendering="crispEdges"/>
</g>
<path fill-rule="evenodd" clip-rule="evenodd" d="M426 118.334C444.409 118.334 459.333 103.41 459.333 85.0003C459.333 66.5908 444.409 51.667 426 51.667C407.59 51.667 392.667 66.5908 392.667 85.0003C392.667 103.41 407.59 118.334 426 118.334ZM421.333 89.6667V103.667H409.667V85H402.667L426 64L449.333 85H442.333V103.667H430.667V89.6667H421.333Z" fill="#C69EEE"/>
<path d="M738.517 25V7.54545H750.074V10.5881H742.207V14.7472H749.307V17.7898H742.207V25H738.517ZM752.488 25V11.9091H756.119V25H752.488ZM754.312 10.2216C753.772 10.2216 753.309 10.0426 752.923 9.68466C752.542 9.32102 752.352 8.88636 752.352 8.38068C752.352 7.88068 752.542 7.4517 752.923 7.09375C753.309 6.73011 753.772 6.54829 754.312 6.54829C754.852 6.54829 755.312 6.73011 755.692 7.09375C756.079 7.4517 756.272 7.88068 756.272 8.38068C756.272 8.88636 756.079 9.32102 755.692 9.68466C755.312 10.0426 754.852 10.2216 754.312 10.2216ZM762.658 17.4318V25H759.027V11.9091H762.487V14.2188H762.641C762.93 13.4574 763.416 12.8551 764.098 12.4119C764.78 11.9631 765.607 11.7386 766.578 11.7386C767.487 11.7386 768.28 11.9375 768.956 12.3352C769.632 12.733 770.158 13.3011 770.533 14.0398C770.908 14.7727 771.095 15.6477 771.095 16.6648V25H767.464V17.3125C767.47 16.5114 767.266 15.8864 766.851 15.4375C766.436 14.983 765.865 14.7557 765.138 14.7557C764.649 14.7557 764.217 14.8608 763.842 15.071C763.473 15.2812 763.183 15.5881 762.973 15.9915C762.768 16.3892 762.663 16.8693 762.658 17.4318ZM777.69 25.2472C776.854 25.2472 776.11 25.1023 775.457 24.8125C774.803 24.517 774.286 24.0824 773.906 23.5085C773.531 22.929 773.343 22.2074 773.343 21.3438C773.343 20.6165 773.477 20.0057 773.744 19.5114C774.011 19.017 774.374 18.6193 774.835 18.3182C775.295 18.017 775.817 17.7898 776.403 17.6364C776.994 17.483 777.613 17.375 778.261 17.3125C779.022 17.233 779.636 17.1591 780.102 17.0909C780.567 17.017 780.906 16.9091 781.116 16.767C781.326 16.625 781.431 16.4148 781.431 16.1364V16.0852C781.431 15.5455 781.261 15.1278 780.92 14.8324C780.585 14.5369 780.107 14.3892 779.488 14.3892C778.835 14.3892 778.315 14.5341 777.928 14.8239C777.542 15.108 777.286 15.4659 777.161 15.8977L773.803 15.625C773.974 14.8295 774.309 14.142 774.809 13.5625C775.309 12.9773 775.954 12.5284 776.744 12.2159C777.539 11.8977 778.46 11.7386 779.505 11.7386C780.232 11.7386 780.928 11.8239 781.593 11.9943C782.263 12.1648 782.857 12.429 783.374 12.7869C783.897 13.1449 784.309 13.6051 784.61 14.1676C784.911 14.7244 785.062 15.392 785.062 16.1705V25H781.619V23.1847H781.516C781.306 23.5938 781.025 23.9545 780.673 24.267C780.32 24.5739 779.897 24.8153 779.403 24.9915C778.908 25.1619 778.337 25.2472 777.69 25.2472ZM778.729 22.7415C779.263 22.7415 779.735 22.6364 780.144 22.4261C780.553 22.2102 780.874 21.9205 781.107 21.5568C781.34 21.1932 781.457 20.7812 781.457 20.321V18.9318C781.343 19.0057 781.187 19.0739 780.988 19.1364C780.795 19.1932 780.576 19.2472 780.332 19.2983C780.087 19.3437 779.843 19.3864 779.599 19.4261C779.354 19.4602 779.133 19.4915 778.934 19.5199C778.508 19.5824 778.136 19.6818 777.817 19.8182C777.499 19.9545 777.252 20.1392 777.076 20.3722C776.9 20.5994 776.812 20.8835 776.812 21.2244C776.812 21.7188 776.991 22.0966 777.349 22.358C777.712 22.6136 778.173 22.7415 778.729 22.7415ZM791.509 7.54545V25H787.879V7.54545H791.509ZM794.418 25V11.9091H798.048V25H794.418ZM796.241 10.2216C795.702 10.2216 795.239 10.0426 794.852 9.68466C794.472 9.32102 794.281 8.88636 794.281 8.38068C794.281 7.88068 794.472 7.4517 794.852 7.09375C795.239 6.73011 795.702 6.54829 796.241 6.54829C796.781 6.54829 797.241 6.73011 797.622 7.09375C798.009 7.4517 798.202 7.88068 798.202 8.38068C798.202 8.88636 798.009 9.32102 797.622 9.68466C797.241 10.0426 796.781 10.2216 796.241 10.2216ZM800.888 25V22.8352L807.298 14.9006V14.8068H801.11V11.9091H811.67V14.2699L805.653 22.0085V22.1023H811.891V25H800.888ZM818.401 25.2472C817.565 25.2472 816.821 25.1023 816.168 24.8125C815.514 24.517 814.997 24.0824 814.616 23.5085C814.241 22.929 814.054 22.2074 814.054 21.3438C814.054 20.6165 814.188 20.0057 814.455 19.5114C814.722 19.017 815.085 18.6193 815.545 18.3182C816.006 18.017 816.528 17.7898 817.114 17.6364C817.705 17.483 818.324 17.375 818.972 17.3125C819.733 17.233 820.347 17.1591 820.812 17.0909C821.278 17.017 821.616 16.9091 821.827 16.767C822.037 16.625 822.142 16.4148 822.142 16.1364V16.0852C822.142 15.5455 821.972 15.1278 821.631 14.8324C821.295 14.5369 820.818 14.3892 820.199 14.3892C819.545 14.3892 819.026 14.5341 818.639 14.8239C818.253 15.108 817.997 15.4659 817.872 15.8977L814.514 15.625C814.685 14.8295 815.02 14.142 815.52 13.5625C816.02 12.9773 816.665 12.5284 817.455 12.2159C818.25 11.8977 819.17 11.7386 820.216 11.7386C820.943 11.7386 821.639 11.8239 822.304 11.9943C822.974 12.1648 823.568 12.429 824.085 12.7869C824.608 13.1449 825.02 13.6051 825.321 14.1676C825.622 14.7244 825.773 15.392 825.773 16.1705V25H822.33V23.1847H822.227C822.017 23.5938 821.736 23.9545 821.384 24.267C821.031 24.5739 820.608 24.8153 820.114 24.9915C819.619 25.1619 819.048 25.2472 818.401 25.2472ZM819.44 22.7415C819.974 22.7415 820.446 22.6364 820.855 22.4261C821.264 22.2102 821.585 21.9205 821.818 21.5568C822.051 21.1932 822.168 20.7812 822.168 20.321V18.9318C822.054 19.0057 821.898 19.0739 821.699 19.1364C821.506 19.1932 821.287 19.2472 821.043 19.2983C820.798 19.3437 820.554 19.3864 820.31 19.4261C820.065 19.4602 819.844 19.4915 819.645 19.5199C819.219 19.5824 818.847 19.6818 818.528 19.8182C818.21 19.9545 817.963 20.1392 817.787 20.3722C817.611 20.5994 817.523 20.8835 817.523 21.2244C817.523 21.7188 817.702 22.0966 818.06 22.358C818.423 22.6136 818.884 22.7415 819.44 22.7415ZM833.413 25.2131C832.419 25.2131 831.518 24.9574 830.712 24.446C829.911 23.929 829.274 23.1705 828.803 22.1705C828.337 21.1648 828.104 19.9318 828.104 18.4716C828.104 16.9716 828.345 15.7244 828.828 14.7301C829.311 13.7301 829.953 12.983 830.754 12.4886C831.561 11.9886 832.445 11.7386 833.405 11.7386C834.138 11.7386 834.749 11.8636 835.237 12.1136C835.732 12.358 836.129 12.6648 836.43 13.0341C836.737 13.3977 836.97 13.7557 837.129 14.108H837.24V7.54545H840.862V25H837.283V22.9034H837.129C836.959 23.267 836.717 23.6278 836.405 23.9858C836.098 24.3381 835.697 24.6307 835.203 24.8636C834.714 25.0966 834.118 25.2131 833.413 25.2131ZM834.564 22.3239C835.149 22.3239 835.643 22.1648 836.047 21.8466C836.456 21.5227 836.768 21.071 836.984 20.4915C837.206 19.9119 837.317 19.233 837.317 18.4545C837.317 17.6761 837.209 17 836.993 16.4261C836.777 15.8523 836.464 15.4091 836.055 15.0966C835.646 14.7841 835.149 14.6278 834.564 14.6278C833.967 14.6278 833.464 14.7898 833.055 15.1136C832.646 15.4375 832.337 15.8864 832.126 16.4602C831.916 17.0341 831.811 17.6989 831.811 18.4545C831.811 19.2159 831.916 19.8892 832.126 20.4744C832.342 21.054 832.652 21.5085 833.055 21.8381C833.464 22.1619 833.967 22.3239 834.564 22.3239ZM849.762 25.2557C848.438 25.2557 847.293 24.9744 846.327 24.4119C845.367 23.8437 844.626 23.054 844.103 22.0426C843.58 21.0256 843.319 19.8466 843.319 18.5057C843.319 17.1534 843.58 15.9716 844.103 14.9602C844.626 13.9432 845.367 13.1534 846.327 12.5909C847.293 12.0227 848.438 11.7386 849.762 11.7386C851.086 11.7386 852.228 12.0227 853.188 12.5909C854.154 13.1534 854.898 13.9432 855.421 14.9602C855.944 15.9716 856.205 17.1534 856.205 18.5057C856.205 19.8466 855.944 21.0256 855.421 22.0426C854.898 23.054 854.154 23.8437 853.188 24.4119C852.228 24.9744 851.086 25.2557 849.762 25.2557ZM849.779 22.4432C850.381 22.4432 850.884 22.2727 851.288 21.9318C851.691 21.5852 851.995 21.1136 852.2 20.517C852.41 19.9205 852.515 19.2415 852.515 18.4801C852.515 17.7188 852.41 17.0398 852.2 16.4432C851.995 15.8466 851.691 15.375 851.288 15.0284C850.884 14.6818 850.381 14.5085 849.779 14.5085C849.171 14.5085 848.66 14.6818 848.245 15.0284C847.836 15.375 847.526 15.8466 847.316 16.4432C847.112 17.0398 847.009 17.7188 847.009 18.4801C847.009 19.2415 847.112 19.9205 847.316 20.517C847.526 21.1136 847.836 21.5852 848.245 21.9318C848.66 22.2727 849.171 22.4432 849.779 22.4432Z" fill="#965FC1"/>
<g filter="url(#filter1_d_333_10411)">
<circle cx="797" cy="84.9997" r="34.6667" stroke="#965FC1" stroke-width="4" shape-rendering="crispEdges"/>
</g>
<path d="M797 51.667C778.6 51.667 763.667 66.6003 763.667 85.0003C763.667 103.4 778.6 118.334 797 118.334C815.4 118.334 830.333 103.4 830.333 85.0003C830.333 66.6003 815.4 51.667 797 51.667ZM790.333 101.667L773.667 85.0003L778.367 80.3003L790.333 92.2337L815.633 66.9337L820.333 71.667L790.333 101.667Z" fill="#965FC1"/>
<defs>
<filter id="filter0_d_333_10411" x="379.333" y="38.333" width="93.3335" height="93.333" filterUnits="userSpaceOnUse" color-interpolation-filters="sRGB">
<feFlood flood-opacity="0" result="BackgroundImageFix"/>
<feColorMatrix in="SourceAlpha" type="matrix" values="0 0 0 0 0 0 0 0 0 0 0 0 0 0 0 0 0 0 127 0" result="hardAlpha"/>
<feOffset/>
<feGaussianBlur stdDeviation="5"/>
<feComposite in2="hardAlpha" operator="out"/>
<feColorMatrix type="matrix" values="0 0 0 0 0.8491 0 0 0 0 0.736648 0 0 0 0 0.902018 0 0 0 1 0"/>
<feBlend mode="normal" in2="BackgroundImageFix" result="effect1_dropShadow_333_10411"/>
<feBlend mode="normal" in="SourceGraphic" in2="effect1_dropShadow_333_10411" result="shape"/>
</filter>
<filter id="filter1_d_333_10411" x="755.333" y="43.333" width="83.3335" height="83.333" filterUnits="userSpaceOnUse" color-interpolation-filters="sRGB">
<feFlood flood-opacity="0" result="BackgroundImageFix"/>
<feColorMatrix in="SourceAlpha" type="matrix" values="0 0 0 0 0 0 0 0 0 0 0 0 0 0 0 0 0 0 127 0" result="hardAlpha"/>
<feOffset/>
<feGaussianBlur stdDeviation="2.5"/>
<feComposite in2="hardAlpha" operator="out"/>
<feColorMatrix type="matrix" values="0 0 0 0 0 0 0 0 0 0 0 0 0 0 0 0 0 0 0.3 0"/>
<feBlend mode="normal" in2="BackgroundImageFix" result="effect1_dropShadow_333_10411"/>
<feBlend mode="normal" in="SourceGraphic" in2="effect1_dropShadow_333_10411" result="shape"/>
</filter>
</defs>
</svg>
