<svg width="1011" height="206" viewBox="0 0 1011 206" fill="none" xmlns="http://www.w3.org/2000/svg">
<g filter="url(#filter0_d_623_3682)">
<path d="M340.12 98.5601C292.866 51.3066 216.253 51.3066 169 98.5601" stroke="#C69EEE" stroke-width="2"/>
</g>
<g filter="url(#filter1_d_623_3682)">
<path d="M866.12 103.56C818.866 56.3066 742.253 56.3066 695 103.56" stroke="#C69EEE" stroke-width="2"/>
</g>
<g filter="url(#filter2_d_623_3682)">
<path d="M432 119.56C479.254 166.813 555.867 166.813 603.12 119.56" stroke="#C69EEE" stroke-width="2"/>
</g>
<g filter="url(#filter3_d_623_3682)">
<circle cx="95" cy="96" r="75" transform="rotate(-90 95 96)" fill="#965FC1"/>
</g>
<path d="M144.115 50.5C147.899 50.5 151 53.6122 151 57.409H150.938V133.595C150.938 137.952 147.465 141.5 143.123 141.5H46.8143C42.5348 141.5 39 137.952 39 133.595V57.409C39 53.6124 42.1007 50.5 45.8846 50.5H144.115ZM147.774 70.6668H42.1616V133.597C42.1616 136.149 44.2701 138.265 46.8128 138.265H143.122C145.665 138.265 147.773 136.21 147.773 133.597L147.774 70.6668ZM88.9211 76.953C100.89 76.953 110.627 86.7254 110.627 98.7386C110.627 102.598 109.573 106.209 107.836 109.383L121.48 123.014C123.527 125.068 123.527 128.367 121.48 130.421L120.55 131.355C119.495 132.413 118.192 132.911 116.828 132.911C115.464 132.911 114.099 132.413 113.107 131.355L99.5263 117.723C96.363 119.528 92.7666 120.524 88.9214 120.524C76.9525 120.524 67.2158 110.753 67.2158 98.7386C67.2158 86.7255 76.9523 76.953 88.9214 76.953L88.9211 76.953ZM106.347 112.37L102.564 116.229L115.402 129.114C116.146 129.923 117.449 129.923 118.255 129.114L119.185 128.18C119.992 127.371 119.992 126.064 119.185 125.255L106.347 112.37ZM88.9211 80.1282C78.6888 80.1282 70.3788 88.469 70.3788 98.7389C70.3788 109.01 78.689 117.35 88.9211 117.35C99.1541 117.35 107.464 109.01 107.464 98.7389C107.464 88.4688 99.1541 80.1282 88.9211 80.1282ZM88.9211 85.4811C89.7895 85.4811 90.5954 86.1656 90.5954 87.0372C90.5954 87.9087 89.8519 88.6559 88.9835 88.6559C83.464 88.6559 78.9368 93.1998 78.9368 98.7388C78.9368 99.673 78.1923 100.358 77.324 100.358C76.4565 100.358 75.7121 99.6103 75.7121 98.7388C75.7121 91.4567 81.6035 85.481 88.9211 85.481L88.9211 85.4811ZM143.247 53.6752H46.6256C44.1454 53.7378 42.0983 55.7914 42.0983 58.3435V67.4314H147.772V58.2191C147.71 55.7298 145.726 53.7377 143.246 53.6752H143.247ZM47.8676 59.5264C48.2393 59.1524 48.7974 58.9663 49.2931 59.0906C49.4179 59.0906 49.5419 59.0906 49.6034 59.1524C49.6658 59.1524 49.7897 59.215 49.8513 59.2768C49.9761 59.3394 50.0376 59.402 50.1 59.4638C50.1615 59.5264 50.2239 59.5882 50.2854 59.7126C50.3478 59.7752 50.3478 59.8378 50.4094 59.9622C50.4094 60.0866 50.4718 60.1484 50.4718 60.2727C50.5342 60.398 50.5342 60.4597 50.5342 60.5841C50.5342 61.0199 50.3478 61.3939 50.0376 61.7045C49.7273 62.0158 49.3556 62.2029 48.9214 62.2029C48.4872 62.2029 48.1154 62.0158 47.9291 61.7671C47.5573 61.4557 47.4334 61.0825 47.4334 60.6468C47.4334 60.5224 47.4949 60.4597 47.4949 60.3354C47.4949 60.211 47.5573 60.1483 47.5573 60.024C47.5573 59.9622 47.6188 59.8378 47.6812 59.7752C47.7428 59.6508 47.8052 59.5882 47.8676 59.5264L47.8676 59.5264ZM62.1305 59.0906C62.3169 59.028 62.5647 59.028 62.7511 59.0906C62.875 59.0906 62.9989 59.0906 63.0613 59.1524C63.1228 59.1524 63.2468 59.215 63.3092 59.2768C63.4331 59.3394 63.4955 59.402 63.557 59.4638C63.6194 59.5264 63.681 59.5882 63.7434 59.7126C63.8049 59.7752 63.8049 59.8378 63.8673 59.9622C63.8673 60.0866 63.9297 60.1484 63.9297 60.2727C63.9912 60.398 63.9912 60.4597 63.9912 60.5841C63.9912 60.8329 63.9297 61.0199 63.8673 61.2069C63.7434 61.3939 63.681 61.5801 63.4955 61.7045C63.1853 62.0158 62.8126 62.2029 62.3793 62.2029C61.9451 62.2029 61.5725 62.0158 61.387 61.7045C61.0768 61.3939 60.8904 61.0199 60.8904 60.5841C60.8904 60.4597 60.9528 60.398 60.9528 60.2727C60.9528 60.1484 60.9528 60.0866 61.0144 59.9622C61.0144 59.8996 61.0768 59.7752 61.1383 59.7126C61.2007 59.5882 61.2622 59.5264 61.3246 59.4638C61.387 59.402 61.5109 59.3394 61.5725 59.2768C61.6349 59.2768 61.6964 59.215 61.8203 59.1524C61.9451 59.1524 62.0067 59.0906 62.1306 59.0906H62.1305ZM55.4332 59.0906C55.6186 59.028 55.8674 59.028 56.0528 59.0906C56.1776 59.0906 56.3016 59.0906 56.3631 59.1524C56.4255 59.1524 56.5494 59.215 56.6109 59.2768C56.7357 59.3394 56.7973 59.402 56.8597 59.4638C56.9212 59.5264 56.9836 59.5882 57.0451 59.7126C57.1075 59.7752 57.1075 59.8378 57.169 59.9622C57.169 60.0866 57.2314 60.1484 57.2314 60.2727C57.2938 60.398 57.2938 60.4597 57.2938 60.5841C57.2938 60.8329 57.2314 61.0199 57.169 61.2069C57.0451 61.3939 56.9212 61.5801 56.7973 61.7045C56.487 62.0158 56.1153 62.2029 55.6811 62.2029C55.2469 62.2029 54.8127 62.0158 54.7512 61.7045C54.3785 61.3939 54.2546 61.0199 54.2546 60.5841L54.2555 60.1898C54.259 60.1139 54.2704 60.0548 54.317 59.9622C54.317 59.8996 54.3785 59.7752 54.4409 59.7126C54.5025 59.5882 54.5649 59.5264 54.6273 59.4638C54.6888 59.402 54.8127 59.3394 54.8751 59.2768C54.9367 59.2768 54.9991 59.215 55.123 59.1524C55.2469 59.1524 55.3709 59.0906 55.4332 59.0906H55.4332Z" fill="#EFDBFE"/>
<g filter="url(#filter4_d_623_3682)">
<circle cx="382" cy="95" r="75" transform="rotate(-90 382 95)" fill="#965FC1"/>
</g>
<path d="M341.256 100.83C340.301 100.83 339.525 100.055 339.525 99.1V68.7819C339.525 67.8269 340.301 67.0518 341.256 67.0518H430.566C431.522 67.0518 432.298 67.8269 432.298 68.7819V90.4545C432.298 91.4095 431.522 92.1847 430.566 92.1847C429.611 92.1847 428.836 91.4095 428.836 90.4545V70.5131H342.986V99.0996C342.986 100.055 342.211 100.83 341.256 100.83L341.256 100.83Z" fill="#EFDBFE"/>
<path d="M430.571 140.217H389.29C388.335 140.217 387.56 139.441 387.56 138.486C387.56 137.531 388.335 136.755 389.29 136.755H428.841V119.195C428.841 118.24 429.617 117.464 430.573 117.464C431.528 117.464 432.303 118.24 432.303 119.195V138.486C432.303 139.441 431.528 140.217 430.573 140.217L430.571 140.217Z" fill="#EFDBFE"/>
<path d="M432.369 116.079H415.577C410.767 116.079 406.849 112.168 406.849 107.35V100.817C406.849 96.0058 410.767 92.0889 415.577 92.0889H432.369C437.18 92.0889 441.097 96.0058 441.097 100.817V107.35C441.097 112.162 437.18 116.079 432.369 116.079ZM415.577 95.556C412.678 95.556 410.31 97.9169 410.31 100.824V107.358C410.31 110.259 412.67 112.626 415.577 112.626H432.369C435.27 112.626 437.636 110.265 437.636 107.358V100.824C437.636 97.9235 435.276 95.556 432.369 95.556H415.577Z" fill="#EFDBFE"/>
<path d="M414.116 65.5872C413.444 65.5872 412.808 65.1996 412.523 64.5418L408.633 55.5787L361.953 65.5452C361.018 65.7465 360.098 65.1511 359.897 64.2166C359.696 63.2821 360.292 62.3616 361.226 62.1612L409.29 51.8966C410.1 51.7233 410.909 52.1454 411.242 52.8991L415.699 63.1647C416.081 64.0433 415.679 65.0608 414.799 65.4418C414.579 65.5387 414.343 65.5872 414.115 65.5872L414.116 65.5872Z" fill="#EFDBFE"/>
<path d="M351.872 63.4258C351.277 63.4258 350.688 63.1146 350.37 62.5611C349.892 61.7301 350.176 60.6782 351.007 60.2002L390.565 37.3797C391.354 36.9297 392.357 37.158 392.863 37.9127L400.553 49.3196C401.086 50.1152 400.878 51.1886 400.082 51.7214C399.293 52.2544 398.213 52.0466 397.68 51.2509L390.897 41.179L352.737 63.1907C352.467 63.35 352.169 63.4255 351.872 63.4255L351.872 63.4258Z" fill="#EFDBFE"/>
<path d="M382.653 152.849H375.565C374.873 152.849 374.25 152.44 373.973 151.803L372.055 147.346C368.692 147.955 360.102 149.138 353.208 146.868L349.81 152.066C349.491 152.558 348.944 152.848 348.363 152.848H342.327C341.386 152.848 340.617 152.101 340.597 151.159L340.375 141.725C337.592 139.586 327.051 131.439 324.731 129.127C321.645 126.047 322.434 119.611 322.531 118.884C322.648 118.025 323.382 117.388 324.247 117.388L328.435 117.395C328.504 117.395 328.573 117.402 328.643 117.409C328.58 117.395 330.546 117.298 333.183 113.159C334.077 111.761 334.402 110.556 334.16 109.573C333.889 108.48 332.969 107.934 332.934 107.912C332.27 107.525 331.917 106.743 332.097 105.996C332.415 104.687 333.924 102.473 337.593 102.473C341.461 102.473 346.272 108.826 347.656 110.778C348.211 111.56 348.023 112.639 347.248 113.194C346.466 113.747 345.387 113.561 344.832 112.786C342.535 109.546 338.99 105.94 337.593 105.94C336.955 105.94 336.499 106.05 336.18 106.189C336.707 106.791 337.226 107.608 337.502 108.674C338.015 110.633 337.543 112.764 336.104 115.029C332.511 120.677 329.279 120.919 328.366 120.87H325.839C325.77 122.954 326.053 125.577 327.175 126.698C329.141 128.664 338.471 135.933 343.13 139.496C343.545 139.815 343.794 140.307 343.808 140.832L344.009 149.408H347.414L351.055 143.836C351.512 143.137 352.398 142.867 353.166 143.186C360.843 146.376 372.575 143.733 372.692 143.705C373.502 143.518 374.34 143.941 374.672 144.708L376.693 149.401H380.908V139.89C380.908 139.42 381.095 138.971 381.435 138.645C381.871 138.216 392.157 127.966 385.048 115.582C375.254 98.5271 351.366 108.784 350.355 109.228C349.483 109.615 348.458 109.214 348.071 108.342C347.683 107.47 348.085 106.445 348.957 106.057C349.233 105.933 376.699 94.0967 388.043 113.852C395.491 126.83 386.68 137.988 384.361 140.571V151.126C384.382 152.075 383.607 152.85 382.651 152.85L382.653 152.849Z" fill="#EFDBFE"/>
<g filter="url(#filter5_d_623_3682)">
<circle cx="643" cy="99" r="75" transform="rotate(-90 643 99)" fill="#965FC1"/>
</g>
<path d="M697.094 133.66H588.906C583.578 133.66 579.25 129.339 579.25 124.02V69.8898C579.25 64.5788 583.578 60.25 588.906 60.25H697.094C702.414 60.25 706.75 64.5791 706.75 69.8898V124.02C706.75 129.332 702.414 133.66 697.094 133.66ZM588.906 63.9623C585.63 63.9623 582.967 66.6212 582.967 69.8916V124.022C582.967 127.292 585.63 129.952 588.906 129.952H697.094C700.369 129.952 703.035 127.292 703.035 124.022V69.8916C703.035 66.6214 700.369 63.9623 697.094 63.9623H588.906Z" fill="#EFDBFE"/>
<path d="M704.893 120.598H581.109C580.087 120.598 579.25 119.771 579.25 118.744C579.25 117.723 580.079 116.889 581.109 116.889H704.893C705.916 116.889 706.75 117.716 706.75 118.744C706.75 119.764 705.923 120.598 704.893 120.598Z" fill="#EFDBFE"/>
<path d="M666.267 157.75H619.732C618.762 157.75 617.948 157.005 617.881 156.037C617.806 155.068 618.501 154.211 619.464 154.07C620.001 153.98 632.851 151.701 632.851 131.803C632.851 130.782 633.687 129.948 634.709 129.948C635.732 129.948 636.567 130.775 636.567 131.803C636.567 144.064 631.986 150.605 627.642 154.047H658.363C654.02 150.605 649.439 144.064 649.439 131.803C649.439 130.782 650.267 129.948 651.297 129.948C652.326 129.948 653.155 130.775 653.155 131.803C653.155 151.849 666.408 154.047 666.542 154.07C667.504 154.211 668.192 155.076 668.125 156.037C668.051 157.005 667.236 157.75 666.267 157.75H666.267Z" fill="#EFDBFE"/>
<line x1="589.25" y1="76.25" x2="619.25" y2="76.25" stroke="#EFDBFE" stroke-width="3"/>
<line x1="589.25" y1="83.75" x2="631.75" y2="83.75" stroke="#EFDBFE" stroke-width="3"/>
<line x1="589.25" y1="88.75" x2="631.75" y2="88.75" stroke="#EFDBFE" stroke-width="3"/>
<line x1="589.25" y1="93.75" x2="631.75" y2="93.75" stroke="#EFDBFE" stroke-width="3"/>
<line x1="589.25" y1="107.5" x2="644.25" y2="107.5" stroke="#EFDBFE" stroke-width="3"/>
<rect x="655.5" y="74" width="40" height="35" fill="#EFDBFE"/>
<g filter="url(#filter6_d_623_3682)">
<circle cx="916" cy="96" r="75" transform="rotate(-90 916 96)" fill="#965FC1"/>
</g>
<g clip-path="url(#clip0_623_3682)">
<path d="M914.027 64.1198C914.139 64.0781 914.263 64.0779 914.375 64.1193L972.478 85.5553C972.912 85.7153 972.914 86.3282 972.482 86.4919L914.379 108.492C914.265 108.536 914.138 108.536 914.023 108.492L856.485 86.4914C856.054 86.3267 856.057 85.7167 856.489 85.5558L914.027 64.1198Z" stroke="#EFDBFE" stroke-width="3"/>
<path d="M951.979 118.307L952.311 119.77H952.311L951.979 118.307ZM931.042 123.066L931.375 124.528L931.042 123.066ZM897.356 123.066L897.023 124.528L897.356 123.066ZM876.419 118.307L876.752 116.845H876.752L876.419 118.307ZM953.592 92.1963V114.407H956.592V92.1963H953.592ZM874.806 114.407V92.1963H871.806V114.407H874.806ZM951.646 116.845L930.71 121.603L931.375 124.528L952.311 119.77L951.646 116.845ZM897.688 121.603L876.752 116.845L876.087 119.77L897.023 124.528L897.688 121.603ZM930.71 121.603C919.841 124.073 908.557 124.073 897.688 121.603L897.023 124.528C908.33 127.098 920.068 127.098 931.375 124.528L930.71 121.603ZM871.806 114.407C871.806 116.975 873.583 119.201 876.087 119.77L876.752 116.845C875.613 116.586 874.806 115.574 874.806 114.407H871.806ZM953.592 114.407C953.592 115.574 952.785 116.586 951.646 116.845L952.311 119.77C954.815 119.201 956.592 116.975 956.592 114.407H953.592Z" fill="#EFDBFE"/>
<line x1="970.843" y1="85.999" x2="970.843" y2="105.826" stroke="#EFDBFE" stroke-width="3"/>
<circle cx="971" cy="107" r="5" fill="#EFDBFE"/>
<line x1="967" y1="106" x2="967" y2="115.051" stroke="#EFDBFE" stroke-width="2"/>
<line x1="968.6" y1="107.6" x2="968.6" y2="116.651" stroke="#EFDBFE" stroke-width="2"/>
<line x1="970.2" y1="109.2" x2="970.2" y2="118.251" stroke="#EFDBFE" stroke-width="2"/>
<line x1="972" y1="109" x2="972" y2="118" stroke="#EFDBFE" stroke-width="2"/>
<line x1="974" y1="107" x2="974" y2="116.051" stroke="#EFDBFE" stroke-width="2"/>
<line x1="975.5" y1="106" x2="975.5" y2="115.051" stroke="#EFDBFE"/>
<line x1="914.621" y1="82.632" x2="970.632" y2="87.3787" stroke="#EFDBFE" stroke-width="3" stroke-linecap="round"/>
</g>
<defs>
<filter id="filter0_d_623_3682" x="158.293" y="52.1201" width="192.534" height="57.147" filterUnits="userSpaceOnUse" color-interpolation-filters="sRGB">
<feFlood flood-opacity="0" result="BackgroundImageFix"/>
<feColorMatrix in="SourceAlpha" type="matrix" values="0 0 0 0 0 0 0 0 0 0 0 0 0 0 0 0 0 0 127 0" result="hardAlpha"/>
<feOffset/>
<feGaussianBlur stdDeviation="5"/>
<feComposite in2="hardAlpha" operator="out"/>
<feColorMatrix type="matrix" values="0 0 0 0 0.8491 0 0 0 0 0.736648 0 0 0 0 0.902018 0 0 0 1 0"/>
<feBlend mode="normal" in2="BackgroundImageFix" result="effect1_dropShadow_623_3682"/>
<feBlend mode="normal" in="SourceGraphic" in2="effect1_dropShadow_623_3682" result="shape"/>
</filter>
<filter id="filter1_d_623_3682" x="684.293" y="57.1201" width="192.534" height="57.147" filterUnits="userSpaceOnUse" color-interpolation-filters="sRGB">
<feFlood flood-opacity="0" result="BackgroundImageFix"/>
<feColorMatrix in="SourceAlpha" type="matrix" values="0 0 0 0 0 0 0 0 0 0 0 0 0 0 0 0 0 0 127 0" result="hardAlpha"/>
<feOffset/>
<feGaussianBlur stdDeviation="5"/>
<feComposite in2="hardAlpha" operator="out"/>
<feColorMatrix type="matrix" values="0 0 0 0 0.8491 0 0 0 0 0.736648 0 0 0 0 0.902018 0 0 0 1 0"/>
<feBlend mode="normal" in2="BackgroundImageFix" result="effect1_dropShadow_623_3682"/>
<feBlend mode="normal" in="SourceGraphic" in2="effect1_dropShadow_623_3682" result="shape"/>
</filter>
<filter id="filter2_d_623_3682" x="421.293" y="108.853" width="192.534" height="57.147" filterUnits="userSpaceOnUse" color-interpolation-filters="sRGB">
<feFlood flood-opacity="0" result="BackgroundImageFix"/>
<feColorMatrix in="SourceAlpha" type="matrix" values="0 0 0 0 0 0 0 0 0 0 0 0 0 0 0 0 0 0 127 0" result="hardAlpha"/>
<feOffset/>
<feGaussianBlur stdDeviation="5"/>
<feComposite in2="hardAlpha" operator="out"/>
<feColorMatrix type="matrix" values="0 0 0 0 0.8491 0 0 0 0 0.736648 0 0 0 0 0.902018 0 0 0 1 0"/>
<feBlend mode="normal" in2="BackgroundImageFix" result="effect1_dropShadow_623_3682"/>
<feBlend mode="normal" in="SourceGraphic" in2="effect1_dropShadow_623_3682" result="shape"/>
</filter>
<filter id="filter3_d_623_3682" x="0" y="1" width="190" height="190" filterUnits="userSpaceOnUse" color-interpolation-filters="sRGB">
<feFlood flood-opacity="0" result="BackgroundImageFix"/>
<feColorMatrix in="SourceAlpha" type="matrix" values="0 0 0 0 0 0 0 0 0 0 0 0 0 0 0 0 0 0 127 0" result="hardAlpha"/>
<feOffset/>
<feGaussianBlur stdDeviation="10"/>
<feComposite in2="hardAlpha" operator="out"/>
<feColorMatrix type="matrix" values="0 0 0 0 0.370833 0 0 0 0 0.370833 0 0 0 0 0.370833 0 0 0 0.25 0"/>
<feBlend mode="normal" in2="BackgroundImageFix" result="effect1_dropShadow_623_3682"/>
<feBlend mode="normal" in="SourceGraphic" in2="effect1_dropShadow_623_3682" result="shape"/>
</filter>
<filter id="filter4_d_623_3682" x="287" y="0" width="190" height="190" filterUnits="userSpaceOnUse" color-interpolation-filters="sRGB">
<feFlood flood-opacity="0" result="BackgroundImageFix"/>
<feColorMatrix in="SourceAlpha" type="matrix" values="0 0 0 0 0 0 0 0 0 0 0 0 0 0 0 0 0 0 127 0" result="hardAlpha"/>
<feOffset/>
<feGaussianBlur stdDeviation="10"/>
<feComposite in2="hardAlpha" operator="out"/>
<feColorMatrix type="matrix" values="0 0 0 0 0.370833 0 0 0 0 0.370833 0 0 0 0 0.370833 0 0 0 0.25 0"/>
<feBlend mode="normal" in2="BackgroundImageFix" result="effect1_dropShadow_623_3682"/>
<feBlend mode="normal" in="SourceGraphic" in2="effect1_dropShadow_623_3682" result="shape"/>
</filter>
<filter id="filter5_d_623_3682" x="548" y="4" width="190" height="190" filterUnits="userSpaceOnUse" color-interpolation-filters="sRGB">
<feFlood flood-opacity="0" result="BackgroundImageFix"/>
<feColorMatrix in="SourceAlpha" type="matrix" values="0 0 0 0 0 0 0 0 0 0 0 0 0 0 0 0 0 0 127 0" result="hardAlpha"/>
<feOffset/>
<feGaussianBlur stdDeviation="10"/>
<feComposite in2="hardAlpha" operator="out"/>
<feColorMatrix type="matrix" values="0 0 0 0 0.370833 0 0 0 0 0.370833 0 0 0 0 0.370833 0 0 0 0.25 0"/>
<feBlend mode="normal" in2="BackgroundImageFix" result="effect1_dropShadow_623_3682"/>
<feBlend mode="normal" in="SourceGraphic" in2="effect1_dropShadow_623_3682" result="shape"/>
</filter>
<filter id="filter6_d_623_3682" x="821" y="1" width="190" height="190" filterUnits="userSpaceOnUse" color-interpolation-filters="sRGB">
<feFlood flood-opacity="0" result="BackgroundImageFix"/>
<feColorMatrix in="SourceAlpha" type="matrix" values="0 0 0 0 0 0 0 0 0 0 0 0 0 0 0 0 0 0 127 0" result="hardAlpha"/>
<feOffset/>
<feGaussianBlur stdDeviation="10"/>
<feComposite in2="hardAlpha" operator="out"/>
<feColorMatrix type="matrix" values="0 0 0 0 0.370833 0 0 0 0 0.370833 0 0 0 0 0.370833 0 0 0 0.25 0"/>
<feBlend mode="normal" in2="BackgroundImageFix" result="effect1_dropShadow_623_3682"/>
<feBlend mode="normal" in="SourceGraphic" in2="effect1_dropShadow_623_3682" result="shape"/>
</filter>
<clipPath id="clip0_623_3682">
<rect width="122" height="120" fill="white" transform="translate(855 36)"/>
</clipPath>
</defs>
</svg>
