<svg width="27" height="27" viewBox="0 0 27 27" fill="none" xmlns="http://www.w3.org/2000/svg">
<path d="M24.9122 6.70919C20.9922 0.665816 12.9888 -1.13086 6.7821 2.62583C0.738719 6.38253 -1.2213 14.5493 2.69873 20.5926L3.0254 21.0826L1.71873 25.9827L6.61876 24.676L7.10877 25.0027C9.23212 26.146 11.5188 26.7993 13.8055 26.7993C16.2555 26.7993 18.7055 26.146 20.8289 24.8393C26.8723 20.9193 28.6689 12.9159 24.9122 6.70919ZM21.4822 19.286C20.8289 20.266 20.0122 20.9193 18.8689 21.0826C18.2155 21.0826 17.3988 21.4093 14.1322 20.1026C11.3555 18.7959 9.06878 16.6726 7.43544 14.2226C6.45543 13.0792 5.96543 11.6092 5.80209 10.1392C5.80209 8.83254 6.2921 7.6892 7.10877 6.87253C7.43544 6.54586 7.76211 6.38253 8.08878 6.38253H8.90545C9.23212 6.38253 9.55879 6.38253 9.72212 7.03586C10.0488 7.85254 10.8655 9.81255 10.8655 9.97589C11.0288 10.1392 11.0288 10.4659 10.8655 10.6292C11.0288 10.9559 10.8655 11.2826 10.7021 11.4459C10.5388 11.6092 10.3755 11.9359 10.2121 12.0992C9.88546 12.2626 9.72212 12.5892 9.88546 12.9159C10.5388 13.8959 11.3555 14.8759 12.1721 15.6926C13.1521 16.5093 14.1322 17.1626 15.2755 17.6526C15.6022 17.8159 15.9288 17.8159 16.0922 17.4893C16.2555 17.1626 17.0722 16.3459 17.3988 16.0193C17.7255 15.6926 17.8889 15.6926 18.2155 15.8559L20.8289 17.1626C21.1555 17.3259 21.4822 17.4893 21.6455 17.6526C21.8089 18.1426 21.8089 18.7959 21.4822 19.286Z" fill="#C69EEE"/>
</svg>
